<?xml version="1.0" encoding="utf-8"?>
<!-- Generator: Adobe Illustrator 26.0.0, SVG Export Plug-In . SVG Version: 6.00 Build 0)  -->
<svg version="1.1" id="Capa_1" xmlns="http://www.w3.org/2000/svg" xmlns:xlink="http://www.w3.org/1999/xlink" x="0px" y="0px"
	 viewBox="0 0 150 150" style="enable-background:new 0 0 150 150;" xml:space="preserve">
<style type="text/css">
	.st0{fill:#FFFFFF;}
</style>
<g>
	<path class="st0" d="M121.82,53.05c3.08,0.12,4.98,0.42,5.05,0.44c0.22,0.03,0.41,0.11,0.59,0.22
		c-2.18-8.64-10.02-15.06-19.33-15.06h-86.2v52.76c0,4.88,1.76,9.34,4.68,12.81c0.5,0.02,1.19,0.03,2.04,0.03
		c0.52,0,1.12-0.02,1.76-0.04c0.89-0.02,1.63,0.65,1.68,1.53v0.03c0.04,0.89-0.66,1.65-1.56,1.68c-0.15,0.01-0.32,0.01-0.46,0.02
		c3.31,2.44,7.39,3.88,11.82,3.88h86.19V58.59c0-0.86-0.06-1.7-0.16-2.53c-0.3,0.41-0.78,0.65-1.3,0.65c-0.09,0-0.18,0-0.26-0.02
		c-0.02-0.01-0.89-0.15-2.41-0.27c-0.63-0.06-1.39-0.1-2.24-0.13c-0.88-0.03-1.58-0.77-1.56-1.66v-0.02
		C120.17,53.71,120.91,53.01,121.82,53.05z M93.66,52.76c0.58-0.68,1.61-0.75,2.29-0.17c1.62,1.4,3.08,2.96,4.36,4.65
		c-0.04-0.73,0.41-1.42,1.14-1.64c3.19-0.98,6.58-1.69,10.07-2.12c0.88-0.11,1.7,0.53,1.81,1.41c0,0.01,0,0.01,0,0.02
		c0.1,0.88-0.54,1.69-1.42,1.79c-3.3,0.41-6.5,1.08-9.51,2c-0.16,0.05-0.32,0.06-0.48,0.06c-0.22,0-0.44-0.05-0.63-0.14
		c0.41,0.6,0.8,1.23,1.16,1.86c0.45,0.78,0.18,1.77-0.6,2.22c-0.02,0.01-0.02,0.02-0.04,0.02c-0.24,0.14-0.5,0.19-0.76,0.19
		c-0.57,0-1.11-0.29-1.41-0.82c-0.67-1.17-1.42-2.28-2.25-3.33c-1.06-1.35-2.26-2.6-3.56-3.73c-0.67-0.58-0.76-1.58-0.19-2.26
		C93.64,52.78,93.65,52.76,93.66,52.76z M71.16,82.91c-0.02-0.32,0.06-0.64,0.25-0.93c0.75-1.17,1.48-2.39,2.16-3.65
		c0.93-1.73,1.95-3.4,3.04-4.97c0.52-0.73,1.53-0.91,2.26-0.4c0.01,0.01,0.02,0.02,0.02,0.02c0.71,0.52,0.88,1.52,0.37,2.24
		c-1.02,1.46-1.98,3.03-2.85,4.64c-0.1,0.19-0.19,0.37-0.3,0.55c-0.63,1.14-1.3,2.26-1.99,3.33c-0.31,0.48-0.83,0.74-1.36,0.74
		c-0.3,0-0.61-0.08-0.88-0.26c-0.01-0.01-0.02-0.01-0.02-0.02C71.43,83.91,71.17,83.41,71.16,82.91z M83.35,67.89
		c-0.6-0.67-0.55-1.69,0.11-2.29c2.55-2.3,5.4-4.31,8.46-6c0.79-0.43,1.77-0.15,2.21,0.64c0.01,0.01,0.01,0.02,0.01,0.02
		c0.41,0.78,0.13,1.75-0.65,2.18c-2.85,1.57-5.49,3.43-7.85,5.56c-0.31,0.28-0.7,0.42-1.09,0.42c-0.44,0-0.86-0.18-1.18-0.52
		C83.37,67.9,83.36,67.89,83.35,67.89z M75.48,46.78c0.03-0.89,0.75-1.59,1.67-1.57c3.46,0.12,6.83,0.82,10.03,2.07
		c0.84,0.33,1.25,1.27,0.92,2.1c-0.01,0.02-0.01,0.03-0.02,0.04c-0.25,0.62-0.85,0.99-1.49,0.99c-0.19,0-0.4-0.03-0.59-0.11
		c-2.86-1.13-5.87-1.75-8.95-1.85c-0.88-0.03-1.57-0.75-1.57-1.63V46.78z M57.9,51.26c2.77-2.07,5.83-3.64,9.12-4.68
		c0.84-0.27,1.76,0.2,2.03,1.06c0,0.02,0.01,0.02,0.01,0.04c0.24,0.84-0.23,1.73-1.07,2c-2.92,0.92-5.66,2.32-8.13,4.17
		c-0.29,0.22-0.63,0.32-0.97,0.32c-0.48,0-0.96-0.21-1.27-0.62c-0.02-0.01-0.02-0.02-0.03-0.03C57.04,52.82,57.18,51.81,57.9,51.26z
		 M46.7,68.06c0.84-3.34,2.25-6.49,4.17-9.36c0.5-0.75,1.5-0.94,2.25-0.45c0.01,0.01,0.02,0.02,0.03,0.02
		c0.72,0.51,0.9,1.49,0.41,2.23c-1.71,2.56-2.96,5.37-3.72,8.34c-0.19,0.74-0.85,1.23-1.57,1.23c-0.11,0-0.24-0.02-0.36-0.04
		c-0.02,0-0.02-0.01-0.04-0.01C47,69.81,46.48,68.92,46.7,68.06z M47.36,76.5h0.04c0.88-0.06,1.64,0.6,1.72,1.48
		c0.27,3.07,1.06,6.04,2.34,8.83c0.37,0.8,0.03,1.75-0.76,2.13c-0.01,0.01-0.02,0.02-0.04,0.02c-0.22,0.11-0.45,0.15-0.67,0.15
		c-0.62,0-1.2-0.35-1.48-0.94c-1.43-3.13-2.31-6.46-2.62-9.9C45.81,77.37,46.47,76.58,47.36,76.5z M50.58,103.19
		c-3.13,1.27-6.44,2.28-9.85,3c-0.11,0.02-0.23,0.04-0.33,0.04c-0.75,0-1.43-0.53-1.59-1.29v-0.02c-0.18-0.87,0.39-1.71,1.26-1.9
		c3.22-0.68,6.35-1.63,9.29-2.82c0.83-0.34,1.76,0.06,2.1,0.87c0.01,0.01,0.02,0.02,0.02,0.02
		C51.81,101.9,51.41,102.85,50.58,103.19z M64.71,101.95c-0.28,0.57-0.85,0.9-1.45,0.9c-0.24,0-0.49-0.06-0.72-0.18
		c-2.22-1.12-4.3-2.49-6.18-4.12c-0.72-0.61-1.41-1.27-2.07-1.95c-0.63-0.64-0.61-1.67,0.03-2.3c0.01-0.01,0.02-0.02,0.03-0.02
		c0.65-0.59,1.66-0.57,2.26,0.06c0.44,0.45,0.89,0.89,1.36,1.3c2.68-1.78,5.17-3.83,7.41-6.11c0.63-0.63,1.63-0.65,2.27-0.04
		c0.01,0,0.02,0.01,0.02,0.02c0.64,0.63,0.65,1.66,0.02,2.3c-2.16,2.2-4.53,4.2-7.07,5.96c1.06,0.75,2.18,1.42,3.35,2
		c0.79,0.39,1.11,1.33,0.75,2.13C64.72,101.92,64.72,101.94,64.71,101.95z M82.56,105.19c-2.1,0.45-4.28,0.68-6.45,0.68
		c-1.26,0-2.52-0.07-3.77-0.23c-0.89-0.11-1.53-0.93-1.41-1.81c0-0.02,0.01-0.03,0.01-0.05c0.13-0.87,0.94-1.47,1.8-1.36
		c3.02,0.37,6.16,0.24,9.14-0.41c0.85-0.19,1.7,0.34,1.92,1.19c0.01,0.02,0.02,0.03,0.02,0.05C83.99,104.14,83.43,105,82.56,105.19z
		 M99.73,94.57c-2.17,2.69-4.75,4.97-7.68,6.78c-0.27,0.16-0.56,0.24-0.85,0.24c-0.54,0-1.07-0.28-1.38-0.77
		c-0.01-0.02-0.02-0.02-0.02-0.04c-0.44-0.75-0.19-1.73,0.55-2.19c2.61-1.62,4.92-3.66,6.85-6.06c0.56-0.69,1.55-0.81,2.25-0.27
		c0.01,0.01,0.02,0.02,0.03,0.02C100.18,92.85,100.29,93.88,99.73,94.57z M104.72,85.63c-0.24,0.67-0.86,1.09-1.53,1.09
		c-0.18,0-0.36-0.03-0.54-0.09c-0.02-0.01-0.02-0.01-0.04-0.02c-0.83-0.32-1.24-1.23-0.95-2.06c1.01-2.89,1.53-5.92,1.53-9.01
		c0-1.63-0.15-3.26-0.43-4.85c-0.16-0.86,0.4-1.69,1.26-1.87c0.02-0.01,0.03-0.02,0.05-0.02c0.88-0.15,1.73,0.43,1.88,1.31
		c0.32,1.78,0.49,3.6,0.49,5.43C106.45,79,105.86,82.4,104.72,85.63z"/>
	<path class="st0" d="M108.13,18.76H2.04v72.65c0,21.96,17.87,39.83,39.84,39.83h106.07V58.59
		C147.96,36.63,130.09,18.76,108.13,18.76z M134.16,117.44H41.88c-14.36,0-26.04-11.68-26.04-26.03V32.56h92.28
		c14.35,0,26.03,11.67,26.03,26.03V117.44z"/>
	<path class="st0" d="M100.38,57.65c0.06-0.02,0.11-0.04,0.18-0.06c-0.08-0.11-0.17-0.24-0.25-0.35c0,0.13,0.02,0.26,0.06,0.39
		C100.37,57.63,100.38,57.64,100.38,57.65z"/>
</g>
</svg>
