<?xml version="1.0" encoding="utf-8"?>
<!-- Generator: Adobe Illustrator 26.0.0, SVG Export Plug-In . SVG Version: 6.00 Build 0)  -->
<svg version="1.1" baseProfile="tiny" id="Capa_1" xmlns="http://www.w3.org/2000/svg" xmlns:xlink="http://www.w3.org/1999/xlink"
	 x="0px" y="0px" viewBox="0 0 1080 180" overflow="visible" xml:space="preserve">
<g>
	<path d="M13.51,40.17v-4.87c9.18,0.61,16.17,0.91,20.95,0.91c5.44,0,11.3-0.3,17.57-0.91c2.25,5.78,4.06,10.18,5.43,13.2
		c1.81,4.07,8.97,19.5,21.48,46.29c5.32,11.39,10.7,22.5,16.13,33.34l35.2-74.1c2.14-4.57,4.7-10.81,7.67-18.73
		c7.37,0.61,13.01,0.91,16.91,0.91c3.63,0,9.76-0.3,18.4-0.91v4.87c-1.65,0.44-2.89,0.74-3.71,0.91c-7.64,1.54-11.9,2.67-12.78,3.38
		c-1.43,1.1-2.14,3.88-2.14,8.33v1.07L154.28,80c0,32.88,0.14,52.84,0.41,59.87c0.05,1.48,0.48,2.58,1.28,3.3
		c0.8,0.72,5.48,1.9,14.06,3.55c0.71,0.11,1.79,0.36,3.22,0.74v4.87c-9.9-0.61-18.61-0.91-26.14-0.91c-7.7,0-16.8,0.3-27.3,0.91
		v-4.87c2.14-0.55,3.77-0.93,4.87-1.16c6.71-1.26,10.54-2.16,11.5-2.68c0.96-0.52,1.61-1.25,1.94-2.19
		c0.49-1.59,0.74-6.05,0.74-13.36V56.09c-5,9.9-16.29,33.73-33.86,71.5c-4.83,10.39-8.41,18.34-10.71,23.83h-4.7
		c-12.3-27.32-27.38-59.1-45.24-95.33l1.07,76.86c0,6.1,0.49,9.59,1.48,10.47c0.99,0.88,5.14,1.95,12.45,3.22
		c0.82,0.17,2.09,0.44,3.79,0.82v4.87c-9.51-0.61-17.21-0.91-23.09-0.91c-5.88,0-13.66,0.3-23.34,0.91v-4.87
		c1.59-0.44,2.78-0.71,3.55-0.82c7.26-1.43,11.32-2.67,12.2-3.71c1.32-1.54,2.01-5.3,2.06-11.3l0.41-18.56
		c0.27-16.93,0.41-33.34,0.41-49.23l-0.08-10.06c0-4.01-0.25-6.53-0.74-7.55c-0.49-1.02-1.29-1.74-2.39-2.19
		c-2.09-0.82-6.76-1.79-14.02-2.89C17.08,41,15.54,40.67,13.51,40.17z"/>
	<path d="M193.37,96.33l-5.36-0.58c1.1-5.72,1.87-11.41,2.31-17.07c10.7-4.84,20.36-7.26,28.98-7.26c3.73,0,7.11,0.54,10.13,1.61
		c3.02,1.07,5.41,2.56,7.16,4.45c1.76,1.9,3.09,4.16,3.99,6.8c0.91,2.64,1.36,6.84,1.36,12.62l-0.74,34.06
		c0,4.62,0.52,7.64,1.57,9.07c1.04,1.43,2.39,2.14,4.04,2.14c1.98,0,5.08-1.48,9.32-4.45l2.56,3.38
		c-7.75,6.93-11.99,10.61-12.7,11.05c-1.54,0.88-3.46,1.32-5.77,1.32c-3.57,0-6.34-0.89-8.29-2.68c-1.95-1.79-3.26-4.8-3.92-9.03
		c-6.6,5.11-11.49,8.34-14.68,9.69c-3.19,1.35-6.65,2.02-10.39,2.02c-6.1,0-11.02-1.86-14.76-5.57c-3.74-3.71-5.61-8.45-5.61-14.23
		c0-3.52,0.66-6.69,1.98-9.53c1.32-2.83,3.22-5.32,5.69-7.46c1.92-1.59,5.17-3.52,9.73-5.77c10.72-5.22,20.07-9.43,28.04-12.62
		c-0.27-7.75-1.56-12.89-3.87-15.42c-2.3-2.53-5.84-3.79-10.61-3.79c-4.5,0-8.35,1.39-11.56,4.16
		C198.76,86.04,195.9,90.4,193.37,96.33z M228.01,105.49c-14.35,6.43-23.02,11.12-26.02,14.06c-3,2.94-4.49,6.47-4.49,10.6
		c0,4.12,1.13,7.42,3.38,9.9c2.25,2.47,4.89,3.71,7.92,3.71c3.13,0,6.53-1.03,10.18-3.09c3.66-2.06,6.07-4.38,7.26-6.97
		c1.18-2.58,1.77-7.28,1.77-14.1V105.49z"/>
	<path d="M262.07,86.68v-4.62c10.25-2.58,18.99-6.13,26.23-10.64l2.14,1.57c-0.88,5.36-1.4,11.21-1.57,17.56
		c6.65-8.12,11.3-13.09,13.94-14.91c2.64-1.82,5.74-2.73,9.32-2.73c2.36,0,5,0.58,7.92,1.73c-1.21,5.63-2.2,11.38-2.97,17.24h-4.12
		c-0.49-2.64-1.32-4.55-2.47-5.73c-1.15-1.18-2.45-1.77-3.88-1.77c-2.2,0-4.56,1.02-7.09,3.05c-3.74,3.02-6.45,6.49-8.12,10.42
		c-1.68,3.93-2.52,9.49-2.52,16.68c0,12.74,0.36,21.3,1.07,25.7c0.27,1.65,1.03,2.94,2.27,3.87c1.24,0.93,5.13,2.14,11.67,3.62v4.62
		c-6.87-0.61-13.11-0.91-18.72-0.91c-4.67,0-12.4,0.3-23.17,0.91v-4.62c7.53-1.87,11.78-3.31,12.74-4.33
		c0.96-1.02,1.44-3.75,1.44-8.21l0.17-17.9c0-17.54-0.17-26.97-0.49-28.29c-0.55-2.25-2.08-3.38-4.59-3.38
		c-1.42,0-3.77,0.28-7.05,0.82C263.71,86.49,263,86.57,262.07,86.68z"/>
	<path d="M386.68,99.14l-5.53-0.41c-0.22-6.96-1.97-12.1-5.24-15.44c-3.27-3.34-7.74-5.01-13.4-5.01c-4.07,0-7.97,1.12-11.71,3.35
		c-3.74,2.23-6.67,5.86-8.78,10.9c-2.12,5.04-3.18,10.75-3.18,17.13c0,10.24,2.49,18.24,7.46,23.99c4.98,5.75,10.73,8.63,17.28,8.63
		c6.87,0,15.15-2.72,24.82-8.16l3.05,4.95c-8.63,6.38-15.81,10.86-21.52,13.44c-2.75,1.21-6.1,1.81-10.06,1.81
		c-9.62,0-17.4-2.8-23.34-8.41c-7.86-7.42-11.79-17.48-11.79-30.18c0-13.14,4.12-23.94,12.37-32.41c8.25-8.47,18.42-12.7,30.51-12.7
		c8.25,0,16.19,2.12,23.83,6.35c-0.39,1.87-0.94,4.29-1.65,7.26C388.88,88.11,387.83,93.09,386.68,99.14z"/>
	<path d="M397.07,46.27v-4.78c7.28-2.14,12.65-3.9,16.13-5.28c3.47-1.37,6.95-3.08,10.42-5.11l2.06,1.24
		c-0.49,4.34-0.85,10.06-1.07,17.15c-0.49,14.68-0.74,24.8-0.74,30.35c0,1.59,0.03,4.32,0.08,8.16l10.8-10.47
		c2.09-1.76,4.26-3.05,6.51-3.88c3.13-1.1,6.4-1.65,9.81-1.65c6.32,0,11.35,1.6,15.09,4.78c3.74,3.19,5.94,7.62,6.6,13.28
		c0.33,3.24,0.49,18.56,0.49,45.93c0,4.23,0.43,6.84,1.28,7.83c0.85,0.99,3.92,2.09,9.2,3.3c0.6,0.11,1.46,0.3,2.56,0.58v4.62
		c-9.84-0.61-16.82-0.91-20.95-0.91c-5.39,0-11.71,0.3-18.97,0.91v-4.62l9.98-3.05c0.6-0.27,1.14-0.71,1.61-1.32
		c0.47-0.6,0.81-1.59,1.03-2.97c0.22-1.04,0.36-4.01,0.41-8.91l0.58-23.75c0-7.7-0.48-12.85-1.44-15.46
		c-0.96-2.61-2.63-4.73-5.02-6.35c-2.39-1.62-5.11-2.43-8.18-2.43c-4.11,0-7.98,1.22-11.6,3.67c-3.62,2.45-6.13,5.53-7.53,9.24
		s-2.1,10.05-2.1,19.01c0,12.43,0.25,20.4,0.74,23.92c0.33,2.36,0.87,3.88,1.61,4.54c0.74,0.66,3.64,1.68,8.7,3.05
		c0.6,0.16,1.54,0.44,2.8,0.82v4.62c-8.08-0.61-14.74-0.91-19.96-0.91c-5.39,0-12.01,0.3-19.87,0.91v-4.62
		c1.15-0.33,2.03-0.58,2.64-0.74c4.95-1.32,7.76-2.34,8.45-3.05c0.69-0.71,1.14-3.16,1.36-7.34c0.33-6.87,0.49-20.23,0.49-40.08
		c0-30.51-0.39-46.65-1.15-48.41c-0.77-1.76-2.42-2.64-4.95-2.64C403.39,45.45,400.75,45.73,397.07,46.27z"/>
	<path d="M504.85,96.33l-5.36-0.58c1.1-5.72,1.87-11.41,2.31-17.07c10.7-4.84,20.36-7.26,28.98-7.26c3.73,0,7.11,0.54,10.13,1.61
		c3.02,1.07,5.41,2.56,7.16,4.45c1.76,1.9,3.09,4.16,3.99,6.8c0.91,2.64,1.36,6.84,1.36,12.62l-0.74,34.06
		c0,4.62,0.52,7.64,1.57,9.07c1.04,1.43,2.39,2.14,4.04,2.14c1.98,0,5.08-1.48,9.32-4.45l2.56,3.38
		c-7.75,6.93-11.99,10.61-12.7,11.05c-1.54,0.88-3.46,1.32-5.77,1.32c-3.57,0-6.34-0.89-8.29-2.68c-1.95-1.79-3.26-4.8-3.92-9.03
		c-6.6,5.11-11.49,8.34-14.68,9.69c-3.19,1.35-6.65,2.02-10.39,2.02c-6.1,0-11.02-1.86-14.76-5.57c-3.74-3.71-5.61-8.45-5.61-14.23
		c0-3.52,0.66-6.69,1.98-9.53c1.32-2.83,3.22-5.32,5.69-7.46c1.92-1.59,5.17-3.52,9.73-5.77c10.72-5.22,20.07-9.43,28.04-12.62
		c-0.27-7.75-1.56-12.89-3.87-15.42c-2.3-2.53-5.84-3.79-10.61-3.79c-4.5,0-8.35,1.39-11.56,4.16
		C510.24,86.04,507.38,90.4,504.85,96.33z M539.49,105.49c-14.35,6.43-23.02,11.12-26.02,14.06c-3,2.94-4.49,6.47-4.49,10.6
		c0,4.12,1.13,7.42,3.38,9.9c2.25,2.47,4.89,3.71,7.92,3.71c3.13,0,6.53-1.03,10.19-3.09c3.66-2.06,6.07-4.38,7.26-6.97
		c1.18-2.58,1.77-7.28,1.77-14.1V105.49z"/>
	<path d="M573.14,86.68V81.9c9.9-2.31,18.86-5.8,26.88-10.47l2.23,1.4c-0.77,4.67-1.24,9.48-1.4,14.43l10.47-10.39
		c1.76-1.54,3.82-2.75,6.18-3.63c3.24-1.21,6.62-1.81,10.14-1.81c7.86,0,13.8,2.61,17.81,7.83c2.69,3.46,4.04,9.43,4.04,17.9
		l-0.25,19.96c0,13.36,0.17,21.25,0.49,23.67c0.27,1.65,0.8,2.8,1.57,3.46c0.77,0.66,3.38,1.51,7.83,2.56
		c0.82,0.22,2.06,0.52,3.71,0.91v4.62c-6.5-0.61-12.29-0.91-17.35-0.91c-4.41,0-11.95,0.3-22.64,0.91v-4.62
		c6.42-1.87,10.03-3.13,10.83-3.79c0.8-0.66,1.29-1.73,1.45-3.22c0.6-5.44,0.91-13.77,0.91-24.99c0-11.99-0.25-19.22-0.74-21.69
		c-0.77-3.63-2.39-6.43-4.87-8.41c-2.47-1.98-5.44-2.97-8.91-2.97c-3.63,0-7.2,1.06-10.72,3.18c-3.52,2.12-6.12,4.96-7.79,8.54
		c-1.68,3.57-2.52,8.85-2.52,15.83c0,19.79,0.41,30.5,1.24,32.12c0.82,1.62,4.04,3.15,9.65,4.58c0.71,0.16,1.76,0.44,3.13,0.82v4.62
		c-7.38-0.61-13.58-0.91-18.59-0.91c-4.85,0-12.07,0.3-21.65,0.91v-4.62c6.53-1.54,10.24-2.67,11.13-3.38
		c0.55-0.44,0.94-1.59,1.16-3.46c0.6-5.22,0.91-12.34,0.91-21.36c0-18.64-0.19-28.75-0.58-30.35c-0.61-2.31-2.23-3.46-4.87-3.46
		c-1.21,0-3.11,0.19-5.69,0.58C575.64,86.38,574.57,86.52,573.14,86.68z"/>
	<path d="M688.26,53.28h4.78l-1.9,21.03l22.84-0.25l0.66,1.31c-1.38,2.23-2.64,4.63-3.79,7.19c-6.49-0.29-13.06-0.48-19.71-0.58
		l-0.74,42.39v0.49c0,6.54,0.73,11.26,2.19,14.14c1.46,2.89,3.94,4.33,7.46,4.33c2.91,0,6.76-1.24,11.55-3.71l2.39,4.7
		c-5.99,3.74-10.56,6.2-13.69,7.38c-3.13,1.18-5.86,1.77-8.16,1.77c-3.63,0-6.71-0.95-9.24-2.85c-2.53-1.9-4.21-4.52-5.03-7.88
		c-0.49-1.87-0.74-7.59-0.74-17.15c0-10.23,0.3-24.77,0.91-43.63c-3.85,0.1-7.83,0.29-11.96,0.58v-4.45c4.62-2.08,8.62-4.93,12-8.55
		C681.46,65.94,684.85,60.52,688.26,53.28z"/>
	<path d="M719.6,85.78v-4.62c9.24-2.36,17.92-5.88,26.06-10.56l2.14,1.73c-1.1,11.66-1.65,28.18-1.65,49.56
		c0,10.01,0.25,16.16,0.74,18.47c0.33,1.54,0.91,2.65,1.73,3.34c0.82,0.69,3.68,1.75,8.58,3.18c0.6,0.16,1.51,0.44,2.72,0.82v4.62
		c-7.2-0.61-13.11-0.91-17.73-0.91c-2.8,0-10.34,0.3-22.6,0.91v-4.62c7.42-1.81,11.6-3.48,12.54-4.99c0.93-1.51,1.4-9.41,1.4-23.71
		l-0.08-17.57v-3.38c0-6.16-0.41-9.87-1.24-11.13c-0.82-1.26-2.14-1.9-3.96-1.9C727.1,85.04,724.22,85.28,719.6,85.78z
		 M740.13,30.94c2.42,0,4.47,0.84,6.14,2.51c1.68,1.68,2.51,3.73,2.51,6.14c0,2.36-0.84,4.4-2.51,6.1c-1.68,1.7-3.73,2.56-6.14,2.56
		c-2.36,0-4.39-0.85-6.06-2.56c-1.68-1.7-2.51-3.74-2.51-6.1c0-2.42,0.84-4.47,2.51-6.14C735.75,31.77,737.77,30.94,740.13,30.94z"
		/>
	<path d="M829.94,99.14l-5.53-0.41c-0.22-6.96-1.97-12.1-5.24-15.44c-3.27-3.34-7.74-5.01-13.4-5.01c-4.07,0-7.97,1.12-11.71,3.35
		c-3.74,2.23-6.67,5.86-8.78,10.9c-2.12,5.04-3.17,10.75-3.17,17.13c0,10.24,2.49,18.24,7.46,23.99c4.98,5.75,10.73,8.63,17.28,8.63
		c6.87,0,15.15-2.72,24.82-8.16l3.05,4.95c-8.63,6.38-15.81,10.86-21.52,13.44c-2.75,1.21-6.1,1.81-10.06,1.81
		c-9.62,0-17.4-2.8-23.34-8.41c-7.86-7.42-11.79-17.48-11.79-30.18c0-13.14,4.12-23.94,12.37-32.41c8.25-8.47,18.42-12.7,30.51-12.7
		c8.25,0,16.19,2.12,23.83,6.35c-0.39,1.87-0.94,4.29-1.65,7.26C832.14,88.11,831.1,93.09,829.94,99.14z"/>
	<path d="M854.93,96.33l-5.36-0.58c1.1-5.72,1.87-11.41,2.31-17.07c10.7-4.84,20.36-7.26,28.98-7.26c3.73,0,7.11,0.54,10.13,1.61
		c3.02,1.07,5.41,2.56,7.16,4.45c1.76,1.9,3.09,4.16,3.99,6.8c0.91,2.64,1.36,6.84,1.36,12.62l-0.74,34.06
		c0,4.62,0.52,7.64,1.57,9.07c1.04,1.43,2.39,2.14,4.04,2.14c1.98,0,5.08-1.48,9.32-4.45l2.56,3.38
		c-7.75,6.93-11.99,10.61-12.7,11.05c-1.54,0.88-3.46,1.32-5.77,1.32c-3.57,0-6.34-0.89-8.29-2.68c-1.95-1.79-3.26-4.8-3.92-9.03
		c-6.6,5.11-11.49,8.34-14.68,9.69c-3.19,1.35-6.65,2.02-10.39,2.02c-6.1,0-11.02-1.86-14.76-5.57c-3.74-3.71-5.61-8.45-5.61-14.23
		c0-3.52,0.66-6.69,1.98-9.53c1.32-2.83,3.22-5.32,5.69-7.46c1.92-1.59,5.17-3.52,9.73-5.77c10.72-5.22,20.07-9.43,28.04-12.62
		c-0.27-7.75-1.56-12.89-3.87-15.42c-2.3-2.53-5.84-3.79-10.61-3.79c-4.5,0-8.35,1.39-11.56,4.16
		C860.32,86.04,857.45,90.4,854.93,96.33z M889.57,105.49c-14.35,6.43-23.02,11.12-26.02,14.06c-3,2.94-4.49,6.47-4.49,10.6
		c0,4.12,1.13,7.42,3.38,9.9c2.25,2.47,4.89,3.71,7.92,3.71c3.13,0,6.53-1.03,10.19-3.09c3.66-2.06,6.07-4.38,7.26-6.97
		c1.18-2.58,1.77-7.28,1.77-14.1V105.49z"/>
</g>
<g>
	<path fill="#C4D200" d="M946.84,52.69h23.54l-11.15,63.16c-1.37,7.94-0.78,13.38,1.78,16.32c2.55,2.94,6.34,4.41,11.36,4.41
		c5.06,0,9.4-1.48,13-4.45c3.6-2.96,6.09-8.39,7.46-16.29l11.15-63.16h22.92l-10.88,61.65c-2.46,13.96-8.1,24.11-16.9,30.45
		c-8.81,6.34-18.84,9.51-30.11,9.51c-11.36,0-20.32-3.17-26.89-9.51c-6.57-6.34-8.62-16.49-6.16-30.45L946.84,52.69z"/>
	<path fill="#C4D200" d="M1045.78,52.69h23.61l-17.59,99.63h-23.61L1045.78,52.69z"/>
</g>
</svg>
