<?xml version="1.0" encoding="utf-8"?>
<!-- Generator: Adobe Illustrator 26.0.0, SVG Export Plug-In . SVG Version: 6.00 Build 0)  -->
<svg version="1.1" id="Capa_1" xmlns="http://www.w3.org/2000/svg" xmlns:xlink="http://www.w3.org/1999/xlink" x="0px" y="0px"
	 viewBox="0 0 1080 1080" style="enable-background:new 0 0 1080 1080;" xml:space="preserve">
<style type="text/css">
	.st0{fill:#FFFFFF;}
</style>
<g>
	<g>
		<path class="st0" d="M539.8,1026.9c-264.7,0.8-485.6-214.2-486.7-484.4C51.9,269.7,273.6,52.1,541.8,53.2
			c265.5,1,486.3,216.3,485.1,489.6C1025.7,812.7,805.4,1027.6,539.8,1026.9z M697,540.7c0.2-83.2-64.6-154.9-152.5-157.5
			C455.2,380.6,385,452,383.1,536.8c-1.8,85,65.3,158.8,154.2,160.2C628.9,698.3,696.9,624.7,697,540.7z M313.7,674.1
			c-46.1,26.6-91.8,53-137.9,79.6c1.1,2,2,3.6,2.9,5c20.7,33.9,45.7,64.4,74.9,91.4c20.8,19.3,43.3,36.5,67.7,51.1
			c1.9,1.1,3.8,2.1,6,3.2c26.5-46.3,53.1-91.8,79.2-138C367.7,743.2,337.1,712.6,313.7,674.1z M410.9,311.1
			c39.5-22.2,81.4-33.1,125.9-33.9c1.3-6.4,1.1-154.7-0.2-159.6c-72.8,0.9-141,19-205.1,55.2C357.9,219,384.2,264.7,410.9,311.1z
			 M173.1,331c-36.5,64.6-54.7,133-55.5,206.7c53.5,0.1,106.3,0.3,159.7,0c0.3-45.5,11.9-87.4,33.6-126.9
			C264.8,384.1,219.2,357.7,173.1,331z M327,175.6c-35,20.4-65.9,45.1-93.4,74c-22.1,23.3-41.4,48.8-57.5,76.5
			c4.2,3.7,133.9,78.5,138,79.5c11.2-18.7,24.5-35.9,40.1-51.4c15.6-15.6,33-29,52.2-40.6C379.8,267.5,353.6,221.8,327,175.6z
			 M962.5,543.4c-53.5,0-106.3,0-159.7,0c-0.5,45-11.8,86.9-33.7,126.1c46.3,26.6,92,52.9,138.2,79.4
			C943.3,684.8,961.6,616.7,962.5,543.4z M411,769.6c-26.7,46.4-53,92.1-79.4,137.9c41.8,23.7,85.7,39.6,132.2,48.1
			c24.2,4.4,48.6,6.8,73.4,7c0.1-2,0.3-3.4,0.3-4.9c0-49.7,0-99.5,0-149.2c0-1.7-0.3-3.4-0.5-5.2c-4.8-0.3-9.2-0.7-13.5-1
			c-15.2-0.8-30.3-3-45.1-6.5c-20.9-5-40.7-12.6-59.8-22.4C416.2,772,413.7,770.9,411,769.6z M311.1,669.6
			c-21.9-39.3-33.4-81.2-33.9-126.1c-53.4,0-106.2,0-159,0c-1.8,22.7,4,75.8,17.7,119.9c9.3,29.9,21.3,58.5,37.2,85.9
			C219.3,722.6,265,696.2,311.1,669.6z M749,907.2c-26.8-46.3-53.2-92-79.8-138.1c-39.6,22-81.5,33-126,33.9
			c-1.1,6.9-0.7,156,0.4,159.5C616.4,961.5,684.6,943.4,749,907.2z M766.5,406.7c46.2-26.6,91.8-53,138.1-79.7
			c-37.5-63.1-87.2-113.4-150.4-150.9c-26.9,46.2-53.4,91.9-80.1,137.9C712.8,337.3,743.5,367.7,766.5,406.7z M542.9,276.9
			c2.2,0.1,3.9,0.2,5.6,0.4c11,1,22,1.5,32.8,3.2c29.2,4.5,56.8,13.9,82.8,27.9c1.8,1,3.7,1.6,5.7,2.5c26.5-46,53.3-91.4,79.4-137.1
			c-17.7-14.5-82.2-39.1-126.3-48c-26.3-5.3-52.9-8.1-80-8.1C542.9,171,542.9,223.6,542.9,276.9z M904.4,753.8
			c-7.1-5.5-134.4-78.1-138.4-79.1C743,713,712,743.4,673.7,766.6c26.7,46.2,53.1,91.8,79.7,138C816.8,867,866.7,816.8,904.4,753.8z
			 M962.3,537.6c-0.1-41.5-6.4-81.8-18.4-121.2c-9-29.6-21-57.9-36.9-84.9c-46.1,26.6-91.7,52.9-137.8,79.5
			c10.4,19.7,19,39.9,24.8,61.2c5.8,21.3,8,43.2,8.9,65.4C856.3,537.6,909.1,537.6,962.3,537.6z M958.6,778.3
			c29.3-51.3,48.1-105.5,57.4-163.1c3.8-23.8,5.9-47.7,5.7-71.7c-6.4-1.1-50.7-0.6-53.9,0.6c-0.6,36.3-5.1,72.1-14.6,107.3
			c-9.4,35.1-23.4,68.4-41.1,100.2C927.8,760.7,942.9,769.3,958.6,778.3z M537.1,58.3c-83.9,0.9-161.9,21.7-235.3,63.1
			c9.1,15.8,17.9,31.2,26.8,46.6c7.2-3.8,13.9-7.3,20.6-10.8c40.3-20.4,82.9-33.6,127.5-40.3c17.8-2.7,35.7-4.2,53.7-4.2
			c2.2,0,4.4-0.4,6.6-0.6C537.1,94.1,537.1,76.5,537.1,58.3z M171,323.7c38.2-64.4,89.3-114.9,153.2-152.9
			c-9-15.7-17.8-31-26.7-46.4c-24,12.6-66.2,43.6-97.9,75.1c-33.9,33.6-69.1,83.9-74.4,97.8C140.3,306,155.4,314.7,171,323.7z
			 M955.9,297.4c-28.9-49.1-64.8-91.5-108.1-127.6c-20-16.7-41-31.8-63.9-44.7c-9.2,15.8-18,31-26.9,46.4
			c64.1,38.2,114.7,89.1,152.4,152.8C925.1,315.2,940.2,306.4,955.9,297.4z M542.9,112.5c74.7,0.6,144.2,19.4,209.4,56.3
			c9.1-15.6,17.9-30.9,27-46.6c-38.1-22-78-38.2-120-48.8c-38.1-9.7-76.7-14.8-116.4-15C542.9,76.5,542.9,94.1,542.9,112.5z
			 M543.2,967.8c-1,6.6-0.7,50.6,0.3,54.2c83.5-1.3,161.8-21.9,235.1-63.4c-9.2-15.8-18-31.1-27-46.6
			c-32.2,18.1-65.6,31.9-100.7,41.3C615.6,962.7,579.6,967.3,543.2,967.8z M912,328.7c12.1,21.9,22.4,43.8,30.6,66.7
			c8.1,22.8,14.4,46,18.6,69.8c4.2,23.9,5.9,48,6.6,72.3c18.2,0,35.8,0,53.3,0c2.9-14.3-4.4-76.1-13.6-113.6
			c-10.5-42.8-26.8-83.3-48.9-122C943,310.9,927.7,319.7,912,328.7z M783,955.8c45.4-26.4,84.6-59.4,118.9-98.2
			c20.4-23.1,38.4-47.9,53.9-74.9c-15.8-9-31.1-17.7-46.5-26.6c-38.3,64.2-89.2,115-153.1,153.1C765.2,924.9,773.9,940,783,955.8z
			 M121.8,301.4c-41.7,73.6-62.6,152-63.4,235.7c5.6,1,50.2,0.9,53.9-0.2c0.3-5.7,0.6-11.6,0.8-17.4c1-27.4,5.1-54.4,11.5-81
			c8.9-36.8,22.7-71.8,41-105c0.9-1.6,1.7-3.4,2.7-5.4C152.6,319.2,137.5,310.5,121.8,301.4z M536.9,1022c1.1-5.2,0.8-50.3-0.3-54
			c-1.5-0.1-3.1-0.2-4.7-0.3c-11.5-0.7-23-1.2-34.4-2.1c-20.7-1.6-41-5.4-61.1-10.4c-35.5-8.8-69.2-22.2-101.3-39.6
			c-1.9-1.1-4-2-6.2-3.1c-9,15.6-17.8,30.9-26.7,46.5C375.2,1000.2,453.3,1020.8,536.9,1022z M324.3,909.4
			c-64-38.1-115.1-88.8-153.3-152.8c-15.8,9.1-31,17.8-46.5,26.7c26.4,45,59,84.1,97.6,118.3c23.3,20.6,48.3,38.9,75.5,54.5
			C306.6,940.3,315.3,925,324.3,909.4z M168.4,752c-18.4-32.1-32.1-65.5-41.6-100.6c-9.5-35.3-14.2-71.3-14.6-108
			c-18.3,0-35.8,0-53.8,0c0,2.1-0.1,3.8,0,5.6c1.1,16.1,1.6,32.3,3.3,48.4c3.5,32.4,10.9,64.1,21.2,95c9.4,28.3,21.4,55.5,36,81.6
			c0.9,1.6,2,3.1,3.1,4.8C137.6,769.8,152.7,761,168.4,752z M315.6,413.7c-21.6,39.1-32.6,79.9-33.1,123.8c31.9,0,63.2,0,94.9,0
			c0.8-27.1,7.7-52.3,20.4-76.2C370.2,445.3,343.1,429.6,315.6,413.7z M282.9,543.3c-3.4,29.7,18,107.7,33.7,123.1
			c27-15.6,54.1-31.3,81.5-47c-13.1-24-19.9-49.2-20.7-76C345.5,543.3,314.3,543.3,282.9,543.3z M409.2,318.7
			c-14.2,7.1-35.7,23.8-51.5,39.7c-16.6,16.7-36.7,43.3-38.6,51.3c26.9,15.6,53.9,31.2,81.4,47.1c14.1-23.6,33.2-41.7,55.9-56.1
			C440.5,373,424.9,345.9,409.2,318.7z M318.4,671.3c23.1,37.9,52.9,67.9,90.8,90.7c15.9-27.6,31.5-54.8,47.4-82.4
			c-23.1-14.2-41.8-32.7-56-55.7C373.1,639.8,346.1,655.4,318.4,671.3z M702.6,537.3c6.4,1,91.4,0.7,94.6-0.2
			c3.3-30-15.1-98.4-33.1-122.9c-27.1,15.6-54.2,31.2-81.8,47.1C695.2,485.1,701.9,510.5,702.6,537.3z M542.9,377.3
			c27.1,1.1,52.6,7.7,76.3,20.8c16.1-27.7,31.8-54.8,47.7-82.1c-27.9-15.9-57.1-25.8-88.1-30.5c-11.8-1.8-23.6-3.2-35.8-2.5
			C542.9,314.5,542.9,345.5,542.9,377.3z M666.3,764.2c-15.8-27.4-31.5-54.5-47.1-81.6c-44.4,18.5-32.7,14.4-75.9,20.6
			c-0.9,4.4-0.7,90.7,0.2,93.9C570.5,801.1,638.8,782.9,666.3,764.2z M624,679.3c2.1,5.8,45,79.7,47.6,82.1
			c38.4-21.8,74.5-61.3,89.6-90.5c-27.2-15.7-54.4-31.3-81.8-46.9C665,647,646.8,665.3,624,679.3z M679.6,456.8
			c27.8-16,54.8-31.6,81.7-47.2c-10.2-26.3-63.9-80-90.2-90.5c-15.7,27.1-31.4,54.1-47.4,81.7C647.1,415,665.6,433.5,679.6,456.8z
			 M537.2,702.7c-27.3-0.7-52.4-7.6-76-20.4c-15.8,27.8-31.8,54.9-47.3,82.5c38.8,21.2,79.4,32.3,123.3,32.8
			C537.2,765.9,537.2,734.7,537.2,702.7z M537.1,377.4c0-31.9,0-63,0-94.7c-44.3,0.3-84.9,11.7-123.6,33
			c15.9,27.7,31.6,55,47.4,82.5C484.9,384.7,510.3,378.4,537.1,377.4z M702.6,543.3c-0.6,13.7-2.3,26.7-5.7,39.4
			c-3.3,12.9-8.9,24.9-14.6,36.7c21.1,13.3,77.6,45.2,82.3,46.4c18.5-27.7,37.6-100.5,32.1-122.5
			C765.7,543.3,734.5,543.3,702.6,543.3z"/>
		<path class="st0" d="M594.1,504.2c16.5-4.2,32.1-8.1,47.7-12c2.8,3.2,2.8,3.7-0.6,5.9c-7.4,4.9-14.9,9.7-22.4,14.6
			c-5.3,3.4-10.5,6.9-15.7,11.1c4.4,0.4,8.8,0.8,13.1,1.2c10.2,0.8,20.3,1.5,30.5,2.3c1.4,0.1,2.9,0.3,4.3,0.8
			c0.7,0.3,1.5,1.3,1.5,2.1c0,0.8-0.6,1.9-1.3,2.3c-1.4,0.7-3.1,1-4.6,1.4c-12.9,3.2-25.7,6.4-38.6,9.7c-1.1,0.3-2.1,0.7-3.8,1.3
			c1.4,0.7,2.2,1.3,3.2,1.7c12.8,5.5,25.5,11,38.3,16.6c1.8,0.8,4.6,1.1,3.8,4.1c-0.8,3-3.5,1.7-5.4,1.6c-9.9-0.7-19.7-1.6-29.5-2.4
			c-4.8-0.4-9.6-0.8-15.3-1.3c1.3,1.5,2.1,2.4,3,3.3c9.8,9,19.6,18,29.4,26.9c1.1,1,2.2,1.9,3,3.1c0.4,0.6,0.4,2,0,2.6
			c-0.4,0.7-1.7,1.3-2.4,1.1c-1.7-0.4-3.4-1.1-5-1.8c-11.7-5.2-23.4-10.4-35.1-15.5c-1.3-0.6-2.6-1.1-4.7-1.9c0.8,1.8,1.3,3,1.8,4
			c6.3,11.7,12.7,23.3,19,35c0.7,1.3,1.4,2.6,1.8,4c0.2,0.8,0,2.2-0.5,2.5c-0.8,0.5-2.2,0.7-3,0.3c-1.3-0.6-2.3-1.8-3.3-2.8
			c-9.7-9.1-19.4-18.1-29.1-27.2c-0.8-0.7-1.7-1.4-3.3-2.7c0.5,4.1,0.8,7.2,1.3,10.4c1.9,11.5,3.9,23,5.9,34.5
			c0.1,0.6,0.3,1.3,0.4,1.9c0.4,1.6,0,2.9-1.7,3.5c-1.8,0.7-2.7-0.5-3.5-1.7c-0.5-0.8-0.9-1.7-1.4-2.6
			c-6.1-11.3-12.1-22.5-18.2-33.8c-0.8-1.4-1.6-2.8-3-5.1c-0.5,1.9-1,3-1.2,4.1c-2.2,13.6-4.4,27.2-6.6,40.7c-0.1,0.8,0,1.7-0.5,2.4
			c-0.5,0.8-1.4,1.8-2.3,2c-1.5,0.5-2.5-0.5-2.8-2c-0.6-2.7-1-5.4-1.4-8.1c-2-12.1-3.9-24.3-5.9-36.4c-0.1-0.6-0.3-1.2-0.7-2.5
			c-0.9,1.2-1.5,1.8-1.9,2.5c-6.4,12-12.8,24-19.2,36c-0.7,1.3-1.4,2.6-2.4,3.6c-0.5,0.6-1.9,1-2.5,0.7c-0.8-0.4-1.8-1.5-1.9-2.4
			c-0.1-1.9,0.4-3.9,0.7-5.8c2.1-12.1,4.2-24.2,6.3-36.4c0.2-1.4,0.2-2.9,0.4-5c-1.4,1-2.3,1.5-3.1,2.2
			c-8.8,8.2-17.5,16.4-26.3,24.5c-1.9,1.8-3.8,3.5-5.9,5c-0.7,0.5-2.3,0.5-2.9,0c-0.7-0.5-1.1-2.1-0.8-2.9c0.7-2,1.8-3.8,2.8-5.6
			c5.8-10.7,11.7-21.3,17.5-32c0.7-1.3,1.3-2.6,2.4-4.8c-2.2,0.8-3.7,1.2-5.1,1.8c-11.7,5.2-23.4,10.3-35.1,15.5
			c-1.3,0.6-2.7,1.3-4.1,1.5c-1.1,0.1-2.5-0.4-3.3-1.2c-0.4-0.3,0.2-2.1,0.8-2.9c0.8-1.2,2-2.1,3.1-3.1c9.7-8.9,19.4-17.7,29-26.6
			c0.8-0.7,1.5-1.5,3.1-3.1c-17.2,1.4-33.4,2.7-49.4,4c-1.8-4-1.8-4.1,1.7-5.7c10.5-4.6,21-9.2,31.6-13.8c3.4-1.5,6.7-2.9,11-4.8
			c-3.2-0.9-5.5-1.7-7.8-2.2c-11.8-3-23.5-5.9-35.3-8.8c-1.6-0.4-3.2-0.8-4.5-1.6c-0.6-0.4-1-1.6-1-2.4c0-0.5,0.9-1.4,1.5-1.6
			c1.5-0.4,3.2-0.7,4.8-0.8c13.7-1.1,27.4-2.1,41.2-3.1c0.6,0,1.2-0.2,2.9-0.5c-3-2.1-5.2-3.6-7.4-5.1c-9.8-6.4-19.6-12.7-29.3-19
			c-1.8-1.2-3.5-2.7-5-3.9c1-3.2,2.5-3.4,5-2.8c13.5,3.5,27,6.9,40.5,10.2c1.2,0.3,2.4,0.5,4.9,1c-2.5-3.2-4.2-5.5-6-7.7
			c-7.2-9.2-14.5-18.3-21.6-27.5c-1.3-1.7-3.8-3.6-1.8-5.9c2.3-2.7,4.5,0.1,6.3,1.3c11.2,7.2,22.2,14.6,33.3,21.9
			c0.9,0.6,1.9,1.2,3.1,1.9c0.9-2.3-0.4-3.9-0.9-5.6c-4.1-12-8.2-23.9-12.4-35.8c-0.3-0.9-0.5-1.9-0.9-2.8c-0.7-1.8-0.4-3.3,1.3-4.2
			c1.7-0.9,2.7,0.5,3.6,1.6c3.9,5,7.7,10,11.6,15c4.9,6.3,9.7,12.6,14.6,18.8c0.6,0.7,1.3,1.4,2.7,3c0.1-2.7,0.3-4.4,0.3-6
			c0-12.6-0.1-25.3-0.1-37.9c0-1.9,0.2-3.8,0.3-5.6c4-0.9,4.2-1,5.2,2.1c3.8,11,7.5,22.1,11.2,33.1c1.1,3.3,2.3,6.5,3.4,9.8
			c0.4,0,0.7,0,1.1-0.1c1.7-5,3.5-9.9,5.2-14.9c3-8.7,5.9-17.5,8.9-26.2c0.7-1.9,0.8-5.2,3.8-4.7c3.2,0.6,2.5,3.8,2.5,6.1
			c0,12.3-0.2,24.6-0.3,36.9c0,2.1,0,4.1,0.9,6.5c0.8-0.9,1.7-1.7,2.5-2.6c8.1-10.5,16.2-21,24.4-31.5c0.7-0.9,1.4-1.9,2.3-2.5
			c0.8-0.5,2.5-1.2,2.9-0.8c0.7,0.8,1.2,2.2,1.2,3.3c-0.1,1.6-0.9,3.1-1.4,4.6c-4.1,11.9-8.3,23.8-12.4,35.8
			c-0.5,1.3-0.8,2.7-1.4,4.9c14.8-9,28.1-18.8,42.1-27.1c2.5,2,2.1,3.8,1,5.5c-0.9,1.5-2.1,2.9-3.2,4.3
			c-7.9,10.1-15.8,20.1-23.8,30.2C595.3,502,595,502.7,594.1,504.2z M525.4,449.8c-0.3,0-0.6,0.1-1,0.1c0,13,0,25.9,0,38.5
			c-3.2,1.6-4.5,0-5.9-1.7c-4.6-6-9.3-12.1-13.9-18.1c-2.6-3.3-5.2-6.6-7.8-9.9c-0.4,0.8-0.3,1.4-0.1,2c3.6,10.2,7.1,20.5,10.7,30.7
			c0.4,1.2,1,2.4,1.1,3.7c0.3,2.3-1.5,3.6-3.7,2.7c-1-0.4-2-1.1-2.9-1.7c-8.6-5.7-17.3-11.5-25.9-17.2c-0.8-0.6-1.8-1-2.6-1.5
			c1.8,3.5,4,6.5,6.3,9.5c4.8,6.1,9.6,12.3,14.3,18.4c0.7,0.9,1.4,1.8,1.9,2.8c0.8,1.7-0.2,3.3-2.1,3.4c-0.9,0-1.9-0.3-2.9-0.5
			c-10-2.6-20-5.1-30.1-7.7c-1-0.3-2.1-0.4-3.2-0.5c1,1.7,2.4,2.8,3.8,3.7c7.9,5.1,15.8,10.2,23.7,15.3c1.7,1.1,4.2,2.2,3.7,4.6
			c-0.5,2.5-3.4,2.1-5.3,2.3c-5,0.5-10,0.8-15,1.2c-6.2,0.5-12.4,1-18.6,1.4c-0.1,0.3-0.1,0.6-0.2,0.9c1.9,0.5,3.9,1.1,5.8,1.6
			c9.6,2.4,19.1,4.8,28.7,7.3c1.2,0.3,2.7,1.5,3.1,2.6c0.6,1.8-1.2,2.3-2.5,3c-1,0.5-2,1-3.1,1.5c-8.3,3.6-16.6,7.2-25,10.8
			c-1.5,0.7-3,1.5-4.5,2.3c1.3,0.7,2.2,0.8,3.2,0.7c9.2-0.8,18.4-1.7,27.6-2.6c2.1-0.2,4.2-0.3,6.3-0.2c2.3,0.1,3.1,1.7,2,3.6
			c-0.6,1-1.4,1.8-2.2,2.5c-3.1,2.9-6.2,5.7-9.3,8.5c-5.4,4.9-10.7,9.8-16.1,14.7c1.9,0,3.5-0.5,5.1-1.2c9.2-4,18.4-8.1,27.5-12.1
			c1.4-0.6,3-1.6,4.5-0.2c1.7,1.7,0.4,3.3-0.3,4.9c-0.3,0.7-0.8,1.4-1.2,2.1c-4.4,8-8.7,15.9-13,23.9c-0.7,1.4-1.4,2.8-2,4.2
			c1.6-0.4,2.8-1.2,3.8-2.1c6.1-5.6,12.1-11.3,18.2-16.9c1.9-1.8,3.8-3.5,5.9-5c2-1.4,3.9-0.4,4,2c0,1.1-0.3,2.2-0.5,3.3
			c-1.9,11.2-3.7,22.3-5.6,33.5c1.7-1.6,2.9-3.4,4-5.3c4.6-8.5,9.2-17.1,13.8-25.7c0.8-1.4,1.7-3.3,3.6-2.5c1.1,0.4,1.6,2.2,2.3,3.4
			c0.3,0.5,0.2,1.3,0.3,1.9c1.6,9.9,3.2,19.8,4.9,29.7c0.2,0.9,0.7,1.8,1,2.7c2.4-10.5,4.1-20.9,5.8-31.3c0.2-1.4,0.3-2.9,0.9-4.3
			c1.1-2.9,3.1-3.1,4.9-0.6c0.9,1.3,1.7,2.8,2.4,4.2c4.4,8.3,8.8,16.6,13.2,24.9c0.6,1,1.3,1.9,2.7,3.9c-0.2-1.8-0.3-2.5-0.4-3.1
			c-1.8-11-3.6-22-5.4-33.1c-0.2-1.4-0.6-3,1-3.9c1.8-1,3.1,0.1,4.3,1.3c3.7,3.4,7.4,6.8,11,10.2c5.1,4.7,10.1,9.4,15.2,14.1
			c0.3-0.2,0.5-0.4,0.8-0.5c-0.9-1.6-1.8-3.3-2.7-4.9c-4.7-8.7-9.4-17.4-14.2-26c-1.1-2-1.7-3.8,0.8-6.1
			c11.8,4.8,23.6,10.1,35.7,15.2c-0.5-1.2-1.1-2-1.9-2.7c-7.5-6.9-15.1-13.7-22.7-20.6c-0.8-0.8-1.8-1.4-2.5-2.3
			c-1.6-2.2-0.7-4.1,2-4.3c1.3-0.1,2.6,0,3.9,0.1c8.4,0.7,16.8,1.5,25.1,2.3c2.5,0.2,5,0.3,7.4,0.5c-0.6-1.3-1.3-1.8-2.1-2.2
			c-9.2-4-18.4-8-27.6-12.1c-2.1-0.9-5.4-1.4-5.1-4.4c0.3-2.6,3.4-2.4,5.5-3c8.8-2.3,17.6-4.4,26.3-6.7c1.9-0.5,3.8-1.2,5.7-1.9
			c-6.3-1.2-12.4-1.6-18.5-2.1c-5.6-0.5-11.3-1-16.9-1.5c-1.8-0.2-3.6-0.6-3.7-3.7c10.5-6.9,21.2-14,32-21.1c-1-0.6-1.6-0.5-2.3-0.4
			c-10.2,2.5-20.4,5.1-30.6,7.6c-1.7,0.4-3.4,0.6-4.8,0.8c-2.5-2.8-0.6-4.6,0.7-6.3c6.4-8.2,12.8-16.3,19.1-24.5
			c0.6-0.8,0.9-1.7,1.9-3.5c-2.5,1.6-4,2.6-5.5,3.5c-8.1,5.4-16.2,10.8-24.3,16.1c-3.1,2-3.2,1.9-6-0.8c4.1-12,8.3-24.1,12.4-36.2
			c-1.3,0.3-1.9,0.8-2.4,1.4c-6,7.7-11.9,15.4-17.8,23.1c-1.2,1.5-2.4,3.1-3.8,4.4c-1.8,1.7-3.8,0.9-4.2-1.5
			c-0.2-1.3-0.1-2.6-0.1-3.9c0-9.7,0.1-19.4,0.1-29.2c0-1.3-0.2-2.6-0.4-5c-0.8,1.6-1.2,2.1-1.4,2.7c-3.3,9.8-6.6,19.6-9.9,29.4
			c-0.7,2.1-1.3,4.4-3.6,5.6c-2.9-0.8-3.2-3.4-4-5.6c-3.4-9.8-6.6-19.6-9.9-29.4C526.1,451.1,525.7,450.4,525.4,449.8z"/>
		<path class="st0" d="M279.2,803.5c-5,5.1-9,9.3-13.1,13.4c-1.1,1.1-2.4,2.2-3.7,3.2c-1.6,1.1-3.1,0.7-4.4-0.6
			c-1.3-1.2-1.9-2.7-0.7-4.3c1-1.4,2.2-2.8,3.5-4.1c4-4,8.1-7.9,12.6-12.2c-1.4-1.5-2.4-2.7-3.4-3.8c-1.8-1.9-3.7-3.7-5.3-5.7
			c-1.5-1.9-1.2-4.1,0.5-5.6c1.8-1.6,3.4-0.7,4.8,0.5c1.9,1.6,3.6,3.2,5.3,5c1.1,1.2,1.9,2.6,2.6,3.6c14.3-14.2,27.8-27.6,41.7-41.3
			c-1.9,0-3.7,0-5.5,0c-2.6,0.1-5.2,0.3-7.8,0.4c-2.1,0.1-3.4-1-3.6-3.1c-0.2-2.1,0.4-3.9,2.8-4.4c0.8-0.2,1.6-0.3,2.4-0.4
			c7.1-0.4,14.2-0.9,21.3-1.2c5.1-0.2,6,0.6,5.7,5.8c-0.3,7-0.8,13.9-1.3,20.8c-0.1,1-0.2,1.9-0.4,2.9c-0.5,2-1.9,2.9-3.9,2.8
			c-2.2-0.1-3.3-1.4-3.3-3.4c0-2.7,0.2-5.5,0.3-8.2c0-1.7,0-3.5,0-6.4c-14.2,14.2-27.6,27.6-41.2,41.1c2.5,5,8.2,7.2,9.9,12.3
			c-2.9,4.4-4.3,4.8-7.9,1.4C284.3,809.5,282.1,806.7,279.2,803.5z"/>
		<path class="st0" d="M450.4,210.8c1-6.9,2-13.7,3.1-20.6c1.2-7.6,4.2-14.2,10.7-18.8c11.9-8.3,28.2-2.3,30.7,13.8
			c0.6,3.7-0.5,7.6-1.1,11.4c-0.2,1.2-1.1,2.3-1.9,3.3c-1.3,1.7-3,1.8-4.7,0.8c-1.6-0.9-2.1-2.3-1.6-4.2c0.7-2.8,1.6-5.7,1.6-8.5
			c0.1-5.6-3-10.3-7.6-11.9c-5.4-1.8-9.8-0.1-13.6,3.9c-2.9,3.1-4.2,6.9-4.8,10.9c-1.4,8.9-2.8,17.9-4.1,26.9
			c-1.1,6.9-2.1,13.8-3.2,20.6c-0.1,0.8-0.4,1.6-0.5,2.4c-0.3,2.2-1.3,3.7-3.6,3.8c-2.1,0.2-3.5-1.1-4.1-4
			c-0.8-4.3-1.4-8.6-2.1-12.9c-1.7-11.5-3.4-23.1-5.2-34.6c-0.4-2.5-1-5.1-1.8-7.5c-1.1-3.3-3-6.2-6-8c-4.1-2.6-8.6-3.4-12.8-0.6
			c-4.7,3.1-6.5,7.9-5.9,13.5c0.2,1.9,0.8,3.8,1.6,5.6c1,2.3,0,3.8-1.9,4.8c-1.9,1-3.7,0.1-4.6-1.5c-1.2-2.1-2.2-4.4-2.7-6.7
			c-2.4-11.8,5.1-23.2,16.6-24.9c8.3-1.2,15,2.2,19.7,9c2.2,3.2,3.8,7.2,4.7,11c1.4,6,2,12.1,3,18.2c0.3,1.6,0.7,3.1,1,4.6
			C449.7,210.8,450,210.8,450.4,210.8z"/>
		<path class="st0" d="M212.8,468c-4.5,3.1-8.7,6-13,8.9c-4.7,3.1-4.9,3.1-9.4,0c-3.4-2.3-6.7-4.6-10-6.9c-1-0.7-2.2-1.3-3.3-2
			c-5,3.4-9.8,6.7-14.6,9.9c-1.7,1.1-3.3,2.1-5.2,0.2c-1.8-1.8-2-3.6-0.3-5.5c0.6-0.7,1.4-1.3,2.2-1.8c4.5-3.2,9-6.3,13.5-9.4
			c4.4-3,4.7-3,9,0c4.4,3,8.8,6,13.4,9.1c4.5-3.1,8.9-6.1,13.3-9.1c4.4-3,4.5-3,9,0c4.3,2.9,8.5,5.9,13.1,9.1c3-2,6-4.1,9.1-6.1
			c2.4-1.6,4.9-3.1,7.4-4.7c1.9-1.2,3.4-0.6,4.5,1.1c1.1,1.8,1.5,3.7-0.6,5.1c-6.1,4.2-12.3,8.4-18.4,12.6c-1.7,1.2-3.1,0.5-4.4-0.4
			c-3.9-2.6-7.8-5.3-11.7-7.9C215.3,469.6,214.1,468.8,212.8,468z"/>
		<path class="st0" d="M177.3,445.1c-4.1,2.8-7.8,5.4-11.5,7.9c-1.3,0.9-2.7,1.9-4.1,2.6c-2.5,1.3-4.1,0.8-5.4-1.3
			c-1.3-2.2-0.2-3.7,1.3-5c0.2-0.2,0.5-0.4,0.8-0.6c5.1-3.5,10.2-6.9,15.2-10.5c2.8-2.1,5.2-1.9,7.9,0.1c4.4,3.2,9,6.2,13.7,9.5
			c4.4-3,8.6-6,12.9-8.9c4.6-3.2,5.3-3.2,9.9,0c3.2,2.2,6.4,4.3,9.5,6.7c2.3,1.8,4.1,1.8,6.5,0.1c3.4-2.5,6.9-4.8,10.4-7.2
			c0.9-0.6,1.9-1.3,2.9-1.7c1.9-0.7,3.6-0.3,4.6,1.6c0.9,1.7,1.1,3.4-0.8,4.7c-2,1.4-3.9,2.8-5.9,4.2c-3.5,2.4-6.9,4.8-10.4,7.2
			c-3.7,2.5-4.4,2.5-8.2-0.1c-4.4-3-8.8-6.1-13.5-9.3c-2.7,1.8-5.3,3.6-7.9,5.4c-2.1,1.5-4.3,2.9-6.4,4.4c-2.4,1.8-4.6,1.7-7.1,0
			C186.9,451.7,182.2,448.5,177.3,445.1z"/>
		<path class="st0" d="M312.6,292.8c3.3,0.2,6.6,0.5,10,0.7c2.4,0.1,3.5,1.3,3.4,3.7c-0.1,2.1-0.9,3.3-3.1,3.5
			c-3.4,0.2-6.7,0.5-10.7,0.8c0.3,2.6,0.4,4.9,0.7,7.2c1.3,8.8,3.8,17,9.7,24c1.1,1.3,2.2,2.9,0.9,4.8c-1.5,2.3-3.7,2.8-5.8,0.9
			c-2.2-2.1-4.2-4.5-5.7-7.1c-4.6-7.6-6.5-16.2-7.4-24.9c-0.2-1.4-0.3-2.9-0.5-4.2c-3.8-1.2-16.8-1.5-23.5-0.5
			c-0.5,3.4-0.9,6.9-1.5,10.3c-1.3,7.6-3.4,14.8-7.8,21.3c-1,1.5-2.1,2.9-3.3,4.2c-2.5,2.5-4.3,2.7-6.3,0.7c-1.8-1.8-1.8-3,0.5-5.9
			c7.1-8.5,9.2-18.7,10.1-29.3c0-0.3-0.1-0.6-0.4-1.5c-1.5-0.1-3.2-0.3-4.9-0.4c-1.5-0.1-2.9,0-4.4-0.1c-2.2-0.1-3.7-1.2-3.9-3.6
			c-0.2-2.1,1.4-3.7,3.9-4c1.6-0.2,3.2-0.1,4.9-0.1c1.4-0.1,2.8-0.3,4.6-0.5c0.3-4.4-0.7-8.5-1.6-12.6c-1.5-6.7-3.8-13.1-8.5-18.3
			c-0.4-0.5-0.8-1-1.1-1.6c-1-1.7-0.5-3.1,0.8-4.4c1.3-1.4,3-1.7,4.3-0.5c2,1.8,4,3.8,5.5,6.1c5.2,8.1,7.2,17.3,8.3,26.7
			c0.2,1.4,0.4,2.8,0.6,4.7c7.8,0.7,15.5,0.2,23.3,0.1c0.6-4.2,1.1-7.8,1.7-11.5c1.3-7.4,3.6-14.5,7.8-20.7c1.3-2,3.1-3.7,4.9-5.3
			c1.4-1.2,3-1,4.4,0.4c1.5,1.5,1.8,3,0.7,4.8c-0.3,0.5-0.8,1-1.2,1.5c-6.9,8.4-9,18.5-10,28.9C312.2,291.4,312.4,291.9,312.6,292.8
			z"/>
		<path class="st0" d="M845.9,622.5c0.4-5.4,0.7-10.5,1.3-15.7c0.7-6.1,2-12.1,4.9-17.7c4.5-8.4,10.8-11.5,19.6-9.6
			c8,1.7,13.9,8.9,14.3,17.5c0.4,8.1-1.7,15.7-4.4,23.2c-3.7,10.5-7.8,20.9-11.5,31.4c-1.1,3.2-1.7,6.6-2.1,9.9
			c-0.4,3.2,0.3,6.3,3.5,7.9c3,1.5,6.1,1,8.7-0.9c1.7-1.2,2.9-3,4.2-4.6c1.8-2.3,3.9-3,5.8-1.7c1.7,1.1,1.9,3,0.7,5.7
			c-3.3,7.3-13.3,11.8-20.9,9.5c-6.3-1.9-10.4-8.1-9.9-15.6c0.3-4,1-8.1,2.3-11.9c3-8.9,6.6-17.6,9.6-26.4
			c2.3-6.7,4.1-13.6,5.7-20.5c0.6-2.7,0.3-5.8-0.3-8.6c-1-4.4-4-6.8-8.5-7.5c-4.5-0.7-7.8,1.3-9.5,5.1c-1.9,4.6-3.8,9.4-4.3,14.3
			c-0.8,7.7-0.5,15.5-0.5,23.2c0,2.9,0.2,5.8,0.4,8.7c0.4,6.6-5,15.1-15.5,15.5c-8.7,0.3-16.2-6.5-16.5-15.1
			c-0.2-8.8,5.9-16.4,14.7-16.8C840.3,621.9,842.9,622.3,845.9,622.5z M847.2,638.3c0.1-5-3-8.4-7.8-8.5c-4.8-0.1-8.5,3.3-8.6,7.9
			c-0.2,4.5,3.4,8.4,8,8.7C843.1,646.6,847.1,642.8,847.2,638.3z"/>
		<path class="st0" d="M425.1,831c1.6-0.9,2.8-1.7,4.1-2.4c1.7-1,3.3-2,5.1-2.8c7.9-3.6,11-2.8,16,4.4c1.5-0.8,3-1.8,4.6-2.5
			c2.9-1.3,5.9-2.7,9-3.5c4.9-1.2,7.8,0.5,9.4,5.2c0.7,2.1,1.1,4.4,1.3,6.6c1.4,12.1,1.1,24.3,0.5,36.4c-0.2,3.6-0.4,7.1-0.5,10.7
			c0,6.4,2.7,10.7,9.2,14.4c-0.3-1.6-0.5-2.7-0.8-3.8c-0.7-3-0.1-4.9,2-5.7c2-0.8,3.7-0.1,5,2.6c2.1,4.4,4,8.8,5.8,13.4
			c1.1,2.9,0.5,4.3-2.4,5.3c-4.6,1.5-9.3,2.8-14,3.9c-3.4,0.7-4.9-0.2-5.4-2.5c-0.6-2.7,1.2-3.8,3.3-4.5c0.7-0.3,1.3-0.7,2.3-1.2
			c-1.2-0.9-2.1-1.5-3-2.2c-6.6-5.1-10.1-11.6-9.8-20.1c0.4-8.9,0.8-17.8,0.9-26.7c0-6.1-0.4-12.3-0.8-18.4c-0.1-1.7-0.6-3.4-1-5.6
			c-5.9,1.3-10.2,4.2-14,8c-0.8,0.8-0.6,2.7-0.6,4.2c-0.3,16.8-0.6,33.7-0.9,50.5c0,1,0,2-0.2,2.9c-0.4,2.5-1.7,3.8-3.6,3.7
			c-2.3-0.1-3.9-1.5-3.9-4c0-2.6,0.2-5.2,0.3-7.8c0.2-15.4,0.4-30.8,0.4-46.1c0-3.6-0.8-7.3-1.2-11.4c-1.9,0.4-3.2,0.5-4.3,1
			c-2,1-3.9,2.3-5.9,3.3c-4.5,2.3-5.9,5.8-5.8,11c0.2,16-0.4,32.1-0.6,48.1c0,1.5-0.1,2.9-0.3,4.4c-0.3,2.3-1.8,3.4-4,3.2
			c-1.9-0.2-3.4-1-3.4-3.3c0-1.9,0.1-3.9,0.1-5.8c0.2-16.8,0.3-33.7,0.4-50.5c0-1.9-0.1-3.9-0.3-5.8c-0.6-4.5-1.6-5.3-6-4.3
			c-0.9,0.2-1.9,0.5-2.8,0.6c-2,0.3-3.6-0.3-4.3-2.3c-0.7-2.1,0.4-3.4,2-4.4c4.9-3.4,11.9-2.7,16,1.6
			C423.6,829,424.2,829.8,425.1,831z"/>
		<path class="st0" d="M192.8,592c2.7-1.8,4.9-3.5,7.4-4.6c2.9-1.3,6-2.6,9.1-2.8c9.2-0.7,14.6,3,16.6,12c1.5,6.9,2.2,14.1,2.6,21.1
			c0.4,8.2,0,16.5,0,24.8c0,1.9,0,3.8,0,6.3c2.1-1,3.6-1.8,5.2-2.6c5.4-2.8,10.8-2.9,16.4-0.6c4.9,2,8,5.6,8.7,10.8
			c0.7,5.7-1.1,10.7-5.9,14c-6.6,4.6-13.7,4.7-20.6,0.6c-3.2-1.9-5.9-4.5-9.1-6.9c-2,1.9-4.1,3.8-6.2,5.8c-4,3.6-8.4,6.6-13.6,8.2
			c-1.4,0.4-2.8,0.5-4.3,0.6c-1.8,0.1-2.6-1.1-3.1-2.6c-0.5-1.6,0-2.9,1.4-3.8c0.8-0.5,1.7-0.9,2.6-1.2c7.7-2.5,13.2-8.1,18.5-13.7
			c0.9-0.9,1.4-2.6,1.5-3.9c1-15.5,1.6-31.1,0-46.6c-0.3-3.2-0.9-6.4-1.8-9.5c-1.2-4-3.4-5.5-7.6-5.3c-2,0.1-4.2,0.6-6,1.6
			c-2.3,1.2-4.3,2.9-6.3,4.5c-3.8,3-5.3,6.8-5.3,11.8c0,13.9-0.5,27.8-0.8,41.8c0,1,0,1.9-0.2,2.9c-0.3,2.3-1.8,3.5-3.8,3.5
			c-2.2-0.1-3.6-1.4-3.7-3.6c-0.1-1.1,0.1-2.3,0.1-3.4c0.2-18.5,0.4-36.9,0.5-55.4c0-0.2,0-0.3,0-0.5c-0.2-7.6-0.8-8.1-8.2-6.5
			c-2.8,0.6-4.5-0.1-5.1-2.2c-0.7-2.3,0.5-3.7,2.2-4.8c7.2-4.7,16.2-1,18.2,7.4C192.3,589.9,192.5,590.7,192.8,592z M229.4,657.6
			c2.6,4.4,5.6,6.7,9.4,8c3.2,1.1,6.4,0.8,9.2-1.3c2.2-1.6,3.5-3.8,3.1-6.6c-0.4-2.7-2.1-4.2-4.5-5.2c-2.3-0.9-4.7-1.4-7-0.2
			C236.2,654,233,655.7,229.4,657.6z"/>
		<path class="st0" d="M603.6,873c-7-15.1-5.1-28.1,8.2-38.3c9.1-7,22.4-7.1,31.9-0.2c13.7,10,15.5,23.3,8.5,38.8c7,0,13.5,0,19.9,0
			c1.5,0,2.9-0.1,4.4,0.2c2.2,0.4,3.7,2.6,3.4,4.6c-0.3,2.1-1.5,3.6-3.7,3.8c-1.3,0.1-2.6,0.2-3.9,0.2c-9.9,0-19.8,0-29.6,0
			c-1,0-2,0-2.9-0.2c-3.1-0.8-4.2-4.5-2.1-6.8c1-1.1,2.2-1.9,3.2-2.9c8.2-7.7,8.5-20.3,0.6-28.2c-7.6-7.6-19.8-7.5-27.4,0.3
			c-7.7,7.8-7.2,20.2,1,27.8c1.1,1,2.3,1.8,3.2,3c2.4,3,1.1,6.2-2.6,6.8c-2.1,0.3-4.2,0.3-6.3,0.3c-8.9,0-17.8-0.1-26.7-0.1
			c-1,0-1.9-0.1-2.9-0.1c-2.2-0.1-3.1-1.6-3.6-3.4c-0.5-2,0.4-3.6,2.1-4.4c1.3-0.6,2.8-0.8,4.2-0.8c5.7-0.1,11.3,0,17,0
			C600.6,873.3,601.9,873.1,603.6,873z"/>
		<path class="st0" d="M627.9,902.3c-14.6,0-29.1,0-43.7,0c-1.5,0-2.9,0.1-4.4-0.1c-2.3-0.3-3.9-2-4-4.1c-0.1-2.1,1.5-4,3.7-4.3
			c1.1-0.2,2.3-0.1,3.4-0.1c29.9,0,59.9,0,89.8,0c1,0,1.9,0,2.9,0.1c2.6,0.3,4,1.6,4.1,3.9c0.1,2.5-1.3,4.3-3.9,4.6
			c-1.3,0.2-2.6,0.1-3.9,0.1C657.3,902.3,642.6,902.3,627.9,902.3C627.9,902.3,627.9,902.3,627.9,902.3z"/>
		<path class="st0" d="M799.5,273c0,2.5,0,4.6,0,6.7c0,12.3,0,24.6,0,36.9c0,5.7,0.3,4.6,4.6,6.5c3.8,1.7,7.5,3.8,11.1,5.9
			c1,0.5,1.8,1.4,2.4,2.3c1.1,1.5,1.6,3.2,0,4.8c-1.6,1.7-3.3,1.9-5.1,0.4c-4.4-3.5-9.2-6-14.6-7.3c-10.7-2.5-21.5-2.6-32.2,0.3
			c-4,1.1-7.6,3.5-11.3,5.4c-1,0.5-1.8,1.4-2.7,2c-1.8,1.1-3.4,0.6-4.8-0.9c-1.3-1.4-1.2-3-0.1-4.4c0.8-1,1.6-2.1,2.7-2.7
			c4.1-2.2,8.2-4.5,12.5-6.3c2-0.9,3.2-1.7,3.2-4.1c0-14.1,0-28.2,0.1-42.3c0-2.6-1.3-3.6-3.5-4.5c-3.7-1.5-7.4-3.2-10.9-5.2
			c-1.5-0.8-2.8-2.2-3.9-3.6c-1.2-1.5-1.5-3.2,0-4.8c1.6-1.7,3.4-1.7,5.2-0.4c0.3,0.2,0.6,0.4,0.8,0.6c4.8,4.5,10.8,6.5,17,7.6
			c9.2,1.6,18.4,1.6,27.5-0.7c5.2-1.3,10.1-3.4,14.3-6.9c2.7-2.2,3.9-2.2,5.5-0.5c1.9,2,1.9,4.3-0.7,6.3c-3.2,2.4-6.7,4.4-10.3,6.3
			C804.4,271.4,802.2,271.9,799.5,273z M791.2,319.6c1.1-6,0.8-41.8-0.3-45c-5.7,0-11.5,0-17.6,0c0,15.1,0,30,0,45
			C779.4,319.6,785.2,319.6,791.2,319.6z"/>
		<path class="st0" d="M613.8,193.8c-4.1-4.6-8-8.9-11.9-13.1c-3-3.2-6.5-5.2-11-5.6c-1.4-0.2-3-0.6-3.9-1.5c-2-2-0.2-5.7,2.9-6
			c4.5-0.5,8.8,0.8,12.3,3.5c3.3,2.5,6.2,5.6,9.2,8.6c1.9,1.9,3.5,4.3,5.5,6.1c6.6,6.1,15.3,6,21.8-0.2c3.4-3.3,6.3-6.9,9.5-10.4
			c3.5-3.8,7.8-6.3,12.9-7.3c1.4-0.3,2.9-0.4,4.3-0.3c2.2,0.1,3.9,1.7,3.9,3.6c0,2.3-1.4,3.5-3.5,4c-0.5,0.1-1,0.1-1.4,0.1
			c-4.1,0.3-7.4,2.2-10.2,5.1c-4.1,4.3-8.1,8.7-12.5,13.4c1.3,1.1,2.6,2.2,3.9,3.3c9.2,7.9,12.3,20.1,8.1,31.3
			c-4,10.6-14.4,17.7-26,17.7c-11.3,0-21.4-6.8-25.6-17.5c-4.2-10.5-1.5-22.7,6.7-30.4C610.2,196.6,611.9,195.4,613.8,193.8z
			 M627.9,198.3c-11.1,0-20.2,9-20.1,20c0.1,11,9.2,20.1,20.1,20c10.9-0.1,19.9-9.3,19.8-20.3C647.6,207.2,638.6,198.3,627.9,198.3z
			"/>
		<path class="st0" d="M767.3,750.1c-6.1,1.4-10.5,4.5-14.4,8.4c-0.9,0.9-0.9,3-1,4.6c-0.1,10.8-0.1,21.7-0.3,32.6
			c-0.1,6.5-0.5,12.9-0.8,19.4c-0.2,3.2-1.5,4.7-3.8,4.6c-2.3-0.1-3.7-1.7-3.8-4.7c0-3.7,0.2-7.4,0.3-11.2
			c0.2-15.1,0.3-30.1,0.4-45.2c0-0.8,0-1.6-0.1-2.4c-0.4-6.7-1.6-7.6-8-6.1c-2.9,0.7-4.4,0.2-5.3-1.9c-0.8-1.9,0-3.8,2.4-5.2
			c7.1-3.9,14.7-0.8,17,4.1c0.3,0.6,0.6,1.1,1.1,2c1.9-1.1,3.7-2.2,5.5-3.1c1.7-0.9,3.5-1.8,5.3-2.5c5.7-2.2,10.8-2.1,13.3,4.4
			c0.1,0.2,0.5,0.4,0.9,0.7c1.1-0.7,2.3-1.5,3.6-2.1c2.5-1.2,4.9-2.6,7.5-3.4c7.1-2.2,11.1,0.1,12.2,7.4c1,6.9,1.4,13.8,1.6,20.8
			c0.2,7.3-0.1,14.6-0.2,21.9c0,2.1,0,4.1,0,7.4c1.4-1.5,2-2.1,2.5-2.7c2.7-3.2,6.1-4.2,10-2.9c4,1.3,5.9,4.3,6.5,8.3
			c0.8,5.7-0.9,10.9-4.1,15.6c-1.9,2.8-4.2,5.3-6.5,8.3c1.1,0.5,2,0.9,3,1.3c2.2,1,2.4,3,2,4.9c-0.4,1.9-2.3,2.2-3.9,2.1
			c-1.3-0.1-2.5-0.4-3.7-0.9c-1.5-0.6-2.9-1.4-4-1.9c-5.7,2.6-11.1,5.2-16.6,7.6c-1.3,0.6-2.7,1-4.2,1.2c-1.8,0.2-3.2-0.5-3.7-2.3
			c-0.6-1.9-0.4-3.6,1.6-4.6c2.2-1,4.5-1.8,6.7-2.9c3.5-1.7,6.9-3.4,10.9-5.4c-5.4-7.2-4.7-15-4.6-22.8c0.2-14.4,0.1-28.8,0-43.2
			c0-3.2-0.7-6.3-1.2-9.9c-5.9,0.9-10,3.9-13.8,7.4c-0.8,0.7-0.7,2.7-0.7,4.1c-0.1,11.7,0,23.3-0.1,35c-0.1,6-0.5,12-1,17.9
			c-0.1,1.4-0.5,3.1-1.4,3.9c-0.9,0.7-2.7,0.7-4,0.5c-1.6-0.3-2.2-1.6-2.2-3.3c0.2-4.4,0.5-8.7,0.5-13.1c0-15.4-0.1-30.7-0.3-46.1
			C768.6,754.5,767.8,752.5,767.3,750.1z M805,819c6.2-5.7,8.4-11.9,6-16.4C807,804.7,804.5,811.2,805,819z"/>
		<path class="st0" d="M895.2,478.7c-2.1-1-3.7-1.7-5.3-2.4c-8-4-12.1-12.1-10.6-20.9c1.4-8.2,8.6-14.8,17-15.6
			c8.7-0.8,16.8,4.1,19.9,12.5c2.3,6.3,1.4,12.4-2.1,18.1c-7.4,12-18.4,19-32,21.5c-17.2,3.2-32.7-1.3-46.3-12.1
			c-1.6-1.3-3.1-2.9-4.3-4.5c-1.3-1.7-0.7-3.4,0.7-4.8c1.4-1.3,3-1.3,4.4-0.2c1.3,0.9,2.5,2.1,3.7,3.1
			C854.6,485.5,876.1,489.4,895.2,478.7z M909.5,458.7c0.3-6.6-5.5-11.2-11.4-11.3c-6.3,0-11.3,5.2-11.3,11.5
			c0,6.3,5,11.6,11.2,11.5C904.2,470.3,910.1,465.3,909.5,458.7z"/>
		<path class="st0" d="M852.8,429.2c2.2,0.8,3.6,1.3,4.9,1.9c9.7,4.3,14,15.4,9.8,25.3c-4.1,9.6-15.5,14.2-25.2,10.1
			c-9.8-4.2-14.4-15.3-10.1-25.1c5.3-12.1,14.9-20.1,27.3-23.8c20.2-6.1,38.3-1.5,54.5,11.7c0.4,0.3,0.7,0.7,1,1
			c3.5,3.7,3.2,5.4-1.7,8.4c-1.7-1.4-3.7-2.8-5.5-4.3c-13.9-11.2-29.4-14.3-46.5-9.4c-2,0.6-3.9,1.6-5.8,2.4
			C854.9,427.7,854.3,428.2,852.8,429.2z M850.2,460.1c6.2-0.1,11.3-5.4,11.2-11.6c-0.2-6.5-5-11.2-11.5-11.2
			c-6.4,0-11.4,5-11.4,11.3C838.4,455.2,843.5,460.2,850.2,460.1z"/>
		<path class="st0" d="M330.9,466.1c-2-3.3-6-0.5-6.9-4.5c1.2-0.3,2.3-0.5,3.3-0.7c1.1-0.2,2.2-0.5,3.4-0.7c0.2-1.4,0.1-2.8,0.5-3.9
			c0.2-0.7,1.1-1.4,1.8-1.7c0.3-0.1,1.3,0.9,1.5,1.5c0.3,1.2,0.3,2.5,0.4,4.2c2.2,0.4,4.3,0.8,6.6,1.3c-0.5,4.4-4.5,1.3-6.4,3.7
			c0,3.6,0,7.9,0,12.5c1.6-0.6,2.9-1.1,4.3-1.5c7.9-2.5,14.3,3.1,12.5,11.1c-0.6,2.8-2.1,5.4-3,8.1c-0.6,1.8-1.5,3.6-1.6,5.5
			c-0.3,4.6,2.9,7.1,7.4,6.3c1.1-0.2,2.2-0.7,3.3-0.7c0.8,0,1.6,0.6,2.8,1.1c-3.6,3.6-7.5,3.7-11.5,2.4c-3.6-1.1-6.1-4.8-5.8-8.6
			c0.2-2.5,1-5,1.8-7.4c0.8-2.5,2.2-4.7,2.8-7.2c1.4-5.6-2-8.8-7.6-7.3c-4.4,1.2-5.7,2.8-5.7,7.6c0,6.1,0,12.3-0.1,18.4
			c0,1.6-0.1,3.2-0.2,5c-1.2,0-2.1,0-3.6,0C330.9,495.2,330.9,480.1,330.9,466.1z"/>
		<path class="st0" d="M360.7,617.6c-3.9,3.4-8.5,4.2-12.3,2.3c-3.7-1.9-5.6-6-4.9-10.7c0.2-1.6,0.9-3.1,1.5-4.6
			c0.7-1.8,1.6-3.5,2.3-5.3c1.6-4.3,1.2-7.6-1.1-9.4c-2.1-1.6-6-0.9-9.5,1.4c-2,1.3-2,3.1-2.1,5.1c0,6.3,0,12.6,0,18.9
			c0,1.3,0,2.6-0.1,3.9c-0.2,1.6-1.1,2.3-3,1.8c-1.2-3.6-0.5-7.5-0.6-11.2c-0.1-3.9-0.1-7.8-0.1-11.6c0-3.7,0-7.4,0-11.2
			c0-3.9,0-7.7,0-12c-1.8-0.2-3.2-0.2-4.5-0.6c-0.8-0.2-1.4-1.1-2-1.7c0.6-0.6,1.1-1.5,1.9-1.7c1.2-0.4,2.5-0.3,4.1-0.4
			c0.6-2.1,1.1-4.2,1.7-6.4c3.5,1.2,1.8,4.4,3.3,6.5c1.8,0.2,3.8,0.4,6,0.7c-0.3,4.7-4.5,2-6.5,4.1c0,3.6,0,7.6,0,12.1
			c1.9-0.6,3.5-1.1,5.1-1.6c7.5-2,13.4,3.5,11.8,11c-0.6,2.8-1.9,5.5-2.9,8.2c-0.6,1.7-1.4,3.3-1.7,5c-0.7,5.1,2.6,8,7.6,7
			C357.9,616.5,357.9,616.5,360.7,617.6z"/>
		<path class="st0" d="M404,401.3c2.1,0.3,3.7,0.5,5.3,0.7c-0.1,3-0.1,3-4.8,3.9c-0.5,2.9-1,5.9-1.6,8.8c0,0.2-0.9,0.2-2,0.6
			c-0.3-3.1-0.6-6-1-9.5c-1.5-0.1-3.1-0.2-4.6-0.2c-6.2-0.1-12.3,0-18.5-0.1c-1.9,0-3.9-0.1-5.4-2.4c1.8-1.1,3.3-2.1,5-3
			c7.5-4.3,14-9.6,16.6-18.2c1-3.3,1.1-7,1.2-10.5c0-1.7-0.8-3.5-1.7-5c-2.2-3.6-5.8-4.5-9.1-1.9c-2,1.7-3.4,4.2-4.8,6.5
			c-0.7,1.1-1,2.7-2.7,2c-1.7-0.7-1.1-2.2-0.6-3.3c1.3-2.4,2.3-5.1,4.2-6.9c5.6-5.4,13.6-3.8,16.8,3.3c3.1,7,2.1,13.9-1.1,20.6
			c-2.2,4.6-5.6,8.3-9.4,11.6c-1,0.8-2,1.6-3,2.5c3.3,1.2,9.9,1.4,17.2,0.5c0.1-1.6,0.3-3.3,0.3-5c0-9.4,0-18.8,0-28.2
			c0-2.1,0.1-4.2,0.4-6.3c0.1-0.8,1.2-1.4,2.4-1.9C404.2,373.6,403.5,387.2,404,401.3z"/>
		<path class="st0" d="M374.7,673.4c0.8-5.2,2.6-9.4,7.2-11.7c5.8-2.9,11.5-1.1,14.2,4.7c3.3,7.1,2.3,14.2-1,21.1
			c-2.2,4.6-5.6,8.3-9.5,11.5c-0.9,0.8-1.9,1.6-3.5,3c6.4,0,11.8,0,17.8,0c0.1-1.6,0.2-3.3,0.2-5c0-9.4,0-18.8,0-28.2
			c0-2.7,0.3-5.4,0.6-9.2c1.6,1.4,2.7,1.9,2.9,2.7c0.4,1.2,0.2,2.6,0.2,3.9c0,10,0,20.1,0,30.1c0,1.8,0,3.5,0,5.7
			c2,0.5,3.8,1,5.9,1.6c0.1,4.1-3.7,1.8-5.6,3.5c-0.2,2.5-0.4,5.5-0.6,8.4c-3.5,1.1-3.1-1.3-3.3-3.2c-0.1-1.8-0.2-3.5-0.3-5.6
			c-1.4-0.1-2.6-0.4-3.9-0.4c-6.5-0.1-13,0-19.4-0.1c-1.6,0-3.3-0.5-6-1c1.7-1.5,2.4-2.2,3.2-2.8c3.8-2.7,8-5,11.5-8
			c5.8-5.1,9-11.7,8.9-19.7c0-5.3-2.3-9.4-5.7-10.2c-3.7-0.8-7.7,2-9.9,6.9c-0.3,0.7-0.5,1.5-0.9,2.2c-0.2,0.3-0.8,0.5-1.2,0.6
			C376,673.9,375.6,673.6,374.7,673.4z"/>
		<path class="st0" d="M758.2,463.5c-2.4,1.5-3.9,2.4-5.3,3.4c-14.5,9.2-14.3,28.2,0.3,37.1c1.3,0.8,2.6,1.7,4.2,2.7
			c-2.2,3.1-5.5,3.3-8.3,3.5c-11.5,0.6-22.1-5.4-26.1-17.5c-3.6-11,1.5-23.7,11.6-29.2c5.8-3.1,12-3.7,18.3-2.5
			C754.4,461.2,755.8,462.3,758.2,463.5z M749.5,506.4c-7.2-5.9-11.1-12.6-11.2-21c-0.1-8.6,4.1-15.2,10.7-21.1
			c-15-1.1-23.5,10.3-23.5,21C725.6,497.4,736.1,507.5,749.5,506.4z"/>
		<path class="st0" d="M589.3,357.9c-5.3-1.6-5.3-1.6-6.3-3.5c2.1-0.4,4.1-0.7,6.4-1.1c0-2.5,0-4.8,0-7.4c-1.7-0.6-3.3-1.2-4.9-1.9
			c-7.2-3.1-11.5-11.1-10.2-18.6c1.5-8.6,8-14.7,16.6-14.9c8.4-0.2,14.9,4.3,17.3,12.1c2.4,7.6-0.4,16-7.1,19.9
			c-2.2,1.3-4.7,2.1-7.4,3.3c0,2.3,0,4.8,0,7.6c2.2,0.3,4.2,0.6,6.3,0.8c-0.2,4.5-4.4,1.6-6.2,4c-0.1,0.8-0.2,2.2-0.6,3.6
			c-0.2,0.6-1,1.4-1.6,1.4c-0.6,0-1.6-0.7-1.7-1.3C589.4,360.7,589.4,359.2,589.3,357.9z M605.1,328.2c0.1-7.8-5.6-13.9-13-14
			c-8.1-0.1-14.3,5.9-14.3,13.9c0,7.6,6,13.7,13.4,13.8C599.2,341.8,605,336.1,605.1,328.2z"/>
		<path class="st0" d="M598.4,749.1c0,2.7,0,5.1,0,7.8c2,0.3,3.8,0.5,5.6,0.7c-0.1,3-0.1,3-5.6,3.8c-0.1,0.9-0.2,1.8-0.3,2.7
			c-0.2,0.9-0.4,1.8-0.7,2.8c-4.2-0.1-2.3-3.7-3.4-5.3c-1.8-1.5-5,0.3-6.1-2.7c1.4-2.9,4-1.4,6.3-2c0-2.5,0-5,0-7.5
			c-11.9-4.6-17-11.7-15.1-21.1c1.7-8.5,8.6-14.3,17.1-14.4c8.3-0.1,15.8,6.1,17.4,14.2C615.4,737.7,610.5,744.6,598.4,749.1z
			 M609.9,731.8c0.1-8.1-5.6-14.1-13.4-14.2c-7.6-0.1-13.8,6-14,13.8c-0.1,7.8,5.7,13.7,13.7,13.7
			C604.2,745.1,609.9,739.6,609.9,731.8z"/>
		<path class="st0" d="M696.2,670.3c9.6,10.4,8.1,26.5-9.5,31.5c0,2.3,0,4.7,0,7.3c2.2,0.5,4.3,0.9,6.5,1.4c-0.9,4-4,2.2-6.2,3
			c-0.5,1.9-1,3.8-1.5,5.8c-4.6-0.2-2-3.9-3.5-5.7c-1.7-0.3-3.7-0.6-6-1c0.7-4.1,4-2.1,6.4-3.5c0.1-1.9,0.2-4.3,0.4-7.1
			c-6.9-1.9-12.5-5.4-14.8-12.5c-2.4-7.2,0.1-13.3,5.1-19c-1.4-2.3-2.6-4.4-3.9-6.6c2.4-1.2,2.4-1.2,7.4,4.2
			c5.2-1.7,10.6-1.9,15.5,0c3.2-0.9,3.4-5.8,8.2-4.6C698.8,665.8,697.6,667.9,696.2,670.3z M671,684c0,7.7,5.9,13.8,13.3,13.8
			c8,0.1,14.1-6.1,14.1-14.1c-0.1-7.5-6.1-13.6-13.6-13.7C677.1,670,671,676.3,671,684z"/>
		<path class="st0" d="M682.8,406.5c-15.1-4.2-21-18.4-9.9-31.8c-1.2-2-2.3-4.1-3.5-6.2c-0.1-0.2,0.2-0.6,0.5-1.2
			c3.8-0.5,4.1,4.1,7.3,5.1c4.9-1.8,10.3-1.4,15.3,0.1c2.8-1.3,3.1-5.5,7.7-4.8c-1.4,2.5-2.6,4.6-4,7.1c4.4,5.3,7.2,11.2,5.2,18.5
			c-2,7.5-7.6,10.9-14.7,12.8c0,2.6,0,5.1,0,7.6c2.4,0.5,4.4,0.9,6.7,1.4c-1.4,3.7-4.3,1.9-6.4,3c-0.5,1.7-1,3.7-1.6,5.7
			c-4.2-0.2-1.9-3.6-3.4-5.4c-1.6-0.4-3.7-0.9-6-1.5c0.7-3.8,3.8-1.9,6.2-3.2C682.4,411.5,682.6,409.1,682.8,406.5z M671,388.5
			c0.1,7.9,6.1,13.9,13.8,13.8c7.9-0.2,13.6-6.2,13.5-14.2c-0.1-7.5-6.3-13.7-13.6-13.6C676.9,374.6,670.9,380.7,671,388.5z"/>
		<path class="st0" d="M512.3,715.9c0.8,8.8,0.1,11.3-3.4,13c-0.2-1.8-0.4-3.4-0.7-5.8c-3.4,3.2-6.3,6.1-9.5,9.1
			c0.9,2,1.8,3.8,2.6,5.7c4.4,10.9-0.9,22.4-12,26.3c-10.9,3.7-22.7-2.3-25.6-13.4c-2-7.7-0.1-14.5,5.7-19.9
			c5.8-5.3,12.7-6.8,20.3-4c2.1,0.8,4.1,1.8,5.7,2.5c3.3-3,6.4-5.8,9.7-8.9c-1.9-1.4-4.9,0.6-5.5-2.9
			C503.6,715.7,507.7,715.5,512.3,715.9z M466.8,745c-0.1,9.4,6.8,16.6,15.9,16.7c8.9,0.1,16.2-7,16.3-15.8
			c0.1-9.3-6.9-16.7-16-16.7C474.1,729.1,466.9,736.1,466.8,745z"/>
		<path class="st0" d="M499.5,328.5c3.2-3.2,6.1-6.2,9.2-9.3c-1.1-1.8-5.1,1.3-5-3.1c3.8-1.7,8-0.7,11.9-1.8
			c1.8,6.1,1,10.9-2.6,13.6c-0.3-1.9-0.5-3.5-0.9-5.9c-3.4,3.1-6.4,5.9-9.6,8.9c0.9,2,1.9,3.9,2.6,5.8c4.5,10.8-0.9,22.6-11.9,26.3
			c-11,3.7-22.8-2.4-25.7-13.5c-2-7.8-0.1-14.8,6.1-20.2c6.4-5.6,13.7-5.9,21.4-3.1C496.6,326.8,498,327.7,499.5,328.5z
			 M470.7,343.9c-0.2,9.1,6.5,16.4,15.2,16.8c8.8,0.3,16.7-7,17-15.7c0.2-9-7-16.9-15.6-17.1C478.3,327.6,470.9,334.8,470.7,343.9z"
			/>
		<path class="st0" d="M759.7,595.2c-0.1,12.1-9.1,20.8-21.4,20.7c-11.8-0.1-20.7-9.2-20.6-21.1c0.1-11.9,9.5-21.1,21.5-20.9
			C750.9,574.1,759.8,583.3,759.7,595.2z M739.3,578.2c-9.6-0.1-17.1,7.1-17.2,16.6c-0.1,9.2,7.2,16.9,16.3,17.1
			c9.4,0.2,17.2-7.3,17.3-16.6C755.7,585.8,748.4,578.3,739.3,578.2z"/>
		<path class="st0" d="M738.8,591c2.3,0,3.9,1.7,3.9,3.9c0,2-2,4-4,4c-2,0-4-2-4-4.1C734.8,592.8,736.6,591,738.8,591z"/>
	</g>
</g>
</svg>
