<?xml version="1.0" encoding="utf-8"?>
<!-- Generator: Adobe Illustrator 26.0.0, SVG Export Plug-In . SVG Version: 6.00 Build 0)  -->
<svg version="1.1" baseProfile="tiny" id="Capa_1" xmlns="http://www.w3.org/2000/svg" xmlns:xlink="http://www.w3.org/1999/xlink"
	 x="0px" y="0px" viewBox="0 0 1080 200" overflow="visible" xml:space="preserve">
<g>
	<path fill="#FFFFFF" d="M141.74,71.1v-2.68c5.54,0.33,10.66,0.5,15.36,0.5c3.06,0,6.25-0.06,9.57-0.18
		c3.32-0.12,5.89-0.18,7.7-0.18c6.21,0,10.83,1.3,13.86,3.91c3,2.64,4.5,5.98,4.5,10.04c0,2.3-0.57,4.6-1.7,6.89
		c-1.14,2.29-2.73,4.2-4.79,5.75c-1.52,1.12-3.82,2.18-6.91,3.18c3.27,0.24,5.79,0.71,7.54,1.41c2.67,1.09,4.79,2.74,6.36,4.95
		c1.57,2.21,2.36,4.97,2.36,8.27c0,6.73-3.15,12.04-9.45,15.95c-4.27,2.67-10.62,4-19.04,4c-1.91,0-4.89-0.1-8.95-0.29
		c-2.82-0.14-4.38-0.21-4.68-0.21c-0.55,0-4.45,0.17-11.72,0.5v-2.68c0.94-0.21,1.65-0.36,2.14-0.46c4.39-0.85,6.83-1.48,7.32-1.91
		c0.36-0.3,0.59-1.08,0.68-2.32c0.24-2.82,0.36-10.8,0.36-23.95l-0.09-20.09c-0.03-4.18-0.23-6.64-0.59-7.36
		c-0.18-0.36-0.5-0.66-0.95-0.89c-0.45-0.23-2.77-0.8-6.95-1.7C143.22,71.46,142.59,71.31,141.74,71.1z M160.51,97.05
		c2.73,0.03,4.25,0.05,4.55,0.05c5.1,0,8.83-0.42,11.2-1.27c2.37-0.85,4.28-2.34,5.74-4.48c1.46-2.14,2.19-4.61,2.19-7.43
		c0-4.03-1.44-7.06-4.32-9.09c-2.06-1.45-5.42-2.18-10.09-2.18c-2.67,0-5.57,0.23-8.73,0.68c-0.39,4.57-0.59,10.85-0.59,18.81
		C160.46,93.26,160.48,94.9,160.51,97.05z M160.55,127.99c3.24,0.49,6.15,0.73,8.73,0.73c5.76,0,10.04-1.33,12.86-4
		c2.82-2.67,4.23-6.32,4.23-10.95c0-3.21-0.79-5.82-2.36-7.82c-1.58-2-3.48-3.35-5.7-4.04c-2.23-0.7-5.76-1.05-10.61-1.05
		c-2.88,0-5.26,0.03-7.14,0.09V127.99z"/>
	<path fill="#FFFFFF" d="M202.14,96.23v-2.54c5.09-1.3,9.88-3.24,14.36-5.82l1.18,0.95c-0.61,6.42-0.91,15.53-0.91,27.31
		c0,5.51,0.14,8.91,0.41,10.18c0.18,0.85,0.5,1.46,0.95,1.84c0.45,0.38,2.03,0.96,4.73,1.75c0.33,0.09,0.83,0.24,1.5,0.45v2.54
		c-3.97-0.33-7.23-0.5-9.77-0.5c-1.55,0-5.7,0.17-12.45,0.5v-2.54c4.09-1,6.39-1.92,6.91-2.75c0.51-0.83,0.77-5.19,0.77-13.07
		l-0.05-9.68V103c0-3.39-0.23-5.44-0.68-6.14c-0.45-0.7-1.18-1.04-2.18-1.04C206.27,95.82,204.68,95.96,202.14,96.23z M213.45,66.01
		c1.33,0,2.46,0.46,3.39,1.39c0.92,0.92,1.39,2.05,1.39,3.39c0,1.3-0.46,2.42-1.39,3.36c-0.92,0.94-2.05,1.41-3.39,1.41
		c-1.3,0-2.42-0.47-3.34-1.41c-0.92-0.94-1.39-2.06-1.39-3.36c0-1.33,0.46-2.46,1.39-3.39C211.04,66.47,212.15,66.01,213.45,66.01z"
		/>
	<path fill="#FFFFFF" d="M264.17,121.9l1.73,2.68l-9.05,6.68c-1.24,0.85-2.53,1.47-3.87,1.86c-1.94,0.58-3.93,0.86-5.96,0.86
		c-4.95,0-9.17-1.98-12.67-5.95s-5.26-9.33-5.26-16.09c0-7.27,2.1-13.1,6.3-17.5c4.2-4.39,9.34-6.59,15.4-6.59
		c4.7,0,8.33,1.29,10.9,3.89c2.56,2.59,3.88,6.55,3.94,11.88c-1.27,0.73-2.43,1.62-3.48,2.68c-2.15-0.03-3.5-0.05-4.05-0.05
		c-8.04,0-15.02,0.12-20.97,0.36c-0.03,6.79,1.12,11.92,3.45,15.41c2.33,3.51,5.45,5.27,9.36,5.27c1.97,0,4.03-0.39,6.18-1.16
		C258.28,125.38,260.96,123.97,264.17,121.9z M257.58,102c-0.18-3-0.85-5.27-2-6.82c-1.7-2.27-3.99-3.41-6.88-3.41
		c-2.49,0-4.71,0.86-6.65,2.57c-1.94,1.71-3.39,4.54-4.33,8.48c1.12,0.03,1.97,0.05,2.55,0.05
		C245.25,102.86,251.02,102.58,257.58,102z"/>
	<path fill="#FFFFFF" d="M269.62,96.73v-2.64c5.45-1.27,10.39-3.2,14.81-5.77l1.23,0.77c-0.42,2.58-0.68,5.23-0.77,7.95l5.77-5.73
		c0.97-0.85,2.11-1.51,3.41-2c1.79-0.67,3.65-1,5.59-1c4.33,0,7.6,1.44,9.82,4.32c1.48,1.91,2.23,5.2,2.23,9.86l-0.14,11
		c0,7.36,0.09,11.71,0.27,13.04c0.15,0.91,0.44,1.54,0.86,1.91c0.42,0.36,1.86,0.83,4.32,1.41c0.45,0.12,1.14,0.29,2.04,0.5v2.54
		c-3.58-0.33-6.77-0.5-9.56-0.5c-2.43,0-6.59,0.17-12.48,0.5v-2.54c3.54-1.03,5.53-1.73,5.97-2.09c0.44-0.36,0.71-0.95,0.8-1.77
		c0.33-3,0.5-7.59,0.5-13.77c0-6.6-0.14-10.59-0.41-11.95c-0.42-2-1.32-3.54-2.68-4.63c-1.36-1.09-3-1.64-4.91-1.64
		c-2,0-3.97,0.58-5.91,1.75c-1.94,1.17-3.37,2.73-4.29,4.7c-0.92,1.97-1.39,4.88-1.39,8.73c0,10.91,0.23,16.81,0.68,17.7
		s2.23,1.73,5.32,2.52c0.39,0.09,0.97,0.24,1.73,0.45v2.54c-4.07-0.33-7.48-0.5-10.25-0.5c-2.67,0-6.65,0.17-11.93,0.5v-2.54
		c3.6-0.85,5.64-1.47,6.13-1.86c0.3-0.24,0.52-0.88,0.64-1.91c0.33-2.88,0.5-6.8,0.5-11.77c0-10.27-0.11-15.84-0.32-16.72
		c-0.33-1.27-1.23-1.91-2.68-1.91c-0.67,0-1.71,0.11-3.14,0.32C271,96.56,270.41,96.64,269.62,96.73z"/>
	<path fill="#FFFFFF" d="M316.98,91.96v-2.54c3.73,0.33,6.91,0.5,9.54,0.5c2.45,0,6.06-0.17,10.82-0.5v2.54
		c-0.45,0.09-0.8,0.15-1.04,0.18c-1.97,0.33-3.17,0.68-3.59,1.05c-0.42,0.36-0.64,0.8-0.64,1.32v0.46c0.06,0.27,0.27,0.92,0.64,1.95
		c1.73,5.06,3,8.62,3.81,10.69l5.4,13.69c1-2.42,3.03-7.64,6.1-15.64c1.91-4.97,2.96-7.89,3.16-8.75c0.2-0.86,0.3-1.61,0.3-2.25
		c0-0.55-0.14-0.97-0.41-1.27c-0.39-0.42-1.12-0.77-2.18-1.05c-0.3-0.09-0.73-0.21-1.27-0.36v-2.54l1.77,0.14
		c3.39,0.24,5.88,0.36,7.45,0.36c1.51,0,3.5-0.17,5.95-0.5v2.54c-2.94,0.88-4.77,1.91-5.5,3.09c-0.97,1.61-6.18,14.59-15.63,38.95
		h-2.73c-7.67-19.69-12.66-31.99-15-36.9c-0.79-1.67-1.58-2.8-2.36-3.41C320.99,93.23,319.46,92.65,316.98,91.96z"/>
	<path fill="#FFFFFF" d="M398.64,121.9l1.73,2.68l-9.05,6.68c-1.24,0.85-2.53,1.47-3.87,1.86c-1.94,0.58-3.93,0.86-5.96,0.86
		c-4.95,0-9.17-1.98-12.67-5.95s-5.26-9.33-5.26-16.09c0-7.27,2.1-13.1,6.3-17.5c4.2-4.39,9.34-6.59,15.4-6.59
		c4.7,0,8.33,1.29,10.9,3.89c2.56,2.59,3.88,6.55,3.94,11.88c-1.27,0.73-2.43,1.62-3.48,2.68c-2.15-0.03-3.5-0.05-4.05-0.05
		c-8.04,0-15.02,0.12-20.97,0.36c-0.03,6.79,1.12,11.92,3.45,15.41c2.33,3.51,5.45,5.27,9.36,5.27c1.97,0,4.03-0.39,6.18-1.16
		C392.75,125.38,395.43,123.97,398.64,121.9z M392.05,102c-0.18-3-0.85-5.27-2-6.82c-1.7-2.27-3.99-3.41-6.88-3.41
		c-2.49,0-4.71,0.86-6.65,2.57c-1.94,1.71-3.39,4.54-4.33,8.48c1.12,0.03,1.97,0.05,2.55,0.05
		C379.72,102.86,385.49,102.58,392.05,102z"/>
	<path fill="#FFFFFF" d="M404.1,96.73v-2.64c5.45-1.27,10.39-3.2,14.81-5.77l1.23,0.77c-0.42,2.58-0.68,5.23-0.77,7.95l5.77-5.73
		c0.97-0.85,2.11-1.51,3.41-2c1.79-0.67,3.65-1,5.59-1c4.33,0,7.6,1.44,9.82,4.32c1.48,1.91,2.23,5.2,2.23,9.86l-0.13,11
		c0,7.36,0.09,11.71,0.27,13.04c0.15,0.91,0.44,1.54,0.86,1.91c0.42,0.36,1.86,0.83,4.32,1.41c0.45,0.12,1.13,0.29,2.04,0.5v2.54
		c-3.58-0.33-6.77-0.5-9.56-0.5c-2.43,0-6.59,0.17-12.48,0.5v-2.54c3.54-1.03,5.53-1.73,5.97-2.09c0.44-0.36,0.71-0.95,0.8-1.77
		c0.33-3,0.5-7.59,0.5-13.77c0-6.6-0.14-10.59-0.41-11.95c-0.42-2-1.32-3.54-2.68-4.63c-1.36-1.09-3-1.64-4.91-1.64
		c-2,0-3.97,0.58-5.91,1.75c-1.94,1.17-3.37,2.73-4.29,4.7c-0.92,1.97-1.39,4.88-1.39,8.73c0,10.91,0.23,16.81,0.68,17.7
		s2.23,1.73,5.32,2.52c0.39,0.09,0.97,0.24,1.73,0.45v2.54c-4.07-0.33-7.48-0.5-10.25-0.5c-2.67,0-6.65,0.17-11.93,0.5v-2.54
		c3.6-0.85,5.64-1.47,6.13-1.86c0.3-0.24,0.52-0.88,0.64-1.91c0.33-2.88,0.5-6.8,0.5-11.77c0-10.27-0.11-15.84-0.32-16.72
		c-0.33-1.27-1.23-1.91-2.68-1.91c-0.67,0-1.71,0.11-3.14,0.32C405.47,96.56,404.88,96.64,404.1,96.73z"/>
	<path fill="#FFFFFF" d="M456.72,96.23v-2.54c5.09-1.3,9.88-3.24,14.36-5.82l1.18,0.95c-0.61,6.42-0.91,15.53-0.91,27.31
		c0,5.51,0.14,8.91,0.41,10.18c0.18,0.85,0.5,1.46,0.96,1.84c0.45,0.38,2.03,0.96,4.73,1.75c0.33,0.09,0.83,0.24,1.5,0.45v2.54
		c-3.97-0.33-7.23-0.5-9.77-0.5c-1.54,0-5.7,0.17-12.45,0.5v-2.54c4.09-1,6.39-1.92,6.91-2.75c0.52-0.83,0.77-5.19,0.77-13.07
		l-0.05-9.68V103c0-3.39-0.23-5.44-0.68-6.14c-0.45-0.7-1.18-1.04-2.18-1.04C460.86,95.82,459.27,95.96,456.72,96.23z M468.04,66.01
		c1.33,0,2.46,0.46,3.39,1.39c0.92,0.92,1.39,2.05,1.39,3.39c0,1.3-0.46,2.42-1.39,3.36c-0.92,0.94-2.05,1.41-3.39,1.41
		c-1.3,0-2.42-0.47-3.34-1.41c-0.92-0.94-1.39-2.06-1.39-3.36c0-1.33,0.46-2.46,1.39-3.39C465.62,66.47,466.73,66.01,468.04,66.01z"
		/>
	<path fill="#FFFFFF" d="M507.26,74.6v-2.54c3.27-0.94,5.65-1.7,7.13-2.29c1.48-0.59,4-1.81,7.54-3.66l1.14,0.91
		c-0.67,7.03-1,20.12-1,39.26c0,10.6,0.14,16.51,0.41,17.72c0.27,1.21,1.18,1.82,2.73,1.82c0.91,0,2.51-0.2,4.82-0.59v2.45
		c-6.33,1.88-11.24,3.83-14.72,5.86l-1.14-0.86c0.36-2.27,0.59-4.54,0.68-6.82c-3.79,3.42-6.57,5.56-8.34,6.41
		c-1.77,0.85-3.89,1.27-6.34,1.27c-4.63,0-8.48-1.73-11.52-5.2c-3.04-3.47-4.57-8.38-4.57-14.75c0-4.36,0.74-8.12,2.23-11.27
		c1.12-2.42,2.74-4.72,4.86-6.88c2.12-2.17,4.49-3.89,7.11-5.18c2.62-1.29,5.25-1.93,7.88-1.93c1.21,0,2.56,0.15,4.04,0.46
		c1.48,0.3,3.1,0.76,4.86,1.36c0.06-1.51,0.09-2.39,0.09-2.64c0-7.12-0.14-11.06-0.41-11.82c-0.36-1.12-1.36-1.68-3-1.68
		c-0.55,0-1.52,0.11-2.91,0.34C508.48,74.42,507.95,74.5,507.26,74.6z M515.07,109.77c0-5.97-0.14-9.42-0.41-10.36
		c-0.52-1.82-1.7-3.35-3.57-4.61c-1.86-1.26-4.17-1.89-6.93-1.89c-3.45,0-6.39,1.43-8.82,4.29s-3.63,7.07-3.63,12.61
		c0,5.7,1.23,10.04,3.68,13.02c2.45,2.99,5.39,4.48,8.82,4.48c2.27,0,4.35-0.65,6.23-1.95c1.88-1.3,3.12-2.88,3.73-4.73
		C514.77,118.78,515.07,115.16,515.07,109.77z"/>
	<path fill="#FFFFFF" d="M534.25,111.68c0-7.33,2.08-13.13,6.23-17.41c4.16-4.27,9.61-6.41,16.38-6.41c6.4,0,11.47,1.92,15.22,5.77
		c3.75,3.85,5.62,9.23,5.62,16.13c0,7.45-2.1,13.35-6.3,17.7c-4.2,4.35-9.64,6.52-16.31,6.52c-6.46,0-11.55-1.94-15.26-5.82
		C536.11,124.3,534.25,118.8,534.25,111.68z M542.98,107.73c0,4.97,0.32,8.63,0.96,11c1,3.82,2.59,6.69,4.76,8.61
		c2.17,1.92,4.7,2.89,7.58,2.89c3.73,0,6.8-1.42,9.2-4.25c2.4-2.83,3.6-7.38,3.6-13.66c0-7.03-1.36-12.23-4.07-15.61
		c-2.72-3.38-5.91-5.07-9.58-5.07c-3.64,0-6.62,1.33-8.95,3.98C544.14,98.27,542.98,102.3,542.98,107.73z"/>
	<path fill="#FFFFFF" d="M614.19,102.04l-2.95-0.32c0.61-3.15,1.03-6.29,1.27-9.41c5.9-2.67,11.22-4,15.97-4
		c2.06,0,3.92,0.3,5.58,0.89c1.66,0.59,2.98,1.41,3.95,2.45c0.97,1.04,1.7,2.29,2.2,3.75s0.75,3.77,0.75,6.95l-0.41,18.77
		c0,2.54,0.29,4.21,0.86,5c0.58,0.79,1.32,1.18,2.23,1.18c1.09,0,2.8-0.82,5.13-2.45l1.41,1.86c-4.27,3.82-6.61,5.85-7,6.09
		c-0.85,0.48-1.91,0.73-3.18,0.73c-1.97,0-3.49-0.49-4.57-1.48c-1.08-0.98-1.79-2.64-2.16-4.98c-3.63,2.82-6.33,4.6-8.09,5.34
		c-1.76,0.74-3.67,1.11-5.73,1.11c-3.36,0-6.07-1.02-8.13-3.07c-2.06-2.04-3.09-4.66-3.09-7.84c0-1.94,0.36-3.69,1.09-5.25
		c0.73-1.56,1.77-2.93,3.14-4.11c1.06-0.88,2.85-1.94,5.36-3.18c5.91-2.88,11.06-5.2,15.45-6.95c-0.15-4.27-0.86-7.1-2.13-8.5
		s-3.22-2.09-5.85-2.09c-2.48,0-4.6,0.77-6.37,2.29C617.16,96.37,615.58,98.77,614.19,102.04z M633.28,107.09
		c-7.91,3.54-12.69,6.13-14.34,7.75c-1.65,1.62-2.48,3.57-2.48,5.84s0.62,4.09,1.86,5.45s2.7,2.04,4.36,2.04
		c1.73,0,3.6-0.57,5.61-1.7c2.01-1.14,3.35-2.42,4-3.84c0.65-1.42,0.98-4.01,0.98-7.77V107.09z"/>
	<path fill="#FFFFFF" d="M651.91,74.6v-2.54c5.39-1.73,10.27-3.71,14.63-5.95l1.23,0.82c-0.73,5.7-1.09,16.28-1.09,31.77
		c0,15.63,0.06,24.28,0.18,25.93c0.12,1.65,0.46,2.76,1.02,3.32c0.56,0.56,2.75,1.37,6.57,2.43v2.54c-4.87-0.33-8.65-0.5-11.34-0.5
		c-2.87,0-6.59,0.17-11.16,0.5v-2.54c4.09-1.27,6.32-2.09,6.68-2.45c0.36-0.36,0.59-1.24,0.68-2.64c0.09-1.85,0.14-10.19,0.14-25.04
		l-0.09-21.59V78c0-1.67-0.23-2.76-0.68-3.27c-0.45-0.51-1.17-0.77-2.14-0.77C655.73,73.96,654.18,74.17,651.91,74.6z"/>
	<path fill="#FFFFFF" d="M701.85,132.9v-2.54c3.73-0.85,5.77-1.61,6.13-2.27c0.48-0.88,0.73-6.79,0.73-17.72
		c0-5.33,0.04-10.68,0.14-16.04c-2.21,0.06-4.39,0.2-6.54,0.41v-2.18c2.24-0.91,4.42-2,6.54-3.27c0.03-5.21,0.18-8.42,0.46-9.63
		c0.45-2.18,1.58-4.35,3.36-6.5c1.79-2.15,4.14-3.95,7.04-5.41c2.09-1.09,4.35-1.64,6.77-1.64c1.82,0,3.5,0.21,5.04,0.64
		c1.54,0.42,3.51,1.24,5.91,2.45c-1.15,3.15-2.2,6.39-3.13,9.73l-2.5-0.32c-0.45-3.03-1.34-5.17-2.66-6.41
		c-1.32-1.24-3.05-1.86-5.2-1.86c-1.88,0-3.43,0.59-4.66,1.77c-1.23,1.18-2.08,2.98-2.57,5.41c-0.33,1.61-0.5,4.86-0.5,9.77
		c0,0.61,0.01,1.5,0.05,2.68c2.15,0.06,3.44,0.09,3.86,0.09l7.73-0.09l0.59,0.59c-0.94,1.3-1.71,2.7-2.32,4.18
		c-3.33-0.21-6.62-0.35-9.86-0.41c-0.06,4.33-0.09,9.97-0.09,16.91l0.09,11.86v0.55c0,2.39,0.25,3.86,0.75,4.41
		c0.5,0.54,2.45,1.2,5.84,1.95c0.36,0.09,0.88,0.21,1.55,0.36v2.54c-4.09-0.33-7.61-0.5-10.54-0.5
		C711.27,132.4,707.28,132.57,701.85,132.9z"/>
	<path fill="#FFFFFF" d="M727.89,93.68v-2.54c5.51-0.3,10.59-0.97,15.22-2l1.14,0.86c-0.64,5.24-0.96,11.6-0.96,19.09
		c0,6.51,0.21,10.67,0.61,12.47c0.41,1.8,1.29,3.22,2.66,4.25s3,1.54,4.91,1.54c2.18,0,4.23-0.59,6.16-1.77
		c1.92-1.18,3.26-2.68,4.02-4.5c0.76-1.82,1.14-4.62,1.14-8.41c0-0.46-0.09-5.56-0.27-15.32c-0.15-1.3-0.54-2.18-1.16-2.64
		s-2.34-0.76-5.16-0.91l-1.64-0.14v-2.54c6.48-0.48,11.54-1.15,15.18-2l1.18,0.86c-0.27,2.52-0.48,5.66-0.61,9.43
		c-0.14,3.77-0.2,8.17-0.2,13.2c0,6.33,0.17,10.09,0.5,11.27c0.33,1.18,1.18,1.77,2.54,1.77c0.79,0,2.38-0.18,4.77-0.54v2.54
		c-3.12,0.82-5.75,1.65-7.88,2.5c-2.14,0.85-4.4,1.97-6.79,3.36l-1.36-1c0.39-2.24,0.62-4.48,0.68-6.73
		c-3.58,3.33-6.26,5.45-8.04,6.36c-1.79,0.91-3.79,1.36-6,1.36c-4.18,0-7.3-1.03-9.36-3.09c-2.09-2.03-3.14-5.13-3.14-9.32v-15.91
		c-0.03-5.67-0.36-8.92-0.98-9.77c-0.62-0.85-2.48-1.38-5.57-1.59C729.12,93.83,728.59,93.77,727.89,93.68z"/>
	<path fill="#FFFFFF" d="M792.29,78.32h2.64l-1.05,11.59l12.59-0.14l0.36,0.72c-0.76,1.23-1.45,2.55-2.09,3.96
		c-3.58-0.16-7.2-0.26-10.86-0.32l-0.41,23.36v0.27c0,3.61,0.4,6.2,1.21,7.79c0.8,1.59,2.17,2.39,4.11,2.39
		c1.61,0,3.73-0.68,6.36-2.04l1.32,2.59c-3.3,2.06-5.82,3.42-7.54,4.07c-1.73,0.65-3.23,0.98-4.5,0.98c-2,0-3.7-0.52-5.09-1.57
		c-1.39-1.04-2.32-2.49-2.77-4.34c-0.27-1.03-0.41-4.18-0.41-9.45c0-5.64,0.17-13.65,0.5-24.04c-2.12,0.05-4.32,0.16-6.59,0.32V92
		c2.54-1.15,4.75-2.72,6.61-4.71C788.54,85.3,790.41,82.31,792.29,78.32z"/>
	<path fill="#FFFFFF" d="M807.33,93.68v-2.54c5.51-0.3,10.59-0.97,15.22-2l1.14,0.86c-0.64,5.24-0.96,11.6-0.96,19.09
		c0,6.51,0.21,10.67,0.61,12.47c0.41,1.8,1.29,3.22,2.66,4.25s3,1.54,4.91,1.54c2.18,0,4.23-0.59,6.16-1.77
		c1.92-1.18,3.26-2.68,4.02-4.5c0.76-1.82,1.14-4.62,1.14-8.41c0-0.46-0.09-5.56-0.27-15.32c-0.15-1.3-0.54-2.18-1.16-2.64
		s-2.34-0.76-5.16-0.91l-1.64-0.14v-2.54c6.48-0.48,11.54-1.15,15.18-2l1.18,0.86c-0.27,2.52-0.48,5.66-0.61,9.43
		c-0.14,3.77-0.2,8.17-0.2,13.2c0,6.33,0.17,10.09,0.5,11.27c0.33,1.18,1.18,1.77,2.54,1.77c0.79,0,2.38-0.18,4.77-0.54v2.54
		c-3.12,0.82-5.75,1.65-7.88,2.5c-2.14,0.85-4.4,1.97-6.79,3.36l-1.36-1c0.39-2.24,0.62-4.48,0.68-6.73
		c-3.58,3.33-6.26,5.45-8.04,6.36c-1.79,0.91-3.79,1.36-6,1.36c-4.18,0-7.3-1.03-9.36-3.09c-2.09-2.03-3.14-5.13-3.14-9.32v-15.91
		c-0.03-5.67-0.36-8.92-0.98-9.77c-0.62-0.85-2.48-1.38-5.57-1.59C808.56,93.83,808.03,93.77,807.33,93.68z"/>
	<path fill="#FFFFFF" d="M859.87,96.73v-2.54c5.65-1.42,10.47-3.38,14.46-5.86l1.18,0.87c-0.49,2.95-0.77,6.18-0.86,9.68
		c3.67-4.47,6.23-7.21,7.68-8.22c1.46-1,3.17-1.51,5.14-1.51c1.3,0,2.76,0.32,4.36,0.95c-0.67,3.11-1.21,6.27-1.64,9.5h-2.27
		c-0.27-1.45-0.73-2.51-1.36-3.16c-0.64-0.65-1.35-0.98-2.14-0.98c-1.21,0-2.51,0.56-3.91,1.68c-2.06,1.67-3.55,3.58-4.48,5.74
		c-0.92,2.16-1.39,5.23-1.39,9.19c0,7.02,0.2,11.74,0.59,14.16c0.15,0.91,0.57,1.62,1.25,2.13c0.68,0.51,2.82,1.18,6.43,2v2.54
		c-3.79-0.33-7.23-0.5-10.32-0.5c-2.58,0-6.83,0.17-12.77,0.5v-2.54c4.15-1.03,6.49-1.83,7.02-2.39c0.53-0.56,0.79-2.07,0.79-4.52
		l0.09-9.86c0-9.66-0.09-14.86-0.27-15.59c-0.3-1.24-1.14-1.86-2.53-1.86c-0.78,0-2.08,0.15-3.88,0.45
		C860.77,96.62,860.38,96.67,859.87,96.73z"/>
	<path fill="#FFFFFF" d="M894.81,111.68c0-7.33,2.08-13.13,6.23-17.41c4.16-4.27,9.61-6.41,16.38-6.41c6.4,0,11.47,1.92,15.22,5.77
		c3.75,3.85,5.62,9.23,5.62,16.13c0,7.45-2.1,13.35-6.3,17.7c-4.2,4.35-9.64,6.52-16.31,6.52c-6.46,0-11.55-1.94-15.26-5.82
		C896.67,124.3,894.81,118.8,894.81,111.68z M903.54,107.73c0,4.97,0.32,8.63,0.96,11c1,3.82,2.59,6.69,4.76,8.61
		c2.17,1.92,4.7,2.89,7.58,2.89c3.73,0,6.8-1.42,9.2-4.25c2.4-2.83,3.6-7.38,3.6-13.66c0-7.03-1.36-12.23-4.07-15.61
		c-2.72-3.38-5.91-5.07-9.58-5.07c-3.64,0-6.62,1.33-8.95,3.98C904.7,98.27,903.54,102.3,903.54,107.73z"/>
</g>
</svg>
