<?xml version="1.0" encoding="utf-8"?>
<!-- Generator: Adobe Illustrator 26.0.0, SVG Export Plug-In . SVG Version: 6.00 Build 0)  -->
<svg version="1.1" id="Capa_1" xmlns="http://www.w3.org/2000/svg" xmlns:xlink="http://www.w3.org/1999/xlink" x="0px" y="0px"
	 viewBox="0 0 19.8 19.8" style="enable-background:new 0 0 19.8 19.8;" xml:space="preserve">
<style type="text/css">
	.st0{fill:#E5E5E5;}
</style>
<path class="st0" d="M19.1,7.6l-2.6-4.4c-0.8-1.5-2.4-2.4-4.1-2.4H7.4c-1.7,0-3.2,0.9-4.1,2.4L0.7,7.6c-0.9,1.5-0.9,3.3,0,4.7
	l2.6,4.4c0.8,1.5,2.4,2.4,4.1,2.4h5.1c1.7,0,3.2-0.9,4.1-2.4l2.6-4.4C20,10.8,20,9,19.1,7.6z M9.9,14.2c-2.4,0-4.3-1.9-4.3-4.3
	s1.9-4.3,4.3-4.3c2.4,0,4.3,1.9,4.3,4.3S12.3,14.2,9.9,14.2z"/>
</svg>
