<?xml version="1.0" encoding="utf-8"?>
<!-- Generator: Adobe Illustrator 26.0.0, SVG Export Plug-In . SVG Version: 6.00 Build 0)  -->
<svg version="1.1" id="Capa_1" xmlns="http://www.w3.org/2000/svg" xmlns:xlink="http://www.w3.org/1999/xlink" x="0px" y="0px"
	 viewBox="0 0 19.8 19.8" style="enable-background:new 0 0 19.8 19.8;" xml:space="preserve">
<style type="text/css">
	.st0{fill:#E5E5E5;}
</style>
<path class="st0" d="M16.5,3.3C12.8-0.3,6.9-0.3,3.3,3.4C3,3.6,2.8,3.9,2.6,4.2C2.5,4.3,2.4,4.4,2.3,4.6v0
	c-2.6,3.6-2.2,8.7,1.1,11.9c1.8,1.8,4.1,2.7,6.6,2.7h0c2,0,3.9-0.6,5.4-1.8h0c0.1-0.1,0.2-0.2,0.3-0.2c0.3-0.2,0.6-0.5,0.8-0.7
	C20.2,12.8,20.1,6.9,16.5,3.3z M2.5,7.1c0,0-0.1,0-0.1-0.1C2.2,6.7,2,6.4,1.8,6.1c0,0,0-0.1,0-0.1c0,0,0-0.1,0.1-0.1L3,5.1
	c0,0,0.1,0,0.1,0c0,0,0.1,0,0.1,0.1c0.2,0.3,0.4,0.6,0.6,0.9c0,0.1,0,0.2,0,0.2L2.5,7.1C2.6,7.1,2.5,7.1,2.5,7.1z M3.9,8.9
	c0,0-0.1,0-0.1,0C3.5,8.6,3.3,8.3,3.1,8c0,0,0-0.1,0-0.1c0,0,0-0.1,0.1-0.1l1.1-0.9c0,0,0.1,0,0.1,0c0,0,0.1,0,0.1,0.1
	c0.2,0.3,0.4,0.6,0.7,0.9c0.1,0.1,0,0.1,0,0.2L3.9,8.9C4,8.9,3.9,8.9,3.9,8.9z M5.4,10.6c0,0-0.1,0-0.1,0C5,10.3,4.8,10,4.5,9.7
	c0,0,0-0.1,0-0.1c0,0,0-0.1,0-0.1l1.1-0.9c0,0,0.1,0,0.1,0c0,0,0.1,0,0.1,0c0.2,0.3,0.5,0.6,0.7,0.8c0.1,0.1,0.1,0.1,0,0.2l-1,0.9
	C5.5,10.6,5.4,10.6,5.4,10.6z M7,12.3c0,0-0.1,0-0.1,0c-0.3-0.3-0.5-0.5-0.8-0.8c-0.1-0.1-0.1-0.1,0-0.2l1-1c0,0,0.1,0,0.1,0
	c0,0,0.1,0,0.1,0c0.3,0.3,0.5,0.5,0.8,0.8c0.1,0.1,0.1,0.1,0,0.2l-1,1C7,12.3,7,12.3,7,12.3z M8.6,13.9c0,0-0.1,0-0.1,0
	c-0.3-0.3-0.6-0.5-0.8-0.8c-0.1-0.1-0.1-0.1,0-0.2l1-1c0,0,0.1,0,0.1,0c0,0,0.1,0,0.1,0c0.3,0.3,0.5,0.5,0.8,0.8c0,0,0,0.1,0,0.1
	c0,0,0,0.1,0,0.1l-1,1C8.7,13.9,8.6,13.9,8.6,13.9z M10.3,15.4C10.3,15.4,10.2,15.4,10.3,15.4c-0.4-0.3-0.7-0.5-1-0.8
	c-0.1,0-0.1-0.1,0-0.2l0.9-1.1c0.1-0.1,0.1-0.1,0.2,0c0.3,0.2,0.6,0.5,0.8,0.7c0.1,0.1,0.1,0.1,0,0.2l-0.9,1.1
	C10.4,15.4,10.3,15.4,10.3,15.4z M12.1,16.8C12,16.8,12,16.8,12.1,16.8c-0.4-0.2-0.7-0.5-1-0.7c-0.1,0-0.1-0.1,0-0.2l0.9-1.1
	c0-0.1,0.1-0.1,0.2,0c0.3,0.2,0.6,0.4,0.9,0.7c0.1,0,0.1,0.1,0,0.2l-0.9,1.1C12.2,16.8,12.1,16.8,12.1,16.8z M14.8,16.9l-0.7,1.2
	c0,0-0.1,0.1-0.1,0.1c0,0,0,0-0.1,0c-0.3-0.2-0.7-0.4-1-0.6c-0.1,0-0.1-0.1,0-0.2l0.8-1.2c0-0.1,0.1-0.1,0.2,0
	c0.3,0.2,0.6,0.4,0.9,0.6C14.9,16.7,14.9,16.8,14.8,16.9z"/>
<g>
	<path class="st0" d="M1.9,2.6c0,0,0-0.1,0-0.1c0-0.2,0-0.4,0-0.4C2,2,2,1.9,2,1.8L0.9,0.9c-0.1,0-0.1,0-0.2,0
		C0.3,1.4,0.2,2,0.3,2.7c0,0.1,0.1,0.1,0.1,0.1c0,0,0,0,0,0L1.9,2.6C1.9,2.6,1.9,2.6,1.9,2.6z"/>
	<path class="st0" d="M2.3,2c0.2,0,0.5,0.1,0.8,0.2c0,0,0,0,0,0c0,0,0,0,0.1,0c0,0,0.1,0,0.1-0.1l0.5-1.3c0,0,0-0.1,0-0.1
		c0,0,0-0.1-0.1-0.1C3.3,0.4,2.8,0.3,2.4,0.3c-0.1,0-0.1,0.1-0.1,0.1L2.2,1.9C2.2,1.9,2.2,1.9,2.3,2C2.2,2,2.3,2,2.3,2z"/>
	<path class="st0" d="M2.6,4.2C2.4,3.9,2.3,3.6,2.2,3.3c0,0,0-0.1-0.1-0.1c0,0-0.1,0-0.1,0L0.7,3.8c-0.1,0-0.1,0.1-0.1,0.2
		c0.1,0.3,0.3,0.7,0.5,1.1c0,0,0.1,0.1,0.1,0.1c0,0,0,0,0.1,0l1.2-0.7C2.6,4.4,2.7,4.3,2.6,4.2z"/>
	<path class="st0" d="M16.6,17.6c-0.3-0.1-0.6-0.2-0.9-0.4c-0.1,0-0.2,0-0.2,0.1l-0.7,1.2c0,0.1,0,0.2,0.1,0.2
		c0.4,0.2,0.8,0.4,1.1,0.5c0,0,0,0,0,0c0,0,0,0,0.1,0c0,0,0.1,0,0.1-0.1l0.5-1.3C16.7,17.8,16.7,17.7,16.6,17.6
		C16.7,17.7,16.7,17.6,16.6,17.6z"/>
	<path class="st0" d="M18.1,17.8c-0.1,0-0.1,0-0.2,0c-0.1,0.1-0.2,0.1-0.4,0.1c-0.1,0-0.1,0.1-0.2,0.1l-0.1,1.4c0,0,0,0.1,0,0.1
		c0,0,0.1,0,0.1,0c0.1,0,0.2,0,0.2,0c0.6,0,1.1-0.2,1.5-0.6l0.1-0.2c0,0,0-0.1,0-0.1c0,0,0-0.1-0.1-0.1L18.1,17.8z"/>
	<path class="st0" d="M19.2,15.8c0-0.1-0.1-0.1-0.2-0.1l-1.3,0.5c-0.1,0-0.1,0.1-0.1,0.2c0.1,0.3,0.2,0.6,0.3,0.9
		c0,0.1,0.1,0.1,0.1,0.1c0,0,0,0,0,0l1.4-0.2c0.1,0,0.1-0.1,0.1-0.2C19.5,16.7,19.4,16.3,19.2,15.8z"/>
</g>
</svg>
