<?xml version="1.0" encoding="utf-8"?>
<!-- Generator: Adobe Illustrator 26.0.0, SVG Export Plug-In . SVG Version: 6.00 Build 0)  -->
<svg version="1.1" id="Capa_1" xmlns="http://www.w3.org/2000/svg" xmlns:xlink="http://www.w3.org/1999/xlink" x="0px" y="0px"
	 viewBox="0 0 100 100" style="enable-background:new 0 0 100 100;" xml:space="preserve">
<style type="text/css">
	.st0{fill:url(#SVGID_1_);}
	.st1{fill:url(#SVGID_00000119837902511260725370000011960527997819437972_);}
	.st2{fill:url(#SVGID_00000177477075300496687490000002837607850986236324_);}
	.st3{fill:#FFFFFF;stroke:#FFFFFF;stroke-width:0.75;stroke-linecap:round;stroke-linejoin:round;stroke-miterlimit:10;}
	.st4{fill:#FFFFFF;}
</style>
<g>
	<g>
		<linearGradient id="SVGID_1_" gradientUnits="userSpaceOnUse" x1="19.7619" y1="58.7738" x2="80.157" y2="58.7738">
			<stop  offset="0" style="stop-color:#002B4D"/>
			<stop  offset="0.3575" style="stop-color:#006A5E"/>
			<stop  offset="0.3878" style="stop-color:#096B5C"/>
			<stop  offset="0.4382" style="stop-color:#236D55"/>
			<stop  offset="0.5025" style="stop-color:#4C714B"/>
			<stop  offset="0.5781" style="stop-color:#86773D"/>
			<stop  offset="0.6625" style="stop-color:#CF7D2C"/>
			<stop  offset="0.692" style="stop-color:#EA8025"/>
			<stop  offset="1" style="stop-color:#8E1133"/>
		</linearGradient>
		<path class="st0" d="M66.9,56.7L66.9,56.7c-0.2-0.1-0.3-0.2-0.5-0.2c-0.2-0.1-0.3-0.1-0.5-0.2c-0.1,0-0.1,0-0.1,0
			c0,0-0.1-0.1-0.2-0.1c-0.1,0-0.1-0.1-0.2-0.1C65.2,56.1,65,56,64.9,56c-0.3-0.1-0.6-0.2-0.9-0.3l-0.1,0c-0.1,0-0.2-0.1-0.2-0.1
			c0,0-0.1,0-0.2-0.1c-0.1,0-0.2-0.1-0.3-0.1c-0.1,0-0.2-0.1-0.3-0.1c-1.3-0.4-2.8-0.7-4.2-1.1c-1.4-0.2-2.8-0.5-4.3-0.6
			c-0.6-0.1-1.2-0.1-1.7-0.1l1.2-1.3c0.2-0.2,0.4-0.6,0-1.2c-0.4-0.4-0.9-0.4-1.2,0L50,53.3l-2.6-2.3c-0.2-0.2-0.6-0.4-1.2,0
			c-0.4,0.4-0.4,0.9,0,1.2l1.2,1.3c-0.2,0-0.3,0-0.5,0c-0.4,0-0.8,0-1.2,0.1c-1.7,0.2-3,0.3-4.3,0.6c-1.2,0.2-2.5,0.6-4.2,1.1
			l-0.8,0.3c-0.2,0.1-0.2,0-0.3,0.1c-0.1,0.1-0.3,0.1-0.6,0.2l-0.4,0.2c-0.3,0.1-0.6,0.2-0.9,0.3c-0.4,0.2-0.8,0.3-1.2,0.4
			c-4.7,2-9.2,4.9-13.1,8.6c-0.4,0.4-0.4,0.9,0,1.2c0.1,0.1,0.4,0.3,0.6,0.3c0.3,0,0.5-0.2,0.5-0.2c1.6-1.3,3.3-2.5,5.5-4
			c2.2-1.4,4.7-2.6,7.2-3.6c0.5-0.2,0.9-0.3,1.3-0.5c0.2-0.1,0.4-0.2,0.6-0.2c0.4-0.2,0.8-0.3,1.2-0.4c0.2-0.1,0.5-0.1,0.7-0.2
			c0.3-0.1,0.7-0.2,1.1-0.3c1-0.3,2-0.5,2.9-0.7c1.2-0.2,2.4-0.4,3.6-0.5l0.5-0.1c0.4,0,0.8-0.1,1.2-0.1l-1,1.1
			c-0.2,0.2-0.4,0.6,0,1.2c0.4,0.4,0.9,0.4,1.2,0l2.7-2.4l2.6,2.4c0.2,0.2,0.6,0.4,1.2,0c0.4-0.4,0.4-0.9,0-1.2l-1-1.1
			c0.4,0,0.8,0.1,1.2,0.1c1.3,0.2,2.7,0.3,4,0.6c0.8,0.2,1.8,0.4,2.7,0.6l1.3,0.3c0.1,0,0.2,0.1,0.3,0.1c0.2,0.1,0.5,0.1,0.7,0.2
			l0.7,0.2c0,0,0.1,0.1,0.2,0.1l0.2,0.1c0.2,0.1,0.3,0.1,0.6,0.2c0,0,0.1,0,0.2,0.1l0.7,0.2c0,0,0.1,0.1,0.1,0.1
			c0,0,0.1,0.1,0.1,0.1c2.4,0.9,4.8,2.1,7.3,3.6c1.6,1,3.3,2.2,5.5,3.9c0.4,0.2,0.7,0.2,1.1,0c0.4,0,0.6-0.3,0.6-0.4
			c0.1-0.2,0-0.5-0.3-0.7C76.2,61.7,71.7,58.7,66.9,56.7z"/>
		
			<linearGradient id="SVGID_00000124852029404375990450000013418735932244524711_" gradientUnits="userSpaceOnUse" x1="35.4606" y1="42.4988" x2="65.6056" y2="42.4988">
			<stop  offset="0" style="stop-color:#002B4D"/>
			<stop  offset="0.3575" style="stop-color:#006A5E"/>
			<stop  offset="0.3878" style="stop-color:#096B5C"/>
			<stop  offset="0.4382" style="stop-color:#236D55"/>
			<stop  offset="0.5025" style="stop-color:#4C714B"/>
			<stop  offset="0.5781" style="stop-color:#86773D"/>
			<stop  offset="0.6625" style="stop-color:#CF7D2C"/>
			<stop  offset="0.692" style="stop-color:#EA8025"/>
			<stop  offset="1" style="stop-color:#8E1133"/>
		</linearGradient>
		<path style="fill:url(#SVGID_00000124852029404375990450000013418735932244524711_);" d="M35.9,34.4l0.4-0.1
			c0.3,0.1,0.6,0.1,0.9,0l0.2,0c0.2,0,0.4,0,0.6-0.1c0.4-0.1,0.8-0.1,1.2-0.1c0,0.1,0,0.4,0,0.9v1.8c0,3.3,0,6.1-0.1,8.8
			c0,0.6,0,1.1-0.1,1.7c0,0.6,0,1.1-0.1,1.7v0.2c0,0.5,0,1-0.2,1.4c-0.4,0.3-0.9,0.6-1.4,0.8c-0.1,0-0.1,0.1-0.2,0.1
			c-0.1,0-0.1,0.1-0.3,0.1c-0.1,0-0.1,0.1-0.2,0.1c-0.1,0.1-0.2,0.1-0.4,0.2c-0.1,0-0.2,0.1-0.2,0.2l-0.1,0.2c0,0.1,0,0.1,0,0.2v1.7
			c0,0.1,0.1,0.2,0.2,0.3c0.1,0.1,0.2,0.1,0.3,0l0.7-0.2c1.7-0.7,3-1,3.9-1.2c1.4-0.2,2.8-0.4,4-0.5h0.4c0.2,0,0.4-0.2,0.4-0.4v-1.7
			c0-0.2-0.1-0.3-0.3-0.3L45.1,50c-0.1,0-0.3,0-0.4,0c-0.1,0-0.3,0-0.3,0h-0.6c-0.8,0-1-0.1-1,0c-0.1-0.1-0.1-0.8-0.1-1v-0.3
			c0-1.1,0-2.2,0-3.4c0-1.1,0-2.3,0-3.5c0-0.8,0-1.7,0-2.5c0-0.3,0-0.7,0-1c2.4,4.6,4.6,9,6.6,13.2l0.2,0.2c0.1,0.1,0.2,0.2,0.3,0.2
			h1.4c0.1,0,0.2-0.1,0.3-0.2l0.2-0.3c0.6-1.4,1.3-2.9,1.9-4.2l0.4-0.8c0.3-0.7,0.7-1.4,1-2c1-2.1,2-4.2,3.2-6.3v10.2
			c0,0.5,0,1-0.1,1.4c-0.3,0.1-0.7,0.1-1.2,0.1H56c-0.3,0-0.6,0.1-1,0.2L54.7,50c-0.2,0-0.3,0.2-0.3,0.3v1.7c0,0.2,0.2,0.4,0.4,0.4
			l0.4,0l0.7,0.1c1.5,0.1,2.8,0.2,4,0.6c1.5,0.3,3.1,0.8,4.4,1.4l0.6,0.2c0,0,0.1,0,0.1,0c0.1,0,0.1,0,0.2-0.1
			c0.1-0.1,0.2-0.2,0.2-0.3v-1.7c0-0.1-0.1-0.2-0.2-0.3l-0.2-0.2c-0.2-0.1-0.4-0.2-0.5-0.3l-0.1,0c-0.3-0.2-0.6-0.3-0.8-0.4
			c-0.5-0.2-1-0.5-1.4-0.8c0,0,0-0.1,0-0.1c-0.1-2.7-0.1-5.5-0.1-8.2l0.1-7v-0.2c0-0.4,0-0.5,0-0.6c0.4,0,0.9,0,1.4,0
			c0.1,0,0.2,0,0.2,0c0.2,0.1,0.3,0,0.9,0.1h0.5c0.2,0,0.4-0.2,0.4-0.4v-1.9c0-0.2-0.1-0.3-0.3-0.3L65,32c-0.6-0.2-1-0.2-1.6-0.3
			c-0.3-0.1-0.6-0.1-0.9-0.2c-0.3-0.1-0.5-0.1-0.8-0.2l-1.9-0.5c-0.1,0-0.2,0-0.3-0.1c-0.3-0.1-0.6-0.2-0.9-0.2l-0.4-0.2
			c-0.2-0.1-0.4,0-0.5,0.2l-0.2,0.4c-0.3,0.9-0.7,1.9-1.3,3c-1.9,3.7-3.8,7.4-5.6,11.3c-0.4-0.8-0.8-1.6-1.2-2.5
			c-0.3-0.7-0.6-1.3-1-2c-0.6-1.1-1-2.1-1.6-3.1c-0.4-0.8-0.7-1.5-1.1-2.3c-0.4-0.8-0.8-1.5-1.1-2.3c-0.1-0.2-0.2-0.5-0.3-0.7
			c-0.2-0.5-0.5-0.9-0.6-1.5l-0.2-0.3c-0.1-0.1-0.2-0.2-0.3-0.2l-0.4,0c-0.4,0.1-0.8,0.2-1.2,0.3c-0.7,0.2-1.3,0.3-1.9,0.4
			c-0.1,0-0.3,0.1-0.4,0.1c-0.3,0.1-0.6,0.1-0.8,0.1c0,0-0.1,0-0.1,0c-0.3,0.1-0.7,0.2-1.1,0.3c-0.4,0.1-0.8,0.2-1.2,0.3l-0.3,0.1
			c-0.2,0-0.3,0.2-0.3,0.3v1.8c0,0.1,0,0.2,0.1,0.3C35.7,34.4,35.8,34.4,35.9,34.4z"/>
		
			<linearGradient id="SVGID_00000108294375350237210110000007545168951136224655_" gradientUnits="userSpaceOnUse" x1="2.7821" y1="50.5161" x2="97.136" y2="50.5161">
			<stop  offset="0" style="stop-color:#002B4D"/>
			<stop  offset="0.3575" style="stop-color:#006A5E"/>
			<stop  offset="0.3878" style="stop-color:#096B5C"/>
			<stop  offset="0.4382" style="stop-color:#236D55"/>
			<stop  offset="0.5025" style="stop-color:#4C714B"/>
			<stop  offset="0.5781" style="stop-color:#86773D"/>
			<stop  offset="0.6625" style="stop-color:#CF7D2C"/>
			<stop  offset="0.692" style="stop-color:#EA8025"/>
			<stop  offset="1" style="stop-color:#8E1133"/>
		</linearGradient>
		<path style="fill:url(#SVGID_00000108294375350237210110000007545168951136224655_);" d="M50,3.3c-26,0-47.2,21.2-47.2,47.2
			c0,26,21.2,47.2,47.2,47.2c26,0,47.2-21.2,47.2-47.2C97.1,24.5,76,3.3,50,3.3z M92.4,50.5c0,23.4-19,42.4-42.4,42.4
			c-23.4,0-42.4-19-42.4-42.4c0-23.4,19-42.4,42.4-42.4C73.3,8.1,92.4,27.1,92.4,50.5z"/>
	</g>
	<g>
		<g>
			<path class="st3" d="M80.2,64.1L80.2,64.1c-3.6-3.5-8.1-6.5-12.9-8.5l0,0c-0.2-0.1-0.2-0.2-0.4-0.2c-0.2-0.1-0.4-0.2-0.6-0.2
				c-0.1,0-0.2-0.1-0.2-0.1c-0.2-0.1-0.6-0.2-0.7-0.2c-0.3-0.2-0.7-0.2-1-0.3c-0.2-0.1-0.2-0.1-0.4-0.2c-0.2-0.1-0.4-0.2-0.6-0.2
				c-1.3-0.4-2.7-0.7-4.2-1c-1.4-0.2-2.8-0.5-4.3-0.6c-0.7-0.1-1.6-0.2-2.4-0.2l1.7-1.8c0.2-0.2,0.2-0.5,0-0.7
				c-0.2-0.2-0.5-0.2-0.7,0l-2.7,2.5h-0.2l-2.7-2.5c-0.2-0.2-0.5-0.2-0.7,0c-0.2,0.2-0.2,0.5,0,0.7l1.7,1.8
				c-0.7,0.1-1.6,0.1-2.4,0.2c-1.5,0.2-3,0.3-4.3,0.6c-1.4,0.2-2.8,0.6-4.1,1c-0.2,0.1-0.5,0.2-0.7,0.2c-0.2,0.1-0.2,0.1-0.3,0.1
				c-0.2,0.1-0.3,0.2-0.6,0.2l-0.5,0.2c-0.7,0.2-1.4,0.6-2,0.7c-4.8,2-9.2,5-12.9,8.5c-0.2,0.2-0.2,0.5,0,0.7
				c0.1,0.1,0.2,0.2,0.3,0.2c0.2,0,0.2-0.1,0.3-0.2c1.8-1.5,3.7-2.8,5.5-4c2.3-1.4,4.8-2.7,7.3-3.6c0.7-0.2,1.3-0.5,1.9-0.7
				c0.6-0.2,1.2-0.4,1.9-0.6c1.3-0.3,2.7-0.7,4-1c1.4-0.2,2.7-0.4,4-0.6c0.7-0.1,1.4-0.2,2.1-0.2l-1.6,1.8c-0.2,0.2-0.2,0.5,0,0.7
				c0.2,0.2,0.5,0.2,0.7,0l2.8-2.6h0.2l2.7,2.6c0.2,0.2,0.5,0.2,0.7,0c0.2-0.2,0.2-0.5,0-0.7l-1.6-1.8c0.7,0,1.4,0.1,2.1,0.2
				c1.4,0.2,2.7,0.3,4,0.6c1.2,0.2,2.6,0.6,4,0.9c0.3,0.1,0.7,0.2,1,0.2l0,0c0.2,0.1,0.5,0.2,0.7,0.2c0.1,0,0.2,0.1,0.2,0.1l0,0
				c0.2,0.1,0.4,0.2,0.7,0.2c0.1,0,0.2,0.1,0.2,0.1c0.2,0.1,0.5,0.2,0.7,0.2c0.1,0.1,0.2,0.1,0.2,0.2c2.6,1,5,2.2,7.4,3.6
				c1.8,1.1,3.7,2.5,5.5,3.9c0.2,0.2,0.5,0.2,0.7-0.1C80.4,64.6,80.4,64.2,80.2,64.1z"/>
			<path class="st3" d="M37.7,32.5c0.1,0,0.2,0,0.2,0c0.7-0.1,1.4-0.2,2.1-0.2c0.1,0,0.1,0.1,0.1,0.1l0,0c0,0.1,0.1,0.2,0.1,1.1
				c0,0.2,0,0.6,0,0.9c0,0.2,0,0.6,0,0.9c0,3.3,0,6.1-0.1,8.8c0,0.6,0,1.1-0.1,1.7c0,0.6,0,1.1-0.1,1.7c0,0.1,0,0.2,0,0.2
				c0,0.6,0,1.1-0.2,1.6c-0.4,0.3-1,0.6-1.5,0.9c-0.2,0.1-0.2,0.2-0.5,0.2c-0.2,0.1-0.3,0.2-0.6,0.3l-0.1,0.2v1.7l0.6-0.2
				c1.6-0.6,2.8-1,4-1.2c1.4-0.2,2.8-0.4,4-0.5H46V49l-0.4-0.1c-0.2,0-0.6-0.1-0.7-0.1c-0.2,0-0.4,0-0.6,0c-0.3,0-1.1,0-1.3-0.2
				c-0.2-0.2-0.2-0.8-0.2-1.2c0-0.2,0-0.2,0-0.3c0-2.3-0.1-4.5-0.1-6.8c0-1.7-0.1-3.3-0.1-5c2.7,5.1,5.1,9.9,7.2,14.5L50,50h0.2
				c0.3,0,0.5,0,0.8,0h0.3l0.2-0.2c0.6-1.4,1.3-2.9,1.9-4.2l0.4-0.8c1.5-3.1,3.1-6.4,4.8-9.6v11.1c0,0.2,0,0.3,0,0.6
				c0,0.6,0,1.2-0.2,1.7l0,0c0,0,0,0-0.1,0c-0.4,0.2-0.9,0.2-1.4,0.2c-0.2,0-0.4,0-0.6,0c-0.2,0-0.6,0.1-0.9,0.2l-0.3,0.1v1.7h0.4
				c1.8,0.2,3.4,0.2,4.8,0.6c1.4,0.2,2.8,0.7,4.5,1.4l0.6,0.2v-1.7L65.5,51c-0.2-0.2-0.5-0.2-0.6-0.3c-0.2-0.2-0.5-0.2-0.7-0.3
				c-0.6-0.2-1.2-0.6-1.6-0.9c0,0-0.1-0.2-0.1-0.3c-0.1-2.7-0.1-5.5-0.1-8.2c0-0.8,0-1.7,0-2.4l0.1-4.6v-0.2c0-0.7,0.1-0.9,0.2-1
				c0.5-0.1,1-0.1,1.6,0c0.2,0,0.2,0,0.4,0.1c0.2,0,0.3,0,0.7,0.1h0.5v-1.9l-0.3-0.1c-0.6-0.2-1-0.2-1.6-0.3
				c-0.6-0.2-1.1-0.2-1.7-0.4c-0.6-0.2-1.3-0.3-1.9-0.5c-0.3-0.1-0.7-0.2-1.1-0.2l-0.5-0.2l-0.2,0.3c-0.3,1-0.8,2-1.4,3.1
				c-2,3.9-4,7.9-6,11.9c-0.9-1.7-1.7-3.5-2.5-5.1c-0.6-1.1-1-2.1-1.6-3.1c-0.7-1.5-1.5-3.1-2.3-4.6c-0.3-0.7-0.7-1.4-1-2.2
				l-0.2-0.3h-0.3c-1,0.2-2.1,0.6-3.1,0.7c-0.4,0.1-0.9,0.2-1.3,0.2c-0.7,0.2-1.6,0.3-2.3,0.6l-0.3,0.1v1.8l0.5-0.1
				C37.2,32.5,37.4,32.5,37.7,32.5z"/>
		</g>
		<g>
			<path class="st4" d="M50.5,95.7C24.8,95.7,3.8,74.8,3.8,49S24.8,2.3,50.5,2.3S97.2,23.3,97.2,49S76.3,95.7,50.5,95.7z M50.5,6.1
				C26.9,6.1,7.6,25.4,7.6,49c0,23.6,19.2,42.9,42.9,42.9c23.6,0,42.9-19.2,42.9-42.9C93.4,25.4,74.2,6.1,50.5,6.1z"/>
		</g>
	</g>
</g>
</svg>
