<?xml version="1.0" encoding="utf-8"?>
<!-- Generator: Adobe Illustrator 26.0.0, SVG Export Plug-In . SVG Version: 6.00 Build 0)  -->
<svg version="1.1" id="Capa_1" xmlns="http://www.w3.org/2000/svg" xmlns:xlink="http://www.w3.org/1999/xlink" x="0px" y="0px"
	 viewBox="0 0 100 100" style="enable-background:new 0 0 100 100;" xml:space="preserve">
<style type="text/css">
	.st0{opacity:0.3;}
	
		.st1{fill:url(#SVGID_1_);stroke:url(#SVGID_00000154387192108617494540000013223265079032102042_);stroke-width:3;stroke-miterlimit:10;}
	
		.st2{fill:url(#SVGID_00000068650435038074704120000013037827003397855380_);stroke:#FFFFFF;stroke-width:0.75;stroke-miterlimit:10;}
	.st3{fill:none;stroke:url(#SVGID_00000132082588050896017190000001448353649731085216_);stroke-width:5;stroke-miterlimit:10;}
	.st4{fill:#FFFFFF;stroke:#FFFFFF;stroke-width:7;stroke-linecap:round;stroke-linejoin:round;stroke-miterlimit:10;}
	.st5{fill:#FFFFFF;stroke:#212121;stroke-width:5;stroke-linecap:round;stroke-linejoin:round;stroke-miterlimit:10;}
	.st6{fill:#FFFFFF;stroke:#FFFFFF;stroke-width:0.75;stroke-linecap:round;stroke-linejoin:round;stroke-miterlimit:10;}
</style>
<g class="st0">
	
		<linearGradient id="SVGID_1_" gradientUnits="userSpaceOnUse" x1="50" y1="100.4" x2="50" y2="3.6" gradientTransform="matrix(1 0 0 -1 0 102)">
		<stop  offset="0" style="stop-color:#7E7E7D"/>
		<stop  offset="0.6648" style="stop-color:#FFFFFF"/>
		<stop  offset="1" style="stop-color:#FFFFFF"/>
	</linearGradient>
	
		<linearGradient id="SVGID_00000124160579726258104300000006409389156368777625_" gradientUnits="userSpaceOnUse" x1="85.2732" y1="14.7268" x2="14.7268" y2="85.2732">
		<stop  offset="0" style="stop-color:#7E7E7D"/>
		<stop  offset="0.6648" style="stop-color:#FFFFFF"/>
		<stop  offset="1" style="stop-color:#FFFFFF"/>
	</linearGradient>
	
		<path style="fill:url(#SVGID_1_);stroke:url(#SVGID_00000124160579726258104300000006409389156368777625_);stroke-width:3;stroke-miterlimit:10;" d="
		M50,98.4C23.3,98.4,1.6,76.7,1.6,50S23.3,1.6,50,1.6S98.4,23.3,98.4,50S76.7,98.4,50,98.4z M50,9.6C27.7,9.6,9.6,27.7,9.6,50
		S27.7,90.4,50,90.4S90.4,72.3,90.4,50S72.3,9.6,50,9.6z"/>
</g>
<g class="st0">
	
		<linearGradient id="SVGID_00000143613434948204917970000010188121741941839504_" gradientUnits="userSpaceOnUse" x1="1.6" y1="52" x2="98.4" y2="52" gradientTransform="matrix(1 0 0 -1 0 102)">
		<stop  offset="0" style="stop-color:#FFFFFF"/>
		<stop  offset="1" style="stop-color:#7E7E7D"/>
	</linearGradient>
	
		<path style="fill:url(#SVGID_00000143613434948204917970000010188121741941839504_);stroke:#FFFFFF;stroke-width:0.75;stroke-miterlimit:10;" d="
		M50,98.4C23.3,98.4,1.6,76.7,1.6,50S23.3,1.6,50,1.6S98.4,23.3,98.4,50S76.7,98.4,50,98.4z M50,9.6C27.7,9.6,9.6,27.7,9.6,50
		S27.7,90.4,50,90.4S90.4,72.3,90.4,50S72.3,9.6,50,9.6z"/>
</g>
<linearGradient id="SVGID_00000121973954442460712020000000396944914552597416_" gradientUnits="userSpaceOnUse" x1="3.1" y1="52" x2="96.9" y2="52" gradientTransform="matrix(1 0 0 -1 0 102)">
	<stop  offset="0" style="stop-color:#002B4D"/>
	<stop  offset="0.3575" style="stop-color:#006A5E"/>
	<stop  offset="0.3878" style="stop-color:#096B5C"/>
	<stop  offset="0.4382" style="stop-color:#236D55"/>
	<stop  offset="0.5025" style="stop-color:#4C714B"/>
	<stop  offset="0.5781" style="stop-color:#86773D"/>
	<stop  offset="0.6625" style="stop-color:#CF7D2C"/>
	<stop  offset="0.692" style="stop-color:#EA8025"/>
	<stop  offset="1" style="stop-color:#8E1133"/>
</linearGradient>
<circle style="fill:none;stroke:url(#SVGID_00000121973954442460712020000000396944914552597416_);stroke-width:5;stroke-miterlimit:10;" cx="50" cy="50" r="44.4"/>
<g>
	<path class="st4" d="M86.8,70.2L86.8,70.2c-4.5-4.4-10.1-8.1-16.1-10.6l0,0c-0.2-0.1-0.3-0.2-0.5-0.2c-0.3-0.1-0.5-0.2-0.7-0.3
		c-0.1,0-0.2-0.1-0.3-0.1c-0.3-0.1-0.7-0.3-0.9-0.3c-0.4-0.2-0.9-0.3-1.3-0.4c-0.2-0.1-0.3-0.1-0.5-0.2c-0.3-0.1-0.5-0.2-0.8-0.3
		c-1.6-0.5-3.4-0.9-5.2-1.3c-1.7-0.3-3.5-0.6-5.3-0.8c-0.9-0.1-2-0.2-3-0.2l2.1-2.3c0.3-0.3,0.2-0.6,0-0.9c-0.3-0.3-0.6-0.3-0.9,0
		L50,55.4h-0.2l-3.4-3.1c-0.3-0.3-0.6-0.2-0.9,0c-0.3,0.3-0.3,0.6,0,0.9l2.1,2.3c-0.9,0.1-2,0.1-3,0.2c-1.9,0.2-3.7,0.4-5.3,0.8
		c-1.7,0.3-3.5,0.8-5.1,1.3c-0.3,0.1-0.6,0.2-0.9,0.3c-0.2,0.1-0.3,0.1-0.4,0.1c-0.2,0.1-0.4,0.2-0.7,0.3l-0.6,0.3
		c-0.9,0.3-1.7,0.7-2.5,0.9c-6,2.5-11.5,6.2-16.1,10.6c-0.3,0.3-0.3,0.6,0,0.9c0.1,0.1,0.3,0.2,0.4,0.2c0.2,0,0.3-0.1,0.4-0.2
		c2.3-1.9,4.6-3.5,6.9-5c2.9-1.8,6-3.3,9.1-4.5c0.9-0.3,1.6-0.6,2.4-0.9c0.8-0.3,1.5-0.5,2.4-0.8c1.6-0.4,3.3-0.9,5-1.2
		s3.4-0.5,5-0.7c0.9-0.1,1.8-0.2,2.6-0.2l-2,2.2c-0.3,0.3-0.2,0.6,0,0.9c0.3,0.3,0.6,0.3,0.9,0l3.5-3.2h0.2l3.4,3.2
		c0.3,0.3,0.6,0.2,0.9,0c0.3-0.3,0.3-0.6,0-0.9l-2-2.2c0.9,0,1.8,0.1,2.6,0.2c1.7,0.2,3.4,0.4,5,0.7c1.5,0.3,3.2,0.7,5,1.1
		c0.4,0.1,0.9,0.3,1.2,0.3l0,0c0.3,0.1,0.6,0.2,0.9,0.3c0.1,0,0.2,0.1,0.3,0.1l0,0c0.3,0.1,0.5,0.2,0.9,0.3c0.1,0,0.3,0.1,0.3,0.1
		c0.3,0.1,0.6,0.2,0.9,0.3c0.1,0.1,0.3,0.1,0.3,0.2c3.2,1.2,6.2,2.7,9.2,4.5c2.3,1.4,4.6,3.1,6.9,4.9c0.3,0.2,0.6,0.2,0.9-0.1
		C87.1,70.8,87.1,70.4,86.8,70.2z"/>
	<path class="st4" d="M33.9,30.9c0.1,0,0.2,0,0.3,0c0.9-0.1,1.7-0.3,2.6-0.2c0.1,0,0.1,0.1,0.1,0.1l0,0c0,0.1,0.1,0.3,0.1,1.4
		c0,0.3,0,0.8,0,1.1s0,0.8,0,1.1c0,4.1,0,7.6-0.1,10.9c0,0.7,0,1.4-0.1,2.1c0,0.7,0,1.4-0.1,2.1c0,0.1,0,0.3,0,0.3
		c0,0.7,0,1.4-0.3,2c-0.5,0.4-1.2,0.8-1.9,1.1c-0.2,0.1-0.3,0.2-0.6,0.3c-0.2,0.1-0.4,0.3-0.8,0.4L33,53.8v2.1l0.8-0.3
		c2-0.8,3.5-1.2,5-1.5c1.8-0.3,3.5-0.5,5-0.6h0.5v-2.1l-0.5-0.1c-0.3,0-0.7-0.1-0.9-0.1c-0.3,0-0.5,0-0.8,0c-0.4,0-1.4,0-1.6-0.2
		c-0.2-0.2-0.2-1-0.2-1.5c0-0.2,0-0.3,0-0.4c0-2.8-0.1-5.6-0.1-8.5c0-2.1-0.1-4.1-0.1-6.2c3.4,6.3,6.3,12.3,9,18l0.2,0.3h0.3
		c0.4,0,0.6,0,1,0H51l0.2-0.3c0.8-1.8,1.6-3.6,2.4-5.2l0.5-1c1.9-3.9,3.8-8,6-12V48c0,0.3,0,0.4,0,0.7c0,0.8,0,1.5-0.2,2.1l0,0
		c0,0,0,0-0.1,0C59.3,51,58.7,51,58.1,51c-0.3,0-0.5,0-0.7,0c-0.3,0-0.7,0.1-1.1,0.2l-0.4,0.1v2.1h0.5c2.3,0.2,4.2,0.3,6,0.8
		c1.7,0.3,3.5,0.9,5.6,1.7l0.8,0.3v-2.1l-0.3-0.2c-0.3-0.2-0.6-0.3-0.8-0.4c-0.3-0.2-0.6-0.3-0.9-0.4c-0.8-0.3-1.5-0.7-2-1.1
		c0,0-0.1-0.2-0.1-0.4c-0.1-3.4-0.1-6.8-0.1-10.2c0-1,0-2.1,0-3l0.1-5.7v-0.3c0-0.9,0.1-1.1,0.2-1.2c0.6-0.1,1.3-0.1,2,0
		c0.2,0,0.3,0,0.5,0.1c0.2,0,0.4,0,0.9,0.1h0.6V29l-0.4-0.1c-0.7-0.2-1.3-0.3-2-0.4c-0.7-0.2-1.4-0.3-2.1-0.5
		c-0.8-0.2-1.6-0.4-2.4-0.6c-0.4-0.1-0.9-0.3-1.4-0.3L60,26.8l-0.2,0.4c-0.4,1.2-1,2.5-1.7,3.8c-2.5,4.9-5,9.8-7.4,14.8
		c-1.1-2.1-2.1-4.3-3.1-6.3c-0.7-1.4-1.3-2.6-2-3.9c-0.9-1.9-1.9-3.8-2.8-5.7c-0.4-0.9-0.9-1.8-1.2-2.7l-0.2-0.4l-0.4,0
		c-1.3,0.3-2.6,0.7-3.8,0.9c-0.5,0.1-1.1,0.3-1.6,0.3c-0.9,0.3-2,0.4-2.9,0.7l-0.4,0.1V31l0.6-0.1C33.3,31,33.6,31,33.9,30.9z"/>
</g>
<g>
	<path class="st5" d="M86.8,70.2L86.8,70.2c-4.5-4.4-10.1-8.1-16.1-10.6l0,0c-0.2-0.1-0.3-0.2-0.5-0.2c-0.3-0.1-0.5-0.2-0.7-0.3
		c-0.1,0-0.2-0.1-0.3-0.1c-0.3-0.1-0.7-0.3-0.9-0.3c-0.4-0.2-0.9-0.3-1.3-0.4c-0.2-0.1-0.3-0.1-0.5-0.2c-0.3-0.1-0.5-0.2-0.8-0.3
		c-1.6-0.5-3.4-0.9-5.2-1.3c-1.7-0.3-3.5-0.6-5.3-0.8c-0.9-0.1-2-0.2-3-0.2l2.1-2.3c0.3-0.3,0.2-0.6,0-0.9c-0.3-0.3-0.6-0.3-0.9,0
		L50,55.4h-0.2l-3.4-3.1c-0.3-0.3-0.6-0.2-0.9,0c-0.3,0.3-0.3,0.6,0,0.9l2.1,2.3c-0.9,0.1-2,0.1-3,0.2c-1.9,0.2-3.7,0.4-5.3,0.8
		c-1.7,0.3-3.5,0.8-5.1,1.3c-0.3,0.1-0.6,0.2-0.9,0.3c-0.2,0.1-0.3,0.1-0.4,0.1c-0.2,0.1-0.4,0.2-0.7,0.3l-0.6,0.3
		c-0.9,0.3-1.7,0.7-2.5,0.9c-6,2.5-11.5,6.2-16.1,10.6c-0.3,0.3-0.3,0.6,0,0.9c0.1,0.1,0.3,0.2,0.4,0.2c0.2,0,0.3-0.1,0.4-0.2
		c2.3-1.9,4.6-3.5,6.9-5c2.9-1.8,6-3.3,9.1-4.5c0.9-0.3,1.6-0.6,2.4-0.9c0.8-0.3,1.5-0.5,2.4-0.8c1.6-0.4,3.3-0.9,5-1.2
		s3.4-0.5,5-0.7c0.9-0.1,1.8-0.2,2.6-0.2l-2,2.2c-0.3,0.3-0.2,0.6,0,0.9c0.3,0.3,0.6,0.3,0.9,0l3.5-3.2h0.2l3.4,3.2
		c0.3,0.3,0.6,0.2,0.9,0c0.3-0.3,0.3-0.6,0-0.9l-2-2.2c0.9,0,1.8,0.1,2.6,0.2c1.7,0.2,3.4,0.4,5,0.7c1.5,0.3,3.2,0.7,5,1.1
		c0.4,0.1,0.9,0.3,1.2,0.3l0,0c0.3,0.1,0.6,0.2,0.9,0.3c0.1,0,0.2,0.1,0.3,0.1l0,0c0.3,0.1,0.5,0.2,0.9,0.3c0.1,0,0.3,0.1,0.3,0.1
		c0.3,0.1,0.6,0.2,0.9,0.3c0.1,0.1,0.3,0.1,0.3,0.2c3.2,1.2,6.2,2.7,9.2,4.5c2.3,1.4,4.6,3.1,6.9,4.9c0.3,0.2,0.6,0.2,0.9-0.1
		C87.1,70.8,87.1,70.4,86.8,70.2z"/>
	<path class="st5" d="M33.9,30.9c0.1,0,0.2,0,0.3,0c0.9-0.1,1.7-0.3,2.6-0.2c0.1,0,0.1,0.1,0.1,0.1l0,0c0,0.1,0.1,0.3,0.1,1.4
		c0,0.3,0,0.8,0,1.1s0,0.8,0,1.1c0,4.1,0,7.6-0.1,10.9c0,0.7,0,1.4-0.1,2.1c0,0.7,0,1.4-0.1,2.1c0,0.1,0,0.3,0,0.3
		c0,0.7,0,1.4-0.3,2c-0.5,0.4-1.2,0.8-1.9,1.1c-0.2,0.1-0.3,0.2-0.6,0.3c-0.2,0.1-0.4,0.3-0.8,0.4L33,53.8v2.1l0.8-0.3
		c2-0.8,3.5-1.2,5-1.5c1.8-0.3,3.5-0.5,5-0.6h0.5v-2.1l-0.5-0.1c-0.3,0-0.7-0.1-0.9-0.1c-0.3,0-0.5,0-0.8,0c-0.4,0-1.4,0-1.6-0.2
		c-0.2-0.2-0.2-1-0.2-1.5c0-0.2,0-0.3,0-0.4c0-2.8-0.1-5.6-0.1-8.5c0-2.1-0.1-4.1-0.1-6.2c3.4,6.3,6.3,12.3,9,18l0.2,0.3h0.3
		c0.4,0,0.6,0,1,0H51l0.2-0.3c0.8-1.8,1.6-3.6,2.4-5.2l0.5-1c1.9-3.9,3.8-8,6-12V48c0,0.3,0,0.4,0,0.7c0,0.8,0,1.5-0.2,2.1l0,0
		c0,0,0,0-0.1,0C59.3,51,58.7,51,58.1,51c-0.3,0-0.5,0-0.7,0c-0.3,0-0.7,0.1-1.1,0.2l-0.4,0.1v2.1h0.5c2.3,0.2,4.2,0.3,6,0.8
		c1.7,0.3,3.5,0.9,5.6,1.7l0.8,0.3v-2.1l-0.3-0.2c-0.3-0.2-0.6-0.3-0.8-0.4c-0.3-0.2-0.6-0.3-0.9-0.4c-0.8-0.3-1.5-0.7-2-1.1
		c0,0-0.1-0.2-0.1-0.4c-0.1-3.4-0.1-6.8-0.1-10.2c0-1,0-2.1,0-3l0.1-5.7v-0.3c0-0.9,0.1-1.1,0.2-1.2c0.6-0.1,1.3-0.1,2,0
		c0.2,0,0.3,0,0.5,0.1c0.2,0,0.4,0,0.9,0.1h0.6V29l-0.4-0.1c-0.7-0.2-1.3-0.3-2-0.4c-0.7-0.2-1.4-0.3-2.1-0.5
		c-0.8-0.2-1.6-0.4-2.4-0.6c-0.4-0.1-0.9-0.3-1.4-0.3L60,26.8l-0.2,0.4c-0.4,1.2-1,2.5-1.7,3.8c-2.5,4.9-5,9.8-7.4,14.8
		c-1.1-2.1-2.1-4.3-3.1-6.3c-0.7-1.4-1.3-2.6-2-3.9c-0.9-1.9-1.9-3.8-2.8-5.7c-0.4-0.9-0.9-1.8-1.2-2.7l-0.2-0.4l-0.4,0
		c-1.3,0.3-2.6,0.7-3.8,0.9c-0.5,0.1-1.1,0.3-1.6,0.3c-0.9,0.3-2,0.4-2.9,0.7l-0.4,0.1V31l0.6-0.1C33.3,31,33.6,31,33.9,30.9z"/>
</g>
<g>
	<path class="st6" d="M86.8,70.2L86.8,70.2c-4.5-4.4-10.1-8.1-16.1-10.6l0,0c-0.2-0.1-0.3-0.2-0.5-0.2c-0.3-0.1-0.5-0.2-0.7-0.3
		c-0.1,0-0.2-0.1-0.3-0.1c-0.3-0.1-0.7-0.3-0.9-0.3c-0.4-0.2-0.9-0.3-1.3-0.4c-0.2-0.1-0.3-0.1-0.5-0.2c-0.3-0.1-0.5-0.2-0.8-0.3
		c-1.6-0.5-3.4-0.9-5.2-1.3c-1.7-0.3-3.5-0.6-5.3-0.8c-0.9-0.1-2-0.2-3-0.2l2.1-2.3c0.3-0.3,0.2-0.6,0-0.9c-0.3-0.3-0.6-0.3-0.9,0
		L50,55.4h-0.2l-3.4-3.1c-0.3-0.3-0.6-0.2-0.9,0c-0.3,0.3-0.3,0.6,0,0.9l2.1,2.3c-0.9,0.1-2,0.1-3,0.2c-1.9,0.2-3.7,0.4-5.3,0.8
		c-1.7,0.3-3.5,0.8-5.1,1.3c-0.3,0.1-0.6,0.2-0.9,0.3c-0.2,0.1-0.3,0.1-0.4,0.1c-0.2,0.1-0.4,0.2-0.7,0.3l-0.6,0.3
		c-0.9,0.3-1.7,0.7-2.5,0.9c-6,2.5-11.5,6.2-16.1,10.6c-0.3,0.3-0.3,0.6,0,0.9c0.1,0.1,0.3,0.2,0.4,0.2c0.2,0,0.3-0.1,0.4-0.2
		c2.3-1.9,4.6-3.5,6.9-5c2.9-1.8,6-3.3,9.1-4.5c0.9-0.3,1.6-0.6,2.4-0.9c0.8-0.3,1.5-0.5,2.4-0.8c1.6-0.4,3.3-0.9,5-1.2
		s3.4-0.5,5-0.7c0.9-0.1,1.8-0.2,2.6-0.2l-2,2.2c-0.3,0.3-0.2,0.6,0,0.9c0.3,0.3,0.6,0.3,0.9,0l3.5-3.2h0.2l3.4,3.2
		c0.3,0.3,0.6,0.2,0.9,0c0.3-0.3,0.3-0.6,0-0.9l-2-2.2c0.9,0,1.8,0.1,2.6,0.2c1.7,0.2,3.4,0.4,5,0.7c1.5,0.3,3.2,0.7,5,1.1
		c0.4,0.1,0.9,0.3,1.2,0.3l0,0c0.3,0.1,0.6,0.2,0.9,0.3c0.1,0,0.2,0.1,0.3,0.1l0,0c0.3,0.1,0.5,0.2,0.9,0.3c0.1,0,0.3,0.1,0.3,0.1
		c0.3,0.1,0.6,0.2,0.9,0.3c0.1,0.1,0.3,0.1,0.3,0.2c3.2,1.2,6.2,2.7,9.2,4.5c2.3,1.4,4.6,3.1,6.9,4.9c0.3,0.2,0.6,0.2,0.9-0.1
		C87.1,70.8,87.1,70.4,86.8,70.2z"/>
	<path class="st6" d="M33.9,30.9c0.1,0,0.2,0,0.3,0c0.9-0.1,1.7-0.3,2.6-0.2c0.1,0,0.1,0.1,0.1,0.1l0,0c0,0.1,0.1,0.3,0.1,1.4
		c0,0.3,0,0.8,0,1.1s0,0.8,0,1.1c0,4.1,0,7.6-0.1,10.9c0,0.7,0,1.4-0.1,2.1c0,0.7,0,1.4-0.1,2.1c0,0.1,0,0.3,0,0.3
		c0,0.7,0,1.4-0.3,2c-0.5,0.4-1.2,0.8-1.9,1.1c-0.2,0.1-0.3,0.2-0.6,0.3c-0.2,0.1-0.4,0.3-0.8,0.4L33,53.8v2.1l0.8-0.3
		c2-0.8,3.5-1.2,5-1.5c1.8-0.3,3.5-0.5,5-0.6h0.5v-2.1l-0.5-0.1c-0.3,0-0.7-0.1-0.9-0.1c-0.3,0-0.5,0-0.8,0c-0.4,0-1.4,0-1.6-0.2
		c-0.2-0.2-0.2-1-0.2-1.5c0-0.2,0-0.3,0-0.4c0-2.8-0.1-5.6-0.1-8.5c0-2.1-0.1-4.1-0.1-6.2c3.4,6.3,6.3,12.3,9,18l0.2,0.3h0.3
		c0.4,0,0.6,0,1,0H51l0.2-0.3c0.8-1.8,1.6-3.6,2.4-5.2l0.5-1c1.9-3.9,3.8-8,6-12V48c0,0.3,0,0.4,0,0.7c0,0.8,0,1.5-0.2,2.1l0,0
		c0,0,0,0-0.1,0C59.3,51,58.7,51,58.1,51c-0.3,0-0.5,0-0.7,0c-0.3,0-0.7,0.1-1.1,0.2l-0.4,0.1v2.1h0.5c2.3,0.2,4.2,0.3,6,0.8
		c1.7,0.3,3.5,0.9,5.6,1.7l0.8,0.3v-2.1l-0.3-0.2c-0.3-0.2-0.6-0.3-0.8-0.4c-0.3-0.2-0.6-0.3-0.9-0.4c-0.8-0.3-1.5-0.7-2-1.1
		c0,0-0.1-0.2-0.1-0.4c-0.1-3.4-0.1-6.8-0.1-10.2c0-1,0-2.1,0-3l0.1-5.7v-0.3c0-0.9,0.1-1.1,0.2-1.2c0.6-0.1,1.3-0.1,2,0
		c0.2,0,0.3,0,0.5,0.1c0.2,0,0.4,0,0.9,0.1h0.6V29l-0.4-0.1c-0.7-0.2-1.3-0.3-2-0.4c-0.7-0.2-1.4-0.3-2.1-0.5
		c-0.8-0.2-1.6-0.4-2.4-0.6c-0.4-0.1-0.9-0.3-1.4-0.3L60,26.8l-0.2,0.4c-0.4,1.2-1,2.5-1.7,3.8c-2.5,4.9-5,9.8-7.4,14.8
		c-1.1-2.1-2.1-4.3-3.1-6.3c-0.7-1.4-1.3-2.6-2-3.9c-0.9-1.9-1.9-3.8-2.8-5.7c-0.4-0.9-0.9-1.8-1.2-2.7l-0.2-0.4l-0.4,0
		c-1.3,0.3-2.6,0.7-3.8,0.9c-0.5,0.1-1.1,0.3-1.6,0.3c-0.9,0.3-2,0.4-2.9,0.7l-0.4,0.1V31l0.6-0.1C33.3,31,33.6,31,33.9,30.9z"/>
</g>
</svg>
