<?xml version="1.0" encoding="utf-8"?>
<!-- Generator: Adobe Illustrator 26.0.0, SVG Export Plug-In . SVG Version: 6.00 Build 0)  -->
<svg version="1.1" id="Capa_1" xmlns="http://www.w3.org/2000/svg" xmlns:xlink="http://www.w3.org/1999/xlink" x="0px" y="0px"
	 viewBox="0 0 512 512" style="enable-background:new 0 0 512 512;" xml:space="preserve">
<style type="text/css">
	.st0{fill:#FBFBFB;}
	.st1{fill:#848484;}
	.st2{fill:#333333;}
</style>
<g>
	<g>
		<path class="st0" d="M256,495.8c-64.1,0-124.3-24.9-169.6-70.2C41.1,380.3,16.2,320.1,16.2,256c0-64.1,24.9-124.3,70.2-169.6
			C131.7,41.1,191.9,16.2,256,16.2c64.1,0,124.3,24.9,169.6,70.2c45.3,45.3,70.2,105.5,70.2,169.6c0,64.1-24.9,124.3-70.2,169.6
			S320.1,495.8,256,495.8z"/>
		<path class="st1" d="M256,31.7c30.3,0,59.7,5.9,87.3,17.6C370,60.6,394,76.8,414.6,97.4s36.8,44.6,48.1,71.3
			c11.7,27.6,17.6,57,17.6,87.3c0,30.3-5.9,59.7-17.6,87.3c-11.3,26.7-27.5,50.7-48.1,71.3s-44.6,36.8-71.3,48.1
			c-27.6,11.7-57,17.6-87.3,17.6s-59.7-5.9-87.3-17.6c-26.7-11.3-50.7-27.5-71.3-48.1S60.6,370,49.3,343.3
			c-11.7-27.6-17.6-57-17.6-87.3c0-30.3,5.9-59.7,17.6-87.3C60.6,142,76.8,118,97.4,97.4s44.6-36.8,71.3-48.1
			C196.3,37.6,225.7,31.7,256,31.7 M256,0.7C115,0.7,0.7,115,0.7,256S115,511.3,256,511.3S511.3,397,511.3,256S397,0.7,256,0.7
			L256,0.7z"/>
	</g>
	<g>
		<g>
			<path class="st2" d="M63.4,344.3c8-7.1,15.6-14.7,24.2-21.3c38.7-29.8,82.2-47.9,130.6-54.4c7-1,14.1-1.4,21.1-2.2
				c0.9-0.1,1.9-0.2,3.3-0.4c-3.2-3.5-5.9-6.7-8.8-9.8c-1.8-1.9-2.5-4.1-0.7-6c2-2.1,4.1-1.2,6,0.5c5.6,5.1,11.2,10.1,17,15.4
				c5.8-5.2,11.3-10.3,17.1-15.3c1.1-1,2.9-1.6,4.3-1.5c2.9,0.3,3.6,3.8,1.5,6.4c-2.9,3.4-5.9,6.6-9.3,10.4
				c4.9,0.4,9.3,0.8,13.6,1.2c46.7,4.5,89.7,19.5,128.4,46.2c12.3,8.5,23.4,18.7,34.9,28.1c2.1,1.6,2.7,3.8,0.9,5.9
				c-1.9,2.1-4,1.4-6-0.2c-27.7-22.6-58.3-39.9-92-51.5c-25.5-8.8-51.7-13.7-79.5-15.2c2.6,2.9,4.7,5.3,6.9,7.6
				c0.8,0.8,1.4,1.6,2.2,2.4c1.5,1.9,1.9,3.8,0.1,5.5c-1.8,1.8-3.7,1.4-5.5-0.2c-4.9-4.4-9.8-8.9-14.7-13.3
				c-0.9-0.8-1.8-1.5-2.7-2.5c-5.5,4.9-10.8,9.7-16,14.5c-0.5,0.5-1.1,1-1.6,1.5c-1.9,1.5-3.7,1.8-5.5,0c-1.5-1.6-1.4-3.5,0.1-5.3
				c2.9-3.2,5.8-6.4,9.2-10.3c-6.1,0.4-11.4,0.8-16.8,1.3c-33.8,3.7-66.1,13.1-96.6,28c-20.8,10.2-40,22.7-57.8,37.3
				c-3.2,2.6-4.6,2.4-7.5-0.4C63.4,346,63.4,345.1,63.4,344.3z"/>
			<path class="st2" d="M67.6,350.2c-1.4,0-2.9-0.9-4.6-2.6c-0.1-0.1-0.2-0.2-0.2-0.3c-0.4-1-0.4-2-0.4-3c0-0.3,0.1-0.7,0.3-0.8
				c2.4-2.2,4.9-4.5,7.2-6.7c5.4-4.9,11-10.1,16.9-14.7c38.7-29.8,82.7-48.1,131.1-54.6c4.4-0.7,8.9-1,13.2-1.4
				c2.6-0.2,5.3-0.4,7.9-0.8l0.5-0.1c0.2,0,0.4-0.1,0.7-0.1c-0.8-0.9-1.6-1.8-2.4-2.6c-1.8-2-3.3-3.7-4.9-5.5
				c-2.4-2.6-2.7-5.4-0.7-7.6c1.4-1.5,4-2.7,7.6,0.4c5.4,4.8,10.8,9.7,16.3,14.7c1.9-1.6,3.7-3.3,5.5-4.9c3.5-3.2,7.1-6.5,10.9-9.7
				c1.3-1.2,3.4-2,5.1-1.8c1.6,0.2,2.9,1.1,3.4,2.5c0.8,1.8,0.3,4-1.1,5.6c-1.8,2.1-3.6,4.1-5.5,6.1c-0.8,0.9-1.5,1.8-2.4,2.6
				c1,0.1,1.9,0.1,2.7,0.2c3,0.2,5.8,0.4,8.7,0.8c47.5,4.6,90.9,20.2,128.9,46.4c8.8,6,17,13.1,25,19.8c3.3,2.7,6.6,5.6,10,8.3
				c1.4,1.1,2.2,2.4,2.4,3.8c0.1,1.3-0.3,2.5-1.3,3.6c-2.1,2.3-4.6,2.2-7.6-0.1c-27.7-22.6-58.5-39.9-91.7-51.3
				c-24.5-8.5-49.5-13.3-76.5-14.9c0.4,0.4,0.9,1,1.3,1.4c1.3,1.4,2.5,2.9,3.8,4.2c0.4,0.3,0.8,0.8,1.1,1.2c0.3,0.4,0.7,0.8,1.1,1.1
				c2.1,2.6,2.2,5.2,0.1,7c-2.1,2.1-4.6,2-7-0.2c-2.4-2.2-4.9-4.4-7.4-6.6c-2.4-2.2-4.8-4.4-7.4-6.6c-0.7-0.5-1.3-1.2-2.1-1.9
				l-1.9,1.8c-4.6,4.2-9,8-13.4,12.1c-0.2,0.2-0.5,0.5-0.9,0.8c-0.2,0.2-0.5,0.4-0.8,0.8c-2.5,2.1-4.9,2.1-7,0
				c-1.9-2.1-1.9-4.6,0.1-6.8c0.9-1,1.8-1.9,2.6-2.9c1.5-1.8,3.2-3.5,4.8-5.4H239c-4.8,0.3-9,0.7-13.4,1.1
				c-33.6,3.7-66,13.1-96.3,27.9c-20.3,10-39.6,22.5-57.5,37.2C70.2,349.4,68.9,350.2,67.6,350.2z M64.7,346.1
				c2.4,2.4,3.2,2.4,5.8,0.2c18-14.8,37.6-27.5,58-37.4c30.5-14.9,63.1-24.4,97-28.1c4.4-0.4,8.8-0.8,13.5-1.1l3.4-0.2
				c0.4,0,0.9,0.2,1.1,0.5c0.2,0.4,0.1,0.9-0.1,1.2c-2.4,2.7-4.5,5.2-6.6,7.5c-0.9,1-1.8,2-2.6,2.9c-1.2,1.3-1.2,2.6-0.1,3.7
				c0.9,0.9,2,1.5,4-0.1c0.2-0.2,0.5-0.4,0.8-0.8c0.2-0.2,0.5-0.4,0.8-0.8c4.5-4.1,8.8-8,13.4-12.2l2.6-2.4c0.4-0.4,1.1-0.3,1.5,0
				c1,1,1.8,1.6,2.6,2.4c2.5,2.2,4.9,4.5,7.4,6.7s4.8,4.4,7.4,6.6c2.2,2.1,3.5,0.7,4,0.2c0.5-0.4,1.8-1.6-0.2-4.1
				c-0.3-0.3-0.7-0.8-1.1-1.2c-0.3-0.4-0.7-0.8-1.1-1.1c-1.3-1.3-2.5-2.7-3.8-4.2c-1-1.1-2-2.2-3.1-3.4c-0.3-0.3-0.3-0.8-0.2-1.2
				c0.2-0.4,0.5-0.7,1.1-0.7c28.2,1.4,54.4,6.5,79.8,15.3c33.5,11.5,64.6,29,92.3,51.7c2.5,2,3.6,1.3,4.5,0.3c0.5-0.7,0.9-1.3,0.8-2
				c-0.1-1-0.9-1.9-1.5-2.3c-3.4-2.7-6.8-5.6-10-8.5C428,327,419.7,320,411,314.1c-37.7-26-80.7-41.5-127.8-46
				c-2.7-0.3-5.6-0.5-8.6-0.8c-1.6-0.1-3.3-0.3-4.9-0.4c-0.4,0-0.8-0.3-0.9-0.7c-0.1-0.4-0.1-0.9,0.2-1.1c1.3-1.5,2.6-3,3.8-4.3
				c1.9-2.1,3.7-4.1,5.4-6.1c0.9-1.1,1.2-2.4,0.8-3.4c-0.2-0.4-0.7-1.1-1.5-1.2c-1.1-0.1-2.5,0.4-3.4,1.2c-3.7,3.2-7.4,6.5-10.9,9.7
				c-2.1,1.9-4.2,3.7-6.3,5.7c-0.4,0.3-1.1,0.3-1.4,0c-5.8-5.3-11.4-10.3-17-15.4c-2.3-2.1-3.4-1.8-4.5-0.7
				c-0.4,0.4-1.8,1.9,0.7,4.5c1.6,1.9,3.3,3.6,5.1,5.6c1.2,1.3,2.4,2.7,3.7,4.2c0.2,0.3,0.3,0.8,0.2,1.1s-0.4,0.7-0.9,0.8
				c-1.2,0.2-2.1,0.3-2.9,0.3l-0.5,0.1c-2.6,0.3-5.3,0.5-7.9,0.8c-4.3,0.4-8.8,0.8-13.1,1.4c-48,6.5-91.7,24.6-130,54.1
				c-5.9,4.5-11.4,9.7-16.8,14.6c-2.3,2.1-4.6,4.3-6.9,6.4C64.5,345.2,64.5,345.8,64.7,346.1z"/>
		</g>
		<g>
			<path class="st2" d="M352,273.6c-22-9.1-44.1-13.9-67.5-14.6c0-2.2,0-4,0-5.8c0-1.9,0-3.6,0-6.1c5.5-0.3,10.7-0.8,15.9-1.1
				c5.2-0.2,5.9-0.8,5.9-6c0-25.3,0-50.5,0-75.9c0-0.2-0.1-0.3-0.3-1c-0.5,0.8-1.1,1.2-1.3,1.8c-14.4,29.5-28.8,59-43,88.5
				c-1,2-2,2.6-4.2,3c-5.5,0.9-7.7-1.5-10-6.3c-13.6-28-27.7-55.7-41.5-83.5c-0.3-0.8-0.9-1.4-1.8-2.9c0,6.1-0.1,11.5,0,16.8
				c0.2,13.4,0.4,26.9,0.7,40.3c0.1,7.5,0.3,14.9,0.3,22.4c0,2.5,1.1,3.4,3.4,3.5c5.1,0.1,10.2,0.4,15.3,0.7c0.4,0,0.8,0.2,1.4,0.4
				c0,3.6,0,7.2,0,11.4c-20.3,0.7-40,4.9-59.3,13c0-4.3-0.1-7.9,0.1-11.5c0-0.7,1.1-1.5,1.9-2c4-2.1,7.9-4.2,11.9-6
				c4.3-2,5.9-5.3,6-9.8c0.1-10.7,0.5-21.2,0.7-31.8c0.2-19.5,0.3-39.1,0.4-58.5c0-3.3-0.2-6.7-0.4-10.8c-8.1,0.8-15.9,1.5-24,2.2
				c0-3.6-0.2-6.9,0.1-10.3c0.1-0.8,1.6-1.8,2.6-2.1c12.3-3.1,24.7-5.9,37-9c3.1-0.8,6-1.5,8.6-2.2c16,32.8,32,65.3,48.2,98.5
				c16.4-32.9,32.3-65.2,48.4-97.8c5.1,1.3,10.8,2.9,16.5,4.3c8.6,2.1,17,4.2,25.6,6.1c1.9,0.4,2.5,1.2,2.4,3.1
				c-0.1,2.9,0,5.8,0,9.2c-4.5-0.3-8.7-0.9-12.8-1c-8.6-0.2-8.1-1.6-8.1,7.7c-0.2,29.4-0.2,58.7-0.2,88.2c0,1.8,0.4,3.5,0.1,5.2
				c-0.9,5.4,2.1,7.9,6.5,9.8c4.3,1.9,8.5,3.8,12.5,6.1c1,0.5,2,2.2,2.1,3.5C352.2,266.7,352,269.9,352,273.6z"/>
			<path class="st2" d="M352,274.7c-0.1,0-0.3,0-0.4-0.1c-22-9.1-43.9-13.8-67.1-14.5c-0.5,0-1.1-0.5-1.1-1.1v-12
				c0-0.5,0.4-1.1,1-1.1c3-0.2,5.7-0.3,8.6-0.5c2.4-0.2,4.9-0.3,7.4-0.5c4.7-0.2,4.9-0.4,4.9-4.9v-73.7l-10.3,21.2
				c-10.7,21.7-21.5,44.3-32.3,66.4c-1.1,2.3-2.4,3.2-5.1,3.6c-6,1-8.7-1.8-11.1-6.8c-9.3-19.2-19.1-38.7-28.5-57.4
				c-4.3-8.5-8.5-16.9-12.7-25.4c0,0.8,0,1.4,0,2.1c0,3.7,0,7.2,0,10.7l0.7,40.3c0,2.5,0.1,4.9,0.1,7.5c0.1,4.9,0.2,10,0.2,14.9
				c0,1.8,0.5,2.3,2.3,2.4c3.4,0.1,6.9,0.2,10.2,0.4c1.6,0.1,3.3,0.2,4.9,0.2c0.5,0,0.9,0.1,1.2,0.3c0.1,0.1,0.3,0.1,0.5,0.2
				c0.4,0.1,0.8,0.5,0.8,1v11.4c0,0.5-0.4,1.1-1.1,1.1c-20.3,0.7-39.6,4.8-58.9,12.8c-0.3,0.1-0.8,0.1-1-0.1
				c-0.3-0.2-0.4-0.5-0.4-0.9c0-1.1,0-2.2,0-3.2c0-3,0-5.7,0.1-8.5c0-1.3,1.9-2.5,2.4-2.9c4-2.1,8-4.2,12-6c3.6-1.6,5.3-4.4,5.4-8.8
				c0-5.3,0.2-10.8,0.3-15.9c0.1-5.2,0.2-10.5,0.3-15.9c0.2-19.4,0.3-39.1,0.4-58.2v-0.3c0-2.7-0.1-5.6-0.3-8.9v-0.7l-3.3,0.3
				c-6.7,0.7-13,1.2-19.5,1.8c-0.3,0-0.7-0.1-0.9-0.3c-0.2-0.2-0.3-0.5-0.3-0.8c0-1.1,0-2.1,0-3.1c0-2.5-0.1-4.8,0.1-7.4
				c0.2-1.5,2.4-2.6,3.4-3.1c6.3-1.5,12.5-3.1,18.6-4.5s12.3-3,18.4-4.5c3.1-0.8,6-1.5,8.6-2.2c0.5-0.1,1,0.1,1.3,0.5
				c16.3,33.3,32.2,65.9,47.2,96.5c10.5-21.2,20.9-42.2,31.2-63c5.4-10.9,10.8-21.9,16.3-32.8c0.2-0.4,0.8-0.7,1.2-0.5
				c1.5,0.4,3.1,0.8,4.7,1.2c3.8,1,7.8,2.1,11.7,3.1l4.2,1c7,1.8,14.2,3.5,21.4,5.2c2.4,0.5,3.4,1.9,3.3,4.2c-0.1,1.9,0,3.7,0,5.8
				c0,1.1,0,2.2,0,3.4c0,0.3-0.1,0.5-0.3,0.8c-0.2,0.2-0.5,0.3-0.9,0.3c-1.6-0.1-3.3-0.2-4.8-0.4c-2.7-0.2-5.4-0.5-8-0.5
				c-1.2,0-2.2-0.1-3-0.1c-1.8-0.1-3.2-0.2-3.5,0.1c-0.4,0.4-0.4,2.4-0.4,5.3v1.3c-0.2,29.4-0.2,59.3-0.2,88.2c0,0.5,0,1.2,0.1,1.9
				c0.1,1.2,0.2,2.3,0,3.5c-0.7,4.1,1,6.5,5.8,8.6c5.1,2.2,9,4.2,12.6,6.3c1.3,0.8,2.5,2.7,2.6,4.4c0.2,2.5,0.2,4.9,0.1,7.4
				c0,1,0,2.1,0,3.2c0,0.3-0.2,0.7-0.4,0.9C352.4,274.6,352.2,274.7,352,274.7z M285.5,257.9c22.5,0.8,43.9,5.4,65.3,14.1
				c0-0.5,0-1,0-1.5c0-2.4,0.1-4.7-0.1-7.1c-0.1-1-0.9-2.3-1.5-2.6c-3.5-2-7.5-4-12.4-6.1c-3.8-1.6-8.2-4.4-7.1-11
				c0.2-0.9,0.1-1.9,0-3c-0.1-0.7-0.1-1.3-0.1-2c0-28.9,0-58.7,0.2-88.2v-1.3c0-4,0-5.8,1.1-6.8c1-1,2.5-0.9,5.2-0.8
				c0.9,0,1.9,0.1,3,0.1c2.7,0.1,5.4,0.3,8.1,0.5c1.2,0.1,2.4,0.2,3.6,0.3c0-0.8,0-1.4,0-2.2c0-2.1,0-4,0-5.9c0.1-1.2-0.1-1.6-1.5-2
				c-7.1-1.6-14.4-3.4-21.4-5.2l-4.2-1c-4.1-1-8-2.1-11.9-3.1c-1.3-0.3-2.5-0.7-3.8-1c-5.3,10.7-10.5,21.3-15.8,32
				c-10.7,21.6-21.3,43.2-32.2,65c-0.2,0.3-0.5,0.7-1,0.7l0,0c-0.4,0-0.8-0.2-1-0.7c-15.2-31-31.4-64-47.8-97.7
				c-2.3,0.7-4.9,1.3-7.7,2c-6.1,1.5-12.4,3.1-18.6,4.5c-6,1.4-12.3,3-18.4,4.5c-0.8,0.2-1.6,0.9-1.9,1.2c-0.2,2.3-0.2,4.6-0.1,7
				c0,0.7,0,1.3,0,1.9c6.1-0.5,12.1-1.1,18.3-1.6l4.5-0.4c0.3,0,0.5,0.1,0.8,0.2c0.2,0.2,0.3,0.4,0.3,0.8l0.1,1.8
				c0.2,3.3,0.3,6.3,0.3,9.1v0.3c-0.1,19.1-0.2,38.8-0.4,58.2c-0.1,5.4-0.2,10.8-0.3,15.9c-0.1,5.2-0.2,10.5-0.3,15.9
				c-0.1,5.3-2.2,8.7-6.7,10.8c-4,1.9-7.9,4-11.7,5.9c-0.7,0.4-1.2,0.9-1.3,1.1c-0.1,2.6-0.1,5.4-0.1,8.2c0,0.5,0,1,0,1.5
				c18.7-7.6,37.4-11.6,57.1-12.4v-9.6c-0.1-0.1-0.2-0.1-0.3-0.1c-1.8-0.1-3.4-0.1-5.1-0.2c-3.4-0.2-6.8-0.3-10.2-0.4
				c-3.1-0.1-4.5-1.6-4.5-4.6c0-4.9-0.1-10-0.2-14.9c0-2.5-0.1-4.9-0.1-7.5l-0.7-40.3c-0.1-3.5,0-7,0-10.8c0-2,0-4,0-6
				c0-0.4,0.3-0.9,0.8-1.1c0.4-0.1,1,0.1,1.2,0.4c0.3,0.5,0.7,1,0.9,1.3c0.4,0.7,0.8,1.1,1,1.6c4.3,8.6,8.7,17.2,13,25.9
				c9.4,18.8,19.1,38.2,28.5,57.4c2.2,4.5,4.1,6.5,8.8,5.6c1.9-0.3,2.5-0.8,3.4-2.4c10.8-22.2,21.6-44.7,32.3-66.4l10.8-22.1
				c0.2-0.4,0.4-0.8,0.9-1.2c0.2-0.2,0.3-0.4,0.5-0.8s0.7-0.5,1.1-0.4c0.4,0.1,0.8,0.3,0.9,0.8c0.1,0.2,0.1,0.4,0.2,0.5
				c0.1,0.2,0.2,0.4,0.2,0.8v75.9c0,6-1.4,6.9-7,7.1c-2.4,0.1-4.8,0.3-7.4,0.5c-2.5,0.2-4.9,0.3-7.6,0.5v10.4H285.5z M167.2,260.7
				L167.2,260.7L167.2,260.7z"/>
		</g>
	</g>
</g>
</svg>
