<?xml version="1.0" encoding="utf-8"?>
<!-- Generator: Adobe Illustrator 26.0.0, SVG Export Plug-In . SVG Version: 6.00 Build 0)  -->
<svg version="1.1" id="Capa_1" xmlns="http://www.w3.org/2000/svg" xmlns:xlink="http://www.w3.org/1999/xlink" x="0px" y="0px"
	 viewBox="0 0 100 100" style="enable-background:new 0 0 100 100;" xml:space="preserve">
<style type="text/css">
	.st0{fill:url(#SVGID_1_);}
	.st1{fill:url(#SVGID_00000178191855669617747900000010764788187431584925_);}
	.st2{fill:#FFFFFF;stroke:#FFFFFF;stroke-width:0.75;stroke-linecap:round;stroke-linejoin:round;stroke-miterlimit:10;}
</style>
<g>
	<g>
		<linearGradient id="SVGID_1_" gradientUnits="userSpaceOnUse" x1="5.1419" y1="63.9559" x2="94.6799" y2="63.9559">
			<stop  offset="0" style="stop-color:#002B4D"/>
			<stop  offset="0.3575" style="stop-color:#006A5E"/>
			<stop  offset="0.3878" style="stop-color:#096B5C"/>
			<stop  offset="0.4382" style="stop-color:#236D55"/>
			<stop  offset="0.5025" style="stop-color:#4C714B"/>
			<stop  offset="0.5781" style="stop-color:#86773D"/>
			<stop  offset="0.6625" style="stop-color:#CF7D2C"/>
			<stop  offset="0.692" style="stop-color:#EA8025"/>
			<stop  offset="1" style="stop-color:#8E1133"/>
		</linearGradient>
		<path class="st0" d="M75,60.9l-0.1-0.1c-0.1-0.1-0.3-0.2-0.6-0.2c-0.3-0.1-0.5-0.2-0.7-0.3c-0.1,0-0.1-0.1-0.2-0.1
			c-0.1,0-0.2-0.1-0.3-0.1c-0.1,0-0.2-0.1-0.3-0.1c-0.3-0.1-0.5-0.2-0.7-0.2c-0.4-0.2-0.9-0.3-1.3-0.4l-0.1,0
			c-0.1-0.1-0.3-0.1-0.4-0.1c-0.1,0-0.1,0-0.3-0.1c-0.2-0.1-0.3-0.1-0.4-0.2c-0.2-0.1-0.3-0.1-0.5-0.2c-1.9-0.6-4.1-1.1-6.3-1.6
			c-2-0.4-4.2-0.7-6.4-1c-0.9-0.1-1.7-0.2-2.5-0.2l1.7-1.9c0.3-0.3,0.6-0.9,0-1.8c-0.6-0.6-1.3-0.5-1.8,0l-3.8,3.5l-3.8-3.5
			c-0.3-0.3-0.9-0.6-1.8,0c-0.6,0.6-0.6,1.3,0,1.8l1.8,1.9c-0.2,0-0.4,0-0.7,0c-0.6,0-1.2,0.1-1.8,0.1c-2.5,0.3-4.5,0.5-6.4,1
			c-1.8,0.3-3.8,0.8-6.2,1.6l-1.1,0.4c-0.3,0.1-0.3,0-0.5,0.1c-0.2,0.1-0.4,0.2-0.8,0.4l-0.6,0.3c-0.5,0.2-0.9,0.3-1.3,0.5
			c-0.6,0.2-1.1,0.4-1.7,0.6c-7,2.9-13.7,7.3-19.4,12.7C5,74.3,5,75,5.6,75.6C5.8,75.8,6.1,76,6.4,76c0.5,0,0.7-0.2,0.8-0.4
			c2.4-1.9,4.9-3.8,8.2-5.9c3.3-2,6.9-3.8,10.7-5.3c0.7-0.2,1.3-0.5,2-0.7c0.3-0.1,0.6-0.2,0.9-0.4c0.6-0.2,1.2-0.4,1.8-0.6
			c0.3-0.1,0.7-0.2,1-0.3c0.5-0.1,1-0.3,1.6-0.4c1.4-0.4,2.9-0.8,4.4-1c1.8-0.3,3.6-0.5,5.3-0.8l0.7-0.1c0.6-0.1,1.2-0.1,1.8-0.2
			l-1.5,1.7c-0.3,0.3-0.6,0.9,0,1.8c0.6,0.6,1.3,0.5,1.8,0l3.9-3.6l3.8,3.6c0.3,0.3,0.9,0.6,1.8,0c0.6-0.6,0.6-1.3,0-1.8L53.8,60
			c0.6,0,1.2,0.1,1.8,0.2c2,0.2,4,0.5,5.9,0.8c1.2,0.2,2.6,0.6,4,0.9l1.9,0.4c0.2,0,0.3,0.1,0.5,0.1c0.4,0.1,0.7,0.2,1,0.2L70,63
			c0.1,0,0.2,0.1,0.3,0.1l0.3,0.1c0.2,0.1,0.5,0.2,0.9,0.3c0,0,0.1,0,0.2,0.1l1,0.3c0.1,0,0.1,0.1,0.2,0.1c0.1,0.1,0.1,0.1,0.2,0.2
			c3.6,1.4,7.2,3.1,10.9,5.3c2.4,1.4,4.9,3.2,8.2,5.8c0.5,0.4,1.1,0.3,1.6,0c0.6-0.1,0.8-0.5,0.9-0.6c0.1-0.4,0-0.8-0.4-1
			C88.8,68.3,82.1,63.9,75,60.9z"/>
		
			<linearGradient id="SVGID_00000165215334710117267420000013544599135348358812_" gradientUnits="userSpaceOnUse" x1="28.4158" y1="39.8276" x2="73.1069" y2="39.8276">
			<stop  offset="0" style="stop-color:#002B4D"/>
			<stop  offset="0.3575" style="stop-color:#006A5E"/>
			<stop  offset="0.3878" style="stop-color:#096B5C"/>
			<stop  offset="0.4382" style="stop-color:#236D55"/>
			<stop  offset="0.5025" style="stop-color:#4C714B"/>
			<stop  offset="0.5781" style="stop-color:#86773D"/>
			<stop  offset="0.6625" style="stop-color:#CF7D2C"/>
			<stop  offset="0.692" style="stop-color:#EA8025"/>
			<stop  offset="1" style="stop-color:#8E1133"/>
		</linearGradient>
		<path style="fill:url(#SVGID_00000165215334710117267420000013544599135348358812_);" d="M29,27.8l0.6-0.1c0.5,0.1,0.9,0.1,1.3,0
			l0.3,0c0.3,0,0.6-0.1,0.9-0.1c0.6-0.1,1.2-0.2,1.8-0.1c0,0.2,0.1,0.6,0.1,1.3v2.6c0,4.9,0,9.1-0.1,13c0,0.8,0,1.6-0.1,2.5
			c0,0.8,0,1.6-0.1,2.5v0.4c0,0.7,0,1.5-0.3,2c-0.5,0.4-1.3,0.8-2.1,1.2c-0.1,0-0.2,0.1-0.3,0.1c-0.1,0.1-0.2,0.1-0.5,0.2
			c-0.1,0-0.2,0.1-0.3,0.2c-0.2,0.1-0.3,0.2-0.6,0.3c-0.1,0-0.3,0.1-0.3,0.3l-0.1,0.2c0,0.1-0.1,0.2-0.1,0.2V57
			c0,0.2,0.1,0.3,0.2,0.4c0.1,0.1,0.3,0.1,0.5,0.1l1-0.4c2.6-1,4.4-1.5,5.9-1.8c2.1-0.3,4.1-0.6,5.9-0.7h0.6c0.3,0,0.5-0.2,0.5-0.5
			v-2.5c0-0.3-0.2-0.5-0.4-0.5L42.7,51c-0.2,0-0.4,0-0.6-0.1c-0.2,0-0.4-0.1-0.5-0.1h-1c-1.2,0-1.5-0.1-1.5,0
			C39,50.6,39,49.7,39,49.4v-0.5c0-1.7,0-3.3-0.1-5c0-1.7-0.1-3.4-0.1-5.1c0-1.3,0-2.5-0.1-3.7c0-0.5,0-1,0-1.5
			c3.6,6.8,6.8,13.4,9.7,19.6l0.2,0.4c0.1,0.1,0.3,0.2,0.4,0.2h2c0.2,0,0.3-0.1,0.4-0.2L52,53c0.9-2.1,1.9-4.3,2.9-6.2l0.6-1.2
			c0.5-1,1-2,1.5-3c1.5-3.1,3-6.3,4.7-9.4v15.2c0,0.8,0,1.5-0.1,2.1c-0.5,0.2-1.1,0.2-1.7,0.2h-0.8c-0.4,0-0.9,0.1-1.4,0.3L57,51
			c-0.2,0.1-0.4,0.3-0.4,0.5V54c0,0.3,0.2,0.5,0.5,0.5l0.6,0l1.1,0.1c2.2,0.2,4.1,0.3,6,0.9c2.2,0.4,4.6,1.2,6.6,2l1,0.4
			c0.1,0,0.1,0,0.2,0c0.1,0,0.2,0,0.3-0.1c0.1-0.1,0.2-0.3,0.2-0.4v-2.5c0-0.2-0.1-0.3-0.2-0.4l-0.4-0.2c-0.3-0.2-0.6-0.3-0.8-0.4
			l-0.2-0.1c-0.4-0.3-0.8-0.4-1.2-0.5c-0.8-0.3-1.6-0.7-2.1-1.1c0-0.1,0-0.1,0-0.2c-0.1-4-0.1-8.2-0.1-12.1l0.1-10.4V29
			c0-0.5,0-0.8,0.1-0.9c0.6-0.1,1.3-0.1,2,0c0.2,0,0.2,0,0.4,0.1c0.3,0.1,0.4,0,1.3,0.2h0.7c0.3,0,0.5-0.2,0.5-0.5v-2.9
			c0-0.2-0.2-0.5-0.4-0.5l-0.5-0.1c-0.8-0.2-1.5-0.4-2.4-0.5c-0.4-0.1-0.9-0.2-1.3-0.3c-0.4-0.1-0.8-0.2-1.2-0.3l-2.9-0.7
			c-0.1,0-0.2-0.1-0.4-0.1c-0.4-0.1-0.8-0.2-1.3-0.3l-0.6-0.3c-0.3-0.1-0.6,0-0.7,0.2l-0.3,0.5c-0.4,1.3-1.1,2.8-2,4.5
			c-2.8,5.4-5.6,11-8.4,16.7c-0.6-1.2-1.2-2.4-1.8-3.6c-0.5-1-1-2-1.5-3c-0.8-1.6-1.5-3.1-2.3-4.6c-0.5-1.1-1.1-2.3-1.7-3.4
			c-0.6-1.1-1.1-2.3-1.7-3.4c-0.2-0.4-0.3-0.7-0.5-1.1c-0.3-0.7-0.7-1.4-0.9-2.2l-0.2-0.5c-0.1-0.2-0.3-0.3-0.5-0.3l-0.6,0
			c-0.6,0.1-1.1,0.3-1.7,0.4c-1,0.3-1.9,0.5-2.8,0.6c-0.2,0-0.4,0.1-0.6,0.1c-0.4,0.1-0.9,0.2-1.2,0.2c-0.1,0-0.1,0-0.2,0
			c-0.5,0.2-1.1,0.3-1.7,0.4c-0.6,0.1-1.2,0.2-1.8,0.4l-0.5,0.1c-0.2,0.1-0.4,0.3-0.4,0.5v2.6c0,0.2,0.1,0.3,0.2,0.4
			C28.7,27.8,28.9,27.9,29,27.8z"/>
	</g>
	<g>
		<g>
			<path class="st2" d="M94.7,71.8L94.7,71.8c-5.4-5.2-12-9.7-19.2-12.6l0,0c-0.2-0.1-0.4-0.2-0.6-0.2c-0.4-0.1-0.6-0.2-0.8-0.4
				c-0.1,0-0.2-0.1-0.4-0.1c-0.4-0.1-0.8-0.4-1.1-0.4c-0.5-0.2-1.1-0.4-1.5-0.5c-0.2-0.1-0.4-0.1-0.6-0.2c-0.4-0.1-0.6-0.2-1-0.4
				c-1.9-0.6-4.1-1.1-6.2-1.5c-2-0.4-4.2-0.7-6.3-1c-1.1-0.1-2.4-0.2-3.6-0.2l2.5-2.7c0.4-0.4,0.2-0.7,0-1.1c-0.4-0.4-0.7-0.4-1.1,0
				l-4.1,3.7h-0.2l-4.1-3.7c-0.4-0.4-0.7-0.2-1.1,0c-0.4,0.4-0.4,0.7,0,1.1l2.5,2.7c-1.1,0.1-2.4,0.1-3.6,0.2
				c-2.3,0.2-4.4,0.5-6.3,1c-2,0.4-4.2,1-6.1,1.5c-0.4,0.1-0.7,0.2-1.1,0.4c-0.2,0.1-0.4,0.1-0.5,0.1c-0.2,0.1-0.5,0.2-0.8,0.4
				l-0.7,0.4c-1.1,0.4-2,0.8-3,1.1c-7.2,3-13.7,7.4-19.2,12.6c-0.4,0.4-0.4,0.7,0,1.1c0.1,0.1,0.4,0.2,0.5,0.2
				c0.2,0,0.4-0.1,0.5-0.2c2.7-2.3,5.5-4.2,8.2-6c3.5-2.1,7.2-3.9,10.8-5.4c1.1-0.4,1.9-0.7,2.9-1.1c1-0.4,1.8-0.6,2.9-1
				c1.9-0.5,3.9-1.1,6-1.4c2-0.4,4.1-0.6,6-0.8c1.1-0.1,2.1-0.2,3.1-0.2l-2.4,2.6c-0.4,0.4-0.2,0.7,0,1.1c0.4,0.4,0.7,0.4,1.1,0
				l4.2-3.8h0.2l4.1,3.8c0.4,0.4,0.7,0.2,1.1,0c0.4-0.4,0.4-0.7,0-1.1l-2.4-2.6c1.1,0,2.1,0.1,3.1,0.2c2,0.2,4.1,0.5,6,0.8
				c1.8,0.4,3.8,0.8,6,1.3c0.5,0.1,1.1,0.4,1.4,0.4l0,0c0.4,0.1,0.7,0.2,1.1,0.4c0.1,0,0.2,0.1,0.4,0.1l0,0c0.4,0.1,0.6,0.2,1.1,0.4
				c0.1,0,0.4,0.1,0.4,0.1c0.4,0.1,0.7,0.2,1.1,0.4c0.1,0.1,0.4,0.1,0.4,0.2c3.8,1.4,7.4,3.2,11,5.4c2.7,1.7,5.5,3.7,8.2,5.8
				c0.4,0.2,0.7,0.2,1.1-0.1C95.1,72.5,95.1,72,94.7,71.8z"/>
			<path class="st2" d="M31.7,25c0.1,0,0.2,0,0.4,0c1.1-0.1,2-0.4,3.1-0.2c0.1,0,0.1,0.1,0.1,0.1l0,0c0,0.1,0.1,0.4,0.1,1.7
				c0,0.4,0,1,0,1.3c0,0.4,0,1,0,1.3c0,4.9,0,9.1-0.1,13c0,0.8,0,1.7-0.1,2.5c0,0.8,0,1.7-0.1,2.5c0,0.1,0,0.4,0,0.4
				c0,0.8,0,1.7-0.4,2.4c-0.6,0.5-1.4,1-2.3,1.3c-0.2,0.1-0.4,0.2-0.7,0.4c-0.2,0.1-0.5,0.4-1,0.5l-0.1,0.2v2.5l1-0.4
				c2.4-1,4.2-1.4,6-1.8c2.1-0.4,4.2-0.6,6-0.7h0.6v-2.5l-0.6-0.1c-0.4,0-0.8-0.1-1.1-0.1c-0.4,0-0.6,0-1,0c-0.5,0-1.7,0-1.9-0.2
				c-0.2-0.2-0.2-1.2-0.2-1.8c0-0.2,0-0.4,0-0.5c0-3.3-0.1-6.7-0.1-10.1c0-2.5-0.1-4.9-0.1-7.4c4.1,7.5,7.5,14.7,10.7,21.5l0.2,0.4
				h0.4c0.5,0,0.7,0,1.2,0h0.5l0.2-0.4c1-2.1,1.9-4.3,2.9-6.2l0.6-1.2c2.3-4.6,4.5-9.5,7.2-14.3v16.5c0,0.4,0,0.5,0,0.8
				c0,1,0,1.8-0.2,2.5l0,0c0,0,0,0-0.1,0c-0.6,0.2-1.3,0.2-2,0.2c-0.4,0-0.6,0-0.8,0c-0.4,0-0.8,0.1-1.3,0.2l-0.5,0.1v2.5h0.6
				c2.7,0.2,5,0.4,7.2,1c2,0.4,4.2,1.1,6.7,2l1,0.4v-2.5l-0.4-0.2c-0.4-0.2-0.7-0.4-1-0.5c-0.4-0.2-0.7-0.4-1.1-0.5
				c-1-0.4-1.8-0.8-2.4-1.3c0,0-0.1-0.2-0.1-0.5c-0.1-4.1-0.1-8.1-0.1-12.2c0-1.2,0-2.5,0-3.6l0.1-6.8v-0.4c0-1.1,0.1-1.3,0.2-1.4
				c0.7-0.1,1.5-0.1,2.4,0c0.2,0,0.4,0,0.6,0.1c0.2,0,0.5,0,1.1,0.1h0.7v-2.9l-0.5-0.1c-0.8-0.2-1.5-0.4-2.4-0.5
				c-0.8-0.2-1.7-0.4-2.5-0.6c-1-0.2-1.9-0.5-2.9-0.7c-0.5-0.1-1.1-0.4-1.7-0.4l-0.7-0.4l-0.2,0.5c-0.5,1.4-1.2,3-2,4.5
				c-3,5.8-6,11.7-8.8,17.6c-1.3-2.5-2.5-5.1-3.7-7.5c-0.8-1.7-1.5-3.1-2.4-4.6c-1.1-2.3-2.3-4.5-3.3-6.8c-0.5-1.1-1.1-2.1-1.4-3.2
				l-0.2-0.5l-0.5,0c-1.5,0.4-3.1,0.8-4.5,1.1c-0.6,0.1-1.3,0.4-1.9,0.4c-1.1,0.4-2.4,0.5-3.5,0.8l-0.5,0.1v2.6l0.7-0.1
				C31,25.1,31.3,25.1,31.7,25z"/>
		</g>
	</g>
</g>
</svg>
