<?xml version="1.0" encoding="utf-8"?>
<!-- Generator: Adobe Illustrator 26.0.0, SVG Export Plug-In . SVG Version: 6.00 Build 0)  -->
<svg version="1.1" id="Capa_1" xmlns="http://www.w3.org/2000/svg" xmlns:xlink="http://www.w3.org/1999/xlink" x="0px" y="0px"
	 viewBox="0 0 256 256" style="enable-background:new 0 0 256 256;" xml:space="preserve">
<g>
	<path d="M247.2,196.3L247.2,196.3c-14.7-14.3-32.6-26.2-51.8-34.1l0,0c-0.5-0.3-1.2-0.4-1.7-0.6c-0.8-0.3-1.5-0.6-2.3-0.9
		c-0.3-0.1-0.6-0.3-0.9-0.4c-1-0.4-2-0.8-3.2-1.2c-1.3-0.5-2.7-1-4.1-1.4c-0.5-0.1-1-0.4-1.5-0.5c-0.8-0.3-1.7-0.5-2.6-0.8
		c-5.2-1.7-10.9-3.1-16.8-4.2c-5.6-1.2-11.4-1.9-17-2.6c-3.1-0.3-6.4-0.5-9.6-0.6l6.7-7.3c0.8-0.8,0.6-2-0.1-2.8
		c-0.8-0.8-1.9-0.8-2.8-0.1l-11.1,10h-0.6l-11.1-10.1c-0.8-0.8-2-0.6-2.8,0.1c-0.8,0.8-0.8,1.9-0.1,2.8l6.7,7.3
		c-3.2,0.1-6.4,0.4-9.7,0.6c-6.1,0.6-11.8,1.5-17,2.6c-5.6,1.2-11.1,2.6-16.6,4.2c-1,0.3-1.9,0.6-2.8,0.9c-0.4,0.1-0.9,0.3-1.3,0.4
		c-0.6,0.3-1.4,0.4-2,0.6l-2,0.8c-2.9,1-5.5,2-8.1,3.2c-19.3,8.2-37.2,20-51.9,34.4c-0.8,0.8-0.8,2-0.1,2.8c0.4,0.4,0.9,0.6,1.5,0.6
		c0.5,0,0.9-0.1,1.3-0.5c7.4-6,14.8-11.4,22.3-16c9.3-5.8,19.3-10.6,29.7-14.6c2.7-1,5.2-1.9,7.8-2.8c2.3-0.8,5-1.5,7.9-2.4
		c5.4-1.5,10.7-2.8,16-3.7c5.6-1,11.1-1.8,16.4-2.3c2.8-0.3,5.8-0.5,8.6-0.6l-6.4,7.2c-0.8,0.8-0.6,2,0.1,2.8
		c0.8,0.8,1.9,0.8,2.8,0.1l11.3-10.1h0.5l11.1,10.1c0.8,0.8,2,0.6,2.8-0.1c0.8-0.8,0.8-1.9,0.1-2.8l-6.4-7c3.1,0.1,5.9,0.3,8.6,0.5
		c5.5,0.5,11,1.3,16.4,2.3c5,0.9,10.2,2.2,16,3.7c1.3,0.4,2.7,0.8,4,1.2l0,0c0.9,0.3,1.9,0.6,2.9,0.9c0.4,0.1,0.6,0.3,1,0.4l0,0
		c0.9,0.3,1.8,0.6,2.7,0.9c0.4,0.1,0.8,0.3,1.2,0.4c0.9,0.3,1.8,0.6,2.7,1c0.4,0.1,0.8,0.3,1.2,0.4c10.2,3.8,20.2,8.8,29.7,14.6
		c7.5,4.5,15,9.8,22.3,15.9c0.9,0.6,2,0.5,2.8-0.3C248,198.3,248,197.1,247.2,196.3z"/>
	<path d="M76,69.4c0.3,0,0.6-0.1,0.9-0.1c2.8-0.4,5.6-0.8,8.3-0.5c0.3,0,0.4,0.1,0.4,0.3l0,0c0,0.1,0.3,1,0.3,4.5c0,1.2,0,2.4,0,3.6
		s0,2.4,0,3.6c0,13.2-0.1,24.7-0.3,35.2c0,2.2-0.1,4.5-0.1,6.7s-0.1,4.3-0.1,6.5c0,0.4,0,0.8,0,1.2c0,2.2-0.1,4.5-1,6.3
		c-1.5,1.5-3.8,2.6-6.1,3.6c-0.6,0.3-1.3,0.6-1.8,0.9c-0.6,0.3-1.4,0.8-2.6,1.4l-0.9,0.5v7l2.3-0.9c6.4-2.3,11.4-3.8,16.2-4.9
		c5.6-1.2,11.4-1.7,16.2-2l1.7-0.1v-6.7l-1.5-0.1c-1.3-0.1-2.2-0.3-2.8-0.3c-0.8,0-1.7,0-2.6,0c-1.5,0-4.6,0-5.2-0.4
		c-0.5-0.6-0.5-3.3-0.5-4.6c0-0.5,0-0.9,0-1.3c-0.1-9.2-0.3-18.3-0.4-27.5c-0.1-6.7-0.1-13.4-0.3-20.1c11,20.5,20.6,39.6,29,58.2
		l0.5,1h1.2c1.4,0,2,0,3.3,0h1.2l0.5-1c2.6-5.9,5.2-11.8,7.7-16.8l1.7-3.5c6.1-12.8,12.5-26,19.3-38.7v44.5c0,0.8,0,1.5,0,2.2
		c0,2.4,0.1,4.9-0.5,6.8l0,0l-0.1,0.1c-1.5,0.4-3.6,0.5-5.5,0.5c-0.8,0-1.5,0-2.3,0.1c-0.9,0-2.2,0.3-3.7,0.5l-1.5,0.3v6.7l1.7,0.1
		c7.4,0.4,13.6,1.2,19.3,2.4c5.5,1.2,11.3,2.9,18.2,5.5l2.4,0.9v-7l-0.9-0.5c-1.2-0.6-1.9-1-2.3-1.3c-0.9-0.5-2-0.9-2.9-1.4
		c-2.4-1-5-2.2-6.5-3.6c-0.1-0.1-0.4-0.5-0.4-1.4c-0.4-11-0.4-22.1-0.3-33c0-3.2,0-6.5,0-9.7l0.3-18.5v-0.8c0-2.7,0.4-3.7,0.5-4
		c1.9-0.4,4.2-0.1,6.3,0.1c0.6,0,1.2,0.1,1.7,0.1c0.6,0,1.5,0.1,2.7,0.1l1.8,0.1v-6.7l-1.3-0.4c-2.2-0.5-4.2-1-6.4-1.5
		s-4.3-1-6.5-1.5c-2.6-0.6-5.1-1.3-7.7-2c-1.4-0.4-2.8-0.8-4.3-1.2l-1.5-0.4l-0.6,1.4c-1.5,3.7-3.3,8.2-5.4,12.3
		c-8.1,15.6-16,31.7-23.8,47.7c-3.5-7-6.8-13.7-10.1-20.3c-2-4.2-4.2-8.6-6.3-12.8c-3.1-6.1-6.1-12.4-9.1-18.7
		c-1.4-2.9-2.7-5.9-3.8-8.7l-0.6-1.4l-1.5,0.4c-4.1,1-8.3,2.2-12.4,3.1c-1.8,0.4-3.5,0.8-5.2,1.3c-3.1,0.8-6.4,1.5-9.5,2.3l-1.3,0.4
		v6.8l1.9-0.1C74.2,69.7,75.2,69.6,76,69.4z"/>
</g>
</svg>
