<?xml version="1.0" encoding="utf-8"?>
<!-- Generator: Adobe Illustrator 22.0.0, SVG Export Plug-In . SVG Version: 6.00 Build 0)  -->
<svg version="1.1" id="Capa_1" xmlns="http://www.w3.org/2000/svg" xmlns:xlink="http://www.w3.org/1999/xlink" x="0px" y="0px"
	 viewBox="0 0 1080 1080" style="enable-background:new 0 0 1080 1080;" xml:space="preserve">
<style type="text/css">
	.st0{fill:url(#SVGID_1_);}
	.st1{fill:#FFFFFF;}
</style>
<linearGradient id="SVGID_1_" gradientUnits="userSpaceOnUse" x1="103.6372" y1="371.5705" x2="978.6093" y2="371.5705" gradientTransform="matrix(1 0 0 1 0 314.6457)">
	<stop  offset="0" style="stop-color:#002B4D"/>
	<stop  offset="0.3575" style="stop-color:#006A5E"/>
	<stop  offset="0.3878" style="stop-color:#096B5C"/>
	<stop  offset="0.4382" style="stop-color:#236D55"/>
	<stop  offset="0.5025" style="stop-color:#4C714B"/>
	<stop  offset="0.5781" style="stop-color:#86773D"/>
	<stop  offset="0.6625" style="stop-color:#CF7D2C"/>
	<stop  offset="0.692" style="stop-color:#EA8025"/>
	<stop  offset="1" style="stop-color:#8E1133"/>
</linearGradient>
<path class="st0" d="M978.3,792c0.9,0.9-0.3,2.3-1.3,1.5c-26.5-21.8-54.2-41.7-83.4-59.3c-35.4-21.5-72.6-39.8-111.1-54.5
	c-4.8-1.8-9.6-3.7-14.5-5.4s-9.7-3.5-14.6-5c-4.9-1.6-9.8-3.3-14.7-4.7c-4.9-1.5-9.8-3-14.8-4.4c-19.8-5.5-39.9-10.3-60.1-13.9
	c-20.2-3.7-40.6-6.5-61.1-8.4c-15-1.4-30.2-2.2-45.2-2.6c-0.9,0-1.3,1-0.8,1.6l32.5,35.9c0.8,0.9-0.5,2.2-1.4,1.4L545,635.3
	c-0.2-0.2-0.4-0.3-0.7-0.3h-3.2h-3c-0.2,0-0.5,0.1-0.7,0.3l-43.1,39c-0.9,0.8-2.2-0.5-1.4-1.4l32.6-36c0.6-0.6,0.1-1.7-0.7-1.6
	c-15.1,0.3-30.3,1.2-45.3,2.7c-20.5,1.8-40.9,4.7-61.1,8.4s-40.3,8.4-60.1,14c-9.9,2.8-19.8,5.8-29.5,9.1
	c-9.8,3.2-19.5,6.7-29.1,10.4c-38.5,14.8-75.7,33.1-111,54.7c-29.2,17.8-56.9,37.9-83.4,59.7c-1,0.8-2.2-0.6-1.3-1.5
	c54.6-53.2,119.8-96.1,190.6-126c9.7-4.1,19.5-7.9,29.4-11.5l7.5-2.7c2.5-0.9,5-1.7,7.5-2.5c5-1.6,10-3.4,15.1-4.8
	c20.1-6.2,40.6-11.4,61.3-15.5c20.7-4.2,41.6-7.2,62.6-9.4c15.7-1.5,31.5-2.5,47.3-2.9c0.8,0,1.3-1,0.7-1.6l-32.6-36
	c-0.8-0.9,0.5-2.2,1.4-1.4l42.6,38.6c0.2,0.2,0.4,0.3,0.7,0.3h3.2h3.4c0.2,0,0.5-0.1,0.7-0.3l42.6-38.6c0.9-0.8,2.2,0.5,1.4,1.4
	l-32.6,36c-0.6,0.6-0.1,1.6,0.7,1.6c15.8,0.4,31.5,1.3,47.2,2.8c21,2.1,41.9,5.2,62.6,9.3c20.7,4.2,41.2,9.3,61.4,15.5
	c5.1,1.5,10,3.2,15.1,4.8c5,1.6,10,3.4,14.9,5.2c5,1.7,9.9,3.7,14.8,5.6c4.9,1.8,9.8,4,14.7,5.9C858.6,696.1,923.7,738.9,978.3,792z
	"/>
<path class="st1" d="M330.1,330.8c0-5.1,0-7.7,0-12.9c18.1-4.5,36.4-8.6,54.5-12.9c15.5-3.6,30.9-7.6,46.3-11.6
	c4.6,11,9.3,22,14.4,32.7c18.8,39,38.3,77.8,57.3,116.7c14.2,29.1,28.6,58.1,43.2,87.1c30.6-63.3,61.9-126.2,94-188.8
	c7.5-15.1,14-30.6,20.3-46.3c14.8,3.9,29.7,8.2,44.5,11.8c15.8,3.9,31.9,7.3,47.8,11.2c0,5.1,0,7.7,0,12.9c-4.3-0.2-7.5-0.4-9.6-0.6
	c-10.3-0.9-23-3.2-33.3-0.4c-3.7,2-5.6,8.9-5.6,20.6c0,1.1,0,1.7,0,2.8c-0.3,23-0.6,45.9-0.9,68.9c0,52.8-0.8,105.8,1.1,158.6
	c0.1,4,1.3,7.6,3.3,9.5c8.9,8.4,24.6,13.6,36.6,19.6c1.8,0.9,4.6,2.4,8.3,4.6c0,5.2,0,7.7,0,12.9c-22.3-8.4-44.8-15.7-68.2-20.7
	c-23.9-5.1-48-7.7-72.4-9.1c0-5.2,0-7.7,0-12.9c5.7-0.9,10-1.4,13-1.6c10.2-0.6,21.5-0.1,30.5-2.6c2.4-0.7,4.5-2.7,5.1-4.9
	c3.1-10.3,1.9-23.6,2-35c0-63.5,0-126.9,0-190.4c-32.4,58.4-61.2,118.8-90.2,178.9c-9.9,20.6-19.7,41.3-28.7,62.3
	c-5,0-7.5,0-12.6,0.1c-37.3-81.3-77.9-161-120.5-239.5c0.9,67.6,1.9,135.1,2.8,202.7c0.2,9-0.7,22.9,3.9,27c5.3,4.6,22.9,2.8,33,3.3
	c2.2,0.1,5.6,0.4,10.1,0.9c0,5.2,0,7.7,0,12.9c-20.5,1.4-41,3.4-61.2,7.7c-20.8,4.4-41,11-60.9,18.3c0-5.2,0-7.7,0-12.9
	c4.1-2.4,7.2-4.1,9.2-5c10.5-5.2,23.3-10,31.8-18.4c5.5-9.2,5-20.9,5.4-31.2c0.4-16.4,0.7-32.9,1.1-49.3c0.7-43.5,1-87,1.1-130.4
	c-0.1-8.9-0.1-17.7-0.2-26.5c0-10.6-0.6-17.1-2-19.5c-1.3-2.4-3.4-3.8-6.3-4.3c-12.2-1.2-24.5,0.8-36.5,2.4
	C339.3,330.1,335.3,330.4,330.1,330.8z"/>
</svg>
