<?xml version="1.0" encoding="utf-8"?>
<!-- Generator: Adobe Illustrator 26.0.0, SVG Export Plug-In . SVG Version: 6.00 Build 0)  -->
<svg version="1.1" id="Capa_1" xmlns="http://www.w3.org/2000/svg" xmlns:xlink="http://www.w3.org/1999/xlink" x="0px" y="0px"
	 viewBox="0 0 256 256" style="enable-background:new 0 0 256 256;" xml:space="preserve">
<style type="text/css">
	.st0{fill:#FFFFFF;}
</style>
<g>
	<path d="M231.4,247.4c-0.5,0-1,0-1.5-0.1c-33.7-2.2-67.8-3.3-101.4-3.3s-67.8,1.1-101.4,3.3c-0.5,0-1,0.1-1.5,0.1
		c-11.1,0-20.4-8.6-21.1-19.6C0,160.6,0,92.4,4.5,25.1c0.7-11,10-19.6,21.1-19.6c0.5,0,1,0,1.5,0.1C60.7,7.8,94.8,9,128.5,9
		s67.8-1.1,101.4-3.3c0.5,0,1-0.1,1.5-0.1c11.1,0,20.4,8.6,21.1,19.6c4.4,67.3,4.4,135.5,0,202.7
		C251.8,238.8,242.5,247.4,231.4,247.4z"/>
	<path d="M231.4,6.1c10.8,0,19.8,8.4,20.5,19c4.4,67.2,4.4,135.4,0,202.7c-0.7,10.7-9.7,19-20.5,19c-0.5,0-1,0-1.4,0
		c-33.7-2.2-67.8-3.3-101.5-3.3s-67.8,1.1-101.5,3.3c-0.5,0-1,0-1.4,0c-10.8,0-19.8-8.4-20.5-19C0.6,160.6,0.6,92.4,5,25.2
		c0.7-10.7,9.7-19,20.5-19c0.5,0,1,0,1.4,0c33.7,2.2,67.8,3.3,101.5,3.3S196.3,8.4,230,6.2C230.5,6.2,230.9,6.1,231.4,6.1L231.4,6.1
		 M231.4,5c-0.5,0-1,0-1.5,0.1c-33.8,2.2-67.6,3.3-101.4,3.3S60.9,7.3,27.1,5.1c-0.5,0-1-0.1-1.5-0.1C14.3,5,4.7,13.6,3.9,25.1
		c-4.5,67.6-4.5,135.2,0,202.8C4.7,239.4,14.3,248,25.6,248c0.5,0,1,0,1.5-0.1c33.8-2.2,67.6-3.3,101.4-3.3s67.6,1.1,101.4,3.3
		c0.5,0,1,0.1,1.5,0.1c11.3,0,20.9-8.6,21.7-20.1c4.5-67.6,4.5-135.2,0-202.8C252.3,13.6,242.7,5,231.4,5L231.4,5z"/>
</g>
<g>
	<path class="st0" d="M243.9,194.7L243.9,194.7c-14.4-14-31.8-25.5-50.5-33.3l0,0c-0.5-0.2-1.1-0.4-1.6-0.7
		c-0.7-0.3-1.5-0.6-2.3-0.9c-0.3-0.1-0.6-0.2-0.9-0.3c-1-0.4-2-0.8-3.1-1.1c-1.3-0.5-2.6-0.9-4-1.4c-0.5-0.2-1-0.3-1.5-0.5
		c-0.8-0.3-1.6-0.5-2.5-0.8c-5.1-1.6-10.6-3-16.3-4.1c-5.5-1.1-11-1.9-16.6-2.5c-3-0.3-6.2-0.5-9.4-0.6l6.5-7.1
		c0.7-0.8,0.7-2-0.1-2.7c-0.7-0.7-1.9-0.8-2.7-0.1l-10.8,9.8h-0.6l-10.8-9.8c-0.8-0.7-2-0.7-2.7,0.1c-0.7,0.7-0.8,1.9-0.1,2.7
		l6.5,7.1c-3.1,0.1-6.2,0.4-9.4,0.7c-6,0.6-11.4,1.4-16.6,2.5c-5.4,1.1-10.9,2.5-16.2,4.1c-1,0.3-1.9,0.6-2.8,0.9
		c-0.4,0.1-0.8,0.3-1.2,0.4c-0.7,0.2-1.3,0.4-2,0.7l-2,0.7c-2.8,1-5.4,2-7.8,3.1C43.8,169.4,26.3,181,12,195
		c-0.7,0.7-0.8,1.9-0.1,2.7c0.4,0.4,0.9,0.6,1.5,0.6c0.4,0,0.9-0.1,1.3-0.4c7.2-5.9,14.5-11.1,21.7-15.5
		c9.1-5.6,18.8-10.4,28.9-14.2c2.7-1,5.1-1.9,7.6-2.7c2.3-0.8,4.8-1.6,7.7-2.4c5.2-1.5,10.4-2.7,15.6-3.6c5.5-1,10.8-1.7,15.9-2.2
		c2.8-0.3,5.5-0.5,8.3-0.6l-6.3,6.9c-0.7,0.8-0.7,2,0.1,2.7c0.7,0.7,1.9,0.8,2.7,0.1l10.9-9.9h0.5l10.9,9.9c0.8,0.7,2,0.7,2.7-0.1
		c0.7-0.7,0.8-1.9,0.1-2.7l-6.2-6.9c2.9,0.1,5.7,0.3,8.3,0.6c5.3,0.5,10.7,1.2,15.9,2.2c4.9,0.9,10,2.1,15.6,3.6
		c1.3,0.4,2.6,0.8,3.8,1.1l0,0c0.9,0.3,1.9,0.6,2.8,0.9c0.3,0.1,0.6,0.2,1,0.3l0,0c0.9,0.3,1.7,0.6,2.7,0.9c0.4,0.1,0.7,0.3,1.1,0.4
		c0.9,0.3,1.8,0.6,2.6,1c0.4,0.1,0.8,0.3,1.1,0.4c9.9,3.8,19.6,8.6,28.9,14.2c7.3,4.4,14.6,9.6,21.7,15.4c0.8,0.7,2,0.6,2.7-0.2
		C244.7,196.7,244.7,195.5,243.9,194.7z"/>
	<path class="st0" d="M77.2,71.2c0.3,0,0.6-0.1,0.9-0.1c2.7-0.4,5.5-0.7,8.2-0.5c0.3,0.1,0.3,0.2,0.4,0.3l0,0c0.1,0.1,0.3,1,0.3,4.3
		c0,1.2,0,2.3,0,3.5c0,1.2,0,2.3,0,3.5c0,12.8-0.1,24-0.3,34.2c-0.1,2.2-0.1,4.3-0.1,6.5c0,2.1-0.1,4.3-0.1,6.4c0,0.4,0,0.7,0,1.1
		c-0.1,2.2-0.1,4.4-1,6.1c-1.6,1.5-3.8,2.5-5.9,3.5c-0.6,0.3-1.2,0.6-1.8,0.9c-0.6,0.3-1.4,0.7-2.5,1.4l-0.8,0.5v6.8l2.3-0.8
		c6.3-2.3,11.1-3.8,15.8-4.7c5.5-1.2,11.1-1.7,15.8-2l1.6-0.1v-6.5l-1.5-0.2c-1.2-0.1-2.1-0.2-2.8-0.2c-0.7,0-1.6,0-2.5,0
		c-1.4,0-4.4,0-5.1-0.4c-0.4-0.6-0.4-3.3-0.4-4.5c0-0.5,0-0.9,0-1.3c-0.1-8.9-0.2-17.8-0.4-26.7c-0.1-6.5-0.2-13-0.3-19.5
		c10.7,20,20,38.6,28.3,56.7l0.5,1l1.1,0c1.3,0,2,0,3.3,0h1.1l0.4-1c2.5-5.7,5.2-11.4,7.5-16.3l1.6-3.3c6-12.5,12.2-25.3,18.8-37.7
		v43.3c0,0.7,0,1.5,0,2.2c0,2.3,0.1,4.7-0.5,6.5l0,0c0,0-0.1,0.1-0.2,0.1c-1.5,0.4-3.5,0.5-5.4,0.5c-0.7,0-1.5,0-2.3,0.1
		c-0.9,0.1-2.1,0.2-3.6,0.4L146,135v6.5l1.6,0.1c7.2,0.4,13.2,1.2,18.8,2.4c5.4,1.2,11,2.9,17.7,5.4l2.3,0.9v-6.8l-0.8-0.5
		c-1.1-0.6-1.8-1-2.3-1.3c-0.9-0.5-1.9-0.9-2.9-1.3c-2.4-1.1-4.8-2.1-6.3-3.5c-0.1-0.1-0.3-0.6-0.3-1.3c-0.4-10.7-0.3-21.5-0.3-32.1
		c0-3.2,0-6.3,0-9.5l0.2-18.1V75c0-2.6,0.4-3.6,0.6-3.8c1.8-0.4,4.1-0.1,6.2,0.1c0.6,0.1,1.1,0.1,1.6,0.2c0.6,0.1,1.4,0.1,2.6,0.2
		l1.8,0.1v-6.5l-1.3-0.3c-2.1-0.5-4.2-1-6.2-1.4c-2.1-0.5-4.3-1-6.4-1.5c-2.5-0.6-5-1.3-7.5-2c-1.4-0.4-2.8-0.8-4.2-1.1l-1.5-0.4
		l-0.6,1.4c-1.5,3.6-3.2,7.9-5.3,12c-7.8,15.2-15.6,30.8-23.2,46.5c-3.4-6.8-6.6-13.3-9.8-19.8c-2-4.2-4.1-8.4-6.1-12.5
		c-2.9-5.9-6-12.1-8.9-18.1c-1.4-2.8-2.6-5.8-3.7-8.5l-0.6-1.4l-1.4,0.4c-4,1-8.1,2.1-12.1,3c-1.7,0.4-3.4,0.8-5.1,1.2
		c-3,0.7-6.2,1.4-9.3,2.2l-1.3,0.3v6.6l1.9-0.1C75.4,71.4,76.4,71.4,77.2,71.2z"/>
</g>
</svg>
