<?xml version="1.0" encoding="utf-8"?>
<!-- Generator: Adobe Illustrator 26.0.0, SVG Export Plug-In . SVG Version: 6.00 Build 0)  -->
<svg version="1.1" id="Capa_1" xmlns="http://www.w3.org/2000/svg" xmlns:xlink="http://www.w3.org/1999/xlink" x="0px" y="0px"
	 viewBox="0 0 256 256" style="enable-background:new 0 0 256 256;" xml:space="preserve">
<style type="text/css">
	.st0{fill:#FFFFFF;}
</style>
<g>
	<path d="M227.8,243.2c-0.5,0-0.9,0-1.4,0c-32.5-2.1-65.4-3.2-97.9-3.2s-65.4,1.1-97.9,3.2c-0.5,0-1,0-1.4,0
		c-10.7,0-19.7-8.3-20.4-18.9c-4.3-64.9-4.3-130.8,0-195.7C9.5,18.1,18.4,9.8,29.2,9.8c0.5,0,0.9,0,1.4,0
		c32.5,2.1,65.4,3.2,97.9,3.2s65.4-1.1,97.9-3.2c0.5,0,1,0,1.4,0c10.7,0,19.7,8.3,20.4,18.9c4.3,64.9,4.3,130.8,0,195.7
		C247.5,234.9,238.5,243.2,227.8,243.2z"/>
	<path d="M227.8,10.3c10.4,0,19.1,8.1,19.8,18.4c4.3,64.9,4.3,130.7,0,195.6c-0.7,10.3-9.4,18.4-19.8,18.4c-0.5,0-0.9,0-1.4,0
		c-32.5-2.1-65.5-3.2-98-3.2s-65.5,1.1-98,3.2c-0.5,0-0.9,0-1.4,0c-10.4,0-19.1-8.1-19.8-18.4C5,159.4,5,93.6,9.3,28.7
		c0.7-10.3,9.4-18.4,19.8-18.4c0.5,0,0.9,0,1.4,0c32.5,2.1,65.5,3.2,98,3.2s65.5-1.1,98-3.2C226.9,10.3,227.4,10.3,227.8,10.3
		L227.8,10.3 M227.8,9.2c-0.5,0-1,0-1.5,0c-32.6,2.2-65.3,3.2-97.9,3.2s-65.3-1.1-97.9-3.2c-0.5,0-1,0-1.5,0
		C18.3,9.2,9,17.6,8.2,28.6c-4.3,65.3-4.3,130.5,0,195.8c0.8,11.1,10.1,19.4,20.9,19.4c0.5,0,1,0,1.5,0c32.6-2.2,65.3-3.2,97.9-3.2
		s65.3,1.1,97.9,3.2c0.5,0,1,0,1.5,0c10.9,0,20.2-8.3,20.9-19.4c4.3-65.3,4.3-130.5,0-195.8C248,17.6,238.7,9.2,227.8,9.2L227.8,9.2
		z"/>
</g>
<g>
	<path class="st0" d="M221.1,181.6L221.1,181.6c-11.5-11.2-25.5-20.5-40.5-26.7l0,0c-0.4-0.2-0.9-0.3-1.3-0.5
		c-0.6-0.2-1.2-0.5-1.8-0.7c-0.2-0.1-0.5-0.2-0.7-0.3c-0.8-0.3-1.6-0.6-2.5-0.9c-1-0.4-2.1-0.8-3.2-1.1c-0.4-0.1-0.8-0.3-1.2-0.4
		c-0.6-0.2-1.3-0.4-2-0.6c-4.1-1.3-8.5-2.4-13.1-3.3c-4.4-0.9-8.9-1.5-13.3-2c-2.4-0.2-5-0.4-7.5-0.5l5.2-5.7
		c0.6-0.6,0.5-1.6-0.1-2.2c-0.6-0.6-1.5-0.6-2.2-0.1l-8.7,7.8h-0.5l-8.7-7.9c-0.6-0.6-1.6-0.5-2.2,0.1c-0.6,0.6-0.6,1.5-0.1,2.2
		l5.2,5.7c-2.5,0.1-5,0.3-7.6,0.5c-4.8,0.5-9.2,1.2-13.3,2c-4.4,0.9-8.7,2-13,3.3c-0.8,0.2-1.5,0.5-2.2,0.7c-0.3,0.1-0.7,0.2-1,0.3
		c-0.5,0.2-1.1,0.3-1.6,0.5l-1.6,0.6c-2.3,0.8-4.3,1.6-6.3,2.5c-15.1,6.4-29.1,15.6-40.6,26.9c-0.6,0.6-0.6,1.6-0.1,2.2
		c0.3,0.3,0.7,0.5,1.2,0.5c0.4,0,0.7-0.1,1-0.4c5.8-4.7,11.6-8.9,17.4-12.5c7.3-4.5,15.1-8.3,23.2-11.4c2.1-0.8,4.1-1.5,6.1-2.2
		c1.8-0.6,3.9-1.2,6.2-1.9c4.2-1.2,8.4-2.2,12.5-2.9c4.4-0.8,8.7-1.4,12.8-1.8c2.2-0.2,4.5-0.4,6.7-0.5l-5,5.6
		c-0.6,0.6-0.5,1.6,0.1,2.2c0.6,0.6,1.5,0.6,2.2,0.1l8.8-7.9h0.4l8.7,7.9c0.6,0.6,1.6,0.5,2.2-0.1c0.6-0.6,0.6-1.5,0.1-2.2l-5-5.5
		c2.4,0.1,4.6,0.2,6.7,0.4c4.3,0.4,8.6,1,12.8,1.8c3.9,0.7,8,1.7,12.5,2.9c1,0.3,2.1,0.6,3.1,0.9l0,0c0.7,0.2,1.5,0.5,2.3,0.7
		c0.3,0.1,0.5,0.2,0.8,0.3l0,0c0.7,0.2,1.4,0.5,2.1,0.7c0.3,0.1,0.6,0.2,0.9,0.3c0.7,0.2,1.4,0.5,2.1,0.8c0.3,0.1,0.6,0.2,0.9,0.3
		c8,3,15.8,6.9,23.2,11.4c5.9,3.5,11.7,7.7,17.4,12.4c0.7,0.5,1.6,0.4,2.2-0.2C221.7,183.2,221.7,182.2,221.1,181.6z"/>
	<path class="st0" d="M87.2,82.4c0.2,0,0.5-0.1,0.7-0.1c2.2-0.3,4.4-0.6,6.5-0.4c0.2,0,0.3,0.1,0.3,0.2l0,0c0,0.1,0.2,0.8,0.2,3.5
		c0,0.9,0,1.9,0,2.8c0,0.9,0,1.9,0,2.8c0,10.3-0.1,19.3-0.2,27.5c0,1.7-0.1,3.5-0.1,5.2c0,1.7-0.1,3.4-0.1,5.1c0,0.3,0,0.6,0,0.9
		c0,1.7-0.1,3.5-0.8,4.9c-1.2,1.2-3,2-4.8,2.8c-0.5,0.2-1,0.5-1.4,0.7c-0.5,0.2-1.1,0.6-2,1.1l-0.7,0.4v5.5l1.8-0.7
		c5-1.8,8.9-3,12.7-3.8c4.4-0.9,8.9-1.3,12.7-1.6l1.3-0.1v-5.2l-1.2-0.1c-1-0.1-1.7-0.2-2.2-0.2c-0.6,0-1.3,0-2,0
		c-1.2,0-3.6,0-4.1-0.3c-0.4-0.5-0.4-2.6-0.4-3.6c0-0.4,0-0.7,0-1c-0.1-7.2-0.2-14.3-0.3-21.5c-0.1-5.2-0.1-10.5-0.2-15.7
		c8.6,16,16.1,31,22.7,45.5l0.4,0.8l0.9,0c1.1,0,1.6,0,2.6,0h0.9l0.4-0.8c2-4.6,4.1-9.2,6-13.1l1.3-2.7c4.8-10,9.8-20.3,15.1-30.3
		v34.8c0,0.6,0,1.2,0,1.7c0,1.9,0.1,3.8-0.4,5.3l0,0c0,0-0.1,0.1-0.1,0.1c-1.2,0.3-2.8,0.4-4.3,0.4c-0.6,0-1.2,0-1.8,0.1
		c-0.7,0-1.7,0.2-2.9,0.4l-1.2,0.2v5.2l1.3,0.1c5.8,0.3,10.6,0.9,15.1,1.9c4.3,0.9,8.8,2.3,14.2,4.3l1.9,0.7v-5.5l-0.7-0.4
		c-0.9-0.5-1.5-0.8-1.8-1c-0.7-0.4-1.6-0.7-2.3-1.1c-1.9-0.8-3.9-1.7-5.1-2.8c-0.1-0.1-0.3-0.4-0.3-1.1c-0.3-8.6-0.3-17.3-0.2-25.8
		c0-2.5,0-5.1,0-7.6l0.2-14.5v-0.6c0-2.1,0.3-2.9,0.4-3.1c1.5-0.3,3.3-0.1,4.9,0.1c0.5,0,0.9,0.1,1.3,0.1c0.5,0,1.2,0.1,2.1,0.1
		l1.4,0.1v-5.2l-1-0.3c-1.7-0.4-3.3-0.8-5-1.2c-1.7-0.4-3.4-0.8-5.1-1.2c-2-0.5-4-1-6-1.6c-1.1-0.3-2.2-0.6-3.4-0.9l-1.2-0.3
		l-0.5,1.1c-1.2,2.9-2.6,6.4-4.2,9.6c-6.3,12.2-12.5,24.8-18.6,37.3c-2.7-5.5-5.3-10.7-7.9-15.9c-1.6-3.3-3.3-6.7-4.9-10
		c-2.4-4.8-4.8-9.7-7.1-14.6c-1.1-2.3-2.1-4.6-3-6.8l-0.5-1.1l-1.2,0.3c-3.2,0.8-6.5,1.7-9.7,2.4c-1.4,0.3-2.7,0.6-4.1,1
		c-2.4,0.6-5,1.2-7.4,1.8l-1,0.3v5.3l1.5-0.1C85.8,82.6,86.6,82.5,87.2,82.4z"/>
</g>
</svg>
