<svg id="Capa_1" data-name="Capa 1" xmlns="http://www.w3.org/2000/svg" viewBox="0 0 502.6 273.1"><defs><style>.cls-1{font-size:86.92px;}.cls-1,.cls-2,.cls-5,.cls-6{fill:#fff;}.cls-1,.cls-2{font-family:CalistoMT, Calisto MT;}.cls-2{font-size:79.21px;}.cls-3{letter-spacing:-0.09em;}.cls-4{letter-spacing:-0.02em;}.cls-5{stroke:#fff;stroke-miterlimit:10;stroke-width:5px;}</style></defs><text class="cls-1" transform="translate(17.63 176.66)">Marchantica</text><text class="cls-2" transform="translate(17.8 256)">INTER<tspan class="cls-3" x="255.08" y="0">F</tspan><tspan class="cls-4" x="297.78" y="0">A</tspan><tspan x="357.19" y="0">CE</tspan></text><line class="cls-5" y1="188.1" x2="502.6" y2="188.1"/><path class="cls-6" d="M582.7,101.22a.1.1,0,0,1-.13.14,68,68,0,0,0-8.15-5.79,66.09,66.09,0,0,0-10.85-5.32c-.47-.18-.93-.36-1.41-.53s-.95-.34-1.43-.49-1-.32-1.44-.46l-1.44-.43c-1.93-.53-3.9-1-5.87-1.36s-4-.63-6-.82c-1.46-.13-3-.21-4.41-.25a.1.1,0,0,0-.08.16l3.17,3.5c.08.09-.05.22-.13.14l-4.18-3.8a.09.09,0,0,0-.07,0h-.61a.11.11,0,0,0-.07,0l-4.21,3.81c-.08.08-.21,0-.13-.14l3.18-3.51a.09.09,0,0,0-.07-.16c-1.47,0-3,.12-4.42.26-2,.18-4,.46-6,.82s-3.94.82-5.87,1.37c-1,.28-1.93.57-2.88.89s-1.91.65-2.84,1a65.7,65.7,0,0,0-10.84,5.34,70.66,70.66,0,0,0-8.15,5.83c-.1.08-.21-.06-.13-.15A60.56,60.56,0,0,1,515.92,89c1-.4,1.9-.77,2.87-1.13l.73-.26c.25-.09.49-.17.74-.24.48-.16,1-.34,1.47-.47a58.35,58.35,0,0,1,6-1.52c2-.41,4.06-.7,6.11-.92,1.54-.14,3.08-.24,4.62-.28.08,0,.13-.1.07-.15l-3.18-3.52c-.08-.09,0-.22.13-.14l4.16,3.77a.09.09,0,0,0,.07,0h.65a.11.11,0,0,0,.07,0l4.16-3.77c.08-.08.21,0,.13.14L541.53,84c-.06,0,0,.15.07.15,1.54,0,3.07.13,4.61.28q3.07.3,6.11.9c2,.41,4,.91,6,1.52.5.14,1,.31,1.47.47s1,.33,1.46.5,1,.37,1.44.55,1,.39,1.44.58A59.94,59.94,0,0,1,582.7,101.22Z" transform="translate(-289.2 -49.9)"/><path class="cls-6" d="M497.37,102.1a.72.72,0,0,1-.54-.25.74.74,0,0,1,0-1A61.58,61.58,0,0,1,515.67,88.4c.91-.38,1.86-.75,2.9-1.13l.74-.27.75-.25.46-.15c.33-.11.68-.23,1-.32a59.35,59.35,0,0,1,6-1.53c1.92-.39,3.94-.69,6.18-.93,1.18-.11,2.35-.19,3.5-.24l-2.4-2.65a.74.74,0,0,1,0-1,.73.73,0,0,1,1,0l4,3.64h.23l4-3.64a.73.73,0,0,1,1,1l-2.41,2.66c1.19,0,2.36.13,3.49.23,2.07.21,4.15.52,6.17.92s4.15.94,6.06,1.53l.92.29.56.18c.51.16,1,.34,1.48.52s.77.28,1.14.42l.32.13c.28.1.56.22.84.33l.6.25h0a61.05,61.05,0,0,1,18.77,12.38h0a.73.73,0,0,1-1,1.09,68.19,68.19,0,0,0-8.07-5.75,66.44,66.44,0,0,0-10.75-5.27l-.42-.16c-.32-.12-.65-.25-1-.36l-.42-.15c-.34-.12-.66-.23-1-.33h0l-.36-.11c-.34-.12-.7-.24-1-.34h0L557.68,89c-2.09-.58-4-1-5.81-1.34S547.93,87,546,86.8c-1-.1-2-.16-3.1-.21l2.31,2.56a.73.73,0,0,1-1,1l-4-3.66h-.19l-4.06,3.67a.73.73,0,0,1-1-1l2.34-2.58c-1,0-2.08.12-3.11.23-1.88.16-3.87.43-5.91.81s-3.89.81-5.82,1.35c-1.06.3-2,.59-2.85.88s-1.82.63-2.81,1a64.9,64.9,0,0,0-10.74,5.29,71.37,71.37,0,0,0-8.08,5.78A.75.75,0,0,1,497.37,102.1Zm63.55-13.47c.35.1.7.23,1,.35l.4.14c.35.12.69.25,1,.38l.42.15q1.68.64,3.33,1.38c-1.07-.52-2.15-1-3.24-1.47l-.62-.26c-.27-.11-.53-.22-.8-.31h0l-.32-.13c-.36-.14-.73-.28-1.1-.4h0l-1.43-.5-.57-.18c-.31-.1-.59-.2-.89-.28a59.42,59.42,0,0,0-5.95-1.5,60.82,60.82,0,0,0-6.05-.9c-1.46-.14-3-.23-4.55-.27a.72.72,0,0,1-.6-.34l-.14.13a.79.79,0,0,1-.5.2h-.65a.72.72,0,0,1-.5-.2l-.14-.13a.72.72,0,0,1-.6.34c-1.47,0-3,.13-4.57.28-2.18.23-4.16.52-6,.91a58.92,58.92,0,0,0-5.92,1.49h0c-.33.09-.66.2-1,.31l-.47.15c-.25.08-.48.15-.71.24l-.73.26c-1,.37-2,.74-2.84,1.11s-1.78.78-2.65,1.2c.88-.39,1.77-.75,2.67-1.1s1.95-.72,2.87-1,1.82-.59,2.91-.9c2-.55,4-1,5.93-1.38s4.11-.66,6-.83c1.46-.14,3-.23,4.45-.26a.71.71,0,0,1,.65.33l.18-.17a.78.78,0,0,1,.5-.19h.61a.72.72,0,0,1,.5.2l.17.15a.74.74,0,0,1,.62-.32h0c1.61,0,3.07.12,4.46.25,2,.19,4,.47,6,.83s3.8.78,5.93,1.37l1.46.43,1.09.35Z" transform="translate(-289.2 -49.9)"/><path class="cls-6" d="M519.86,54.3V53c1.77-.43,3.56-.84,5.33-1.26,1.51-.35,3-.74,4.52-1.13.45,1.08.91,2.15,1.41,3.2,1.83,3.8,3.74,7.59,5.59,11.39q2.09,4.28,4.22,8.51,4.49-9.27,9.18-18.44c.74-1.47,1.37-3,2-4.52,1.44.38,2.9.8,4.34,1.15s3.12.71,4.67,1.1v1.25c-.42,0-.73,0-.94,0a9.58,9.58,0,0,0-3.25,0c-.36.19-.55.87-.55,2v.27q0,3.38-.08,6.73c0,5.16-.08,10.34.1,15.49a1.34,1.34,0,0,0,.33.93,15.73,15.73,0,0,0,3.57,1.92c.18.08.45.23.81.44v1.26a41.66,41.66,0,0,0-13.73-2.91V79.08c.55-.08,1-.13,1.27-.15a15,15,0,0,0,3-.26.7.7,0,0,0,.49-.47,12.87,12.87,0,0,0,.2-3.42V56.18c-3.16,5.7-6,11.6-8.81,17.47-1,2-1.92,4-2.8,6.09h-1.23c-3.65-7.94-7.61-15.73-11.77-23.39L528,76.15c0,.88-.07,2.24.38,2.64s2.24.27,3.22.32l1,.09v1.26a43.25,43.25,0,0,0-6,.75A43.68,43.68,0,0,0,520.64,83V81.74c.4-.23.7-.4.89-.49a11.72,11.72,0,0,0,3.11-1.79,6.36,6.36,0,0,0,.53-3c0-1.6.07-3.22.1-4.82q.11-6.37.11-12.73c0-.87,0-1.73,0-2.59a5.38,5.38,0,0,0-.19-1.91.83.83,0,0,0-.62-.42,15.73,15.73,0,0,0-3.56.24A7,7,0,0,1,519.86,54.3Z" transform="translate(-289.2 -49.9)"/><path class="cls-6" d="M561.74,84.17l-.86-.32a46.3,46.3,0,0,0-6.57-2,45.47,45.47,0,0,0-7-.87l-.6,0v-2.4l.54-.08c.54-.09,1-.14,1.33-.17l.84,0a8.89,8.89,0,0,0,2-.2s0,0,.06,0h0a8.55,8.55,0,0,0,.17-2.43c0-.27,0-.54,0-.81V58.67c-2.48,4.62-4.78,9.39-7,14l-.6,1.23c-.87,1.81-1.87,3.92-2.79,6.06l-.16.38h-2.06l-.17-.38c-3.09-6.72-6.54-13.64-10.52-21.07q0,3.63.1,7.26.06,5,.14,10v.48a5,5,0,0,0,.17,1.69,6,6,0,0,0,1.9.15h.93q.35,0,1,.09l.57.06v2.42l-.6,0a43.31,43.31,0,0,0-5.88.74,42.07,42.07,0,0,0-5.87,1.77l-.85.31V81.38l.31-.19c.44-.25.74-.42,1-.51l.67-.32a8.31,8.31,0,0,0,2.2-1.3,5,5,0,0,0,.39-2.26c0-.14,0-.28,0-.42,0-.78,0-1.58.06-2.38s0-1.62,0-2.42c.06-3.81.1-8,.11-12.73,0-.42,0-.85,0-1.28s0-.87,0-1.29a5.16,5.16,0,0,0-.12-1.61h0s0-.08-.15-.1a13.54,13.54,0,0,0-3,.19l-.32,0a8,8,0,0,1-1.17.14l-.71.05V52.55l.48-.12c1.15-.29,2.31-.56,3.44-.82l1.89-.44c1.51-.35,3-.75,4.51-1.13l.53-.14.21.51c.43,1,.9,2.11,1.4,3.16,1.08,2.25,2.21,4.54,3.31,6.75.75,1.52,1.53,3.09,2.28,4.65,1.17,2.39,2.37,4.81,3.64,7.35,2.83-5.83,5.73-11.64,8.63-17.3.75-1.52,1.41-3.11,2-4.47l.21-.52.54.14,1.55.42c.92.25,1.86.51,2.78.73s1.59.38,2.37.56,1.54.35,2.3.54l.49.12V55l-.67,0-1-.06-.6-.06a7.36,7.36,0,0,0-2.29,0,3,3,0,0,0-.21,1.43v.27l-.09,6.74c0,1.17,0,2.35,0,3.53,0,3.92,0,8,.12,11.93a.86.86,0,0,0,.12.49,9,9,0,0,0,2.34,1.31c.37.16.74.33,1.08.5.17.08.46.23.86.47l.31.18ZM548,79.75a45.48,45.48,0,0,1,6.57.86,44.38,44.38,0,0,1,5.81,1.7l-.37-.2c-.32-.16-.67-.31-1-.47a9.35,9.35,0,0,1-2.7-1.55,1.92,1.92,0,0,1-.52-1.37c-.15-4-.13-8-.12-12,0-1.18,0-2.36,0-3.54l.09-6.74v-.26c0-1.43.28-2.25.88-2.57l.06,0,.07,0a8,8,0,0,1,2.89,0l.59.06.25,0v-.09l-1.8-.41-2.39-.56c-.94-.23-1.89-.49-2.81-.74l-1-.27c-.51,1.25-1.1,2.67-1.79,4-3.09,6-6.18,12.23-9.18,18.44l-.56,1.16L540.36,74c-1.49-3-2.87-5.76-4.22-8.52-.75-1.55-1.53-3.12-2.28-4.64-1.1-2.21-2.23-4.5-3.32-6.76-.43-.9-.83-1.83-1.2-2.72-1.32.35-2.67.69-4,1l-1.89.45c-1,.22-2,.45-2.94.69v.07a1.78,1.78,0,0,0,.33,0h.07l.36,0a14.35,14.35,0,0,1,3.35-.19h0a1.42,1.42,0,0,1,1.06.73,4.7,4.7,0,0,1,.28,2.22c0,.42,0,.86,0,1.29s0,.86,0,1.29c0,4.77,0,8.94-.11,12.75,0,.81,0,1.62,0,2.43l-.06,2.39c0,.14,0,.28,0,.42a5.84,5.84,0,0,1-.61,2.94l0,.07,0,.06a9.37,9.37,0,0,1-2.62,1.6l-.65.31h0l-.47.25a35.78,35.78,0,0,1,10.61-2.21v-.1l-.38,0h-.86c-1.33,0-2.23,0-2.75-.47s-.6-1.6-.6-2.64v-.46c-.05-3.32-.09-6.64-.14-10s-.09-6.57-.14-9.86l0-2.57,1.23,2.26c4.44,8.19,8.24,15.74,11.61,23.06h.41c.88-2,1.82-4,2.65-5.72l.59-1.24c2.6-5.38,5.28-11,8.24-16.27L553,53.73V74.78c0,.25,0,.51,0,.78a9.33,9.33,0,0,1-.23,2.81,1.33,1.33,0,0,1-.93.91,9.74,9.74,0,0,1-2.31.25l-.8,0-.68.07Zm-19.22-1.42Zm-4.16-23.65Z" transform="translate(-289.2 -49.9)"/></svg>