<?xml version="1.0" encoding="utf-8"?>
<!-- Generator: Adobe Illustrator 26.0.0, SVG Export Plug-In . SVG Version: 6.00 Build 0)  -->
<svg version="1.1" id="Capa_1" xmlns="http://www.w3.org/2000/svg" xmlns:xlink="http://www.w3.org/1999/xlink" x="0px" y="0px"
	 viewBox="0 0 150 150" style="enable-background:new 0 0 150 150;" xml:space="preserve">
<style type="text/css">
	.st0{fill:#FFFFFF;}
</style>
<g>
	<path class="st0" d="M147.57,69.88c0,40.08-32.49,72.57-72.57,72.57c-40.08,0-72.57-32.49-72.57-72.57
		c0-26.49,14.19-49.66,35.39-62.32V74.1c0,20.54,16.64,37.18,37.18,37.18c20.54,0,37.18-16.64,37.18-37.18V7.56
		C133.38,20.21,147.57,43.39,147.57,69.88z"/>
	<path class="st0" d="M75,9.71L46.15,26.37v33.31L75,76.34l28.85-16.66V26.37L75,9.71z M86.07,49.42L75,55.81l-11.07-6.39V36.64
		L75,30.25l11.07,6.39V49.42z"/>
</g>
</svg>
