<?xml version="1.0" encoding="utf-8"?>
<!-- Generator: Adobe Illustrator 26.0.0, SVG Export Plug-In . SVG Version: 6.00 Build 0)  -->
<svg version="1.1" id="Capa_1" xmlns="http://www.w3.org/2000/svg" xmlns:xlink="http://www.w3.org/1999/xlink" x="0px" y="0px"
	 viewBox="0 0 32 32" style="enable-background:new 0 0 32 32;" xml:space="preserve">
<style type="text/css">
	.st0{fill:#FFFFFF;stroke:#000000;stroke-miterlimit:10;}
	.st1{fill:#FFFFFF;stroke:#C1272D;stroke-width:0.75;stroke-miterlimit:10;}
	.st2{stroke:#FFFFFF;stroke-width:0.15;stroke-linecap:round;stroke-linejoin:round;stroke-miterlimit:10;}
	.st3{fill:none;stroke:#000000;stroke-miterlimit:10;}
</style>
<g>
	<path class="st0" d="M27,24.8l-14.8,4.8c-1.1,0.3-2.2-0.2-2.6-1.3L3.7,9.8C3.3,8.7,3.9,7.5,5,7.2l14.8-4.8c1.1-0.3,2.2,0.2,2.6,1.3
		l5.9,18.5C28.7,23.3,28.1,24.5,27,24.8z"/>
	<path class="st1" d="M19.9,14.2c0-0.1-0.1-0.2-0.1-0.3c-0.1,0-0.1,0-0.2,0c-0.1-0.1-0.1-0.2-0.2-0.3c-0.1,0-0.1,0-0.2,0
		c0-0.1,0-0.1-0.1-0.2c-0.1,0-0.1,0-0.2,0c0-0.1-0.1-0.1-0.1-0.1c-0.1,0-0.1,0-0.2,0c0-0.1-0.1-0.1-0.1-0.2c-0.1,0-0.1,0-0.2,0
		c0-0.1-0.1-0.1-0.1-0.2c-0.1,0-0.1,0-0.2,0c0,0,0-0.1-0.1-0.1l-0.2,0c0-0.1-0.1-0.1-0.1-0.2c-0.1,0-0.1,0-0.2,0
		c0-0.1-0.1-0.1-0.1-0.2c-0.1,0-0.1,0-0.2,0c0-0.1-0.1-0.1-0.1-0.1c-0.1,0-0.1,0-0.2,0c0-0.1-0.1-0.1-0.1-0.1c-0.1,0-0.1,0-0.2,0
		c0-0.1-0.1-0.1-0.1-0.1c-0.1,0-0.1,0-0.2,0c0-0.1-0.1-0.1-0.1-0.1c-0.1,0-0.1,0-0.2,0c0-0.1-0.1-0.1-0.1-0.2c-0.1,0-0.1,0-0.2,0
		c0,0,0-0.1-0.1-0.1c-0.1,0-0.1,0-0.2,0c0-0.1-0.1-0.1-0.1-0.2c-0.1,0-0.1,0-0.1,0c0-0.1-0.1-0.1-0.1-0.2c-0.1,0-0.1,0-0.2,0
		c0,0,0-0.1-0.1-0.1c-0.1,0-0.1,0-0.2,0c0-0.1-0.1-0.2-0.1-0.3c-0.1,0-0.1,0-0.2,0c-0.1-0.1-0.1-0.2-0.2-0.3c-0.1,0-0.1,0-0.2,0
		c0-0.1-0.1-0.1-0.1-0.2l-0.4,0.1c0,0.1,0,0.1,0,0.2c-0.2,0.1-0.1,0.3-0.1,0.4c-0.1,0-0.1,0.1-0.1,0.1c0,0.1,0,0.2,0.1,0.3
		c-0.1,0-0.1,0.1-0.1,0.1c0,0.1,0,0.1,0,0.2c-0.1,0-0.1,0.1-0.1,0.1c0,0.1,0,0.1,0,0.2c-0.1,0-0.1,0.1-0.1,0.1c0,0.1,0,0.1,0,0.2
		c-0.1,0-0.1,0.1-0.1,0.1c0,0.1,0,0.1,0,0.2c-0.1,0-0.1,0.1-0.1,0.1c0,0.1,0,0.1,0,0.2c-0.1,0-0.1,0.1-0.1,0.1c0,0.1,0,0.1,0,0.2
		c-0.1,0-0.1,0.1-0.1,0.1c0,0.1,0,0.1,0,0.2c-0.1,0-0.1,0.1-0.1,0.1c0,0.1,0,0.1,0,0.2c-0.1,0-0.1,0.1-0.1,0.1c0,0.1,0,0.1,0,0.2
		c-0.1,0-0.1,0.1-0.2,0.1l0,0.2l-0.2,0.1c0,0.1,0,0.1,0,0.2c-0.1,0-0.1,0.1-0.1,0.1c0,0.1,0,0.1,0,0.2c-0.1,0-0.1,0.1-0.1,0.1
		c0,0.1,0,0.1,0,0.2c-0.1,0-0.1,0.1-0.2,0.1c0,0.1,0,0.1,0,0.2c-0.1,0-0.1,0.1-0.2,0.1c0,0.1,0,0.1,0,0.2c-0.1,0-0.1,0.1-0.1,0.1
		c0,0.1,0,0.1,0,0.2c-0.1,0-0.1,0.1-0.1,0.1l0.1,0.4c-0.1,0-0.1,0.1-0.1,0.1c0,0.1,0.1,0.2,0.1,0.4c0,0-0.1,0-0.1,0.1l0.6,1.7
		c0.1,0,0.1,0,0.2,0l0.1,0.4c0.1,0,0.1,0,0.2,0c0,0.1,0.1,0.1,0.1,0.2c0.1,0,0.1,0,0.2,0c0,0,0.1,0.1,0.1,0.1c0.1,0,0.1,0,0.2,0
		c0,0.1,0.1,0.1,0.1,0.2c0.1,0,0.1,0,0.2,0c0,0.1,0,0.1,0.1,0.2l0.6-0.2c0,0.1,0.1,0.1,0.1,0.2l1.1-0.4c0-0.1,0-0.1,0-0.2l0.5-0.2
		c0-0.1,0-0.1,0-0.2c0.1,0,0.1-0.1,0.2-0.1c0-0.1,0-0.1,0-0.2l0.2-0.1c0.1,0.3,0.1,0.5,0.2,0.7c-0.1,0-0.1,0.1-0.1,0.1
		c0,0.1,0,0.2,0.1,0.3c-0.1,0-0.1,0.1-0.1,0.1c0,0.1,0.1,0.2,0.1,0.3c-0.1,0-0.1,0.1-0.2,0.1c0,0.1,0,0.1,0,0.2
		c-0.1,0-0.2,0.1-0.1,0.2c-0.1,0-0.1,0.1-0.2,0.1l0,0.2c-0.1,0-0.1,0.1-0.2,0.1l0.1,0.2l3.4-1.1c0.1,0,0.1-0.1,0.1-0.1
		c0-0.1-0.1-0.1-0.1-0.1c0,0-0.1,0-0.1,0c0-0.1-0.1-0.1-0.1-0.2c-0.1,0-0.1,0-0.2,0c0-0.1-0.1-0.1-0.1-0.1c-0.1,0-0.1,0-0.2,0
		c0-0.1-0.1-0.1-0.1-0.1c-0.1,0-0.1,0-0.2,0c0-0.1-0.1-0.2-0.2-0.3c-0.1,0-0.1,0-0.2,0c-0.1-0.1-0.1-0.2-0.1-0.3c-0.1,0-0.1,0-0.2,0
		l-0.2-0.7c0.1,0,0.1,0,0.2,0c0,0.1,0,0.1,0.1,0.2c0.1,0,0.1,0,0.2,0c0,0.1,0.1,0.1,0.1,0.2l0.5-0.2c0,0.1,0.1,0.1,0.1,0.2l1.1-0.4
		c0-0.1,0-0.1,0-0.2l0.5-0.2c0-0.1,0-0.1,0-0.2c0.1,0,0.1-0.1,0.2-0.1c0-0.1,0-0.1,0-0.2c0.1,0,0.1-0.1,0.2-0.1c0-0.1,0-0.1,0-0.2
		c0,0,0.1-0.1,0.1-0.1c0-0.1,0-0.1,0-0.2c0.1,0,0.1-0.1,0.2-0.1L20.4,16c0.1,0,0.1-0.1,0.2-0.1L20,14.2C20,14.2,19.9,14.2,19.9,14.2
		z M16.2,18.1C16.1,18.1,16.1,18.1,16.2,18.1C16.1,18.1,16.1,18,16.2,18.1C16.1,18,16.2,18,16.2,18.1C16.2,18.1,16.2,18.1,16.2,18.1
		z M17.1,17.8C17.1,17.8,17,17.8,17.1,17.8c-0.1-0.1,0-0.1,0-0.1C17.1,17.7,17.1,17.7,17.1,17.8C17.2,17.8,17.1,17.8,17.1,17.8z"/>
	<g>
		<path d="M6.5,12.4c0.1,0,0.1,0,0.2-0.1c0-0.1,0-0.1,0-0.2c0.1,0,0.1-0.1,0.2-0.1c0-0.1,0-0.1,0-0.2c0.1,0,0.1-0.1,0.2-0.1
			c0-0.1-0.1-0.2-0.1-0.4c0.1,0,0.1,0,0.2-0.1C7,11.4,7,11.5,7,11.5c0.1,0,0.1,0,0.2,0c0,0,0.1,0.1,0.1,0.2c0.1,0,0.1,0,0.2,0
			c0,0.1,0,0.1,0.1,0.2c0.1,0,0.1,0,0.2,0c0,0.1,0,0.1,0.1,0.2c0.1,0,0.1,0,0.2,0c0.1,0.2,0.1,0.4,0.2,0.6c-0.2,0.1-0.4,0.1-0.5,0.2
			c0,0.1,0,0.1,0.1,0.2c0.1,0,0.1,0,0.2,0c0,0.1,0,0.1,0.1,0.2c-0.3,0.1-0.5,0.2-0.8,0.2c0-0.1,0-0.1-0.1-0.2c0.1,0,0.1-0.1,0.2-0.1
			c0,0,0-0.1-0.1-0.2c-0.2,0.1-0.4,0.1-0.6,0.2C6.6,12.7,6.5,12.5,6.5,12.4z"/>
		<path d="M7,10.7c0.1,0,0.1-0.1,0.2-0.1c0-0.1-0.1-0.2-0.1-0.4c-0.2,0.1-0.5,0.2-0.7,0.2c0,0.1,0.1,0.2,0.1,0.3c0.1,0,0.1,0,0.2,0
			c0,0.1,0,0.1,0.1,0.2c-0.3,0.1-0.5,0.2-0.8,0.2c0-0.1,0-0.1-0.1-0.2C5.9,11.1,5.9,11,6,11c0-0.1-0.1-0.2-0.1-0.4
			c0.1,0,0.1,0,0.2-0.1C6,10.4,6,10.2,5.9,10C6,10,6,10,6.1,9.9C6,9.7,6,9.6,5.9,9.4c0.2-0.1,0.4-0.1,0.6-0.2c0,0.1,0.1,0.2,0.1,0.4
			c0.1,0,0.1,0,0.2,0C6.9,9.7,6.9,9.9,7,10.1c0.1,0,0.1,0,0.2,0c0,0.1,0.1,0.2,0.1,0.4c0.1,0,0.1,0,0.2,0c0,0,0,0.1,0.1,0.1
			c0.1,0,0.1,0,0.2,0c0,0.1,0,0.1,0.1,0.2c-0.2,0.1-0.5,0.2-0.7,0.2C7,10.8,7,10.8,7,10.7z M6.2,9.7c0.1,0.2,0.1,0.4,0.2,0.6
			c0.1,0,0.2-0.1,0.4-0.1c0-0.1-0.1-0.2-0.1-0.4c-0.1,0-0.1,0-0.2,0c0-0.1-0.1-0.1-0.1-0.2C6.4,9.6,6.3,9.7,6.2,9.7z"/>
	</g>
	<g>
		<path d="M25.7,19.8c-0.1,0-0.1,0.1-0.2,0.1c0,0.1,0,0.1,0,0.2c-0.1,0-0.1,0.1-0.2,0.1c0,0.1,0,0.1,0,0.2c0,0-0.1,0-0.1,0.1
			c0,0.1,0,0.1,0,0.2c-0.1,0-0.1,0-0.2,0.1c0-0.1-0.1-0.1-0.1-0.2c-0.1,0-0.1,0-0.2,0c0,0-0.1-0.1-0.1-0.2c-0.1,0-0.1,0-0.2,0
			c0-0.1-0.1-0.1-0.1-0.2c-0.1,0-0.1,0-0.2,0c-0.1-0.2-0.2-0.5-0.2-0.7c0.1,0,0.2-0.1,0.4-0.1c0,0,0,0.1,0.1,0.2
			c0.1,0,0.1,0,0.2-0.1c0-0.1-0.1-0.2-0.1-0.3c-0.1,0-0.1,0-0.2,0c0-0.1,0-0.1-0.1-0.2c0.2-0.1,0.4-0.1,0.5-0.2c0,0.1,0,0.1,0.1,0.2
			c0,0-0.1,0-0.1,0.1c0,0.1,0.1,0.2,0.1,0.4c0,0,0.1,0,0.2,0c0-0.1,0-0.1,0-0.2c0.1,0,0.2-0.1,0.4-0.1
			C25.5,19.3,25.6,19.5,25.7,19.8z"/>
		<path d="M25,21.1c0.1,0.2,0.1,0.4,0.2,0.6c0.3-0.1,0.5-0.2,0.7-0.2c0-0.1-0.1-0.2-0.1-0.4c0,0-0.1,0-0.2,0c0-0.1,0-0.1-0.1-0.2
			c0.2-0.1,0.4-0.1,0.5-0.2c0,0.1,0,0.1,0.1,0.2c-0.1,0-0.1,0.1-0.2,0.1c0.1,0.2,0.1,0.4,0.2,0.5c-0.1,0-0.1,0.1-0.2,0.1
			c0,0.1,0.1,0.2,0.1,0.4C26.1,22,26.1,22,26,22c0.1,0.2,0.1,0.4,0.2,0.5c-0.2,0.1-0.4,0.1-0.6,0.2c-0.1-0.2-0.1-0.4-0.2-0.6
			c-0.1,0-0.1,0-0.2,0c0-0.1-0.1-0.2-0.1-0.4c-0.1,0-0.1,0-0.2,0c-0.1-0.2-0.1-0.3-0.2-0.5c-0.1,0-0.1,0-0.2,0c0-0.1,0-0.1-0.1-0.2
			C24.7,21.2,24.9,21.1,25,21.1z M25.9,21.8c0-0.1,0-0.1-0.1-0.2c-0.1,0-0.2,0.1-0.4,0.1c0.1,0.2,0.1,0.4,0.2,0.6
			c0.1,0,0.1,0,0.2-0.1c0-0.1-0.1-0.2-0.1-0.4C25.8,21.9,25.8,21.8,25.9,21.8z"/>
	</g>
	<path class="st2" d="M11.7,16.9c0.1,0,0.1-0.1,0.1-0.1c0-0.1-0.1-0.2-0.1-0.4c0,0,0.1-0.1,0.2-0.1c0-0.1-0.1-0.2-0.1-0.4
		c0,0,0.1-0.1,0.1-0.1c0,0,0-0.1,0-0.2c0,0,0.1-0.1,0.1-0.1c0-0.1,0-0.1,0-0.2c0,0,0.1-0.1,0.1-0.1c0-0.1,0-0.1,0-0.2
		c0.1,0,0.1-0.1,0.2-0.1c0-0.1,0-0.1,0-0.2c0,0,0.1-0.1,0.1-0.1c0,0,0-0.1,0-0.2c0,0,0.1,0,0.1-0.1c0-0.1,0-0.1,0-0.2
		c0.1,0,0.1-0.1,0.2-0.1c0-0.1,0-0.1,0-0.2c0.1,0,0.1-0.1,0.2-0.1c0-0.1,0-0.1,0-0.2c0,0,0.1-0.1,0.1-0.1c0-0.1,0-0.1,0-0.2
		c0,0,0.1,0,0.1-0.1c0-0.1,0-0.1,0-0.2c0,0,0.1-0.1,0.2-0.1c0-0.1,0-0.1,0-0.2c0,0,0.1-0.1,0.2-0.1c0,0,0-0.1,0-0.2
		c0,0,0.1-0.1,0.1-0.1c0-0.1,0-0.1,0-0.2c0,0,0.1,0,0.1-0.1c0-0.1,0-0.1,0-0.2c0,0,0.1-0.1,0.2-0.1c0-0.1,0-0.1,0-0.2
		c0,0,0.1-0.1,0.1-0.1c0,0,0-0.1,0-0.2c0,0,0.1-0.1,0.1-0.1c0-0.1,0-0.2-0.1-0.3c0,0,0.1-0.1,0.1-0.1c0-0.1-0.1-0.3,0.1-0.4
		c0-0.1,0-0.1,0-0.2c0.1,0,0.2-0.1,0.4-0.1c0,0.1,0.1,0.1,0.1,0.2c0,0,0.1,0,0.2,0c0,0.1,0.1,0.2,0.1,0.3c0.1,0,0.1,0,0.2,0
		c0,0.1,0.1,0.2,0.1,0.3c0.1,0,0.1,0,0.2,0c0,0,0,0.1,0.1,0.1c0.1,0,0.1,0,0.2,0c0,0,0.1,0.1,0.1,0.2c0,0,0.1,0,0.2,0
		c0,0.1,0.1,0.1,0.1,0.2c0.1,0,0.1,0,0.2,0c0,0,0,0.1,0.1,0.1c0.1,0,0.1,0,0.2,0c0,0,0.1,0.1,0.1,0.1c0,0,0.1,0,0.2,0
		c0,0,0.1,0.1,0.1,0.1c0,0,0.1,0,0.2,0c0,0,0.1,0.1,0.1,0.2c0.1,0,0.1,0,0.2,0c0,0,0,0.1,0.1,0.1c0.1,0,0.1,0,0.2,0
		c0,0,0.1,0.1,0.1,0.1c0.1,0,0.1,0,0.2,0c0,0.1,0.1,0.1,0.1,0.2c0.1,0,0.1,0,0.2,0c0,0.1,0.1,0.1,0.1,0.2c0.1,0,0.1,0,0.2,0
		c0,0,0,0.1,0.1,0.1c0.1,0,0.1,0,0.2,0c0,0.1,0.1,0.1,0.1,0.2c0,0,0.1,0,0.2,0c0,0,0.1,0.1,0.1,0.2c0,0,0.1,0,0.2,0
		c0,0,0.1,0.1,0.1,0.1c0.1,0,0.1,0,0.2,0c0,0,0,0.1,0.1,0.1c0.1,0,0.1,0,0.2,0c0.1,0.1,0.1,0.2,0.2,0.3c0.1,0,0.1,0,0.2,0
		c0,0.1,0.1,0.2,0.1,0.3c0.1,0,0.1,0,0.2,0c0.2,0.6,0.4,1.1,0.5,1.7c0,0-0.1,0-0.2,0.1c0,0.1,0.1,0.2,0.1,0.3
		c-0.1,0-0.1,0.1-0.2,0.1c0,0.1,0,0.1,0,0.2c0,0-0.1,0.1-0.1,0.1c0,0,0,0.1,0,0.1c-0.1,0-0.1,0-0.2,0.1c0,0.1,0,0.1,0,0.2
		c0,0-0.1,0.1-0.2,0.1c0,0.1,0,0.1,0,0.2c-0.2,0.1-0.4,0.1-0.5,0.2c0,0.1,0,0.1,0,0.2c-0.4,0.1-0.7,0.2-1.1,0.4c0-0.1,0-0.1-0.1-0.2
		c-0.2,0.1-0.4,0.1-0.5,0.2c0-0.1-0.1-0.1-0.1-0.2c-0.1,0-0.1,0-0.2,0c0-0.1,0-0.1-0.1-0.2c-0.1,0-0.1,0-0.2,0
		c0.1,0.2,0.2,0.5,0.2,0.7c0.1,0,0.1,0,0.2,0c0,0.1,0.1,0.2,0.1,0.3c0.1,0,0.1,0,0.2,0c0.1,0.1,0.1,0.2,0.2,0.3c0.1,0,0.1,0,0.2,0
		c0,0,0.1,0.1,0.1,0.1c0.1,0,0.1,0,0.2,0c0,0,0.1,0.1,0.1,0.1c0.1,0,0.1,0,0.2,0c0,0.1,0.1,0.1,0.1,0.2c0,0,0.1,0,0.1,0
		c0.1,0,0.1,0,0.1,0.1c0,0.1,0,0.1-0.1,0.1c0,0-0.1,0-0.1,0c-1,0.3-2.1,0.7-3.1,1c-0.1,0-0.1,0-0.2,0.1c0-0.1,0-0.1-0.1-0.2
		c0,0,0.1-0.1,0.1-0.1c0-0.1,0-0.1,0-0.2c0,0,0.1-0.1,0.1-0.1c-0.1-0.1,0-0.2,0.1-0.2c0-0.1,0-0.1,0-0.2c0.1,0,0.1-0.1,0.2-0.1
		c0-0.1-0.1-0.2-0.1-0.3c0,0,0.1-0.1,0.1-0.1c0-0.1,0-0.2-0.1-0.4c0,0,0.1,0,0.1-0.1c-0.1-0.2-0.1-0.5-0.2-0.7c-0.1,0-0.1,0-0.2,0.1
		c0,0.1,0,0.1,0,0.2c-0.1,0-0.1,0.1-0.2,0.1c0,0.1,0,0.1,0,0.2c-0.2,0.1-0.4,0.1-0.5,0.2c0,0.1,0,0.1,0,0.2
		c-0.4,0.1-0.7,0.2-1.1,0.4c0-0.1-0.1-0.1-0.1-0.2c-0.2,0.1-0.4,0.1-0.5,0.2c0-0.1-0.1-0.1-0.1-0.2c-0.1,0-0.1,0-0.2,0
		c0-0.1-0.1-0.1-0.1-0.2c-0.1,0-0.1,0-0.2,0c0,0-0.1-0.1-0.1-0.1c-0.1,0-0.1,0-0.2,0c0-0.1,0-0.1-0.1-0.2c-0.1,0-0.1,0-0.2,0
		c0-0.1-0.1-0.2-0.1-0.4c-0.1,0-0.1,0-0.2,0C12,18,11.9,17.4,11.7,16.9z M15.4,12.1c0,0,0,0.1,0,0.1c0,0,0.1,0,0.1,0
		c0,0,0.1,0,0.1-0.1c0,0,0-0.1,0-0.1C15.5,12.1,15.4,12.1,15.4,12.1c0,0-0.1-0.1-0.1-0.1c0,0,0,0-0.1,0c-0.1,0-0.1,0.1-0.1,0.1
		c0,0.1,0.1,0.1,0.1,0C15.3,12.1,15.3,12.1,15.4,12.1z M12.7,15.5c-0.1,0-0.1,0-0.2,0.1c0,0.2,0,0.2,0.2,0.1
		C12.7,15.6,12.7,15.5,12.7,15.5c0,0,0.1-0.1,0.1-0.1c0-0.2,0-0.2-0.2-0.1C12.7,15.4,12.7,15.4,12.7,15.5z M13.2,14.5
		c0,0,0.1,0,0.1,0c0.1,0,0.1-0.1,0-0.1c-0.1-0.1-0.1,0-0.2,0C13.2,14.4,13.2,14.4,13.2,14.5c0,0-0.1,0.1-0.1,0.1
		c0,0.1,0,0.1,0.2,0.1C13.2,14.6,13.2,14.5,13.2,14.5z M13.6,13.7c0,0,0.1,0,0.1,0c0.1,0,0.1-0.1,0-0.1c-0.1-0.1-0.1,0-0.2,0
		C13.6,13.6,13.6,13.7,13.6,13.7c0,0-0.1,0.1-0.2,0.1c0,0,0,0.1,0.1,0.1c0,0,0.1,0,0.1,0C13.6,13.8,13.6,13.8,13.6,13.7z M15.9,12.4
		c0-0.1,0-0.1-0.1-0.2c-0.2,0-0.2,0-0.1,0.2C15.8,12.4,15.8,12.4,15.9,12.4c0,0,0.1,0.1,0.1,0.1c0.2,0,0.2,0,0.1-0.2
		C16,12.3,15.9,12.4,15.9,12.4z M14.1,12.7c-0.1,0-0.1,0.1-0.2,0.1c0,0,0,0,0,0.1c0,0.1,0,0.1,0.1,0.1
		C14.2,12.9,14.2,12.9,14.1,12.7C14.1,12.8,14.1,12.7,14.1,12.7c0,0,0.1,0,0.1,0c0,0,0-0.1,0-0.1c0,0,0-0.1-0.1-0.1c0,0-0.1,0-0.1,0
		C14.1,12.6,14.1,12.7,14.1,12.7z M14.8,11.6c0,0.1,0.1,0.2,0.1,0.4c0.1,0,0.1,0,0.2-0.1c0-0.1-0.1-0.2-0.1-0.3
		C14.9,11.6,14.9,11.6,14.8,11.6c0-0.1,0-0.1-0.1-0.2c-0.1,0-0.2,0-0.3,0.1c0,0.1,0,0.1,0,0.2c0,0-0.1,0.1-0.1,0.1
		c0,0.1,0,0.2,0.1,0.2c0,0.1,0.1,0.1,0.2,0c0-0.1-0.1-0.2-0.1-0.3C14.5,11.7,14.7,11.7,14.8,11.6z M14.7,13.2c0.1,0,0.1-0.1,0.2-0.1
		c0-0.1-0.1-0.3-0.1-0.4c-0.1,0-0.2,0.1-0.3,0.1c0,0-0.1,0.1,0,0.1c0,0.1-0.1,0.2-0.1,0.2c0,0.1,0.1,0.2,0.1,0.3
		c0,0.1,0.1,0.1,0.1,0.1c0.1,0,0.2-0.1,0.3-0.1C14.7,13.3,14.7,13.2,14.7,13.2z M12.5,16.2C12.5,16.2,12.5,16.1,12.5,16.2
		c-0.1-0.1-0.1-0.1-0.1-0.1c0,0,0,0.1,0,0.1c0,0,0,0.1,0,0.1c0,0.1,0,0.2,0.1,0.1C12.5,16.3,12.5,16.2,12.5,16.2z M14.1,14
		c0.1,0,0.1,0,0.2-0.1c0-0.1,0-0.1-0.1-0.2c-0.1,0-0.1,0-0.2,0.1C14,13.8,14.1,13.9,14.1,14z M17.1,12.8c-0.1,0-0.1,0.1-0.1,0.1
		c0,0,0,0.1,0,0.1c0,0,0.1,0,0.2,0C17.1,12.9,17.1,12.9,17.1,12.8z M16.6,12.6c-0.1,0-0.1,0-0.1,0c-0.1,0-0.1,0.1-0.1,0.1
		c0,0.1,0.1,0.1,0.1,0C16.6,12.7,16.6,12.7,16.6,12.6z M12.9,15c-0.1,0-0.1,0.1-0.1,0.1c0,0,0.1,0.1,0.1,0.1c0.1,0,0.1,0,0.1-0.1
		C12.9,15,12.9,15,12.9,15z M13.7,13.4c0,0,0.1,0,0.1-0.1c0,0,0-0.1,0-0.1c0,0-0.1,0-0.1,0C13.7,13.3,13.7,13.4,13.7,13.4z M13.4,14
		c-0.1,0-0.1,0-0.1,0.1c0,0.1,0,0.1,0.1,0.1c0.1,0,0.1-0.1,0.1-0.1C13.5,14,13.4,14,13.4,14z M12.5,16c0-0.1,0-0.1,0-0.1
		c0-0.1-0.1-0.1-0.1,0c0,0,0,0.1,0,0.1C12.4,15.9,12.5,15.9,12.5,16z M14.2,12.4c0.1,0,0.1,0,0.2-0.1c0,0,0-0.1,0-0.1
		c0,0-0.1,0-0.1,0C14.2,12.3,14.2,12.4,14.2,12.4z M13.8,13c0,0.1,0,0.2,0.1,0.1c0.1,0,0.1-0.1,0.1-0.1C14,12.9,13.9,13,13.8,13z
		 M16.8,12.7c-0.1,0-0.1,0-0.1,0.1c0,0.1,0.1,0.1,0.1,0.1C16.9,12.8,16.8,12.8,16.8,12.7z M16.2,12.4c0,0.1,0,0.1,0,0.2
		c0,0.1,0,0.1,0.1,0.1c0.1,0,0.1-0.1,0.1-0.1C16.3,12.5,16.3,12.5,16.2,12.4z M13.1,14.8c0-0.1-0.1-0.1-0.1,0c0,0-0.1,0.1-0.1,0.1
		c0,0.1,0,0.1,0.1,0.1C13.1,14.9,13.1,14.9,13.1,14.8z M17.3,13.2c0-0.1,0-0.1,0-0.1c0,0,0-0.1-0.1-0.1c0,0-0.1,0-0.1,0.1
		C17.2,13.1,17.2,13.1,17.3,13.2z M16.2,18c0,0-0.1,0-0.1,0c0,0,0,0,0,0.1C16.1,18.1,16.1,18.1,16.2,18C16.2,18.1,16.2,18.1,16.2,18
		z M17.1,17.8C17.1,17.8,17.1,17.8,17.1,17.8c0-0.1,0-0.1,0-0.1C17.1,17.7,17,17.7,17.1,17.8C17,17.8,17.1,17.8,17.1,17.8z"/>
	<path class="st3" d="M27,24.8l-14.8,4.8c-1.1,0.3-2.2-0.2-2.6-1.3L3.7,9.8C3.3,8.7,3.9,7.5,5,7.2l14.8-4.8c1.1-0.3,2.2,0.2,2.6,1.3
		l5.9,18.5C28.7,23.3,28.1,24.5,27,24.8z"/>
</g>
</svg>
