<?xml version="1.0" encoding="utf-8"?>
<!-- Generator: Adobe Illustrator 26.0.0, SVG Export Plug-In . SVG Version: 6.00 Build 0)  -->
<svg version="1.1" id="Capa_1" xmlns="http://www.w3.org/2000/svg" xmlns:xlink="http://www.w3.org/1999/xlink" x="0px" y="0px"
	 viewBox="0 0 32 32" style="enable-background:new 0 0 32 32;" xml:space="preserve">
<style type="text/css">
	.st0{fill:#FFFFFF;}
	.st1{fill:#C1272D;}
</style>
<g>
	<g>
		<path class="st0" d="M27,24.8l-14.8,4.8c-1.1,0.3-2.2-0.2-2.6-1.3L3.7,9.8C3.3,8.7,3.9,7.5,5,7.2l14.8-4.8
			c1.1-0.3,2.2,0.2,2.6,1.3l5.9,18.5C28.7,23.3,28.1,24.5,27,24.8z"/>
		<path d="M11.6,30.2c-1.1,0-2.1-0.7-2.4-1.8L3.2,9.9C2.8,8.6,3.5,7.2,4.9,6.7L19.6,2c1.3-0.4,2.8,0.3,3.2,1.6l5.9,18.5
			c0.4,1.3-0.3,2.8-1.6,3.2L12.4,30C12.1,30.1,11.8,30.2,11.6,30.2z M20.4,2.8c-0.2,0-0.3,0-0.5,0.1L5.2,7.7c-0.8,0.3-1.3,1.1-1,1.9
			l5.9,18.5c0.3,0.8,1.1,1.3,1.9,1l14.8-4.8c0.8-0.3,1.3-1.1,1-1.9L21.9,3.9C21.7,3.3,21.1,2.8,20.4,2.8z"/>
	</g>
	<g>
		<path class="st0" d="M19.9,14.2c0-0.1-0.1-0.2-0.1-0.3c-0.1,0-0.1,0-0.2,0c-0.1-0.1-0.1-0.2-0.2-0.3c-0.1,0-0.1,0-0.2,0
			c0-0.1,0-0.1-0.1-0.2c-0.1,0-0.1,0-0.2,0c0-0.1-0.1-0.1-0.1-0.1c-0.1,0-0.1,0-0.2,0c0-0.1-0.1-0.1-0.1-0.2c-0.1,0-0.1,0-0.2,0
			c0-0.1-0.1-0.1-0.1-0.2c-0.1,0-0.1,0-0.2,0c0,0,0-0.1-0.1-0.1l-0.2,0c0-0.1-0.1-0.1-0.1-0.2c-0.1,0-0.1,0-0.2,0
			c0-0.1-0.1-0.1-0.1-0.2c-0.1,0-0.1,0-0.2,0c0-0.1-0.1-0.1-0.1-0.1c-0.1,0-0.1,0-0.2,0c0-0.1-0.1-0.1-0.1-0.1c-0.1,0-0.1,0-0.2,0
			c0-0.1-0.1-0.1-0.1-0.1c-0.1,0-0.1,0-0.2,0c0-0.1-0.1-0.1-0.1-0.1c-0.1,0-0.1,0-0.2,0c0-0.1-0.1-0.1-0.1-0.2c-0.1,0-0.1,0-0.2,0
			c0,0,0-0.1-0.1-0.1c-0.1,0-0.1,0-0.2,0c0-0.1-0.1-0.1-0.1-0.2c-0.1,0-0.1,0-0.1,0c0-0.1-0.1-0.1-0.1-0.2c-0.1,0-0.1,0-0.2,0
			c0,0,0-0.1-0.1-0.1c-0.1,0-0.1,0-0.2,0c0-0.1-0.1-0.2-0.1-0.3c-0.1,0-0.1,0-0.2,0c-0.1-0.1-0.1-0.2-0.2-0.3c-0.1,0-0.1,0-0.2,0
			c0-0.1-0.1-0.1-0.1-0.2l-0.4,0.1c0,0.1,0,0.1,0,0.2c-0.2,0.1-0.1,0.3-0.1,0.4c-0.1,0-0.1,0.1-0.1,0.1c0,0.1,0,0.2,0.1,0.3
			c-0.1,0-0.1,0.1-0.1,0.1c0,0.1,0,0.1,0,0.2c-0.1,0-0.1,0.1-0.1,0.1c0,0.1,0,0.1,0,0.2c-0.1,0-0.1,0.1-0.1,0.1c0,0.1,0,0.1,0,0.2
			c-0.1,0-0.1,0.1-0.1,0.1c0,0.1,0,0.1,0,0.2c-0.1,0-0.1,0.1-0.1,0.1c0,0.1,0,0.1,0,0.2c-0.1,0-0.1,0.1-0.1,0.1c0,0.1,0,0.1,0,0.2
			c-0.1,0-0.1,0.1-0.1,0.1c0,0.1,0,0.1,0,0.2c-0.1,0-0.1,0.1-0.1,0.1c0,0.1,0,0.1,0,0.2c-0.1,0-0.1,0.1-0.1,0.1c0,0.1,0,0.1,0,0.2
			c-0.1,0-0.1,0.1-0.2,0.1l0,0.2l-0.2,0.1c0,0.1,0,0.1,0,0.2c-0.1,0-0.1,0.1-0.1,0.1c0,0.1,0,0.1,0,0.2c-0.1,0-0.1,0.1-0.1,0.1
			c0,0.1,0,0.1,0,0.2c-0.1,0-0.1,0.1-0.2,0.1c0,0.1,0,0.1,0,0.2c-0.1,0-0.1,0.1-0.2,0.1c0,0.1,0,0.1,0,0.2c-0.1,0-0.1,0.1-0.1,0.1
			c0,0.1,0,0.1,0,0.2c-0.1,0-0.1,0.1-0.1,0.1l0.1,0.4c-0.1,0-0.1,0.1-0.1,0.1c0,0.1,0.1,0.2,0.1,0.4c0,0-0.1,0-0.1,0.1l0.6,1.7
			c0.1,0,0.1,0,0.2,0l0.1,0.4c0.1,0,0.1,0,0.2,0c0,0.1,0.1,0.1,0.1,0.2c0.1,0,0.1,0,0.2,0c0,0,0.1,0.1,0.1,0.1c0.1,0,0.1,0,0.2,0
			c0,0.1,0.1,0.1,0.1,0.2c0.1,0,0.1,0,0.2,0c0,0.1,0,0.1,0.1,0.2l0.6-0.2c0,0.1,0.1,0.1,0.1,0.2l1.1-0.4c0-0.1,0-0.1,0-0.2l0.5-0.2
			c0-0.1,0-0.1,0-0.2c0.1,0,0.1-0.1,0.2-0.1c0-0.1,0-0.1,0-0.2l0.2-0.1c0.1,0.3,0.1,0.5,0.2,0.7c-0.1,0-0.1,0.1-0.1,0.1
			c0,0.1,0,0.2,0.1,0.3c-0.1,0-0.1,0.1-0.1,0.1c0,0.1,0.1,0.2,0.1,0.3c-0.1,0-0.1,0.1-0.2,0.1c0,0.1,0,0.1,0,0.2
			c-0.1,0-0.2,0.1-0.1,0.2c-0.1,0-0.1,0.1-0.2,0.1l0,0.2c-0.1,0-0.1,0.1-0.2,0.1l0.1,0.2l3.4-1.1c0.1,0,0.1-0.1,0.1-0.1
			c0-0.1-0.1-0.1-0.1-0.1c0,0-0.1,0-0.1,0c0-0.1-0.1-0.1-0.1-0.2c-0.1,0-0.1,0-0.2,0c0-0.1-0.1-0.1-0.1-0.1c-0.1,0-0.1,0-0.2,0
			c0-0.1-0.1-0.1-0.1-0.1c-0.1,0-0.1,0-0.2,0c0-0.1-0.1-0.2-0.2-0.3c-0.1,0-0.1,0-0.2,0c-0.1-0.1-0.1-0.2-0.1-0.3
			c-0.1,0-0.1,0-0.2,0l-0.2-0.7c0.1,0,0.1,0,0.2,0c0,0.1,0,0.1,0.1,0.2c0.1,0,0.1,0,0.2,0c0,0.1,0.1,0.1,0.1,0.2l0.5-0.2
			c0,0.1,0.1,0.1,0.1,0.2l1.1-0.4c0-0.1,0-0.1,0-0.2l0.5-0.2c0-0.1,0-0.1,0-0.2c0.1,0,0.1-0.1,0.2-0.1c0-0.1,0-0.1,0-0.2
			c0.1,0,0.1-0.1,0.2-0.1c0-0.1,0-0.1,0-0.2c0,0,0.1-0.1,0.1-0.1c0-0.1,0-0.1,0-0.2c0.1,0,0.1-0.1,0.2-0.1L20.4,16
			c0.1,0,0.1-0.1,0.2-0.1L20,14.2C20,14.2,19.9,14.2,19.9,14.2z M16.2,18.1C16.1,18.1,16.1,18.1,16.2,18.1
			C16.1,18.1,16.1,18,16.2,18.1C16.1,18,16.2,18,16.2,18.1C16.2,18.1,16.2,18.1,16.2,18.1z M17.1,17.8C17.1,17.8,17,17.8,17.1,17.8
			c-0.1-0.1,0-0.1,0-0.1C17.1,17.7,17.1,17.7,17.1,17.8C17.2,17.8,17.1,17.8,17.1,17.8z"/>
		<path class="st1" d="M15.4,21.3l-0.3-0.8l0.2-0.1l0-0.2l0.2-0.1c0,0,0-0.1,0-0.1c0,0,0-0.1,0.1-0.1l0.1-0.2l-0.1-0.4l0.1-0.1
			c0,0,0-0.1,0-0.1l-0.1,0l0,0.1l-0.3,0.2L14,19.9l-0.1-0.2l-0.6,0.2l-0.1-0.2l-0.2,0L13,19.5l-0.1,0l-0.1-0.2l-0.2,0l0-0.1l-0.2,0
			L12.1,19L12,19l-0.7-2.3l0.2-0.1l-0.1-0.3l0.1-0.1l-0.1-0.3l0.2-0.1l0-0.2l0.2-0.1l0-0.1l0.1-0.1l0-0.2l0.2-0.1l0.1-0.2l0-0.2
			l0.1-0.1l0,0l0.1-0.2l0-0.2l0.2-0.1l0-0.2l0.2-0.1l0-0.2l0.1,0l0-0.1l0.1-0.1l0-0.2l0.2-0.1l0-0.1l0.1-0.1c0,0,0,0,0,0l0-0.2
			l0.1-0.1l0-0.2l0.2-0.1l0-0.2l0.1-0.1l0-0.2l0.1-0.1l-0.1-0.4l0.2-0.1c0-0.2,0-0.3,0.1-0.4l-0.1-0.3l1-0.3l0.1,0.3l0.1,0l0.2,0.3
			l0.2,0l0.1,0.3l0.2,0l0.1,0.1l0.2,0l0.1,0.2l0.2,0l0.1,0.2l0.1,0l0.1,0.1l0.2,0l0.1,0.2l0.2,0l0.1,0.1l0.2,0l0.1,0.2l0.2,0
			l0.1,0.1l0.2,0l0.1,0.1l0.1,0l0.1,0.1l0.2,0l0.1,0.2l0.2,0l0,0.1l0.1,0l0.1,0.2l0.1,0l0.1,0.2c0,0,0,0,0,0l0.1,0l0.1,0.1l0.1,0
			l0.1,0.1l0.2,0l0.2,0.3l0.2,0l0.1,0.3c0,0,0,0,0,0l0.2,0l0.7,2.3l-0.2,0.1l0.1,0.4l-0.2,0.1l0,0.2l-0.1,0.1l0,0.1l-0.2,0.1l0,0.2
			l-0.2,0.1l0,0.2l-0.5,0.2l0,0.2l-1.7,0.6l0.1,0.1c0,0,0,0.1,0.1,0.1l0.1,0l0.1,0.1l0.2,0.1l0.2,0l0.1,0.2c0.2,0,0.3,0.2,0.4,0.3
			c0.1,0.3,0,0.5-0.3,0.6L15.4,21.3z M16.4,20.1l0,0.1l1.8-0.6l-0.2-0.1c0,0,0,0,0,0l-0.2,0l-0.1-0.2c0,0,0-0.1,0-0.1l-0.2,0
			L17.5,19c0,0,0-0.1-0.1-0.1l-0.2,0L17,18.2L16.7,18l-0.2,0.3c0,0,0,0,0,0.1l0.2,0.8l-0.2,0.1c0,0,0,0,0,0.1l0.1,0.2l-0.1,0.1
			l0.1,0.4L16.4,20.1z M13.6,18.8l0.1,0.2l0.5-0.2l0.1,0.2l0.5-0.2l0-0.2l0.6-0.2l0-0.1l0.1-0.1l0-0.1l0.3-0.2l0.1-0.2l0.2-0.1
			c0.1,0,0.2,0,0.3,0l0.4,0.1h0l0.1-0.3l0.3-0.1l0.2,0.1l0.2,0l0.1,0.2l0.2,0l0.1,0.1l0.6-0.2l0.1,0.2l0.5-0.2l0-0.2l0.6-0.2l0-0.1
			l0.1-0.1l0-0.2l0.2-0.1l0-0.1l0.1-0.1l0-0.2l0.1-0.1L20,15.8l0.2-0.1l-0.4-1.1l-0.1,0l-0.2-0.3l0.3-0.1l-0.4,0.1c0,0,0,0,0-0.1
			l-0.1,0l-0.2-0.3L19,14l-0.1-0.2l-0.1,0l-0.1-0.1l-0.2,0l-0.1-0.2l-0.2,0l-0.1-0.2l-0.2,0L18,13.3l-0.2,0l-0.1-0.1l-0.1,0L17.5,13
			l-0.2,0l-0.1-0.1l-0.2,0l-0.1-0.1l-0.1,0l-0.1-0.2l-0.2,0l-0.1-0.1l-0.2,0l-0.1-0.2l-0.2,0l-0.1-0.1l-0.2,0l-0.1-0.2l-0.1,0
			L15.4,12l-0.2,0l-0.1-0.2l-0.2,0l-0.1-0.3l-0.1,0l-0.2-0.3l-0.1,0c0,0.1,0,0.1,0,0.2l0,0.2l-0.1,0c0,0,0,0.1,0,0.1l0,0.2l-0.1,0.1
			l0,0.2l-0.1,0.1l0,0.1L14,12.6l0,0.2l-0.2,0.1l0,0.2l-0.1,0.1l0,0.1l-0.1,0.1l0,0.2l-0.1,0.1l0,0.2l-0.2,0.1l0,0.2l-0.1,0l0,0.2
			l-0.2,0.1l0,0.2L13,14.7l-0.1,0.2l0,0.2l-0.1,0.1l0,0l-0.1,0.2l0.1,0.2l-0.2,0.1l0,0.1l-0.1,0.1l0,0.1l-0.1,0.1l0.1,0.4l-0.2,0.1
			l0.1,0.4L12.1,17l0.4,1.1l0.2,0l0.1,0.4l0.1,0l0.2,0.2c0,0,0,0,0,0l0.1,0c0,0,0,0,0,0l0.3,0l0.1,0.1L13.6,18.8z M18.1,18.4
			L18.1,18.4L18.1,18.4L18.1,18.4C18,18.4,18,18.4,18.1,18.4L18.1,18.4z M18.6,13.1L18.6,13.1L18.6,13.1L18.6,13.1z M14.4,11.3
			L14.4,11.3C14.3,11.3,14.4,11.3,14.4,11.3z"/>
	</g>
	<g>
		<g>
			<path d="M6.5,12.4c0.1,0,0.1,0,0.2-0.1c0-0.1,0-0.1,0-0.2c0.1,0,0.1-0.1,0.2-0.1c0-0.1,0-0.1,0-0.2c0.1,0,0.1-0.1,0.2-0.1
				c0-0.1-0.1-0.2-0.1-0.4c0.1,0,0.1,0,0.2-0.1C7,11.4,7,11.5,7,11.5c0.1,0,0.1,0,0.2,0c0,0,0.1,0.1,0.1,0.2c0.1,0,0.1,0,0.2,0
				c0,0.1,0,0.1,0.1,0.2c0.1,0,0.1,0,0.2,0c0,0.1,0,0.1,0.1,0.2c0.1,0,0.1,0,0.2,0c0.1,0.2,0.1,0.4,0.2,0.6
				c-0.2,0.1-0.4,0.1-0.5,0.2c0,0.1,0,0.1,0.1,0.2c0.1,0,0.1,0,0.2,0c0,0.1,0,0.1,0.1,0.2c-0.3,0.1-0.5,0.2-0.8,0.2
				c0-0.1,0-0.1-0.1-0.2c0.1,0,0.1-0.1,0.2-0.1c0,0,0-0.1-0.1-0.2c-0.2,0.1-0.4,0.1-0.6,0.2C6.6,12.7,6.5,12.5,6.5,12.4z"/>
		</g>
		<g>
			<path d="M7,10.7c0.1,0,0.1-0.1,0.2-0.1c0-0.1-0.1-0.2-0.1-0.4c-0.2,0.1-0.5,0.2-0.7,0.2c0,0.1,0.1,0.2,0.1,0.3c0.1,0,0.1,0,0.2,0
				c0,0.1,0,0.1,0.1,0.2c-0.3,0.1-0.5,0.2-0.8,0.2c0-0.1,0-0.1-0.1-0.2C5.9,11.1,5.9,11,6,11c0-0.1-0.1-0.2-0.1-0.4
				c0.1,0,0.1,0,0.2-0.1C6,10.4,6,10.2,5.9,10C6,10,6,10,6.1,9.9C6,9.7,6,9.6,5.9,9.4c0.2-0.1,0.4-0.1,0.6-0.2
				c0,0.1,0.1,0.2,0.1,0.4c0.1,0,0.1,0,0.2,0C6.9,9.7,6.9,9.9,7,10.1c0.1,0,0.1,0,0.2,0c0,0.1,0.1,0.2,0.1,0.4c0.1,0,0.1,0,0.2,0
				c0,0,0,0.1,0.1,0.1c0.1,0,0.1,0,0.2,0c0,0.1,0,0.1,0.1,0.2c-0.2,0.1-0.5,0.2-0.7,0.2C7,10.8,7,10.8,7,10.7z M6.2,9.7
				c0.1,0.2,0.1,0.4,0.2,0.6c0.1,0,0.2-0.1,0.4-0.1c0-0.1-0.1-0.2-0.1-0.4c-0.1,0-0.1,0-0.2,0c0-0.1-0.1-0.1-0.1-0.2
				C6.4,9.6,6.3,9.7,6.2,9.7z"/>
		</g>
	</g>
	<g>
		<g>
			<path d="M25.7,19.8c-0.1,0-0.1,0.1-0.2,0.1c0,0.1,0,0.1,0,0.2c-0.1,0-0.1,0.1-0.2,0.1c0,0.1,0,0.1,0,0.2c0,0-0.1,0-0.1,0.1
				c0,0.1,0,0.1,0,0.2c-0.1,0-0.1,0-0.2,0.1c0-0.1-0.1-0.1-0.1-0.2c-0.1,0-0.1,0-0.2,0c0,0-0.1-0.1-0.1-0.2c-0.1,0-0.1,0-0.2,0
				c0-0.1-0.1-0.1-0.1-0.2c-0.1,0-0.1,0-0.2,0c-0.1-0.2-0.2-0.5-0.2-0.7c0.1,0,0.2-0.1,0.4-0.1c0,0,0,0.1,0.1,0.2
				c0.1,0,0.1,0,0.2-0.1c0-0.1-0.1-0.2-0.1-0.3c-0.1,0-0.1,0-0.2,0c0-0.1,0-0.1-0.1-0.2c0.2-0.1,0.4-0.1,0.5-0.2
				c0,0.1,0,0.1,0.1,0.2c0,0-0.1,0-0.1,0.1c0,0.1,0.1,0.2,0.1,0.4c0,0,0.1,0,0.2,0c0-0.1,0-0.1,0-0.2c0.1,0,0.2-0.1,0.4-0.1
				C25.5,19.3,25.6,19.5,25.7,19.8z"/>
		</g>
		<g>
			<path d="M25,21.1c0.1,0.2,0.1,0.4,0.2,0.6c0.3-0.1,0.5-0.2,0.7-0.2c0-0.1-0.1-0.2-0.1-0.4c0,0-0.1,0-0.2,0c0-0.1,0-0.1-0.1-0.2
				c0.2-0.1,0.4-0.1,0.5-0.2c0,0.1,0,0.1,0.1,0.2c-0.1,0-0.1,0.1-0.2,0.1c0.1,0.2,0.1,0.4,0.2,0.5c-0.1,0-0.1,0.1-0.2,0.1
				c0,0.1,0.1,0.2,0.1,0.4C26.1,22,26.1,22,26,22c0.1,0.2,0.1,0.4,0.2,0.5c-0.2,0.1-0.4,0.1-0.6,0.2c-0.1-0.2-0.1-0.4-0.2-0.6
				c-0.1,0-0.1,0-0.2,0c0-0.1-0.1-0.2-0.1-0.4c-0.1,0-0.1,0-0.2,0c-0.1-0.2-0.1-0.3-0.2-0.5c-0.1,0-0.1,0-0.2,0c0-0.1,0-0.1-0.1-0.2
				C24.7,21.2,24.9,21.1,25,21.1z M25.9,21.8c0-0.1,0-0.1-0.1-0.2c-0.1,0-0.2,0.1-0.4,0.1c0.1,0.2,0.1,0.4,0.2,0.6
				c0.1,0,0.1,0,0.2-0.1c0-0.1-0.1-0.2-0.1-0.4C25.8,21.9,25.8,21.8,25.9,21.8z"/>
		</g>
	</g>
	<g>
		<path d="M11.7,16.9c0.1,0,0.1-0.1,0.1-0.1c0-0.1-0.1-0.2-0.1-0.4c0,0,0.1-0.1,0.2-0.1c0-0.1-0.1-0.2-0.1-0.4c0,0,0.1-0.1,0.1-0.1
			c0,0,0-0.1,0-0.2c0,0,0.1-0.1,0.1-0.1c0-0.1,0-0.1,0-0.2c0,0,0.1-0.1,0.1-0.1c0-0.1,0-0.1,0-0.2c0.1,0,0.1-0.1,0.2-0.1
			c0-0.1,0-0.1,0-0.2c0,0,0.1-0.1,0.1-0.1c0,0,0-0.1,0-0.2c0,0,0.1,0,0.1-0.1c0-0.1,0-0.1,0-0.2c0.1,0,0.1-0.1,0.2-0.1
			c0-0.1,0-0.1,0-0.2c0.1,0,0.1-0.1,0.2-0.1c0-0.1,0-0.1,0-0.2c0,0,0.1-0.1,0.1-0.1c0-0.1,0-0.1,0-0.2c0,0,0.1,0,0.1-0.1
			c0-0.1,0-0.1,0-0.2c0,0,0.1-0.1,0.2-0.1c0-0.1,0-0.1,0-0.2c0,0,0.1-0.1,0.2-0.1c0,0,0-0.1,0-0.2c0,0,0.1-0.1,0.1-0.1
			c0-0.1,0-0.1,0-0.2c0,0,0.1,0,0.1-0.1c0-0.1,0-0.1,0-0.2c0,0,0.1-0.1,0.2-0.1c0-0.1,0-0.1,0-0.2c0,0,0.1-0.1,0.1-0.1
			c0,0,0-0.1,0-0.2c0,0,0.1-0.1,0.1-0.1c0-0.1,0-0.2-0.1-0.3c0,0,0.1-0.1,0.1-0.1c0-0.1-0.1-0.3,0.1-0.4c0-0.1,0-0.1,0-0.2
			c0.1,0,0.2-0.1,0.4-0.1c0,0.1,0.1,0.1,0.1,0.2c0,0,0.1,0,0.2,0c0,0.1,0.1,0.2,0.1,0.3c0.1,0,0.1,0,0.2,0c0,0.1,0.1,0.2,0.1,0.3
			c0.1,0,0.1,0,0.2,0c0,0,0,0.1,0.1,0.1c0.1,0,0.1,0,0.2,0c0,0,0.1,0.1,0.1,0.2c0,0,0.1,0,0.2,0c0,0.1,0.1,0.1,0.1,0.2
			c0.1,0,0.1,0,0.2,0c0,0,0,0.1,0.1,0.1c0.1,0,0.1,0,0.2,0c0,0,0.1,0.1,0.1,0.1c0,0,0.1,0,0.2,0c0,0,0.1,0.1,0.1,0.1
			c0,0,0.1,0,0.2,0c0,0,0.1,0.1,0.1,0.2c0.1,0,0.1,0,0.2,0c0,0,0,0.1,0.1,0.1c0.1,0,0.1,0,0.2,0c0,0,0.1,0.1,0.1,0.1
			c0.1,0,0.1,0,0.2,0c0,0.1,0.1,0.1,0.1,0.2c0.1,0,0.1,0,0.2,0c0,0.1,0.1,0.1,0.1,0.2c0.1,0,0.1,0,0.2,0c0,0,0,0.1,0.1,0.1
			c0.1,0,0.1,0,0.2,0c0,0.1,0.1,0.1,0.1,0.2c0,0,0.1,0,0.2,0c0,0,0.1,0.1,0.1,0.2c0,0,0.1,0,0.2,0c0,0,0.1,0.1,0.1,0.1
			c0.1,0,0.1,0,0.2,0c0,0,0,0.1,0.1,0.1c0.1,0,0.1,0,0.2,0c0.1,0.1,0.1,0.2,0.2,0.3c0.1,0,0.1,0,0.2,0c0,0.1,0.1,0.2,0.1,0.3
			c0.1,0,0.1,0,0.2,0c0.2,0.6,0.4,1.1,0.5,1.7c0,0-0.1,0-0.2,0.1c0,0.1,0.1,0.2,0.1,0.3c-0.1,0-0.1,0.1-0.2,0.1c0,0.1,0,0.1,0,0.2
			c0,0-0.1,0.1-0.1,0.1c0,0,0,0.1,0,0.1c-0.1,0-0.1,0-0.2,0.1c0,0.1,0,0.1,0,0.2c0,0-0.1,0.1-0.2,0.1c0,0.1,0,0.1,0,0.2
			c-0.2,0.1-0.4,0.1-0.5,0.2c0,0.1,0,0.1,0,0.2c-0.4,0.1-0.7,0.2-1.1,0.4c0-0.1,0-0.1-0.1-0.2c-0.2,0.1-0.4,0.1-0.5,0.2
			c0-0.1-0.1-0.1-0.1-0.2c-0.1,0-0.1,0-0.2,0c0-0.1,0-0.1-0.1-0.2c-0.1,0-0.1,0-0.2,0c0.1,0.2,0.2,0.5,0.2,0.7c0.1,0,0.1,0,0.2,0
			c0,0.1,0.1,0.2,0.1,0.3c0.1,0,0.1,0,0.2,0c0.1,0.1,0.1,0.2,0.2,0.3c0.1,0,0.1,0,0.2,0c0,0,0.1,0.1,0.1,0.1c0.1,0,0.1,0,0.2,0
			c0,0,0.1,0.1,0.1,0.1c0.1,0,0.1,0,0.2,0c0,0.1,0.1,0.1,0.1,0.2c0,0,0.1,0,0.1,0c0.1,0,0.1,0,0.1,0.1c0,0.1,0,0.1-0.1,0.1
			c0,0-0.1,0-0.1,0c-1,0.3-2.1,0.7-3.1,1c-0.1,0-0.1,0-0.2,0.1c0-0.1,0-0.1-0.1-0.2c0,0,0.1-0.1,0.1-0.1c0-0.1,0-0.1,0-0.2
			c0,0,0.1-0.1,0.1-0.1c-0.1-0.1,0-0.2,0.1-0.2c0-0.1,0-0.1,0-0.2c0.1,0,0.1-0.1,0.2-0.1c0-0.1-0.1-0.2-0.1-0.3c0,0,0.1-0.1,0.1-0.1
			c0-0.1,0-0.2-0.1-0.4c0,0,0.1,0,0.1-0.1c-0.1-0.2-0.1-0.5-0.2-0.7c-0.1,0-0.1,0-0.2,0.1c0,0.1,0,0.1,0,0.2c-0.1,0-0.1,0.1-0.2,0.1
			c0,0.1,0,0.1,0,0.2c-0.2,0.1-0.4,0.1-0.5,0.2c0,0.1,0,0.1,0,0.2c-0.4,0.1-0.7,0.2-1.1,0.4c0-0.1-0.1-0.1-0.1-0.2
			c-0.2,0.1-0.4,0.1-0.5,0.2c0-0.1-0.1-0.1-0.1-0.2c-0.1,0-0.1,0-0.2,0c0-0.1-0.1-0.1-0.1-0.2c-0.1,0-0.1,0-0.2,0
			c0,0-0.1-0.1-0.1-0.1c-0.1,0-0.1,0-0.2,0c0-0.1,0-0.1-0.1-0.2c-0.1,0-0.1,0-0.2,0c0-0.1-0.1-0.2-0.1-0.4c-0.1,0-0.1,0-0.2,0
			C12,18,11.9,17.4,11.7,16.9z M15.4,12.1c0,0,0,0.1,0,0.1c0,0,0.1,0,0.1,0c0,0,0.1,0,0.1-0.1c0,0,0-0.1,0-0.1
			C15.5,12.1,15.4,12.1,15.4,12.1c0,0-0.1-0.1-0.1-0.1c0,0,0,0-0.1,0c-0.1,0-0.1,0.1-0.1,0.1c0,0.1,0.1,0.1,0.1,0
			C15.3,12.1,15.3,12.1,15.4,12.1z M12.7,15.5c-0.1,0-0.1,0-0.2,0.1c0,0.2,0,0.2,0.2,0.1C12.7,15.6,12.7,15.5,12.7,15.5
			c0,0,0.1-0.1,0.1-0.1c0-0.2,0-0.2-0.2-0.1C12.7,15.4,12.7,15.4,12.7,15.5z M13.2,14.5c0,0,0.1,0,0.1,0c0.1,0,0.1-0.1,0-0.1
			c-0.1-0.1-0.1,0-0.2,0C13.2,14.4,13.2,14.4,13.2,14.5c0,0-0.1,0.1-0.1,0.1c0,0.1,0,0.1,0.2,0.1C13.2,14.6,13.2,14.5,13.2,14.5z
			 M13.6,13.7c0,0,0.1,0,0.1,0c0.1,0,0.1-0.1,0-0.1c-0.1-0.1-0.1,0-0.2,0C13.6,13.6,13.6,13.7,13.6,13.7c0,0-0.1,0.1-0.2,0.1
			c0,0,0,0.1,0.1,0.1c0,0,0.1,0,0.1,0C13.6,13.8,13.6,13.8,13.6,13.7z M15.9,12.4c0-0.1,0-0.1-0.1-0.2c-0.2,0-0.2,0-0.1,0.2
			C15.8,12.4,15.8,12.4,15.9,12.4c0,0,0.1,0.1,0.1,0.1c0.2,0,0.2,0,0.1-0.2C16,12.3,15.9,12.4,15.9,12.4z M14.1,12.7
			c-0.1,0-0.1,0.1-0.2,0.1c0,0,0,0,0,0.1c0,0.1,0,0.1,0.1,0.1C14.2,12.9,14.2,12.9,14.1,12.7C14.1,12.8,14.1,12.7,14.1,12.7
			c0,0,0.1,0,0.1,0c0,0,0-0.1,0-0.1c0,0,0-0.1-0.1-0.1c0,0-0.1,0-0.1,0C14.1,12.6,14.1,12.7,14.1,12.7z M14.8,11.6
			c0,0.1,0.1,0.2,0.1,0.4c0.1,0,0.1,0,0.2-0.1c0-0.1-0.1-0.2-0.1-0.3C14.9,11.6,14.9,11.6,14.8,11.6c0-0.1,0-0.1-0.1-0.2
			c-0.1,0-0.2,0-0.3,0.1c0,0.1,0,0.1,0,0.2c0,0-0.1,0.1-0.1,0.1c0,0.1,0,0.2,0.1,0.2c0,0.1,0.1,0.1,0.2,0c0-0.1-0.1-0.2-0.1-0.3
			C14.5,11.7,14.7,11.7,14.8,11.6z M14.7,13.2c0.1,0,0.1-0.1,0.2-0.1c0-0.1-0.1-0.3-0.1-0.4c-0.1,0-0.2,0.1-0.3,0.1
			c0,0-0.1,0.1,0,0.1c0,0.1-0.1,0.2-0.1,0.2c0,0.1,0.1,0.2,0.1,0.3c0,0.1,0.1,0.1,0.1,0.1c0.1,0,0.2-0.1,0.3-0.1
			C14.7,13.3,14.7,13.2,14.7,13.2z M12.5,16.2C12.5,16.2,12.5,16.1,12.5,16.2c-0.1-0.1-0.1-0.1-0.1-0.1c0,0,0,0.1,0,0.1
			c0,0,0,0.1,0,0.1c0,0.1,0,0.2,0.1,0.1C12.5,16.3,12.5,16.2,12.5,16.2z M14.1,14c0.1,0,0.1,0,0.2-0.1c0-0.1,0-0.1-0.1-0.2
			c-0.1,0-0.1,0-0.2,0.1C14,13.8,14.1,13.9,14.1,14z M17.1,12.8c-0.1,0-0.1,0.1-0.1,0.1c0,0,0,0.1,0,0.1c0,0,0.1,0,0.2,0
			C17.1,12.9,17.1,12.9,17.1,12.8z M16.6,12.6c-0.1,0-0.1,0-0.1,0c-0.1,0-0.1,0.1-0.1,0.1c0,0.1,0.1,0.1,0.1,0
			C16.6,12.7,16.6,12.7,16.6,12.6z M12.9,15c-0.1,0-0.1,0.1-0.1,0.1c0,0,0.1,0.1,0.1,0.1c0.1,0,0.1,0,0.1-0.1
			C12.9,15,12.9,15,12.9,15z M13.7,13.4c0,0,0.1,0,0.1-0.1c0,0,0-0.1,0-0.1c0,0-0.1,0-0.1,0C13.7,13.3,13.7,13.4,13.7,13.4z
			 M13.4,14c-0.1,0-0.1,0-0.1,0.1c0,0.1,0,0.1,0.1,0.1c0.1,0,0.1-0.1,0.1-0.1C13.5,14,13.4,14,13.4,14z M12.5,16c0-0.1,0-0.1,0-0.1
			c0-0.1-0.1-0.1-0.1,0c0,0,0,0.1,0,0.1C12.4,15.9,12.5,15.9,12.5,16z M14.2,12.4c0.1,0,0.1,0,0.2-0.1c0,0,0-0.1,0-0.1
			c0,0-0.1,0-0.1,0C14.2,12.3,14.2,12.4,14.2,12.4z M13.8,13c0,0.1,0,0.2,0.1,0.1c0.1,0,0.1-0.1,0.1-0.1C14,12.9,13.9,13,13.8,13z
			 M16.8,12.7c-0.1,0-0.1,0-0.1,0.1c0,0.1,0.1,0.1,0.1,0.1C16.9,12.8,16.8,12.8,16.8,12.7z M16.2,12.4c0,0.1,0,0.1,0,0.2
			c0,0.1,0,0.1,0.1,0.1c0.1,0,0.1-0.1,0.1-0.1C16.3,12.5,16.3,12.5,16.2,12.4z M13.1,14.8c0-0.1-0.1-0.1-0.1,0c0,0-0.1,0.1-0.1,0.1
			c0,0.1,0,0.1,0.1,0.1C13.1,14.9,13.1,14.9,13.1,14.8z M17.3,13.2c0-0.1,0-0.1,0-0.1c0,0,0-0.1-0.1-0.1c0,0-0.1,0-0.1,0.1
			C17.2,13.1,17.2,13.1,17.3,13.2z M16.2,18c0,0-0.1,0-0.1,0c0,0,0,0,0,0.1C16.1,18.1,16.1,18.1,16.2,18
			C16.2,18.1,16.2,18.1,16.2,18z M17.1,17.8C17.1,17.8,17.1,17.8,17.1,17.8c0-0.1,0-0.1,0-0.1C17.1,17.7,17,17.7,17.1,17.8
			C17,17.8,17.1,17.8,17.1,17.8z"/>
		<path class="st0" d="M15.7,20.9C15.6,20.9,15.6,20.9,15.7,20.9l-0.1-0.2c0,0,0-0.1,0-0.1l0.1-0.1l0-0.1c0,0,0-0.1,0-0.1l0.1,0
			c0-0.1,0-0.1,0-0.2c0,0,0.1-0.1,0.1-0.1l0-0.1c0,0,0-0.1,0-0.1l0.1-0.1L16,19.5c0,0,0-0.1,0-0.1l0.1-0.1L16.1,19c0,0,0-0.1,0-0.1
			l0.1-0.1L16,18.3l0,0l0,0.1c0,0,0,0.1,0,0.1l-0.1,0.1l0,0.1c0,0,0,0.1-0.1,0.1c-0.2,0.1-0.3,0.1-0.5,0.2l0,0.1c0,0,0,0.1-0.1,0.1
			l-1.1,0.4c0,0-0.1,0-0.1,0L14,19.3c-0.2,0.1-0.3,0.1-0.5,0.2c0,0-0.1,0-0.1,0l-0.1-0.1l-0.1,0c0,0-0.1,0-0.1,0l-0.1-0.1l-0.1,0
			c0,0-0.1,0-0.1,0c0,0,0-0.1-0.1-0.1c0,0-0.1,0-0.1,0c0,0-0.1,0-0.1,0l0-0.1c0,0-0.1,0-0.1,0c0,0-0.1,0-0.1-0.1l-0.1-0.3l-0.1,0
			c0,0-0.1,0-0.1,0l-0.6-1.7c0,0,0-0.1,0-0.1l0.1,0l-0.1-0.3c0,0,0-0.1,0-0.1l0.1-0.1L11.7,16c0,0,0-0.1,0-0.1l0.1-0.1l0-0.1
			c0,0,0-0.1,0-0.1l0.1-0.1l0-0.1c0,0,0-0.1,0-0.1l0.1-0.1l0-0.1c0,0,0-0.1,0-0.1l0.1-0.1l0-0.1c0,0,0-0.1,0-0.1l0.1-0.1l0-0.1
			c0,0,0-0.1,0-0.1l0.1-0.1l0-0.1c0,0,0-0.1,0-0.1l0.1-0.1l0-0.1c0,0,0-0.1,0-0.1l0.1-0.1l0-0.1c0,0,0-0.1,0-0.1l0.1-0.1l0-0.1
			c0,0,0-0.1,0-0.1l0.1,0l0-0.1c0,0,0-0.1,0-0.1l0.1-0.1l0-0.1c0,0,0-0.1,0-0.1l0.1-0.1l0-0.1c0,0,0-0.1,0-0.1l0.1-0.1l0-0.1
			c0,0,0-0.1,0-0.1c0,0,0.1,0,0.1-0.1l0-0.1c0,0,0-0.1,0-0.1l0.1-0.1l0-0.1c0,0,0-0.1,0-0.1l0.1-0.1l0-0.1c0,0,0-0.1,0-0.1l0.1-0.1
			l-0.1-0.3c0,0,0-0.1,0-0.1l0.1-0.1c0,0,0-0.1,0-0.1c0-0.1-0.1-0.2,0.1-0.3l0-0.1c0,0,0-0.1,0-0.1l0.4-0.1c0,0,0.1,0,0.1,0l0.1,0.1
			l0.1,0c0,0,0.1,0,0.1,0l0.1,0.3l0.1,0c0,0,0.1,0,0.1,0l0.1,0.3l0.1,0c0,0,0,0,0,0c0,0,0.1,0,0.1,0l0,0.1l0.1,0c0,0,0.1,0,0.1,0
			l0.1,0.1l0.1,0c0,0,0.1,0,0.1,0l0.1,0.1l0.1,0c0,0,0.1,0,0.1,0l0,0.1l0.1,0c0,0,0.1,0,0.1,0l0.1,0.1l0.1,0c0,0,0.1,0,0.1,0
			l0.1,0.1l0.1,0c0,0,0.1,0,0.1,0l0.1,0.1l0.1,0c0,0,0.1,0,0.1,0c0,0,0,0.1,0.1,0.1l0.1,0c0,0,0.1,0,0.1,0l0.1,0.1l0.1,0
			c0,0,0.1,0,0.1,0l0.1,0.1l0.1,0c0,0,0.1,0,0.1,0l0.1,0.1l0.1,0c0,0,0.1,0,0.1,0c0,0,0,0.1,0,0.1l0.1,0c0,0,0.1,0,0.1,0l0,0
			c0,0,0,0.1,0,0.1l0.1,0c0,0,0.1,0,0.1,0l0.1,0.1l0.1,0c0,0,0.1,0,0.1,0l0.1,0.1l0.1,0c0,0,0,0,0,0c0,0,0.1,0,0.1,0l0.1,0.1l0.1,0
			c0,0,0.1,0,0.1,0l0.1,0.3l0.1,0c0,0,0.1,0,0.1,0l0.1,0.3l0.1,0c0,0,0.1,0,0.1,0.1l0.5,1.7c0,0,0,0.1,0,0.1L20.5,16l0.1,0.3
			c0,0,0,0.1,0,0.1l-0.1,0.1c0,0,0,0.1,0,0.1c0,0,0,0.1,0,0.1l-0.1,0.1c0,0,0,0.1,0,0.1c0,0,0,0.1,0,0.1l-0.1,0.1l0,0.1
			c0,0,0,0.1,0,0.1c0,0-0.1,0-0.1,0.1l0,0l0,0.1c0,0,0,0.1-0.1,0.1l-0.2,0.1c-0.1,0-0.2,0.1-0.3,0.1l0,0.1c0,0,0,0.1-0.1,0.1
			l-1.1,0.4c0,0-0.1,0-0.1,0L18.3,18l-0.5,0.2c0,0-0.1,0-0.1,0L17.6,18c0,0-0.1,0-0.1,0c0,0-0.1,0-0.1,0l0-0.1l0,0l0.2,0.6l0.1,0h0
			c0,0,0.1,0,0.1,0l0.1,0.3l0.1,0c0,0,0,0,0,0c0,0,0.1,0,0.1,0l0.1,0.3l0.1,0c0,0,0,0,0.1,0c0,0,0,0.1,0.1,0.1l0.1,0
			c0,0,0.1,0,0.1,0c0,0,0,0.1,0.1,0.1c0,0,0.1,0,0.1,0c0,0,0.1,0,0.1,0c0,0,0,0.1,0.1,0.1c0,0,0,0,0,0c0.1,0,0.2,0,0.2,0.1
			c0,0.1,0,0.1,0,0.1c0,0-0.1,0.1-0.1,0.1c0,0,0,0,0,0l0,0l-3.1,1C15.8,20.9,15.8,20.9,15.7,20.9C15.7,20.9,15.7,20.9,15.7,20.9z
			 M15.7,20.7L15.7,20.7c0.1,0,0.1,0,0.1,0l3.1-1c0,0,0,0,0.1,0c0,0,0,0,0,0c0,0,0,0,0,0c0,0,0,0,0,0l0,0c0,0,0,0,0,0c0,0,0,0-0.1,0
			l0,0c0,0-0.1,0-0.1,0c0,0,0-0.1-0.1-0.1c0,0-0.1,0-0.1,0l0,0c0,0-0.1,0-0.1,0l0,0c0,0,0-0.1,0-0.1l-0.1,0c0,0,0,0,0,0
			c0,0,0,0-0.1,0c0,0-0.1-0.1-0.1-0.1l-0.1,0c0,0-0.1,0-0.1,0l-0.1-0.3l-0.1,0c0,0-0.1,0-0.1,0l-0.1-0.3l-0.1,0h0c0,0-0.1,0-0.1-0.1
			l-0.2-0.7c0,0,0,0,0,0c0,0,0,0-0.1,0c0,0,0,0,0,0c0,0-0.1,0-0.1-0.1c0-0.1,0-0.1,0.1-0.1c0.1,0,0.1,0,0.1,0.1c0,0,0,0,0,0l0,0
			l0.2,0c0,0,0.1,0,0.1,0l0.1,0.1c0,0,0.1,0,0.1,0c0,0,0.1,0,0.1,0l0.1,0.1l0.5-0.2c0,0,0.1,0,0.1,0l0.1,0.1l1-0.3l0-0.1
			c0,0,0-0.1,0.1-0.1c0.1,0,0.3-0.1,0.4-0.1l0.1,0l0-0.1c0,0,0-0.1,0-0.1c0,0,0.1,0,0.1-0.1v0l0-0.1c0,0,0-0.1,0-0.1l0.1-0.1
			c0,0,0-0.1,0-0.1c0,0,0-0.1,0-0.1l0.1-0.1c0,0,0-0.1,0-0.1c0,0,0-0.1,0-0.1l0.1-0.1L20.4,16c0,0,0-0.1,0-0.1l0.1-0.1L20,14.2
			l-0.1,0c0,0-0.1,0-0.1,0l-0.1-0.3l-0.1,0c0,0-0.1,0-0.1,0l-0.1-0.3l-0.1,0c0,0-0.1,0-0.1,0l-0.1-0.1l-0.1,0c0,0-0.1,0-0.1,0
			l-0.1-0.1l-0.1,0c0,0,0,0,0,0c0,0,0,0-0.1,0l-0.1-0.1l-0.1,0c0,0-0.1,0-0.1,0c0,0,0-0.1-0.1-0.1l-0.1,0c0,0-0.1,0-0.1,0
			c0,0,0-0.1,0-0.1L18,13c0,0-0.1,0-0.1,0l-0.1-0.1l-0.1,0c0,0-0.1,0-0.1,0l-0.1-0.1l-0.1,0c0,0-0.1,0-0.1,0l-0.1-0.1l-0.1,0
			c0,0-0.1,0-0.1,0c0,0,0-0.1-0.1-0.1l-0.1,0c0,0-0.1,0-0.1,0l-0.1-0.1l-0.1,0c0,0-0.1,0-0.1,0l-0.1-0.1l-0.1,0c0,0-0.1,0-0.1,0
			L16.4,12l-0.1,0c0,0-0.1,0-0.1,0l0-0.1l-0.1,0c0,0-0.1,0-0.1,0l-0.1-0.1l-0.1,0c0,0-0.1,0-0.1,0l-0.1-0.1l-0.1,0c0,0-0.1,0-0.1,0
			l-0.1-0.1l-0.1,0c0,0,0,0,0,0c0,0-0.1,0-0.1,0L15,11.2l-0.1,0c0,0-0.1,0-0.1,0l-0.1-0.3l-0.1,0c0,0-0.1,0-0.1,0l-0.1-0.1l-0.2,0.1
			l0,0.1c0,0,0,0.1,0,0.1c-0.1,0-0.1,0.1-0.1,0.2c0,0.1,0,0.1,0,0.2c0,0,0,0,0,0.1L14,11.5l0.1,0.3c0,0,0,0.1,0,0.1L13.9,12l0,0.1
			c0,0,0,0.1,0,0.1l-0.1,0.1l0,0.1c0,0,0,0.1,0,0.1l-0.1,0.1l0,0.1c0,0,0,0.1,0,0.1c0,0-0.1,0-0.1,0.1l0,0.1c0,0,0,0.1,0,0.1
			L13.4,13l0,0.1c0,0,0,0.1,0,0.1l-0.1,0.1l0,0.1c0,0,0,0.1,0,0.1l-0.1,0.1l0,0.1c0,0,0,0.1,0,0.1l-0.1,0l0,0.1c0,0,0,0.1,0,0.1
			L12.9,14l0,0.1c0,0,0,0.1,0,0.1l-0.1,0.1l0,0.1c0,0,0,0.1,0,0.1l-0.1,0.1l0,0.1c0,0,0,0.1,0,0.1l-0.1,0.1l0,0.1c0,0,0,0.1,0,0.1
			L12.4,15l0,0.1c0,0,0,0.1,0,0.1l-0.1,0.1l0,0.1c0,0,0,0.1,0,0.1l-0.1,0.1l0,0.1c0,0,0,0.1,0,0.1L12,15.8l0,0.1c0,0,0,0.1,0,0.1
			L11.9,16l0.1,0.3c0,0,0,0.1,0,0.1l-0.1,0.1l0.1,0.3c0,0,0,0.1,0,0.1l-0.1,0l0.5,1.6l0.1,0c0,0,0.1,0,0.1,0l0.1,0.3
			c0,0,0.1,0,0.1,0c0,0,0.1,0,0.1,0l0.1,0.1c0.1,0,0.1,0,0.2,0c0,0,0,0.1,0.1,0.1l0.1,0c0,0,0.1,0,0.1,0l0.1,0.1l0.1,0
			c0,0,0.1,0,0.1,0l0,0.1c0.2-0.1,0.3-0.1,0.5-0.2c0,0,0.1,0,0.1,0l0.1,0.1l1-0.3l0-0.1c0,0,0-0.1,0.1-0.1c0.2-0.1,0.3-0.1,0.5-0.2
			l0-0.1c0,0,0-0.1,0-0.1l0.1-0.1l0-0.1c0,0,0-0.1,0.1-0.1l0.1,0c0,0,0,0,0,0c0,0,0,0,0-0.1c0,0,0,0,0,0c0,0,0-0.1,0.1-0.1
			c0,0,0.1,0,0.1,0c0,0,0,0,0,0c0,0,0,0,0.1,0s0,0,0,0.1c0,0,0,0,0,0c0,0,0,0.1-0.1,0.1c0,0,0,0,0,0l0.2,0.7c0,0,0,0.1,0,0.1
			L16.2,19l0.1,0.3c0,0,0,0.1,0,0.1l-0.1,0.1l0.1,0.3c0,0,0,0.1,0,0.1l-0.1,0.1l0,0.1c0,0,0,0.1-0.1,0.1c0,0-0.1,0-0.1,0.1
			c0,0,0,0.1,0,0.1c0,0,0,0.1,0,0.1l-0.1,0.1l0,0.1C15.8,20.6,15.8,20.6,15.7,20.7L15.7,20.7z M17.1,17.7L17.1,17.7L17.1,17.7z
			 M12.4,16.4C12.4,16.4,12.4,16.4,12.4,16.4c-0.1,0-0.1-0.1-0.1-0.1c0,0,0,0,0,0c0,0,0-0.1,0-0.1c0,0,0-0.1,0.1-0.1
			c0.1,0,0.1,0,0.2,0.1c0,0,0,0.1,0.1,0.1c0,0,0,0,0,0c0,0,0,0,0,0c0,0,0,0,0,0C12.6,16.3,12.6,16.4,12.4,16.4
			C12.4,16.4,12.4,16.4,12.4,16.4z M12.4,16.1C12.4,16.1,12.4,16.1,12.4,16.1C12.4,16.2,12.4,16.2,12.4,16.1c0,0.1,0,0.1,0,0.1
			c0,0,0,0,0,0c0,0,0,0,0,0C12.4,16.2,12.4,16.2,12.4,16.1C12.4,16.2,12.4,16.2,12.4,16.1C12.4,16.2,12.4,16.1,12.4,16.1
			C12.4,16.1,12.4,16.1,12.4,16.1z M12.5,16C12.5,16,12.5,16,12.5,16C12.5,16,12.5,16,12.5,16c-0.1-0.1-0.2-0.1-0.2-0.1
			c0-0.1,0-0.1,0.1-0.2c0,0,0.1,0,0.1,0c0,0,0-0.1,0-0.1c0,0,0-0.1,0-0.1l0.1,0l0-0.1c0,0,0-0.1,0-0.1c0.1,0,0.1-0.1,0.1-0.1
			c0,0,0,0,0,0c0,0,0-0.1,0-0.1c0,0,0.1-0.1,0.1-0.1c0,0,0,0,0.1,0c0,0,0-0.1,0-0.1c0-0.1,0-0.1,0.1-0.2c0,0,0,0,0.1,0
			c0,0,0-0.1,0-0.1c0,0,0-0.1,0-0.1l0.1-0.1l0-0.1c0,0,0-0.1,0-0.1c0,0,0.1-0.1,0.1-0.1c0,0,0,0,0,0c0,0,0-0.1,0-0.1
			c0,0,0.1-0.1,0.1-0.1c0,0,0,0,0,0c0,0,0,0,0-0.1c0,0,0,0,0,0c0,0,0,0,0-0.1s0,0,0,0l0.1-0.1l0-0.1c0,0,0-0.1,0-0.1
			c0,0,0.1-0.1,0.1-0.1c0-0.1-0.1-0.1,0-0.2c0,0,0.1,0,0.1,0c0,0,0-0.1,0-0.1c0,0,0-0.1,0-0.1c0,0,0,0,0,0c0,0,0,0,0.1,0
			c0,0,0,0,0-0.1c0,0,0,0,0,0l0,0c0,0,0-0.1,0-0.1l0.1-0.1l0-0.1c0,0,0-0.1,0-0.1c0,0,0,0,0,0c0,0,0.1,0,0.1,0c0,0,0,0,0,0
			c0,0,0-0.1,0-0.1c0,0,0,0,0.1-0.1c0,0,0,0,0.1,0c0,0,0-0.1,0-0.1c0-0.1,0-0.1,0-0.2l0-0.1c0,0,0-0.1,0-0.1l0.1-0.1
			c0,0,0-0.1,0-0.1c0,0,0,0,0-0.1c0.1-0.1,0.2-0.1,0.3-0.1l0.1,0c0,0,0.1,0,0.1,0l0,0.1l0.1,0c0,0,0.1,0,0.1,0.1l0.1,0.3
			c0,0,0,0,0.1,0c0,0,0,0,0.1,0c0,0,0.1,0,0.1,0l0.1,0.1l0.1,0c0,0,0,0,0,0c0,0,0.1,0,0.1,0c0,0,0,0,0,0c0,0,0,0.1,0,0.1
			c0,0,0.1,0,0.1,0c0,0,0.1,0,0.1,0l0,0.1l0.1,0c0,0,0.1,0,0.1,0c0,0,0,0.1,0,0.1c0,0,0,0,0,0c0,0,0.1,0,0.1,0c0,0,0,0,0.1,0
			c0,0,0.1,0,0.1,0.1c0,0,0,0,0,0c0,0,0,0,0.1,0c0,0,0.1,0,0.1,0c0,0,0,0,0.1,0c0,0,0,0,0.1,0c0,0,0,0,0,0.1c0,0,0,0,0.1,0
			c0,0,0,0,0,0c0,0,0.1,0,0.1,0l0,0c0,0,0,0.1,0,0.1c0,0,0,0,0,0c0,0,0,0,0,0c0,0,0,0,0.1,0c0,0,0,0,0,0l0,0.1c0,0,0,0,0,0
			c0,0,0.1,0,0.1,0c0,0,0.1,0.1,0.1,0.1c0,0,0,0.1,0,0.1c0,0,0,0,0,0.1c0,0,0,0-0.1,0c0,0,0,0-0.1,0c0,0,0,0,0,0c0,0-0.1,0-0.1-0.1
			c0,0,0,0,0,0l0,0c0,0-0.1,0-0.1,0c0,0-0.1,0-0.1-0.1c0,0,0,0,0-0.1c0,0,0,0,0,0c-0.1,0-0.1,0-0.1,0c0,0-0.1,0-0.1-0.1c0,0,0,0,0,0
			c0,0,0,0,0,0c0,0-0.1,0-0.1,0c0,0-0.1-0.1-0.1-0.1c0,0,0,0,0-0.1c0,0,0,0,0,0c-0.1,0-0.1,0-0.1,0c0,0-0.1-0.1-0.1-0.1c0,0,0,0,0,0
			c0,0-0.1,0-0.1,0c0,0-0.1,0-0.1,0l0-0.1l-0.1,0c0,0-0.1,0-0.1,0c0-0.1,0-0.1-0.1-0.1c0,0,0,0,0,0c-0.1,0-0.1,0-0.2-0.1
			c0,0,0-0.1,0-0.1c0,0,0,0,0,0c-0.1,0-0.2,0-0.2-0.1c0,0,0,0,0-0.1l-0.1,0c0,0-0.1,0-0.1,0l-0.1-0.3l-0.2,0.1l0.1,0.3
			c0,0,0,0.1,0,0.1c-0.1,0-0.1,0.1-0.2,0.1c0,0,0,0.1,0,0.1c0,0.1-0.1,0.1-0.2,0.1c0,0,0,0,0,0c0,0.1,0,0.1-0.1,0.2c0,0,0,0-0.1,0
			l0,0c0,0.1,0,0.1,0,0.2c0,0-0.1,0.1-0.1,0.1c0,0,0,0,0,0c0,0,0,0,0,0c0,0.1,0,0.1,0,0.1c0,0,0,0.1-0.1,0.1c0,0,0,0-0.1,0
			c0,0,0.1,0.1,0,0.2c0,0-0.1,0.1-0.1,0.1c0,0,0,0,0,0c0,0,0,0,0,0c0,0,0,0.1,0,0.1c0,0,0,0.1-0.1,0.1c0,0,0,0-0.1,0l0,0.1
			c0,0,0,0,0,0.1c0,0,0,0,0,0c0,0,0,0,0,0c0,0-0.1,0-0.1,0c0,0,0,0,0,0c0,0,0,0.1,0,0.1c0,0-0.1,0.1-0.1,0.1c0,0,0,0,0,0
			c0,0,0,0.1,0,0.1c0,0,0,0.1-0.1,0.1c0,0,0,0,0,0l0,0.1c0,0,0,0.1,0,0.1c-0.1,0-0.1,0.1-0.1,0.1c0,0,0,0,0,0.1c0,0,0,0.1,0,0.1
			c0,0-0.1,0.1-0.1,0.1c0,0,0,0,0,0h0c0,0,0,0,0,0.1c0,0,0,0.1,0,0.1c0,0-0.1,0.1-0.1,0.1c0,0,0,0,0,0c0,0,0,0.1,0,0.1
			c0,0,0,0.1,0,0.1l-0.1,0l0,0.1c0,0,0,0.1,0,0.1c-0.1,0-0.1,0.1-0.1,0.1c0,0,0,0,0,0.1c0,0,0,0.1,0,0.1C12.6,15.9,12.6,16,12.5,16
			C12.6,16,12.6,16,12.5,16C12.6,16,12.5,16,12.5,16z M12.7,15.4L12.7,15.4L12.7,15.4C12.7,15.4,12.7,15.4,12.7,15.4
			C12.7,15.4,12.7,15.4,12.7,15.4z M12.9,15.1C12.9,15.1,12.9,15.1,12.9,15.1L12.9,15.1C12.9,15.1,12.9,15.1,12.9,15.1z M12.9,15
			L12.9,15L12.9,15z M13,14.8C13,14.9,13,14.9,13,14.8L13,14.8C13,14.8,13,14.8,13,14.8z M13,14.8L13,14.8L13,14.8z M13.3,14.3
			L13.3,14.3C13.3,14.4,13.3,14.4,13.3,14.3C13.3,14.4,13.3,14.4,13.3,14.3C13.3,14.3,13.3,14.3,13.3,14.3
			C13.3,14.3,13.3,14.3,13.3,14.3z M13.4,14.1C13.4,14.1,13.4,14.1,13.4,14.1C13.4,14.1,13.4,14.1,13.4,14.1
			C13.4,14.1,13.4,14.1,13.4,14.1C13.4,14.1,13.4,14.1,13.4,14.1L13.4,14.1z M13.4,14L13.4,14L13.4,14z M13.5,13.8
			C13.5,13.8,13.5,13.8,13.5,13.8C13.5,13.8,13.5,13.8,13.5,13.8L13.5,13.8L13.5,13.8z M13.6,13.6L13.6,13.6
			C13.7,13.6,13.7,13.6,13.6,13.6C13.7,13.6,13.7,13.6,13.6,13.6C13.7,13.6,13.6,13.6,13.6,13.6z M13.8,13.3
			C13.8,13.3,13.8,13.3,13.8,13.3C13.8,13.3,13.8,13.3,13.8,13.3C13.8,13.3,13.8,13.3,13.8,13.3C13.8,13.3,13.8,13.3,13.8,13.3z
			 M13.9,13.1C13.9,13.1,13.9,13.1,13.9,13.1C13.9,13.1,13.9,13.1,13.9,13.1C13.9,13.1,13.9,13.1,13.9,13.1
			C13.9,13.1,13.9,13.1,13.9,13.1z M17,12.9C17,12.9,17,12.9,17,12.9C17,12.9,17,12.9,17,12.9L17,12.9z M14,12.8
			C14,12.8,14,12.8,14,12.8C14,12.9,14,12.9,14,12.8C14,12.9,14,12.9,14,12.8C14.1,12.9,14.1,12.8,14,12.8
			C14.1,12.8,14.1,12.8,14,12.8C14.1,12.8,14.1,12.8,14,12.8L14,12.8z M16.8,12.8C16.8,12.8,16.7,12.8,16.8,12.8L16.8,12.8
			C16.8,12.8,16.8,12.8,16.8,12.8C16.8,12.8,16.8,12.8,16.8,12.8z M16.5,12.7C16.5,12.7,16.5,12.7,16.5,12.7
			C16.5,12.7,16.5,12.7,16.5,12.7C16.5,12.7,16.5,12.7,16.5,12.7C16.5,12.7,16.5,12.7,16.5,12.7z M14.2,12.6L14.2,12.6
			C14.2,12.6,14.2,12.6,14.2,12.6C14.2,12.6,14.2,12.6,14.2,12.6L14.2,12.6C14.2,12.6,14.2,12.6,14.2,12.6
			C14.2,12.6,14.2,12.6,14.2,12.6z M16.3,12.5C16.2,12.6,16.2,12.6,16.3,12.5L16.3,12.5C16.3,12.5,16.3,12.6,16.3,12.5z M16,12.4
			L16,12.4C16,12.4,16,12.4,16,12.4C16,12.4,16,12.4,16,12.4L16,12.4z M14.3,12.3C14.3,12.3,14.3,12.3,14.3,12.3
			C14.3,12.3,14.3,12.3,14.3,12.3C14.3,12.3,14.3,12.3,14.3,12.3L14.3,12.3z M15.7,12.3C15.7,12.3,15.7,12.3,15.7,12.3L15.7,12.3
			L15.7,12.3C15.8,12.3,15.7,12.3,15.7,12.3z M15.5,12.1C15.5,12.2,15.5,12.2,15.5,12.1C15.5,12.2,15.5,12.2,15.5,12.1
			C15.5,12.2,15.5,12.1,15.5,12.1L15.5,12.1z M14.4,11.9L14.4,11.9c0,0.1,0,0.1,0,0.2c0,0,0,0,0,0c0,0,0,0,0,0L14.4,11.9L14.4,11.9z
			 M15.3,12C15.3,12,15.2,12,15.3,12C15.2,12,15.2,12,15.3,12L15.3,12C15.2,12,15.3,12,15.3,12L15.3,12z M14.9,11.7l0.1,0.2l0,0
			L14.9,11.7L14.9,11.7z M14.5,11.6C14.5,11.6,14.5,11.6,14.5,11.6l0.2,0l0,0l0,0C14.6,11.6,14.5,11.6,14.5,11.6z M14.1,14
			C14.1,14,14.1,14,14.1,14C14,14,14,14,14.1,14L14,13.8c0,0,0-0.1,0-0.1l0.2-0.1c0,0,0.1,0,0.1,0l0.1,0.2c0,0,0,0,0,0.1
			c0,0,0,0,0,0L14.1,14C14.1,14,14.1,14,14.1,14z M14.1,13.8L14.1,13.8L14.1,13.8L14.1,13.8L14.1,13.8z M14.4,13.5
			C14.4,13.5,14.3,13.5,14.4,13.5c-0.1,0-0.1-0.1-0.2-0.1l-0.1-0.3c0,0,0-0.1,0-0.1c0,0,0,0,0,0c0.1-0.1,0.1-0.1,0.1-0.1
			c0-0.1,0-0.2,0.1-0.2c0.1,0,0.2-0.1,0.2-0.1l0.1,0c0,0,0.1,0,0.1,0c0.1,0.1,0.1,0.2,0.1,0.3c0,0,0,0.1,0,0.1s0,0.1,0,0.1l-0.1,0.1
			l0,0.1c0,0,0,0.1,0,0.1l-0.1,0C14.6,13.5,14.5,13.5,14.4,13.5C14.4,13.5,14.4,13.5,14.4,13.5z M14.3,13.1l0.1,0.2c0,0,0,0,0,0
			c0,0,0,0,0,0c0.1,0,0.1,0,0.2-0.1l0,0l0-0.1c0,0,0-0.1,0-0.1l0.1-0.1c0,0,0,0,0-0.1c0-0.1,0-0.1-0.1-0.2l0,0c-0.1,0-0.2,0-0.2,0.1
			l0,0c0,0,0,0,0,0C14.5,13,14.4,13.1,14.3,13.1z"/>
	</g>
	<g>
		<path d="M11.6,30.2c-1.1,0-2.1-0.7-2.4-1.8L3.2,9.9C2.8,8.6,3.5,7.2,4.9,6.7L19.6,2c1.3-0.4,2.8,0.3,3.2,1.6l5.9,18.5
			c0.4,1.3-0.3,2.8-1.6,3.2L12.4,30C12.1,30.1,11.8,30.2,11.6,30.2z M20.4,2.8c-0.2,0-0.3,0-0.5,0.1L5.2,7.7c-0.8,0.3-1.3,1.1-1,1.9
			l5.9,18.5c0.3,0.8,1.1,1.3,1.9,1l14.8-4.8c0.8-0.3,1.3-1.1,1-1.9L21.9,3.9C21.7,3.3,21.1,2.8,20.4,2.8z"/>
	</g>
</g>
</svg>
