<?xml version="1.0" encoding="utf-8"?>
<!-- Generator: Adobe Illustrator 26.0.0, SVG Export Plug-In . SVG Version: 6.00 Build 0)  -->
<svg version="1.1" id="Capa_1" xmlns="http://www.w3.org/2000/svg" xmlns:xlink="http://www.w3.org/1999/xlink" x="0px" y="0px"
	 viewBox="0 0 502.6 230" style="enable-background:new 0 0 502.6 230;" xml:space="preserve">
<style type="text/css">
	.st0{fill:#1C1C1C;}
</style>
<g>
	<path class="st0" d="M18,90.6V88c4.7,0.3,8.3,0.5,10.8,0.5c2.8,0,5.8-0.2,9-0.5c1.2,3,2.1,5.2,2.8,6.8c0.9,2.1,4.6,10,11.1,23.8
		c2.7,5.9,5.5,11.6,8.3,17.2l18-38.1c1.1-2.3,2.4-5.6,3.9-9.6c3.8,0.3,6.7,0.5,8.7,0.5c1.9,0,5-0.2,9.5-0.5v2.5
		c-0.8,0.2-1.5,0.4-1.9,0.5c-3.9,0.8-6.1,1.4-6.6,1.7c-0.7,0.6-1.1,2-1.1,4.3v0.6L90.4,111c0,16.9,0.1,27.2,0.2,30.8
		c0,0.6,0.2,1.2,0.7,1.7c0.4,0.4,2.8,1,7.2,1.8c0.4,0.1,0.9,0.2,1.7,0.4v2.5c-5.1-0.3-9.6-0.5-13.5-0.5s-8.6,0.2-14.1,0.5v-2.5
		c1.1-0.3,1.9-0.5,2.5-0.6c2-0.3,4-0.8,5.9-1.4c0.5-0.2,0.8-0.6,1-1.1c0.4-2.3,0.5-4.6,0.4-6.9v-37c-2.6,5.1-8.4,17.4-17.4,36.8
		c-2.5,5.3-4.3,9.4-5.5,12.3h-2.4c-6.3-14.1-14.1-30.4-23.3-49.1l0.6,39.5c0,3.1,0.2,4.9,0.8,5.4s2.7,1,6.4,1.7l2,0.4v2.5
		c-4.9-0.3-8.9-0.5-11.9-0.5s-7,0.2-12,0.5v-2.5c0.8-0.2,1.4-0.4,1.8-0.4c3.7-0.7,5.8-1.4,6.3-1.9c0.7-0.8,1-2.7,1.1-5.8l0.2-9.5
		c0.1-8.7,0.2-17.2,0.2-25.3v-5.2c0.1-1.3,0-2.6-0.4-3.9c-0.3-0.5-0.7-0.9-1.2-1.1c-2.4-0.7-4.8-1.2-7.3-1.5
		C19.8,91,19,90.8,18,90.6z"/>
	<path class="st0" d="M110.5,119.5l-2.8-0.3c0.6-2.9,1-5.8,1.2-8.8c5.5-2.5,10.5-3.7,14.9-3.7c1.8,0,3.5,0.3,5.2,0.8
		c1.4,0.5,2.7,1.2,3.7,2.3c0.9,1,1.6,2.2,2.1,3.5c0.6,2.1,0.8,4.3,0.7,6.5l-0.4,17.5c0,2.4,0.3,3.9,0.8,4.7c0.5,0.7,1.2,1.1,2.1,1.1
		c1,0,2.6-0.8,4.8-2.3l1.3,1.7c-4,3.6-6.2,5.5-6.5,5.7c-0.9,0.5-2,0.7-3,0.7c-1.5,0.1-3.1-0.4-4.3-1.4c-1.2-1.3-1.9-2.9-2-4.6
		c-2.3,1.9-4.9,3.6-7.6,5c-1.7,0.7-3.5,1-5.3,1c-2.8,0.1-5.6-0.9-7.6-2.9c-1.9-1.9-3-4.6-2.9-7.3c0-1.7,0.3-3.4,1-4.9
		s1.7-2.8,2.9-3.8c1.6-1.2,3.2-2.2,5-3c5.5-2.7,10.3-4.8,14.4-6.5c-0.1-4-0.8-6.6-2-7.9s-3-1.9-5.5-1.9c-2.2-0.1-4.3,0.7-6,2.1
		C112.9,114.6,111.5,116.9,110.5,119.5z M128.4,124.2c-7.4,3.3-11.9,5.7-13.4,7.2c-2.9,2.9-3.1,7.4-0.6,10.5c1,1.2,2.5,1.9,4.1,1.9
		c1.9-0.1,3.7-0.6,5.2-1.6c1.6-0.8,2.9-2,3.7-3.6c0.6-1.3,0.9-3.8,0.9-7.3v-7.1L128.4,124.2L128.4,124.2z"/>
	<path class="st0" d="M145.9,114.5v-2.4c4.8-1.1,9.3-3,13.5-5.5l1.1,0.8c-0.5,3-0.7,6-0.8,9c3.4-4.2,5.8-6.7,7.2-7.7
		c1.4-0.9,3.1-1.4,4.8-1.4c1.4,0,2.8,0.3,4.1,0.9c-0.6,2.9-1.1,5.9-1.5,8.9h-2.1c-0.1-1.1-0.6-2.1-1.3-2.9c-0.5-0.6-1.2-0.9-2-0.9
		c-1.4,0.1-2.6,0.6-3.6,1.6c-1.8,1.4-3.3,3.3-4.2,5.4c-1,2.7-1.4,5.7-1.3,8.6c-0.1,4.4,0.1,8.9,0.6,13.2c0.1,0.8,0.5,1.5,1.2,2
		s2.7,1.1,6,1.9v2.4c-3.5-0.3-6.8-0.5-9.6-0.5c-2.4,0-6.4,0.2-11.9,0.5V146c3.9-1,6.1-1.7,6.6-2.2s0.7-1.9,0.7-4.2l0.1-9.2
		c0-9-0.1-13.9-0.3-14.6c-0.2-1.1-1.2-1.9-2.4-1.7c-1.2,0.1-2.4,0.2-3.6,0.4L145.9,114.5z"/>
	<path class="st0" d="M210,120.9l-2.8-0.2c-0.1-3.6-1-6.2-2.7-7.9c-1.8-1.8-4.3-2.7-6.9-2.6c-2.1,0-4.2,0.6-6,1.7
		c-2.1,1.3-3.7,3.3-4.5,5.6c-1.1,2.8-1.7,5.8-1.6,8.8c0,5.3,1.3,9.4,3.8,12.3c2.6,3,5.5,4.4,8.9,4.4c3.5,0,7.8-1.4,12.8-4.2l1.6,2.6
		c-3.4,2.7-7.2,5-11.1,6.9c-1.6,0.7-3.4,1-5.2,0.9c-4.9,0-8.9-1.4-12-4.3c-4-3.8-6.1-9-6.1-15.5c0-6.8,2.1-12.3,6.4-16.7
		c4.1-4.3,9.8-6.7,15.7-6.5c4.3,0,8.5,1.1,12.3,3.3c-0.2,1-0.5,2.2-0.9,3.7C211.2,115.2,210.6,117.8,210,120.9z"/>
	<path class="st0" d="M215.4,93.7v-2.5c3.7-1.1,6.5-2,8.3-2.7s3.6-1.6,5.4-2.6l1.1,0.6c-0.2,2.2-0.4,5.2-0.6,8.8
		c-0.2,7.6-0.4,12.8-0.4,15.6c0,0.8,0,2.2,0,4.2l5.6-5.4c1-0.9,2.1-1.5,3.4-2c1.6-0.6,3.3-0.9,5.1-0.9c2.8-0.1,5.6,0.7,7.8,2.5
		c2,1.7,3.2,4.2,3.4,6.8c0.2,1.7,0.2,9.6,0.2,23.6c0,2.2,0.2,3.5,0.7,4s2,1.1,4.7,1.7c0.3,0,0.8,0.1,1.3,0.3v2.4
		c-5.1-0.3-8.7-0.5-10.8-0.5c-2.8,0-6,0.2-9.8,0.5v-2.4l5.1-1.6c0.3-0.2,0.6-0.4,0.8-0.7c0.3-0.5,0.5-1,0.5-1.5
		c0.2-1.5,0.2-3.1,0.2-4.6l0.3-12.2c0-4-0.2-6.6-0.7-8c-0.5-1.3-1.4-2.5-2.6-3.3c-1.2-0.8-2.7-1.3-4.2-1.2c-2.1,0-4.2,0.7-6,1.9
		c-1.8,1.1-3.1,2.8-3.9,4.8c-0.7,1.9-1.1,5.2-1.1,9.8c-0.1,4.1,0,8.2,0.4,12.3c0,0.8,0.3,1.7,0.8,2.3c1.4,0.7,2.9,1.3,4.5,1.6
		c0.3,0.1,0.8,0.2,1.4,0.4v2.4c-4.2-0.3-7.6-0.5-10.3-0.5s-6.2,0.2-10.2,0.5v-2.4l1.4-0.4c2.5-0.7,4-1.2,4.4-1.6s0.6-1.6,0.7-3.8
		c0.2-3.5,0.2-10.4,0.2-20.6c0-15.7-0.2-24-0.6-24.9c-0.5-0.9-1.5-1.5-2.6-1.4C218,93.3,216.7,93.4,215.4,93.7z"/>
	<path class="st0" d="M270.9,119.5l-2.8-0.3c0.6-2.9,1-5.8,1.2-8.8c5.5-2.5,10.5-3.7,14.9-3.7c1.8,0,3.5,0.3,5.2,0.8
		c1.4,0.5,2.7,1.2,3.7,2.3c0.9,1,1.6,2.2,2.1,3.5c0.6,2.1,0.8,4.3,0.7,6.5l-0.4,17.5c0,2.4,0.3,3.9,0.8,4.7c0.5,0.7,1.2,1.1,2.1,1.1
		c1,0,2.6-0.8,4.8-2.3l1.3,1.7c-4,3.6-6.2,5.5-6.5,5.7c-0.9,0.5-2,0.7-3,0.7c-1.5,0.1-3.1-0.4-4.3-1.4c-1.2-1.3-1.9-2.9-2-4.6
		c-2.3,1.9-4.9,3.6-7.6,5c-1.7,0.7-3.5,1-5.4,1c-2.8,0.1-5.6-0.9-7.6-2.9c-1.9-1.9-3-4.6-2.9-7.3c-0.1-3.4,1.4-6.6,4-8.7
		c1.6-1.2,3.2-2.2,5-3c5.5-2.7,10.3-4.8,14.4-6.5c-0.2-4-0.8-6.6-2-7.9s-3-1.9-5.5-1.9c-2.2,0-4.3,0.7-6,2.1
		C273.3,114.6,271.8,116.9,270.9,119.5z M288.7,124.2c-7.4,3.3-11.9,5.7-13.4,7.2c-2.9,2.9-3.1,7.4-0.6,10.5c1,1.2,2.5,1.9,4.1,1.9
		c1.9-0.1,3.7-0.6,5.2-1.6c1.6-0.8,2.9-2,3.7-3.6c0.6-1.3,0.9-3.8,0.9-7.3L288.7,124.2L288.7,124.2z"/>
	<path class="st0" d="M306,114.5V112c4.9-1.1,9.5-2.9,13.8-5.4l1.1,0.7c-0.4,2.5-0.6,4.9-0.7,7.4l5.4-5.4c0.9-0.8,2-1.4,3.2-1.9
		c1.7-0.6,3.4-0.9,5.2-0.9c4,0,7.1,1.3,9.2,4c1.4,1.8,2.1,4.9,2.1,9.2l-0.1,10.3c0,6.9,0.1,10.9,0.2,12.2c0.1,0.7,0.3,1.3,0.8,1.8
		c1.3,0.6,2.6,1.1,4,1.3l1.9,0.5v2.4c-3.4-0.3-6.3-0.5-8.9-0.5c-2.3,0-6.2,0.2-11.6,0.5v-2.4c3.3-1,5.2-1.6,5.6-2
		c0.5-0.4,0.7-1,0.8-1.7c0.4-4.3,0.5-8.6,0.5-12.9c0.1-3.7,0-7.5-0.4-11.2c-0.3-1.7-1.2-3.2-2.5-4.3c-1.3-1-2.9-1.6-4.6-1.5
		c-1.9,0.1-3.8,0.6-5.4,1.7c-1.7,1-3.1,2.6-4,4.4c-1,2.6-1.4,5.4-1.3,8.1c0,10.2,0.2,15.7,0.6,16.5s2.1,1.6,5,2.4
		c0.4,0.1,0.9,0.2,1.6,0.4v2.4c-3.8-0.3-7-0.5-9.6-0.5s-6.3,0.2-11.1,0.5v-2.4c3.3-0.8,5.2-1.4,5.7-1.7c0.4-0.5,0.6-1.1,0.6-1.8
		c0.4-3.7,0.5-7.3,0.5-11c0-9.6-0.1-14.8-0.3-15.6c-0.2-1.2-1.3-1.9-2.5-1.8c-1,0-2,0.1-2.9,0.3C307.3,114.3,306.7,114.4,306,114.5z
		"/>
	<path class="st0" d="M365.2,97.3h2.5l-1,10.8l11.8-0.1l0.3,0.7c-0.7,1.2-1.4,2.4-2,3.7c-3.3-0.1-6.7-0.2-10.1-0.3l-0.4,21.8v0.3
		c0,3.4,0.4,5.8,1.1,7.3s2.2,2.3,3.8,2.2c2.1-0.2,4.1-0.8,5.9-1.9l1.2,2.4c-2.2,1.5-4.6,2.7-7,3.8c-1.3,0.6-2.8,0.9-4.2,0.9
		c-1.7,0-3.4-0.5-4.8-1.5c-1.3-1-2.2-2.4-2.6-4c-0.3-1-0.4-3.9-0.4-8.8c0-5.3,0.2-12.8,0.5-22.5c-2,0.1-4.1,0.2-6.1,0.3v-2.3
		c2.3-1,4.4-2.5,6.2-4.4C362.1,103.2,363.9,100.4,365.2,97.3z"/>
	<path class="st0" d="M381.4,114v-2.4c4.7-1.2,9.2-3,13.4-5.4l1.1,0.9c-0.6,6-0.9,14.5-0.9,25.5c-0.1,3.2,0,6.3,0.4,9.5
		c0.1,0.7,0.4,1.3,0.9,1.7c1.4,0.7,2.9,1.3,4.4,1.6c0.3,0.1,0.8,0.2,1.4,0.4v2.4c-3.7-0.3-6.7-0.5-9.1-0.5c-1.4,0-5.3,0.2-11.6,0.5
		v-2.4c3.8-0.9,6-1.8,6.5-2.6s0.7-4.8,0.7-12.2v-9v-1.7c0-3.2-0.2-5.1-0.6-5.7c-0.4-0.7-1.2-1-2-1
		C385.2,113.6,383.8,113.8,381.4,114z M391.9,85.8c2.5,0,4.4,2,4.5,4.4l0,0c0,1.2-0.5,2.3-1.3,3.1c-1.7,1.7-4.5,1.8-6.2,0.1
		c0,0,0,0-0.1-0.1c-1.7-1.7-1.7-4.6,0-6.3C389.6,86.2,390.8,85.8,391.9,85.8z"/>
	<path class="st0" d="M438.2,120.9l-2.8-0.2c-0.1-3.6-1-6.2-2.7-7.9c-1.8-1.8-4.3-2.7-6.9-2.6c-2.1,0-4.2,0.6-6,1.7
		c-2.1,1.3-3.7,3.3-4.5,5.6c-1.1,2.8-1.7,5.8-1.6,8.8c0,5.3,1.3,9.4,3.9,12.3c2.6,3,5.5,4.4,8.9,4.4c3.5,0,7.8-1.4,12.8-4.2l1.6,2.6
		c-3.4,2.7-7.2,5-11.1,6.9c-1.6,0.7-3.4,1-5.2,0.9c-5,0-9-1.4-12-4.3c-4-3.8-6.1-9-6.1-15.5c0-6.8,2.1-12.3,6.4-16.7
		c4.1-4.3,9.8-6.7,15.7-6.5c4.3,0,8.5,1.1,12.3,3.3c-0.2,1-0.5,2.2-0.9,3.7C439.3,115.2,438.8,117.8,438.2,120.9z"/>
	<path class="st0" d="M451,119.5l-2.8-0.3c0.6-2.9,1-5.8,1.2-8.8c5.5-2.5,10.5-3.7,14.9-3.7c1.8,0,3.5,0.3,5.2,0.8
		c1.4,0.5,2.7,1.2,3.7,2.3c0.9,1,1.6,2.2,2,3.5c0.6,2.1,0.8,4.3,0.7,6.5l-0.4,17.5c0,2.4,0.3,3.9,0.8,4.7c0.5,0.7,1.3,1.1,2.1,1.1
		c1,0,2.6-0.8,4.8-2.3l1.3,1.7c-4,3.6-6.2,5.5-6.5,5.7c-0.9,0.5-2,0.7-3,0.7c-1.5,0.1-3.1-0.4-4.3-1.4c-1.2-1.3-1.9-2.9-2-4.6
		c-2.3,1.9-4.9,3.6-7.6,5c-1.7,0.7-3.5,1-5.4,1c-2.8,0.1-5.6-0.9-7.6-2.9c-1.9-1.9-3-4.6-2.9-7.3c0-1.7,0.3-3.4,1-4.9
		s1.7-2.8,2.9-3.8c1.6-1.2,3.2-2.2,5-3c5.5-2.7,10.3-4.8,14.4-6.5c-0.1-4-0.8-6.6-2-7.9s-3-1.9-5.5-1.9c-2.2,0-4.3,0.8-5.9,2.2
		C453.5,114.6,452,116.9,451,119.5z M468.8,124.2c-7.4,3.3-11.9,5.7-13.4,7.2c-2.9,2.9-3.1,7.4-0.6,10.5c1,1.2,2.5,1.9,4.1,1.9
		c1.9-0.1,3.7-0.6,5.2-1.6c1.6-0.8,2.9-2,3.7-3.6c0.6-1.3,0.9-3.8,0.9-7.3L468.8,124.2z"/>
	<path class="st0" d="M44.9,172.7v2.3c-0.9,0.2-1.6,0.4-2,0.4c-3.4,0.6-5.4,1.1-6,1.7s-0.8,1.7-0.8,3.5v1.4l-0.2,15.6l0.1,22.6
		c0,1.8,0.3,2.9,0.8,3.4s2.3,0.9,5.4,1.3c0.6,0.1,1.5,0.2,2.6,0.5v2.3c-4.1-0.3-8.1-0.4-12-0.4c-4,0-8.4,0.1-13.1,0.4v-2.3
		c0.6-0.2,1.1-0.3,1.7-0.4c3.7-0.6,5.8-1.1,6.3-1.6s0.8-1.8,0.8-3.8l-0.1-1.9l0.1-14.2c0-14.6,0-22.7-0.1-24.2c0-0.8-0.3-1.5-0.8-2
		s-2.4-1-5.8-1.7c-0.5-0.1-1.1-0.3-2-0.5v-2.3c5.6,0.3,10,0.4,13.1,0.4C36.5,173.1,40.5,173,44.9,172.7z"/>
	<path class="st0" d="M46.7,175v-2.3c3.3,0.3,5.8,0.4,7.7,0.4c1.5,0,4.2-0.1,8.1-0.4l11,13.7c1,1.2,8.8,10.6,23.3,28.2
		c0-3.6,0-6.2,0-7.9c0-3.8-0.1-10.9-0.3-21.1c0-2.6-0.1-5.2-0.4-7.8c-0.2-0.5-0.5-0.8-0.9-1.1s-2.2-0.8-5.4-1.4
		c-0.4-0.1-1-0.2-1.8-0.4v-2.3c4.6,0.3,8.3,0.4,11,0.4s6.4-0.1,10.9-0.4v2.3c-0.7,0.2-1.2,0.3-1.6,0.4c-2,0.3-3.9,0.8-5.8,1.4
		c-0.3,0.2-0.5,0.4-0.7,0.7c-0.3,0.7-0.5,1.5-0.5,2.3c0,0.5-0.1,4-0.2,10.5s-0.2,12.9-0.1,19c0,7.2,0.1,13.3,0.4,18.3l-2.5,1.2
		l-16.1-20l-21.2-25.6l0.2,22.9c0.1,10,0.3,15.3,0.4,16c0.1,0.5,0.3,0.9,0.7,1.2c0.6,0.5,2.5,1.1,5.8,1.6c0.4,0,1,0.2,1.7,0.3v2.3
		c-3.9-0.3-7.3-0.4-10-0.4c-2.3,0-6.2,0.1-11.9,0.4v-2.3l2-0.5c3.1-0.5,4.9-1.1,5.4-1.5c0.3-0.3,0.5-0.7,0.6-1.2
		c0.3-1.2,0.4-5.7,0.5-13.5c0.2-11,0.3-17.5,0.3-19.5c0.1-3.6,0-7.2-0.3-10.8c-0.1-0.6-0.5-1-1-1.3c-0.6-0.3-3-0.9-7.3-1.6
		C48.4,175.3,47.7,175.2,46.7,175z"/>
	<path class="st0" d="M115.7,187.8h-3c0.5-4.5,0.9-9.5,1.3-15.1c11.4,0.3,19.6,0.4,24.4,0.4c4,0,11.4-0.1,22.1-0.4
		c0.3,5.8,0.7,10.8,1.2,15.1h-2.9c-1.2-4.7-2-7.5-2.4-8.3c-0.3-0.7-0.9-1.4-1.6-1.7c-0.7-0.4-2.4-0.5-5.2-0.5H141
		c-0.2,6.9-0.3,15.3-0.3,25.4c0,9.4,0.1,15.7,0.3,19c0,0.6,0.2,1.2,0.6,1.6c0.4,0.4,2.6,0.9,6.4,1.7c0.4,0,0.9,0.2,1.6,0.3v2.3
		c-5.1-0.3-9.6-0.4-13.6-0.4c-3.8,0-7.7,0.1-11.6,0.4v-2.3c0.9-0.2,1.6-0.4,2-0.5c3.5-0.6,5.6-1.1,6.1-1.5c0.2-0.2,0.4-0.5,0.5-0.9
		s0.2-3.2,0.3-8.6c0.1-8.2,0.2-14.4,0.2-18.3c0-6.9-0.1-13-0.2-18.3h-9.2h-1.7c-1-0.1-2,0.1-2.9,0.5c-0.9,0.7-1.6,1.7-1.9,2.8
		C116.9,182.8,116.2,185.3,115.7,187.8z"/>
	<path class="st0" d="M180.7,196.9h9.4c2.1,0.1,4.3,0,6.4-0.3c0.6-0.2,1.2-0.6,1.6-1.2c0.7-1.6,1.2-3.4,1.5-5.1
		c0.1-0.3,0.2-0.7,0.4-1.3h2.6c-0.3,4.3-0.4,7.5-0.4,9.8s0.1,5.6,0.4,9.8H200c-0.7-3.7-1.2-5.8-1.4-6.3c-0.3-0.6-0.7-1.1-1.4-1.3
		c-0.6-0.3-2.6-0.4-5.8-0.4h-10.6l0.2,22.7h16.2h1.4c1.4,0.1,2.8,0,4.2-0.3c1-0.3,1.9-0.9,2.6-1.7c1.6-2.1,3-4.3,4.1-6.7l0.9-1.6
		h2.7c-0.3,0.8-1.9,5.7-4.8,14.5c-9.4-0.3-18-0.4-25.7-0.4c-5.4,0-11.4,0.1-17.9,0.4v-2.3l6.3-1.4c0.7-0.1,1.3-0.4,1.9-0.9
		c0.5-0.9,0.7-2,0.6-3.1v-0.7l0.2-9.1c0-1.8,0-5.2,0-10.3c0-7.5,0-12.9-0.1-16.4c0.1-2-0.1-4-0.4-5.9c-0.2-0.3-0.4-0.6-0.7-0.8
		c-1.2-0.4-2.4-0.8-3.6-1l-4.2-0.9v-2.3c4.8,0.3,10.6,0.4,17.4,0.4c3.7,0,12.5-0.1,26.3-0.4c0.1,4.4,0.4,8.8,0.9,13.2h-2.7
		c-0.6-2.4-1.5-4.7-2.5-7c-0.3-0.7-0.9-1.3-1.6-1.6c-1.8-0.4-3.8-0.6-5.6-0.5h-15.6l-0.3,12.4L180.7,196.9z"/>
	<path class="st0" d="M217.4,175v-2.3c6.8,0.3,12.3,0.4,16.4,0.4c2.4,0,4.6,0,6.6-0.1c2.7-0.1,4.6-0.2,5.7-0.2c5,0,8.8,1.2,11.4,3.6
		c2.6,2.5,4,6.1,3.8,9.7c0.1,2.5-0.5,5-1.7,7.3c-1.2,2.2-2.9,4-5,5.3s-4.4,2.2-6.7,2.8l12.9,16.8c0.9,1.3,1.9,2.5,3,3.7
		c0.8,0.6,1.6,1.1,2.5,1.4c2.4,0.8,4.8,1.5,7.3,2v2.3c-4.1-0.3-7-0.4-8.9-0.4c-2.2,0-4.4,0.1-6.6,0.4c-1.2-1.9-2.7-4.4-4.7-7.3
		c-2-2.9-3.2-4.7-3.6-5.2c-0.2-0.3-0.5-0.6-0.7-1l-8.5-11.7c-2.3,0-4.7-0.2-7-0.5l0.3,19.5c0,0.6,0.2,1.3,0.7,1.7
		c0.6,0.5,2.6,1.1,5.8,1.7c0.5,0.1,1.2,0.2,2.1,0.5v2.3c-4.7-0.3-8.8-0.4-12.3-0.4c-3.8,0-8.1,0.1-12.8,0.4v-2.3l1.7-0.3
		c3.7-0.7,5.8-1.3,6.3-1.7c0.6-0.7,0.9-1.5,0.9-2.4c0-0.7,0.1-7.4,0.2-19.9l-0.1-18.2c0-1.6,0-3.2-0.2-4.8c-0.1-0.4-0.4-0.7-0.8-0.9
		c-1.9-0.9-3.9-1.4-6-1.7L217.4,175z M233.6,198.7c2.1,0.2,4.1,0.4,6.2,0.4c4.7,0,8.1-1,10.4-3.1s3.4-5,3.4-8.7
		c0.1-2.9-0.9-5.7-3-7.7c-2-1.9-4.9-2.8-8.7-2.8c-1.4,0-4.1,0.1-8.1,0.5L233.6,198.7z"/>
	<path class="st0" d="M274.4,175v-2.3c6,0.3,12.6,0.4,19.9,0.4c7.6,0,15.9-0.1,25-0.4l0.9,14.5h-2.7c-0.6-2.7-1.4-5.3-2.4-7.9
		c-0.4-0.8-1-1.4-1.7-1.7c-1.7-0.5-3.5-0.6-5.3-0.5h-16.8c-0.2,3.4-0.3,10-0.4,19.7h10.7c1.3,0.1,2.7,0,4-0.4
		c0.6-0.3,1.2-0.8,1.5-1.4c0.6-1.5,1.1-3,1.3-4.6c0.1-0.4,0.2-1.1,0.4-1.9h2.6c-0.2,5.4-0.4,8.9-0.4,10.5c0,0.5,0.1,3.8,0.4,9.9
		h-2.6c-0.1-0.7-0.2-1.3-0.3-1.6c-0.5-3.3-1.1-5.3-1.8-5.9c-0.7-0.6-2.4-0.9-5.2-0.9h-10.6c0,2.6,0,4.3,0,5.2
		c0,10.3,0.1,15.8,0.2,16.6c0.1,0.5,0.4,0.9,0.9,1.2c0.6,0.4,3.5,1,8.8,1.8v2.3c-5.8-0.3-10-0.4-12.5-0.4l-13.5,0.4v-2.3
		c1-0.2,1.8-0.3,2.3-0.4c3.1-0.5,5-1,5.5-1.6s0.9-1.8,0.9-3.6l0.2-11c0-1.7,0-4.9,0-9.8c0-11.7-0.1-18.3-0.1-19.8
		c0-0.7-0.3-1.5-0.8-2c-0.6-0.5-2.6-1.1-6-1.7C276.1,175.3,275.4,175.2,274.4,175z"/>
	<path class="st0" d="M344.6,171.8h2.4c3.5,8.9,7.8,19.1,12.8,30.4l9,19.7c0.3,0.6,0.8,1.1,1.4,1.6c1.8,0.7,3.7,1.4,5.7,1.9v2.3
		c-4.7-0.3-8.1-0.4-10.4-0.4s-6.1,0.1-11.6,0.4v-2.3c3.1-0.6,4.9-1.2,5.5-1.5c0.5-0.3,0.8-0.8,0.8-1.4c-0.1-1-0.4-1.9-0.8-2.7
		l-3.9-9.4c-5.5-0.1-9.4-0.1-11.9-0.1l-10.6,0.1l-4.1,9.8c-0.5,0.9-0.8,1.9-1,2.9c0,0.3,0.2,0.7,0.5,0.8c1.5,0.5,3,0.9,4.5,1.2
		l1.2,0.3v2.3c-4.4-0.3-7.5-0.4-9.3-0.4c-2.3,0-5.2,0.1-8.8,0.4v-2.3c1.7-0.3,3.3-0.9,4.8-1.7c0.8-0.7,1.5-1.5,2-2.5
		c1.5-2.6,5.2-10.8,11.2-24.6L344.6,171.8z M334.4,206.3c3.6,0.1,6.1,0.2,7.7,0.2l11.9-0.2l-9.8-23.2L334.4,206.3z"/>
	<path class="st0" d="M427.8,218.2l1.6,2.9c-3.7,2.4-7.8,4.3-12,5.8c-3.8,1.2-7.8,1.9-11.8,1.9c-4.9,0.1-9.8-1.2-14.1-3.5
		c-4.1-2.3-7.5-5.8-9.6-10c-2.2-4.5-3.3-9.4-3.3-14.4c0-8.6,2.8-15.6,8.4-21.1s13-8.2,22.2-8.2c6.5,0.1,12.9,1.3,19,3.5
		c-0.1,2.3-0.1,4-0.1,5.1c0,3.5,0.2,6.9,0.6,10.4h-3.2c-1-4.5-2-7.6-3-9.3c-1.3-1.9-3.1-3.3-5.3-4.1c-2.9-1.1-5.9-1.6-9-1.5
		c-7.5,0-13.1,2.7-16.9,8c-2.9,4.1-4.4,9.4-4.4,15.6c0,7.5,2.1,13.4,6.2,17.7s9.6,6.5,16.3,6.4c2.8,0,5.7-0.4,8.4-1.1
		C421.3,221.2,424.6,219.8,427.8,218.2z"/>
	<path class="st0" d="M449.6,196.9h9.4c2.1,0.1,4.3,0,6.4-0.3c0.6-0.2,1.2-0.6,1.6-1.2c0.7-1.6,1.2-3.4,1.5-5.1
		c0.1-0.3,0.2-0.7,0.4-1.3h2.5c-0.3,4.3-0.4,7.5-0.4,9.8s0.1,5.6,0.4,9.8h-2.5c-0.7-3.7-1.2-5.8-1.4-6.3c-0.3-0.6-0.7-1.1-1.4-1.3
		c-0.6-0.3-2.6-0.4-5.8-0.4h-10.6l0.2,22.7H466h1.4c1.4,0.1,2.8,0,4.2-0.3c1-0.3,1.9-0.9,2.6-1.7c1.6-2.1,3-4.3,4.1-6.7l0.9-1.6h2.7
		c-0.3,0.8-1.9,5.7-4.8,14.5c-9.4-0.3-18-0.4-25.7-0.4c-5.4,0-11.4,0.1-17.9,0.4v-2.3l6.3-1.4c0.7-0.1,1.3-0.4,1.9-0.9
		c0.5-0.9,0.7-2,0.6-3.1v-0.7l0.2-9.1c0-1.8,0-5.2,0-10.3c0-7.5,0-12.9-0.1-16.4c0.1-2-0.1-4-0.4-5.9c-0.2-0.3-0.4-0.6-0.7-0.8
		c-1.2-0.4-2.4-0.8-3.6-1l-4.2-0.9v-2.3c4.8,0.3,10.6,0.4,17.4,0.4c3.7,0,12.5-0.1,26.3-0.4c0,4.4,0.4,8.8,0.9,13.2h-2.6
		c-0.6-2.4-1.5-4.7-2.5-7c-0.3-0.7-0.9-1.3-1.6-1.6c-1.8-0.4-3.8-0.6-5.6-0.5H450l-0.3,12.4L449.6,196.9z"/>
	<line class="st0" x1="0" y1="159.3" x2="502.6" y2="159.3"/>
	<rect y="156.8" class="st0" width="502.6" height="5"/>
	<path class="st0" d="M293.5,53.5L293.5,53.5l-0.1,0.1c-5.7-4.7-12.1-8.5-19-11.1L273,42c-0.5-0.2-1-0.3-1.4-0.5s-1-0.3-1.4-0.5
		s-1-0.3-1.5-0.4c-1.9-0.5-3.9-1-5.9-1.4s-4-0.6-6-0.8c-1.5-0.1-2.9-0.2-4.4-0.2c0,0-0.1,0-0.1,0.1v0.1l3.2,3.5
		c0.1,0.1-0.1,0.2-0.1,0.1l-4.2-3.8c0,0,0,0-0.1,0h-0.6c0,0,0,0-0.1,0l-4.2,3.8c-0.1,0.1-0.2,0-0.1-0.1l3.2-3.5v-0.1c0,0,0,0-0.1,0
		c-1.5,0-3,0.1-4.4,0.3c-2,0.2-4,0.5-6,0.8s-3.9,0.8-5.9,1.4c-1,0.3-1.9,0.6-2.9,0.9s-1.9,0.7-2.8,1c-3.8,1.4-7.4,3.2-10.8,5.3
		c-2.8,1.8-5.6,3.7-8.1,5.8c-0.1,0-0.1,0-0.1-0.1v-0.1c5.4-5.2,11.7-9.4,18.6-12.3c0.9-0.4,1.9-0.8,2.9-1.1l0.7-0.3l0.7-0.2
		c0.5-0.2,1-0.3,1.5-0.5c2-0.6,4-1.1,6-1.5s4.1-0.7,6.1-0.9c1.5-0.2,3.1-0.2,4.6-0.3c0,0,0.1,0,0.1-0.1v-0.1l-3.2-3.5
		c-0.1-0.1,0.1-0.2,0.1-0.1l4.2,3.8c0,0,0,0,0.1,0h0.6c0,0,0,0,0.1,0l4.2-3.8c0.1-0.1,0.2,0,0.1,0.1l-3.2,3.5v0.1c0,0,0,0,0.1,0
		c1.5,0,3.1,0.1,4.6,0.3c2,0.2,4.1,0.5,6.1,0.9s4,0.9,6,1.5l1.5,0.5c0.5,0.2,1,0.3,1.5,0.5s1,0.4,1.5,0.5s1,0.4,1.4,0.6
		C281.8,44.1,288.1,48.3,293.5,53.5z"/>
	<path class="st0" d="M208.2,54.4c-0.2,0-0.4-0.1-0.5-0.2c-0.3-0.3-0.3-0.7,0-1c5.4-5.3,11.8-9.5,18.8-12.4c0.9-0.4,1.9-0.8,2.9-1.1
		l0.7-0.3l0.8-0.2l0.4-0.2c0.3-0.1,0.7-0.2,1-0.3c2-0.6,4.1-1.1,6.2-1.5c1.9-0.4,3.9-0.7,6.2-0.9c1.2-0.1,2.4-0.2,3.5-0.2l-2.4-2.7
		c-0.2-0.3-0.1-0.8,0.3-1c0.2-0.1,0.5-0.1,0.7,0l4,3.6h0.2l4-3.6c0.3-0.2,0.8-0.1,1,0.3c0.1,0.2,0.1,0.5,0,0.7l-2.4,2.7
		c1.2,0.1,2.3,0.1,3.5,0.2c2.1,0.2,4.1,0.5,6.2,0.9c2,0.4,4.1,0.9,6.1,1.5l0.9,0.3l0.6,0.2c0.5,0.2,1,0.3,1.5,0.5s0.8,0.3,1.1,0.4
		l0.3,0.1c0.3,0.1,0.6,0.2,0.8,0.3l0.6,0.2l0,0c7,2.9,13.4,7.1,18.8,12.4l0,0c0.3,0.3,0.3,0.7,0,1s-0.7,0.3-1,0.1
		c-2.6-2.1-5.3-4-8.1-5.7c-3.4-2.1-7-3.8-10.8-5.3l-0.4-0.2l-1-0.4l-0.4-0.1c-0.3-0.1-0.7-0.2-1-0.3l0,0l-0.4-0.1l-1.1-0.3l0,0
		c-0.5-0.1-1-0.3-1.4-0.4c-2.1-0.6-4-1-5.8-1.3s-3.9-0.6-5.9-0.8c-1-0.1-2-0.2-3.1-0.2l2.3,2.6c0.3,0.3,0.3,0.7,0,1s-0.7,0.3-1,0
		l-4-3.7h-0.2l-4.1,3.7c-0.3,0.2-0.8,0.1-1-0.3c-0.1-0.2-0.1-0.5,0-0.7l2.3-2.6c-1,0-2.1,0.1-3.1,0.2c-1.9,0.2-3.9,0.4-5.9,0.8
		s-3.9,0.8-5.8,1.4c-1.1,0.3-2,0.6-2.9,0.9s-1.8,0.6-2.8,1c-3.7,1.4-7.3,3.2-10.7,5.3c-2.8,1.7-5.5,3.7-8.1,5.8
		C208.5,54.3,208.4,54.4,208.2,54.4z M271.7,40.9l1,0.3l0.4,0.2l1,0.4l0.4,0.2c1.1,0.4,2.2,0.9,3.3,1.4c-1.1-0.5-2.1-1-3.2-1.5
		l-0.6-0.2l-0.8-0.3l0,0l-0.3-0.1C272.5,41.2,272.2,41,271.7,40.9L271.7,40.9c-0.4-0.2-0.8-0.3-1.3-0.5l-0.6-0.2l-0.9-0.3
		c-1.9-0.6-3.9-1.1-5.9-1.5s-4-0.7-6.1-0.9c-1.5-0.1-3-0.2-4.6-0.3c-0.2,0-0.5-0.1-0.6-0.3l-0.1,0.1c-0.1,0.1-0.3,0.2-0.5,0.2h-0.6
		c-0.2,0-0.4-0.1-0.5-0.2l-0.1-0.1c-0.1,0.2-0.4,0.3-0.6,0.3c-1.5,0-3,0.1-4.6,0.3c-2.2,0.2-4.2,0.5-6,0.9c-2,0.4-4,0.9-5.9,1.5l0,0
		c-0.3,0.1-0.6,0.2-1,0.3l-0.5,0.2l-0.7,0.2l-0.7,0.3c-1,0.4-2,0.7-2.8,1.1s-1.8,0.8-2.6,1.2c0.9-0.4,1.8-0.8,2.7-1.1s2-0.7,2.9-1
		s1.8-0.6,2.9-0.9c2-0.6,4-1,5.9-1.4s4.1-0.7,6-0.8c1.5-0.2,3-0.2,4.4-0.3c0.3,0,0.5,0.1,0.6,0.3l0.2-0.2c0.1-0.1,0.3-0.2,0.5-0.2
		h0.6c0.2,0,0.4,0.1,0.5,0.2l0.2,0.2c0.1-0.2,0.4-0.3,0.6-0.3l0,0c1.6,0,3.1,0.1,4.4,0.3c2,0.2,4.1,0.5,6,0.8s3.8,0.8,5.9,1.4
		c0.5,0.1,1,0.3,1.5,0.4s0.7,0.2,1.1,0.3H271.7z"/>
	<path class="st0" d="M230.7,6.6V5.3c1.8-0.4,3.6-0.8,5.3-1.3c1.5-0.3,3-0.7,4.5-1.1c0.4,1.1,0.9,2.1,1.4,3.2
		c1.8,3.8,3.7,7.6,5.6,11.4c1.4,2.8,2.8,5.7,4.2,8.5c3-6.2,6-12.3,9.2-18.4c0.7-1.5,1.4-3,2-4.5c1.5,0.4,2.9,0.8,4.4,1.2
		s3.1,0.7,4.7,1.1v1.3l-1-0.2c-1.1-0.2-2.2-0.2-3.3,0c-0.4,0.2-0.5,0.9-0.5,2v0.3l-0.1,6.7c0,5.1-0.1,10.3,0.1,15.5
		c0,0.3,0.1,0.7,0.3,0.9c1.1,0.8,2.3,1.4,3.6,1.9l0.8,0.5v1.3c-4.4-1.7-9-2.7-13.7-2.9v-1.3c0.6-0.1,1-0.1,1.3-0.2c1,0,2-0.1,3-0.2
		c0.2-0.1,0.4-0.2,0.5-0.5c0.2-1.1,0.3-2.3,0.2-3.4V8.5c-3.2,5.7-6,11.6-8.8,17.5c-1,2-1.9,4-2.8,6.1h-1.2
		c-3.6-7.9-7.6-15.7-11.8-23.4c0.1,6.6,0.2,13.2,0.3,19.8c0,0.9-0.1,2.2,0.4,2.6c0.4,0.4,2.2,0.3,3.2,0.3c0.2,0,0.6,0,1,0.1v1.3
		c-2,0.1-4,0.4-6,0.8c-2,0.5-4,1.1-6,1.8V34c0.3-0.2,0.6-0.3,0.9-0.5c1.1-0.4,2.2-1,3.1-1.8c0.4-1,0.6-2,0.5-3
		c0-1.6,0.1-3.2,0.1-4.8c0.1-4.2,0.1-8.5,0.1-12.7c0-0.9,0-1.7,0-2.6c0.1-0.6,0-1.3-0.2-1.9c-0.1-0.2-0.4-0.4-0.6-0.4
		c-1.2-0.1-2.4,0-3.6,0.2C231.4,6.5,231.1,6.6,230.7,6.6z"/>
	<path class="st0" d="M272.5,36.4l-0.9-0.3c-2.1-0.8-4.3-1.5-6.6-2c-2.3-0.5-4.6-0.8-7-0.9h-0.6v-2.4l0.5-0.1c0.5-0.1,1-0.1,1.3-0.2
		s0.6,0,0.9,0c0.7,0,1.3-0.1,2-0.2c0,0,0,0,0.1,0l0,0c0.2-0.8,0.2-1.6,0.2-2.4c0-0.3,0-0.5,0-0.8V10.9c-2.5,4.6-4.8,9.4-7,14
		l-0.6,1.2c-0.9,1.8-1.9,3.9-2.8,6.1l-0.2,0.4h-2l-0.2-0.4c-3.1-6.7-6.5-13.7-10.5-21.1c0,2.4,0.1,4.8,0.1,7.3c0,3.3,0.1,6.6,0.1,10
		v0.5c0,0.6,0,1.1,0.2,1.7c0.6,0.1,1.3,0.2,1.9,0.2h0.9l1,0.1l0.6,0.1v2.4h-0.6c-4,0.2-8,1-11.8,2.5l-0.9,0.3v-2.5l0.3-0.2
		c0.4-0.3,0.7-0.4,0.9-0.5l0.7-0.3c0.8-0.3,1.5-0.8,2.2-1.3c0.3-0.7,0.4-1.5,0.4-2.3c0-0.1,0-0.3,0-0.4c0-0.8,0-1.6,0-2.4
		s0-1.6,0.1-2.4c0.1-3.8,0.1-8,0.1-12.7c0-0.4,0-0.9,0-1.3s0-0.9,0-1.3c0.1-0.5,0-1.1,0-1.6l0,0c0,0,0-0.1-0.1-0.1c-1,0-2,0-3,0.2
		H232c-0.4,0.1-0.8,0.1-1.2,0.1l-0.7,0.1V4.8l0.5-0.1l3.4-0.8l1.9-0.4c1.5-0.3,3-0.7,4.5-1.1l0.5-0.1l0.2,0.5c0.4,1,0.9,2.1,1.4,3.2
		c1.1,2.2,2.2,4.5,3.3,6.7l2.3,4.6c1.2,2.4,2.4,4.8,3.6,7.4c2.8-5.8,5.7-11.6,8.6-17.3c0.8-1.5,1.4-3.1,2-4.5l0.2-0.5l0.5,0.1
		l1.6,0.4c0.9,0.2,1.9,0.5,2.8,0.7l2.4,0.6l2.3,0.5l0.5,0.1v2.4H272l-1-0.1L270.3,7c-0.8-0.1-1.5-0.1-2.3,0
		c-0.2,0.5-0.3,0.9-0.2,1.4v0.3l-0.1,6.7V19c0,3.9,0,8,0.1,11.9c0,0.2,0,0.3,0.1,0.5c0.7,0.6,1.5,1,2.3,1.3l1.1,0.5l0.9,0.5l0.3,0.2
		L272.5,36.4z M258.8,32c2.2,0.1,4.4,0.4,6.6,0.9c2,0.4,3.9,1,5.8,1.7l-0.4-0.2c-0.3-0.2-0.7-0.3-1-0.5c-1-0.4-1.9-0.9-2.7-1.5
		c-0.3-0.4-0.5-0.9-0.5-1.4c-0.1-4-0.1-8-0.1-12v-3.5l0.1-6.7V8.5c0-1.4,0.3-2.2,0.9-2.6h0.1h0.1c1-0.2,1.9-0.2,2.9,0l0.6,0.1h0.2
		V5.8l-1.9-0.4c-0.8-0.2-1.6-0.4-2.4-0.6s-1.9-0.5-2.8-0.7l-1-0.3c-0.5,1.3-1.1,2.7-1.8,4.1c-3.1,6-6.2,12.2-9.2,18.4l-0.6,1.2
		l-0.6-1.1c-1.5-3-2.9-5.8-4.2-8.5c-0.8-1.5-1.5-3.1-2.3-4.6c-1.1-2.2-2.2-4.5-3.3-6.8c-0.4-0.9-0.8-1.8-1.2-2.7
		c-1.3,0.3-2.7,0.7-4,1l-1.9,0.4l-2.9,0.7V6h0.3h0.1h0.4c1.1-0.2,2.3-0.3,3.4-0.3l0,0c0.5,0.1,0.8,0.3,1.1,0.7
		c0.3,0.7,0.4,1.5,0.3,2.2c0,0.4,0,0.9,0,1.3s0,0.9,0,1.3c0,4.8,0,8.9-0.1,12.8c0,0.8,0,1.6-0.1,2.4s0,1.6-0.1,2.4
		c0,0.1,0,0.3,0,0.4c0.1,1-0.1,2.1-0.6,3v0.1h-0.1c-0.8,0.7-1.7,1.2-2.6,1.6l-0.6,0.3l0,0c-0.1,0-0.3,0.1-0.5,0.2
		c3.4-1.3,7-2,10.6-2.2V32h-0.4h-0.9c-1.3,0-2.2,0-2.8-0.5c-0.5-0.5-0.6-1.6-0.6-2.7v-0.5c0-3.3-0.1-6.6-0.1-10s-0.1-6.6-0.1-9.8
		V6.1l1.2,2.3c4.4,8.2,8.2,15.7,11.6,23h0.4c0.9-2,1.8-4,2.6-5.7l0.6-1.2c2.6-5.4,5.3-11,8.2-16.3l1.1-2.1v21c0,0.3,0,0.5,0,0.8
		c0.1,0.9,0,1.9-0.2,2.8c-0.1,0.4-0.5,0.8-0.9,0.9c-0.8,0.2-1.5,0.3-2.3,0.2c-0.3,0-0.5,0-0.8,0L258.8,32L258.8,32z"/>
</g>
</svg>
