<svg id="Capa_1" data-name="Capa 1" xmlns="http://www.w3.org/2000/svg" viewBox="0 0 764 137.47"><defs><style>.cls-1{fill:#a9d046;}.cls-2{fill:#fff;}</style></defs><path class="cls-1" d="M161.08,18.4a8.86,8.86,0,0,1,2.54,6.72v64a6.79,6.79,0,0,1-2.23,5.09,8.25,8.25,0,0,1-5.91,2.14,7.66,7.66,0,0,1-5.8-2.24,7.81,7.81,0,0,1-2.14-5.6V37.23Q111.32,55.65,33.75,94.64a13.83,13.83,0,0,1-5.9,1.73q-3.87,0-6-3.87a8.74,8.74,0,0,1-1.22-4.38c0-3.25,1.29-5.53,3.87-6.82L151.11,17.18a9.2,9.2,0,0,1,4.17-.92A8.08,8.08,0,0,1,161.08,18.4Z" transform="translate(-18 -16.26)"/><path class="cls-1" d="M183.67,16.47a8.23,8.23,0,0,1,6.26,2.29,8.13,8.13,0,0,1,2.19,5.85V73.06A8.22,8.22,0,0,0,194,77.74q2.25,2.66,7.54,2.65H309.17a8.06,8.06,0,0,1,5.75,2.14,7.65,7.65,0,0,1,2.29,5.9q0,8-7.83,8H203.32a37.4,37.4,0,0,1-12.11-1.63,23.22,23.22,0,0,1-9.67-6.92,21.1,21.1,0,0,1-4.69-9.06,45.27,45.27,0,0,1-.91-10.38V24.81Q175.94,16.47,183.67,16.47Z" transform="translate(-18 -16.26)"/><path class="cls-1" d="M470.6,23.9a7.5,7.5,0,0,1-2.09,5.8,7.42,7.42,0,0,1-5.65,2.44h-95a24.31,24.31,0,0,0-14.55,4.61,22.91,22.91,0,0,0-8.76,12H463a7.48,7.48,0,0,1,7.63,7.64v.4A7.65,7.65,0,0,1,463,64.41H344.9a24.12,24.12,0,0,0,8.9,11.38,23.66,23.66,0,0,0,13.9,4.39h95.16a7.33,7.33,0,0,1,5.5,2.35,8.3,8.3,0,0,1,0,11.34,7.23,7.23,0,0,1-5.5,2.4H367.39a37.9,37.9,0,0,1-28-11.76,38.79,38.79,0,0,1-11.6-28.24A38.49,38.49,0,0,1,339.55,28,38.75,38.75,0,0,1,367.9,16.26h95a7.45,7.45,0,0,1,5.4,2.19A7.69,7.69,0,0,1,470.6,23.9Z" transform="translate(-18 -16.26)"/><path class="cls-1" d="M623.48,20.74a9.51,9.51,0,0,1,1,4.27,6.47,6.47,0,0,1-3.66,6.3l-50,25.11L620,81.12c3.18,1.63,4.78,3.9,4.78,6.81A9.29,9.29,0,0,1,623.17,93a7.85,7.85,0,0,1-6.92,3.66,9.46,9.46,0,0,1-4.28-1L552.53,65.53,492.68,95.85a6.71,6.71,0,0,1-3.25.82q-5.1,0-7.33-4.9a8.79,8.79,0,0,1-.81-3.57q0-4.49,5.59-7.34l47.84-24.39L486.48,32.39a8.43,8.43,0,0,1-5-8.17,7.2,7.2,0,0,1,1.42-4.38,7.83,7.83,0,0,1,6.52-3.37,8.44,8.44,0,0,1,4,1l59.34,29.72q16-8,59.13-29.73a9.55,9.55,0,0,1,4.28-1A7.66,7.66,0,0,1,623.48,20.74Z" transform="translate(-18 -16.26)"/><path class="cls-1" d="M643.63,16.26a9.2,9.2,0,0,1,4.17.92L774.42,81.3c2.58,1.29,3.87,3.57,3.87,6.82a8.65,8.65,0,0,1-1.23,4.38q-2.13,3.87-6,3.87a13.76,13.76,0,0,1-5.9-1.73q-77.56-39-113.8-57.41v51.3a7.8,7.8,0,0,1-2.13,5.6,7.67,7.67,0,0,1-5.81,2.24,8.21,8.21,0,0,1-5.9-2.14,6.8,6.8,0,0,1-2.24-5.09v-64a8.87,8.87,0,0,1,2.55-6.72A8.06,8.06,0,0,1,643.63,16.26Z" transform="translate(-18 -16.26)"/><path class="cls-2" d="M25.81,118.59v31.49a3.06,3.06,0,0,1-1.16,2.43,4,4,0,0,1-2.67,1,4.32,4.32,0,0,1-2.8-.95,2.94,2.94,0,0,1-1.18-2.4V118a4,4,0,0,1,1-2.75,3.53,3.53,0,0,1,2.82-1.11Q25.82,114.13,25.81,118.59Z" transform="translate(-18 -16.26)"/><path class="cls-2" d="M38.22,114.88q55.92,28,55.92,28.14V117.74a3.39,3.39,0,0,1,1.26-2.68,3.94,3.94,0,0,1,2.9-1,3.83,3.83,0,0,1,2.73,1.31,4.11,4.11,0,0,1,1.07,2.85v30c0,1.53,0,2.4,0,2.6a3.14,3.14,0,0,1-1.22,2.13,3.75,3.75,0,0,1-2.28.77,5.06,5.06,0,0,1-2.25-.6L39.58,124.35v25a4.08,4.08,0,0,1-1,2.85,3.63,3.63,0,0,1-2.81,1.15q-3.86,0-3.85-4.2v-31a3.91,3.91,0,0,1,1.9-3.6,3.45,3.45,0,0,1,1.75-.5A6.32,6.32,0,0,1,38.22,114.88Z" transform="translate(-18 -16.26)"/><path class="cls-2" d="M177.65,117.89a4,4,0,0,1-1.1,2.78,3.59,3.59,0,0,1-2.71,1.17H120.68a6,6,0,0,0-3.41,1,3.6,3.6,0,0,0-1.5,3.06,4.12,4.12,0,0,0,1.18,2.88,3.65,3.65,0,0,0,2.78,1.27h46.75a11.6,11.6,0,0,1,8.49,3.51,11.08,11.08,0,0,1,3.43,8.41,11.71,11.71,0,0,1-11.72,11.46h-54a3.49,3.49,0,0,1-2.68-1.17,4,4,0,0,1-1.08-2.78,3.7,3.7,0,0,1,1.25-2.81,4.27,4.27,0,0,1,3-1.15H167a3.12,3.12,0,0,0,2.56-1.25,4,4,0,0,0,.9-2.85,4.17,4.17,0,0,0-1.08-2.58,3.08,3.08,0,0,0-2.38-1.08h-47.1a11.46,11.46,0,0,1-7.66-3.15,10.69,10.69,0,0,1-4.06-8.36,12.15,12.15,0,0,1,3.31-8.64,11.25,11.25,0,0,1,8.61-3.53h53.76a3.66,3.66,0,0,1,2.71,1.13A3.77,3.77,0,0,1,177.65,117.89Z" transform="translate(-18 -16.26)"/><path class="cls-2" d="M249.89,114a3.58,3.58,0,0,1,2.7,1.16,4,4,0,0,1,0,5.5,3.57,3.57,0,0,1-2.7,1.15H222.4v27.44a4.09,4.09,0,0,1-1.1,2.85,3.73,3.73,0,0,1-2.73,1.25,3.66,3.66,0,0,1-2.79-1.1,3.7,3.7,0,0,1-1.19-2.75V121.84H186.81a3,3,0,0,1-2.4-1.17,4.2,4.2,0,0,1-.95-2.73,4,4,0,0,1,1-2.75A3.17,3.17,0,0,1,187,114Z" transform="translate(-18 -16.26)"/><path class="cls-2" d="M317.47,114a11.12,11.12,0,0,1,8.26,3.48,11.57,11.57,0,0,1,3.41,8.39,11.79,11.79,0,0,1-3.28,8.31,10.58,10.58,0,0,1-8,3.5h-6.61l15.92,8.11a3.47,3.47,0,0,1,2,3.36,4.06,4.06,0,0,1-.4,1.7l-.26.55a3.34,3.34,0,0,1-3.3,2,3.82,3.82,0,0,1-1.75-.4l-30.09-15.37H266.61v11.84a3.83,3.83,0,0,1-1.13,2.77,3.79,3.79,0,0,1-5.45,0,3.78,3.78,0,0,1-1.13-2.76V118.45a4.31,4.31,0,0,1,1.5-3.51,6,6,0,0,1,3.75-.91Zm-.15,7.81H266.61V130h50.71a3.58,3.58,0,0,0,2.8-1.3,4,4,0,0,0,1.06-3,4.13,4.13,0,0,0-1.21-2.76A3.61,3.61,0,0,0,317.32,121.84Z" transform="translate(-18 -16.26)"/><path class="cls-2" d="M342,117.49v24.33a3.58,3.58,0,0,0,1.25,2.8,4.37,4.37,0,0,0,2.91.85h43.75c2,0,3.44-.43,4.21-1.3a4,4,0,0,0,.9-1.85c0-.3.05-1,.05-2.15V117.44a3,3,0,0,1,1.25-2.56,4.26,4.26,0,0,1,2.9-.85q3.81.21,3.81,3.51v24a11.45,11.45,0,0,1-3.11,8.06,11.82,11.82,0,0,1-9.11,3.8H345.66a10.94,10.94,0,0,1-8.21-3.7,11.39,11.39,0,0,1-3.16-8.11V117.44a3.08,3.08,0,0,1,1.15-2.43,4,4,0,0,1,2.66-1,4.06,4.06,0,0,1,2.72,1A3.07,3.07,0,0,1,342,117.49Z" transform="translate(-18 -16.26)"/><path class="cls-2" d="M476.82,115a4,4,0,0,1,1.7,3.5v31.58a3.35,3.35,0,0,1-1.23,2.66,4.13,4.13,0,0,1-5.58-.17,3.62,3.62,0,0,1-1.15-2.68V124.75L446.23,137a12.65,12.65,0,0,1-3,1.35,9.88,9.88,0,0,1-2.91-1.3L416,124.7v25.08a3.93,3.93,0,0,1-3.95,3.95,3.92,3.92,0,0,1-2.63-.95,3,3,0,0,1-1.13-2.35V119.19a4.91,4.91,0,0,1,1.46-4,3.14,3.14,0,0,1,2.1-.76,9.1,9.1,0,0,1,3.7,1.21l25.33,12.71a8.53,8.53,0,0,0,2.46,1.1,10.58,10.58,0,0,0,2.4-1.1l26.63-13.56a4.82,4.82,0,0,1,2.16-.56A4,4,0,0,1,476.82,115Z" transform="translate(-18 -16.26)"/><path class="cls-2" d="M554.77,117.79a3.71,3.71,0,0,1-1,2.85,3.66,3.66,0,0,1-2.78,1.2H504.25a12,12,0,0,0-7.16,2.27,11.31,11.31,0,0,0-4.3,5.89H551a3.69,3.69,0,0,1,3.76,3.76v.2a3.77,3.77,0,0,1-3.76,3.75H492.94a11.87,11.87,0,0,0,4.38,5.6,11.62,11.62,0,0,0,6.83,2.16H551a3.6,3.6,0,0,1,2.7,1.15,4.07,4.07,0,0,1,0,5.59,3.55,3.55,0,0,1-2.7,1.17H504a18.64,18.64,0,0,1-13.76-5.78,19.7,19.7,0,0,1,14-33.57H551a3.63,3.63,0,0,1,2.65,1.08A3.78,3.78,0,0,1,554.77,117.79Z" transform="translate(-18 -16.26)"/><path class="cls-2" d="M566.38,114.88q55.92,28,55.92,28.14V117.74a3.41,3.41,0,0,1,1.25-2.68,4,4,0,0,1,2.91-1,3.79,3.79,0,0,1,2.72,1.31,4.12,4.12,0,0,1,1.08,2.85v30c0,1.53,0,2.4,0,2.6A3.11,3.11,0,0,1,629,153a3.71,3.71,0,0,1-2.27.77,5.06,5.06,0,0,1-2.26-.6l-56.72-28.78v25a4.08,4.08,0,0,1-1.05,2.85,3.59,3.59,0,0,1-2.8,1.15q-3.86,0-3.86-4.2v-31a3.91,3.91,0,0,1,1.91-3.6,3.42,3.42,0,0,1,1.75-.5A6.4,6.4,0,0,1,566.38,114.88Z" transform="translate(-18 -16.26)"/><path class="cls-2" d="M702.75,114a3.58,3.58,0,0,1,2.7,1.16,4,4,0,0,1,0,5.5,3.56,3.56,0,0,1-2.69,1.15H675.27v27.44a4.06,4.06,0,0,1-1.11,2.85,3.72,3.72,0,0,1-2.72,1.25,3.89,3.89,0,0,1-4-3.85V121.84H639.67a3,3,0,0,1-2.4-1.17,4.2,4.2,0,0,1-.95-2.73,4,4,0,0,1,1-2.75,3.18,3.18,0,0,1,2.5-1.16Z" transform="translate(-18 -16.26)"/><path class="cls-2" d="M781.25,117.89a4,4,0,0,1-1.1,2.78,3.59,3.59,0,0,1-2.71,1.17H724.28a6,6,0,0,0-3.41,1,3.6,3.6,0,0,0-1.5,3.06,4.12,4.12,0,0,0,1.18,2.88,3.65,3.65,0,0,0,2.78,1.27h46.75a11.6,11.6,0,0,1,8.49,3.51,11.12,11.12,0,0,1,3.43,8.41,11.71,11.71,0,0,1-11.72,11.46h-54a3.48,3.48,0,0,1-2.68-1.17,4,4,0,0,1-1.08-2.78,3.7,3.7,0,0,1,1.25-2.81,4.27,4.27,0,0,1,3-1.15h53.86a3.12,3.12,0,0,0,2.56-1.25,4.07,4.07,0,0,0,.9-2.85,4.17,4.17,0,0,0-1.08-2.58,3.08,3.08,0,0,0-2.38-1.08h-47.1a11.51,11.51,0,0,1-7.67-3.15,10.71,10.71,0,0,1-4-8.36,12.19,12.19,0,0,1,3.3-8.64,11.29,11.29,0,0,1,8.62-3.53h53.76a3.66,3.66,0,0,1,2.71,1.13A3.77,3.77,0,0,1,781.25,117.89Z" transform="translate(-18 -16.26)"/></svg>