<?xml version="1.0" encoding="utf-8"?>
<!-- Generator: Adobe Illustrator 26.0.0, SVG Export Plug-In . SVG Version: 6.00 Build 0)  -->
<svg version="1.1" id="Capa_1" xmlns="http://www.w3.org/2000/svg" xmlns:xlink="http://www.w3.org/1999/xlink" x="0px" y="0px"
	 viewBox="0 0 80 80" style="enable-background:new 0 0 80 80;" xml:space="preserve">
<style type="text/css">
	.st0{fill:#A9D046;}
</style>
<circle cx="40" cy="40" r="38.9"/>
<g>
	<path class="st0" d="M38.7,29c0.4,0.4,0.6,0.9,0.6,1.5v14.1c0,0.4-0.2,0.8-0.5,1.1c-0.4,0.3-0.8,0.5-1.3,0.5
		c-0.5,0-0.9-0.2-1.3-0.5c-0.3-0.3-0.5-0.8-0.5-1.2V33.1C30.4,35.8,22,40,10.6,45.8c-0.4,0.2-0.8,0.4-1.3,0.4c-0.6,0-1-0.3-1.3-0.9
		c-0.2-0.3-0.3-0.6-0.3-1c0-0.7,0.3-1.2,0.9-1.5l27.9-14.1c0.3-0.1,0.6-0.2,0.9-0.2C37.9,28.5,38.4,28.6,38.7,29z"/>
	<path class="st0" d="M42.5,28.5c0.3,0,0.6,0.1,0.9,0.2l27.9,14.1c0.6,0.3,0.9,0.8,0.9,1.5c0,0.3-0.1,0.7-0.3,1
		c-0.3,0.6-0.8,0.9-1.3,0.9c-0.5,0-0.9-0.2-1.3-0.4C58,40,49.6,35.8,44.3,33.1v11.3c0,0.5-0.2,0.9-0.5,1.2c-0.3,0.3-0.8,0.5-1.3,0.5
		c-0.5,0-0.9-0.1-1.3-0.5c-0.3-0.3-0.5-0.7-0.5-1.1V30.4c0-0.6,0.2-1.1,0.6-1.5C41.6,28.6,42.1,28.5,42.5,28.5z"/>
</g>
</svg>
