<?xml version="1.0" encoding="utf-8"?>
<!-- Generator: Adobe Illustrator 26.0.0, SVG Export Plug-In . SVG Version: 6.00 Build 0)  -->
<svg version="1.1" id="Capa_1" xmlns="http://www.w3.org/2000/svg" xmlns:xlink="http://www.w3.org/1999/xlink" x="0px" y="0px"
	 viewBox="0 0 80 80" style="enable-background:new 0 0 80 80;" xml:space="preserve">
<style type="text/css">
	.st0{fill:#052700;}
</style>
<path class="st0" d="M40,4.4c-9.7,0-10.9,0-14.7,0.2c-3.8,0.2-6.4,0.8-8.6,1.7c-2.3,0.9-4.3,2.1-6.3,4.1c-2,2-3.2,4-4.1,6.3
	c-0.9,2.3-1.5,4.8-1.7,8.6c-0.2,3.8-0.2,5-0.2,14.7c0,9.7,0,10.9,0.2,14.7c0.2,3.8,0.8,6.4,1.7,8.6c0.9,2.3,2.1,4.3,4.1,6.3
	c2,2,4,3.2,6.3,4.1c2.3,0.9,4.9,1.5,8.6,1.7c3.8,0.2,5,0.2,14.7,0.2c9.7,0,10.9,0,14.7-0.2c3.8-0.2,6.4-0.8,8.6-1.7
	c2.3-0.9,4.3-2.1,6.3-4.1c2-2,3.2-4,4.1-6.3c0.9-2.3,1.5-4.8,1.7-8.6c0.2-3.8,0.2-5,0.2-14.7c0-9.7,0-10.9-0.2-14.7
	c-0.2-3.8-0.8-6.4-1.7-8.6c-0.9-2.3-2.1-4.3-4.1-6.3c-2-2-4-3.2-6.3-4.1c-2.3-0.9-4.9-1.5-8.6-1.7C50.9,4.5,49.7,4.4,40,4.4L40,4.4z
	 M36.8,10.8c0.9,0,2,0,3.2,0c9.5,0,10.6,0,14.4,0.2c3.5,0.2,5.4,0.7,6.6,1.2c1.7,0.6,2.8,1.4,4.1,2.7c1.2,1.2,2,2.4,2.7,4.1
	c0.5,1.3,1.1,3.1,1.2,6.6c0.2,3.7,0.2,4.9,0.2,14.4c0,9.5,0,10.6-0.2,14.4c-0.2,3.5-0.7,5.3-1.2,6.6c-0.6,1.7-1.4,2.8-2.7,4.1
	c-1.2,1.2-2.4,2-4.1,2.7c-1.3,0.5-3.1,1.1-6.6,1.2c-3.8,0.2-4.9,0.2-14.4,0.2c-9.5,0-10.6,0-14.4-0.2c-3.5-0.2-5.4-0.7-6.6-1.2
	c-1.7-0.6-2.8-1.4-4.1-2.7c-1.2-1.2-2-2.4-2.7-4.1c-0.5-1.3-1.1-3.1-1.2-6.6c-0.2-3.7-0.2-4.9-0.2-14.4c0-9.5,0-10.6,0.2-14.4
	c0.2-3.5,0.7-5.3,1.2-6.6c0.6-1.7,1.4-2.8,2.7-4.1c1.2-1.2,2.4-2,4.1-2.7c1.3-0.5,3.1-1.1,6.6-1.2C28.9,10.9,30.2,10.8,36.8,10.8
	L36.8,10.8z M59,16.8c-2.4,0-4.3,1.9-4.3,4.3c0,2.4,1.9,4.3,4.3,4.3c2.4,0,4.3-1.9,4.3-4.3C63.3,18.7,61.4,16.8,59,16.8L59,16.8z
	 M40,21.7c-10.1,0-18.3,8.2-18.3,18.3S29.9,58.3,40,58.3S58.3,50.1,58.3,40S50.1,21.7,40,21.7L40,21.7z M40,28.1
	c6.6,0,11.9,5.3,11.9,11.9c0,6.5-5.3,11.9-11.9,11.9c-6.6,0-11.9-5.3-11.9-11.9C28.1,33.5,33.5,28.1,40,28.1L40,28.1z"/>
</svg>
