<?xml version="1.0" encoding="utf-8"?>
<!-- Generator: Adobe Illustrator 26.0.0, SVG Export Plug-In . SVG Version: 6.00 Build 0)  -->
<svg version="1.1" id="Capa_1" xmlns="http://www.w3.org/2000/svg" xmlns:xlink="http://www.w3.org/1999/xlink" x="0px" y="0px"
	 viewBox="0 0 80 80" style="enable-background:new 0 0 80 80;" xml:space="preserve">
<style type="text/css">
	.st0{fill:none;stroke:#A9D045;stroke-width:8;stroke-miterlimit:10;}
</style>
<g>
	<path class="st0" d="M66.1,23.2H13.9c-3.8,0-6.9-3.1-6.9-6.9v0c0-3.8,3.1-6.9,6.9-6.9h52.2c3.8,0,6.9,3.1,6.9,6.9v0
		C73,20.2,69.9,23.2,66.1,23.2z"/>
	<path class="st0" d="M66.1,46.9H13.9C10.1,46.9,7,43.8,7,40v0c0-3.8,3.1-6.9,6.9-6.9h52.2c3.8,0,6.9,3.1,6.9,6.9v0
		C73,43.8,69.9,46.9,66.1,46.9z"/>
	<path class="st0" d="M66.1,70.5H13.9c-3.8,0-6.9-3.1-6.9-6.9v0c0-3.8,3.1-6.9,6.9-6.9h52.2c3.8,0,6.9,3.1,6.9,6.9v0
		C73,67.4,69.9,70.5,66.1,70.5z"/>
</g>
</svg>
