<?xml version="1.0" encoding="utf-8"?>
<!-- Generator: Adobe Illustrator 26.0.0, SVG Export Plug-In . SVG Version: 6.00 Build 0)  -->
<svg version="1.1" id="Capa_1" xmlns="http://www.w3.org/2000/svg" xmlns:xlink="http://www.w3.org/1999/xlink" x="0px" y="0px"
	 viewBox="0 0 80 80" style="enable-background:new 0 0 80 80;" xml:space="preserve">
<g>
	<path d="M47.6,35.1c9.4,12.4,18.7,24.7,28.1,37.1c-0.1,0-0.2,0-0.2,0c-0.1,0-0.2,0-0.2,0c-7,0-14.1,0-21.1,0
		c-0.3,0-0.5-0.1-0.7-0.3c-1.5-2-3.1-4.1-4.6-6.1c-1.1-1.4-2.2-2.9-3.3-4.3c-1-1.3-2-2.6-3-4c-1.2-1.5-2.3-3-3.5-4.5
		c-0.8-1-1.6-2-2.3-3.1c-0.1-0.1-0.1-0.1-0.2-0.3c-0.2,0.2-0.4,0.5-0.6,0.7c-1.7,1.9-3.3,3.8-5,5.7c-1.5,1.7-2.9,3.3-4.4,5
		c-2,2.3-4,4.6-6,6.9c-1.2,1.3-2.3,2.7-3.5,4c-0.1,0.1-0.2,0.2-0.3,0.1c-0.1,0-0.1,0-0.2,0c-3.4,0-6.7,0-10.1,0c-0.1,0-0.3,0-0.4,0
		c0,0,0,0,0-0.1c8.5-9.7,17-19.4,25.5-29.1c-9-11.7-17.9-23.4-26.9-35.2c0.1,0,0.2,0,0.2,0c0.1,0,0.1,0,0.2,0c7.2,0,14.4,0,21.7,0
		c0.3,0,0.5,0.1,0.7,0.4c1.6,2.1,3.2,4.2,4.7,6.3c2,2.6,4,5.3,6,7.9c1.5,2,3,3.9,4.4,5.9c0,0,0.1,0.1,0.1,0.2
		c0.2-0.2,0.4-0.4,0.6-0.7c1.8-2.1,3.7-4.2,5.5-6.3c1.5-1.7,3-3.5,4.6-5.2c1.5-1.7,3-3.4,4.4-5c0.9-1,1.8-2.1,2.7-3.1
		c0.1-0.1,0.3-0.2,0.5-0.2c1,0,2,0,3.1,0c2.4,0,4.8,0,7.1,0c0.1,0,0.2,0,0.3,0c0,0,0,0,0,0.1C63.5,16.9,55.5,26,47.6,35.1z M17.2,14
		c0.1,0.2,0.2,0.3,0.3,0.4c1.4,1.8,2.7,3.5,4.1,5.3c1.4,1.8,2.8,3.7,4.2,5.5c1.5,1.9,3,3.9,4.4,5.8c1.5,2,3.1,4,4.6,6.1
		c1.5,2,3,3.9,4.5,5.9c1.2,1.6,2.5,3.2,3.7,4.8c1.1,1.5,2.2,2.9,3.4,4.4c1.2,1.5,2.3,3.1,3.5,4.6c1.1,1.4,2.1,2.8,3.2,4.2
		c1.1,1.5,2.2,2.9,3.4,4.4c0.1,0.1,0.2,0.2,0.4,0.2c1.8,0,3.7,0,5.5,0c0.1,0,0.1,0,0.2,0c-0.1-0.1-0.1-0.1-0.1-0.2
		c-0.8-1.1-1.6-2.1-2.4-3.2c-1.8-2.4-3.6-4.8-5.4-7.2c-1.8-2.4-3.6-4.7-5.4-7.1c-1.3-1.8-2.7-3.6-4-5.3c-1.2-1.6-2.5-3.2-3.7-4.9
		c-1.5-1.9-2.9-3.9-4.4-5.8c-1.2-1.6-2.4-3.2-3.6-4.8c-1-1.3-2-2.6-2.9-3.9c-1.2-1.6-2.4-3.2-3.6-4.8c-1-1.4-2.1-2.7-3.1-4.1
		c-0.2-0.2-0.3-0.3-0.6-0.3c-1.9,0-3.8,0-5.7,0C17.5,14,17.4,14,17.2,14z"/>
</g>
</svg>
