<?xml version="1.0" encoding="utf-8"?>
<!-- Generator: Adobe Illustrator 26.0.0, SVG Export Plug-In . SVG Version: 6.00 Build 0)  -->
<svg version="1.1" id="Capa_1" xmlns="http://www.w3.org/2000/svg" xmlns:xlink="http://www.w3.org/1999/xlink" x="0px" y="0px"
	 viewBox="0 0 80 80" style="enable-background:new 0 0 80 80;" xml:space="preserve">
<path d="M41.1,14.1c6.3,0.2,12.5,0.4,18.8,0.6c2.7,0.1,5.3,0.3,8,0.8c4.3,0.7,7,3.5,7.9,7.8c0.8,4,1.2,8.1,1.3,12.2
	c0.1,3.8,0,7.6-0.1,11.4c-0.1,3.5-0.6,7.1-1.3,10.6c-0.8,3.6-3.8,6.5-7.7,7c-3.1,0.4-6.2,0.7-9.4,0.9C50.1,66,41.8,66,33.5,65.8
	c-4.9-0.1-9.8-0.3-14.7-0.6c-2.3-0.1-4.7-0.4-7-0.8c-4-0.7-6.5-3.3-7.4-7.2c-0.9-3.8-1.2-7.7-1.3-11.6C3,41.2,3,36.8,3.2,32.3
	c0.2-3.2,0.6-6.4,1.1-9.5C5,19,8,16.2,11.8,15.6c3.6-0.5,7.1-0.9,10.7-1C28.7,14.3,34.9,14.2,41.1,14.1z M32.8,51.2
	c6.5-3.7,12.9-7.4,19.4-11.1c-6.5-3.7-12.9-7.4-19.4-11.1C32.8,36.4,32.8,43.7,32.8,51.2z"/>
</svg>
