<?xml version="1.0" encoding="utf-8"?>
<!-- Generator: Adobe Illustrator 26.0.0, SVG Export Plug-In . SVG Version: 6.00 Build 0)  -->
<svg version="1.1" id="Capa_1" xmlns="http://www.w3.org/2000/svg" xmlns:xlink="http://www.w3.org/1999/xlink" x="0px" y="0px"
	 viewBox="0 0 99.2 127.6" style="enable-background:new 0 0 99.2 127.6;" xml:space="preserve">
<style type="text/css">
	.st0{fill:#FFFFFF;}
</style>
<g>
	<g>
		<path class="st0" d="M121.1,173.8c0.1,0.1,0,0.3-0.2,0.2c-3.1-2.6-6.4-4.9-9.9-7c-4.2-2.5-8.6-4.7-13.2-6.5
			c-0.6-0.2-1.1-0.4-1.7-0.6c-0.6-0.2-1.1-0.4-1.7-0.6c-0.6-0.2-1.2-0.4-1.7-0.6c-0.6-0.2-1.2-0.4-1.8-0.5c-2.3-0.7-4.7-1.2-7.1-1.6
			c-2.4-0.4-4.8-0.8-7.2-1c-1.8-0.2-3.6-0.3-5.4-0.3c-0.1,0-0.2,0.1-0.1,0.2l3.8,4.2c0.1,0.1-0.1,0.3-0.2,0.2l-5.1-4.6
			c0,0,0,0-0.1,0h-0.4H69c0,0-0.1,0-0.1,0l-5.1,4.6c-0.1,0.1-0.3-0.1-0.2-0.2l3.9-4.3c0.1-0.1,0-0.2-0.1-0.2c-1.8,0-3.6,0.1-5.4,0.3
			c-2.4,0.2-4.8,0.6-7.2,1c-2.4,0.4-4.8,1-7.1,1.7c-1.2,0.3-2.3,0.7-3.5,1.1c-1.2,0.4-2.3,0.8-3.4,1.2c-4.6,1.8-9,3.9-13.1,6.5
			c-3.5,2.1-6.7,4.5-9.9,7.1c-0.1,0.1-0.3-0.1-0.2-0.2c6.5-6.3,14.2-11.4,22.6-14.9c1.1-0.5,2.3-0.9,3.5-1.4l0.9-0.3
			c0.3-0.1,0.6-0.2,0.9-0.3c0.6-0.2,1.2-0.4,1.8-0.6c2.4-0.7,4.8-1.3,7.3-1.8c2.5-0.5,4.9-0.9,7.4-1.1c1.9-0.2,3.7-0.3,5.6-0.3
			c0.1,0,0.2-0.1,0.1-0.2l-3.9-4.3c-0.1-0.1,0.1-0.3,0.2-0.2l5,4.6c0,0,0,0,0.1,0h0.4h0.4c0,0,0.1,0,0.1,0l5-4.6
			c0.1-0.1,0.3,0.1,0.2,0.2l-3.9,4.3c-0.1,0.1,0,0.2,0.1,0.2c1.9,0,3.7,0.2,5.6,0.3c2.5,0.2,5,0.6,7.4,1.1c2.5,0.5,4.9,1.1,7.3,1.8
			c0.6,0.2,1.2,0.4,1.8,0.6c0.6,0.2,1.2,0.4,1.8,0.6c0.6,0.2,1.2,0.4,1.8,0.7c0.6,0.2,1.2,0.5,1.7,0.7
			C106.9,162.4,114.6,167.5,121.1,173.8z"/>
		<path class="st0" d="M17.7,174.8c-0.2,0-0.5-0.1-0.7-0.3c-0.3-0.4-0.3-0.9,0-1.2c6.5-6.3,14.3-11.5,22.8-15.1
			c1.1-0.5,2.3-0.9,3.5-1.4l0.9-0.3c0.3-0.1,0.6-0.2,0.9-0.3c0.2-0.1,0.4-0.1,0.6-0.2c0.4-0.1,0.8-0.3,1.3-0.4
			c2.4-0.7,4.9-1.4,7.3-1.9c2.3-0.5,4.8-0.8,7.5-1.1c1.4-0.1,2.9-0.2,4.2-0.3l-2.9-3.2c-0.3-0.4-0.3-0.9,0-1.2
			c0.3-0.3,0.9-0.3,1.2,0l4.9,4.4h0.3l4.9-4.4c0.4-0.3,0.9-0.3,1.2,0c0.3,0.3,0.3,0.9,0,1.2l-2.9,3.2c1.4,0.1,2.9,0.2,4.2,0.3
			c2.5,0.3,5,0.6,7.5,1.1c2.6,0.5,5,1.1,7.3,1.9c0.4,0.1,0.7,0.2,1.1,0.4c0.2,0.1,0.5,0.1,0.7,0.2c0.6,0.2,1.2,0.4,1.8,0.6
			c0.5,0.2,0.9,0.3,1.4,0.5c0.1,0.1,0.3,0.1,0.4,0.2c0.3,0.1,0.7,0.3,1,0.4c0.2,0.1,0.5,0.2,0.7,0.3l0,0c8.4,3.5,16.3,8.7,22.7,15
			l0,0c0.3,0.3,0.4,0.9,0,1.2c-0.3,0.3-0.8,0.4-1.2,0.1c-3.2-2.6-6.5-5-9.8-7c-4.2-2.5-8.6-4.7-13-6.4c-0.2-0.1-0.3-0.1-0.5-0.2
			c-0.4-0.1-0.8-0.3-1.2-0.4c-0.2-0.1-0.3-0.1-0.5-0.2c-0.4-0.1-0.8-0.3-1.2-0.4l0,0c-0.1,0-0.3-0.1-0.4-0.1
			c-0.4-0.1-0.9-0.3-1.3-0.4l0,0c-0.6-0.2-1.2-0.4-1.7-0.5c-2.5-0.7-4.8-1.2-7-1.6c-2.4-0.4-4.8-0.8-7.2-1c-1.2-0.1-2.4-0.2-3.8-0.3
			l2.8,3.1c0.3,0.4,0.3,0.9,0,1.2c-0.3,0.3-0.9,0.3-1.2,0l-4.9-4.4h-0.2l-4.9,4.5c-0.4,0.3-0.9,0.3-1.2,0c-0.3-0.3-0.3-0.9,0-1.2
			l2.8-3.1c-1.3,0.1-2.5,0.1-3.8,0.3c-2.3,0.2-4.7,0.5-7.2,1c-2.3,0.4-4.7,1-7,1.6c-1.3,0.4-2.4,0.7-3.5,1.1
			c-1.1,0.4-2.2,0.8-3.4,1.2c-4.5,1.7-8.9,3.9-13,6.4c-3.3,2-6.5,4.3-9.8,7C18.1,174.8,17.9,174.8,17.7,174.8z M94.7,158.5
			c0.4,0.1,0.8,0.3,1.3,0.4c0.2,0.1,0.3,0.1,0.5,0.2c0.4,0.1,0.8,0.3,1.2,0.5c0.2,0.1,0.3,0.1,0.5,0.2c1.4,0.5,2.7,1.1,4,1.7
			c-1.3-0.6-2.6-1.2-3.9-1.8c-0.3-0.1-0.5-0.2-0.8-0.3c-0.3-0.1-0.6-0.3-1-0.4l0,0c-0.1-0.1-0.3-0.1-0.4-0.2
			c-0.4-0.2-0.9-0.3-1.3-0.5l0,0c-0.6-0.2-1.1-0.4-1.7-0.6c-0.2-0.1-0.5-0.1-0.7-0.2c-0.4-0.1-0.7-0.2-1.1-0.3
			c-2.3-0.7-4.7-1.3-7.2-1.8c-2.4-0.5-4.9-0.8-7.3-1.1c-1.8-0.2-3.6-0.3-5.5-0.3c-0.3,0-0.6-0.2-0.7-0.4l-0.2,0.2
			c-0.2,0.2-0.4,0.2-0.6,0.2H69c-0.2,0-0.4-0.1-0.6-0.2l-0.2-0.1c-0.2,0.2-0.4,0.4-0.7,0.4c-1.8,0-3.7,0.2-5.5,0.3
			c-2.6,0.3-5,0.6-7.3,1.1c-2.4,0.5-4.8,1.1-7.2,1.8l0,0c-0.4,0.1-0.8,0.2-1.2,0.4c-0.2,0.1-0.4,0.1-0.6,0.2
			c-0.3,0.1-0.6,0.2-0.9,0.3l-0.9,0.3c-1.2,0.4-2.4,0.9-3.4,1.3c-1.1,0.5-2.2,0.9-3.2,1.5c1.1-0.5,2.2-0.9,3.2-1.3
			c1.2-0.5,2.4-0.9,3.5-1.2c1.1-0.4,2.2-0.7,3.5-1.1c2.4-0.7,4.8-1.2,7.2-1.7c2.5-0.5,5-0.8,7.3-1c1.8-0.2,3.6-0.3,5.4-0.3
			c0.3,0,0.6,0.1,0.8,0.4l0.2-0.2c0.2-0.2,0.4-0.2,0.6-0.2h0.7c0.2,0,0.4,0.1,0.6,0.2l0.2,0.2c0.2-0.2,0.4-0.4,0.7-0.4l0,0
			c2,0.1,3.7,0.2,5.4,0.3c2.4,0.2,4.9,0.6,7.3,1c2.3,0.4,4.6,0.9,7.2,1.7c0.6,0.2,1.2,0.3,1.8,0.5c0.4,0.1,0.9,0.3,1.3,0.4
			C94.4,158.4,94.6,158.5,94.7,158.5z"/>
	</g>
	<g>
		<path class="st0" d="M44.9,116.9c0-0.6,0-0.9,0-1.5c2.1-0.5,4.3-1,6.5-1.5c1.8-0.4,3.7-0.9,5.5-1.4c0.5,1.3,1.1,2.6,1.7,3.9
			c2.2,4.6,4.5,9.2,6.8,13.8c1.7,3.4,3.4,6.9,5.1,10.3c3.6-7.5,7.3-14.9,11.1-22.3c0.9-1.8,1.7-3.6,2.4-5.5c1.8,0.5,3.5,1,5.3,1.4
			c1.9,0.5,3.8,0.9,5.7,1.3c0,0.6,0,0.9,0,1.5c-0.5,0-0.9,0-1.1-0.1c-1.2-0.1-2.7-0.4-3.9,0c-0.4,0.2-0.7,1.1-0.7,2.4
			c0,0.1,0,0.2,0,0.3c0,2.7-0.1,5.4-0.1,8.2c0,6.2-0.1,12.5,0.1,18.8c0,0.5,0.2,0.9,0.4,1.1c1.1,1,2.9,1.6,4.3,2.3
			c0.2,0.1,0.5,0.3,1,0.5c0,0.6,0,0.9,0,1.5c-2.6-1-5.3-1.9-8.1-2.5c-2.8-0.6-5.7-0.9-8.6-1.1c0-0.6,0-0.9,0-1.5
			c0.7-0.1,1.2-0.2,1.5-0.2c1.2-0.1,2.5,0,3.6-0.3c0.3-0.1,0.5-0.3,0.6-0.6c0.4-1.2,0.2-2.8,0.2-4.1c0-7.5,0-15,0-22.5
			c-3.8,6.9-7.2,14.1-10.7,21.2c-1.2,2.4-2.3,4.9-3.4,7.4c-0.6,0-0.9,0-1.5,0c-4.4-9.6-9.2-19.1-14.3-28.3c0.1,8,0.2,16,0.3,24
			c0,1.1-0.1,2.7,0.5,3.2c0.6,0.5,2.7,0.3,3.9,0.4c0.3,0,0.7,0,1.2,0.1c0,0.6,0,0.9,0,1.5c-2.4,0.2-4.9,0.4-7.2,0.9
			c-2.5,0.5-4.9,1.3-7.2,2.2c0-0.6,0-0.9,0-1.5c0.5-0.3,0.9-0.5,1.1-0.6c1.2-0.6,2.8-1.2,3.8-2.2c0.7-1.1,0.6-2.5,0.6-3.7
			c0-1.9,0.1-3.9,0.1-5.8c0.1-5.1,0.1-10.3,0.1-15.4c0-1.1,0-2.1,0-3.1c0-1.3-0.1-2-0.2-2.3c-0.2-0.3-0.4-0.4-0.7-0.5
			c-1.4-0.1-2.9,0.1-4.3,0.3C46,116.8,45.6,116.9,44.9,116.9z"/>
		<path class="st0" d="M95.7,153.1l-1-0.4c-3-1.1-5.5-1.9-8-2.4c-2.5-0.5-5.2-0.9-8.5-1.1l-0.7,0l0-2.9l0.6-0.1
			c0.7-0.1,1.2-0.2,1.6-0.2c0.3,0,0.7,0,1,0c0.9,0,1.7-0.1,2.4-0.2c0,0,0.1,0,0.1-0.1l0,0c0.2-0.8,0.2-1.9,0.2-2.9c0-0.3,0-0.7,0-1
			v-19.5c-3,5.6-5.8,11.4-8.5,17l-0.7,1.5c-1.1,2.2-2.3,4.8-3.4,7.3l-0.2,0.5h-0.5c-0.6,0-0.9,0-1.5,0l-0.5,0l-0.2-0.5
			c-3.7-8.2-7.9-16.5-12.8-25.5c0,2.9,0.1,5.9,0.1,8.8c0.1,4,0.1,8,0.2,12.1c0,0.2,0,0.4,0,0.6c0,0.6,0,1.8,0.2,2
			c0.3,0.2,1.7,0.2,2.3,0.2c0.4,0,0.8,0,1.1,0c0.3,0,0.7,0,1.2,0.1l0.7,0.1v2.9l-0.7,0c-2.1,0.1-4.6,0.4-7.1,0.9
			c-2.1,0.4-4.3,1.1-7.1,2.1l-1,0.4l0-3.1l0.4-0.2c0.5-0.3,0.9-0.5,1.1-0.6c0.3-0.1,0.5-0.3,0.8-0.4c1-0.5,2-0.9,2.7-1.6
			c0.4-0.8,0.4-1.8,0.5-2.7c0-0.2,0-0.3,0-0.5c0-1,0-1.9,0.1-2.9c0-1,0-2,0.1-2.9c0.1-4.6,0.1-9.7,0.1-15.4c0-0.5,0-1,0-1.6
			c0-0.5,0-1,0-1.6c0-1.5-0.1-1.9-0.1-1.9l0,0c0,0,0-0.1-0.2-0.1c-1.2-0.1-2.5,0.1-3.7,0.2c-0.1,0-0.3,0-0.4,0.1
			c-0.3,0.1-0.8,0.1-1.4,0.2l-0.9,0.1v-3l0.6-0.1c1.4-0.3,2.8-0.7,4.2-1c0.8-0.2,1.5-0.4,2.3-0.5c1.8-0.4,3.7-0.9,5.5-1.4l0.6-0.2
			l0.3,0.6c0.5,1.2,1.1,2.6,1.7,3.8c1.3,2.7,2.7,5.5,4,8.2c0.9,1.8,1.9,3.8,2.8,5.6c1.4,2.9,2.9,5.8,4.4,8.9
			c3.4-7.1,6.9-14.1,10.5-21c0.9-1.8,1.7-3.8,2.4-5.4l0.3-0.6l0.7,0.2c0.6,0.2,1.3,0.3,1.9,0.5c1.1,0.3,2.3,0.6,3.4,0.9
			c1,0.2,1.9,0.5,2.9,0.7c0.9,0.2,1.9,0.4,2.8,0.7l0.6,0.1v2.9l-0.8,0c-0.5,0-0.9,0-1.2-0.1c-0.2,0-0.5,0-0.7-0.1
			c-0.9-0.1-2-0.2-2.8,0c-0.1,0.1-0.3,0.5-0.3,1.7v0.3l-0.1,8.2c0,1.4,0,2.8,0,4.3c0,4.7,0,9.7,0.1,14.5c0,0.3,0.1,0.6,0.2,0.6
			c0.7,0.6,1.8,1.1,2.8,1.6c0.4,0.2,0.9,0.4,1.3,0.6c0.2,0.1,0.5,0.3,1,0.6l0.4,0.2V153.1z M79,147.8c3,0.2,5.6,0.5,8,1
			c2.2,0.5,4.5,1.1,7,2.1c-0.2-0.1-0.4-0.2-0.5-0.2c-0.4-0.2-0.8-0.4-1.2-0.6c-1.2-0.5-2.4-1.1-3.3-1.9c-0.4-0.4-0.6-1-0.6-1.7
			c-0.2-4.8-0.2-9.8-0.1-14.5c0-1.4,0-2.9,0-4.3l0.1-8.2l0-0.3c0-1.7,0.3-2.7,1.1-3.1l0.1,0l0.1,0c1.1-0.3,2.4-0.2,3.5,0
			c0.2,0,0.5,0.1,0.7,0.1c0.1,0,0.2,0,0.3,0V116c-0.7-0.2-1.5-0.3-2.2-0.5c-1-0.2-1.9-0.4-2.9-0.7c-1.1-0.3-2.3-0.6-3.4-0.9
			c-0.4-0.1-0.8-0.2-1.2-0.3c-0.6,1.5-1.3,3.2-2.2,4.9c-3.7,7.3-7.5,14.8-11.1,22.3l-0.7,1.4l-0.7-1.4c-1.8-3.6-3.5-7-5.1-10.3
			c-0.9-1.9-1.9-3.8-2.8-5.6c-1.3-2.7-2.7-5.5-4-8.2c-0.5-1.1-1-2.2-1.5-3.3c-1.6,0.4-3.2,0.8-4.9,1.2c-0.8,0.2-1.5,0.4-2.3,0.5
			c-1.2,0.3-2.4,0.6-3.6,0.8v0.1c0.2,0,0.3,0,0.4-0.1l0.1,0c0.1,0,0.3,0,0.4-0.1c1.3-0.2,2.7-0.4,4.1-0.2l0.1,0
			c0.6,0.1,1,0.4,1.3,0.9c0.2,0.4,0.3,1,0.3,2.7c0,0.5,0,1,0,1.6c0,0.5,0,1,0,1.6c0,5.8-0.1,10.8-0.1,15.5c0,1,0,2-0.1,2.9
			c0,1,0,1.9-0.1,2.9c0,0.2,0,0.3,0,0.5c0,1.2-0.1,2.5-0.7,3.6l-0.1,0.1l-0.1,0.1c-0.9,0.9-2.1,1.4-3.2,1.9
			c-0.3,0.1-0.5,0.3-0.8,0.4l0,0c-0.1,0.1-0.3,0.2-0.6,0.3c2.4-0.8,4.3-1.4,6.2-1.8c2.3-0.5,4.6-0.7,6.6-0.9v-0.1
			c-0.2,0-0.4,0-0.5,0c-0.3,0-0.7,0-1,0c-1.6,0-2.7,0-3.3-0.6c-0.7-0.6-0.7-1.9-0.7-3.2c0-0.2,0-0.4,0-0.6c-0.1-4-0.1-8-0.2-12.1
			c-0.1-4-0.1-8-0.2-11.9l0-3.1l1.5,2.7c5.4,9.9,10,19.1,14.1,27.9c0.2,0,0.3,0,0.5,0c1.1-2.5,2.2-4.9,3.2-6.9l0.7-1.5
			c3.1-6.5,6.4-13.3,10-19.7l1.4-2.6l0,25.5c0,0.3,0,0.6,0,0.9c0,1.2,0,2.4-0.3,3.4c-0.1,0.5-0.6,0.9-1.1,1.1
			c-0.9,0.2-1.9,0.3-2.8,0.3c-0.3,0-0.7,0-1,0c-0.2,0-0.4,0-0.8,0.1V147.8z M55.8,146C55.8,146,55.8,146,55.8,146
			C55.8,146,55.8,146,55.8,146z M50.7,117.4C50.7,117.4,50.7,117.4,50.7,117.4L50.7,117.4z"/>
	</g>
</g>
</svg>
