<svg id="Capa_1" data-name="Capa 1" xmlns="http://www.w3.org/2000/svg" viewBox="0 0 88.43 49.87"><defs><style>.cls-1{fill:#fff;}</style></defs><path class="cls-1" d="M94.07,25.21a.5.5,0,0,0-.65,0C76.79,37.69,61.51,52.18,50,63.49c-11.19-11-21.4-20.41-31.21-28.64-2.83-2.38-6.06-5-9.09-7.34L8.64,26.7c-.68-.52-1.36-1-2.06-1.54a.5.5,0,0,0-.7.7c.5.7,1,1.38,1.54,2.06L8.24,29c10.2,13.08,22.54,26.81,38.84,43.2l2.57,2.6a.5.5,0,0,0,.35.14.52.52,0,0,0,.36-.14l2.56-2.6c13-13.19,28.16-29,41.2-46.32A.5.5,0,0,0,94.07,25.21Z" transform="translate(-5.78 -25.06)"/></svg>