<?xml version="1.0" encoding="utf-8"?>
<!-- Generator: Adobe Illustrator 26.0.0, SVG Export Plug-In . SVG Version: 6.00 Build 0)  -->
<svg version="1.1" id="Capa_1" xmlns="http://www.w3.org/2000/svg" xmlns:xlink="http://www.w3.org/1999/xlink" x="0px" y="0px"
	 viewBox="0 0 100 60" style="enable-background:new 0 0 100 60;" xml:space="preserve">
<g>
	<path d="M99.96,58.35c0.1,0.1-0.03,0.26-0.15,0.17c-3.03-2.49-6.19-4.77-9.53-6.78c-4.05-2.46-8.3-4.55-12.7-6.23
		c-0.55-0.21-1.1-0.42-1.66-0.62s-1.11-0.4-1.67-0.57c-0.56-0.18-1.12-0.38-1.68-0.54c-0.56-0.17-1.12-0.34-1.69-0.5
		c-2.26-0.63-4.56-1.18-6.87-1.59c-2.31-0.42-4.64-0.74-6.98-0.96c-1.71-0.16-3.45-0.25-5.17-0.3c-0.1,0-0.15,0.11-0.09,0.18
		l3.71,4.1c0.09,0.1-0.06,0.25-0.16,0.16l-4.89-4.45c-0.02-0.02-0.05-0.03-0.08-0.03h-0.37h-0.34c-0.02,0-0.06,0.01-0.08,0.03
		l-4.93,4.46c-0.1,0.09-0.25-0.06-0.16-0.16l3.73-4.11c0.07-0.07,0.01-0.19-0.08-0.18c-1.73,0.03-3.46,0.14-5.18,0.31
		c-2.34,0.21-4.67,0.54-6.98,0.96s-4.61,0.96-6.87,1.6c-1.13,0.32-2.26,0.66-3.37,1.04c-1.12,0.37-2.23,0.77-3.33,1.19
		c-4.4,1.69-8.65,3.78-12.69,6.25c-3.34,2.03-6.5,4.33-9.53,6.82c-0.11,0.09-0.25-0.07-0.15-0.17c6.24-6.08,13.69-10.98,21.78-14.4
		c1.11-0.47,2.23-0.9,3.36-1.31l0.86-0.31c0.29-0.1,0.57-0.19,0.86-0.29c0.57-0.18,1.14-0.39,1.73-0.55c2.3-0.71,4.64-1.3,7.01-1.77
		c2.37-0.48,4.75-0.82,7.15-1.07c1.79-0.17,3.6-0.29,5.41-0.33c0.09,0,0.15-0.11,0.08-0.18l-3.73-4.11
		c-0.09-0.1,0.06-0.25,0.16-0.16l4.87,4.41c0.02,0.02,0.05,0.03,0.08,0.03h0.37h0.39c0.02,0,0.06-0.01,0.08-0.03l4.87-4.41
		c0.1-0.09,0.25,0.06,0.16,0.16l-3.73,4.11c-0.07,0.07-0.01,0.18,0.08,0.18c1.81,0.05,3.6,0.15,5.39,0.32
		c2.4,0.24,4.79,0.59,7.15,1.06c2.37,0.48,4.71,1.06,7.02,1.77c0.58,0.17,1.14,0.37,1.73,0.55c0.57,0.18,1.14,0.39,1.7,0.59
		c0.57,0.19,1.13,0.42,1.69,0.64c0.56,0.21,1.12,0.46,1.68,0.67C86.28,47.39,93.72,52.28,99.96,58.35z"/>
	<path d="M25.88,5.64c0-0.58,0-0.88,0-1.47c2.07-0.51,4.16-0.98,6.23-1.47c1.77-0.41,3.53-0.87,5.29-1.33
		c0.53,1.26,1.06,2.51,1.65,3.74c2.15,4.46,4.38,8.89,6.55,13.34c1.62,3.33,3.27,6.64,4.94,9.96c3.5-7.23,7.07-14.42,10.74-21.58
		c0.86-1.73,1.6-3.5,2.32-5.29c1.69,0.45,3.39,0.94,5.09,1.35c1.81,0.45,3.65,0.83,5.46,1.28c0,0.58,0,0.88,0,1.47
		c-0.49-0.02-0.86-0.05-1.1-0.07c-1.18-0.1-2.63-0.37-3.81-0.05c-0.42,0.23-0.64,1.02-0.64,2.35c0,0.13,0,0.19,0,0.32
		c-0.03,2.63-0.07,5.25-0.1,7.87c0,6.03-0.09,12.09,0.13,18.13c0.01,0.46,0.15,0.87,0.38,1.09c1.02,0.96,2.81,1.55,4.18,2.24
		c0.21,0.1,0.53,0.27,0.95,0.53c0,0.59,0,0.88,0,1.47c-2.55-0.96-5.12-1.79-7.79-2.37c-2.73-0.58-5.49-0.88-8.27-1.04
		c0-0.59,0-0.88,0-1.47c0.65-0.1,1.14-0.16,1.49-0.18c1.17-0.07,2.46-0.01,3.49-0.3c0.27-0.08,0.51-0.31,0.58-0.56
		c0.35-1.18,0.22-2.7,0.23-4c0-7.26,0-14.5,0-21.76c-3.7,6.67-6.99,13.58-10.31,20.45c-1.13,2.35-2.25,4.72-3.28,7.12
		c-0.57,0-0.86,0-1.44,0.01c-4.26-9.29-8.9-18.4-13.77-27.37c0.1,7.73,0.22,15.44,0.32,23.17c0.02,1.03-0.08,2.62,0.45,3.09
		c0.61,0.53,2.62,0.32,3.77,0.38c0.25,0.01,0.64,0.05,1.15,0.1c0,0.59,0,0.88,0,1.47c-2.34,0.16-4.69,0.39-6.99,0.88
		c-2.38,0.5-4.69,1.26-6.96,2.09c0-0.59,0-0.88,0-1.47c0.47-0.27,0.82-0.47,1.05-0.57c1.2-0.59,2.66-1.14,3.63-2.1
		c0.63-1.05,0.57-2.39,0.62-3.57c0.05-1.87,0.08-3.76,0.13-5.63c0.08-4.97,0.11-9.94,0.13-14.9c-0.01-1.02-0.01-2.02-0.02-3.03
		c0-1.21-0.07-1.95-0.23-2.23c-0.15-0.27-0.39-0.43-0.72-0.49c-1.39-0.14-2.8,0.09-4.17,0.27C26.93,5.56,26.47,5.59,25.88,5.64z"/>
</g>
</svg>
