<?xml version="1.0" encoding="utf-8"?>
<!-- Generator: Adobe Illustrator 26.0.0, SVG Export Plug-In . SVG Version: 6.00 Build 0)  -->
<svg version="1.1" id="Capa_1" xmlns="http://www.w3.org/2000/svg" xmlns:xlink="http://www.w3.org/1999/xlink" x="0px" y="0px"
	 viewBox="0 0 100 100" style="enable-background:new 0 0 100 100;" xml:space="preserve">
<style type="text/css">
	.st0{fill:#FFFFFF;}
	.st1{clip-path:url(#SVGID_00000155134008538056725840000004560801037082465940_);}
	.st2{fill:url(#SVGID_00000106148582879502744400000004444385894136413592_);}
</style>
<g>
	<rect class="st0" width="100" height="100"/>
	<g>
		<defs>
			<rect id="SVGID_1_" width="100" height="100"/>
		</defs>
		<clipPath id="SVGID_00000078744822973106827430000011543673943628906939_">
			<use xlink:href="#SVGID_1_"  style="overflow:visible;"/>
		</clipPath>
		<g style="clip-path:url(#SVGID_00000078744822973106827430000011543673943628906939_);">
			<path d="M102.3,54.6h48.3c0.3,0,0.6-0.3,0.6-0.6v-48c0-0.3-0.3-0.6-0.6-0.6h-48.3c-0.3,0-0.6,0.3-0.6,0.6v48
				C101.7,54.3,102,54.6,102.3,54.6z M143,13.4v33.1h-33.1V13.4H143z"/>
			<path d="M54,101.7H6c-0.3,0-0.6,0.3-0.6,0.6v48.3c0,0.3,0.3,0.6,0.6,0.6h48c0.3,0,0.6-0.3,0.6-0.6v-48.3
				C54.6,101.9,54.4,101.7,54,101.7z M13.4,142.9v-33.1h33.1v33.1H13.4z"/>
			<path d="M5.9,54.6h48c0.3,0,0.6-0.3,0.6-0.6v-48c0-0.3-0.3-0.6-0.6-0.6h-48c-0.3,0-0.6,0.3-0.6,0.6v48
				C5.3,54.3,5.6,54.6,5.9,54.6z M46.5,13.4v33.1H13.4V13.4H46.5z"/>
			<path d="M81.6,136.1H68c-0.3,0-0.6,0.3-0.6,0.6v6.9c0,0.3,0.3,0.6,0.6,0.6h6.2v6.3c0,0.3,0.3,0.6,0.6,0.6h6.8
				c0.3,0,0.6-0.3,0.6-0.6v-13.8C82.3,136.4,82,136.1,81.6,136.1z"/>
			<path d="M150.6,60.4h-6.9c-0.3,0-0.6,0.3-0.6,0.6v13.7c0,0.3,0.3,0.6,0.6,0.6h6.9c0.3,0,0.6-0.3,0.6-0.6V61
				C151.2,60.7,150.9,60.4,150.6,60.4z"/>
			<path d="M143.6,143h-13.1v-19.4h6.3c0.3,0,0.6-0.3,0.6-0.6v-6.2h13.2c0.3,0,0.6-0.3,0.6-0.6v-6.9c0-0.3-0.3-0.6-0.6-0.6h-6.4
				v-6.4c0-0.3-0.3-0.6-0.6-0.6h-6.2V89.1h6.2c0.3,0,0.6-0.3,0.6-0.6v-6.8c0-0.3-0.3-0.6-0.6-0.6h-6.8c-0.3,0-0.6,0.3-0.6,0.6v6.2
				h-5.7v-6.2c0-0.3-0.3-0.6-0.6-0.6H123c-0.3,0-0.6,0.3-0.6,0.6v6.2h-5.6V75.3h13.1c0.3,0,0.6-0.3,0.6-0.6v-6.3h6.2
				c0.3,0,0.6-0.3,0.6-0.6V61c0-0.3-0.3-0.6-0.6-0.6h-6.8c-0.3,0-0.6,0.3-0.6,0.6v6.2h-5.7V61c0-0.3-0.3-0.6-0.6-0.6h-6.9
				c-0.3,0-0.6,0.3-0.6,0.6v6.2h-5.6V61c0-0.3-0.3-0.6-0.6-0.6h-6.9c-0.3,0-0.6,0.3-0.6,0.6v6.8c0,0.3,0.3,0.6,0.6,0.6h6.3v5.7h-6.4
				c-0.3,0-0.6,0.3-0.6,0.6V81H96v-6.3c0-0.3-0.3-0.6-0.6-0.6h-6.2v-5.7h6.2c0.3,0,0.6-0.3,0.6-0.6V61c0-0.3-0.3-0.6-0.6-0.6H82.3
				V40.8h5.6l0,13.1c0,0.3,0.3,0.6,0.6,0.6h6.8c0.3,0,0.6-0.3,0.6-0.6V40.2c0-0.3-0.3-0.6-0.6-0.6h-6.2v-5.7h6.2
				c0.3,0,0.6-0.3,0.6-0.6v-6.9c0-0.3-0.3-0.6-0.6-0.6h-6.2v-5.6h6.2c0.3,0,0.6-0.3,0.6-0.6v-6.8c0-0.3-0.3-0.6-0.6-0.6h-6.8
				c-0.3,0-0.6,0.3-0.6,0.6V19h-5.7v-6.3c0-0.3-0.3-0.6-0.6-0.6h-6.2V5.9c0-0.3-0.3-0.6-0.6-0.6H61.1c-0.3,0-0.6,0.3-0.6,0.6v6.8
				c0,0.3,0.3,0.6,0.6,0.6h13.1c0,0.3,0,0.6,0,0.8l0,11.7l-5.6,0v-6.2c0-0.3-0.3-0.6-0.6-0.6h-6.8c-0.3,0-0.6,0.3-0.6,0.6v6.8
				c0,0.3,0.3,0.6,0.6,0.6h6.2v5.7h-6.2c-0.3,0-0.6,0.3-0.6,0.6v6.9c0,0.3,0.3,0.6,0.6,0.6h6.2v5.6h-6.2c-0.3,0-0.6,0.3-0.6,0.6V61
				c0,0.3,0.3,0.6,0.6,0.6h6.2l0,5.6H61c-0.3,0-0.6,0.3-0.6,0.6v6.2H40.9v-5.6H54c0.3,0,0.6-0.3,0.6-0.6V61c0-0.3-0.3-0.6-0.6-0.6
				H40.3c-0.3,0-0.6,0.3-0.6,0.6v6.2h-6.3c-0.3,0-0.6,0.3-0.6,0.6V81h-5.6v-6.2c0-0.3-0.3-0.6-0.6-0.6h-6.8c-0.3,0-0.6,0.3-0.6,0.6
				v20.6c0,0.3,0.3,0.6,0.6,0.6h20.6c0.3,0,0.6-0.3,0.6-0.6V82.3h12.5v5.6h-6.2c-0.3,0-0.6,0.3-0.6,0.6v6.8c0,0.3,0.3,0.6,0.6,0.6
				h13.2v6.2c0,0.3,0.3,0.6,0.6,0.6h6.8c0.3,0,0.6-0.3,0.6-0.6v-6.8c0-0.3-0.3-0.6-0.6-0.6h-6.2v-5.7h12.5v19.5H61.1
				c-0.3,0-0.6,0.3-0.6,0.6v6.9c0,0.3,0.3,0.6,0.6,0.6h6.2v13.1c0,0.3,0.3,0.6,0.6,0.6h6.9c0.3,0,0.6-0.3,0.6-0.6v-6.2h12.5v6.2
				c0,0.3,0.3,0.6,0.6,0.6h13.1v13.2c0,0.3,0.3,0.6,0.6,0.6h6.4v6.3c0,0.3,0.3,0.6,0.6,0.6h6.9c0.3,0,0.6-0.3,0.6-0.6v-13.2h5.6v6.2
				c0,0.3,0.3,0.6,0.6,0.6h6.3v6.4c0,0.3,0.3,0.6,0.6,0.6h13.7c0.3,0,0.6-0.3,0.6-0.6v-6.9C144.2,143.3,143.9,143,143.6,143z
				 M102.9,129.2v-13.1c0-0.3-0.3-0.6-0.6-0.6H96v-6.2c0-0.3-0.3-0.6-0.6-0.6h-6.9c-0.3,0-0.6,0.3-0.6,0.6v6.2h-5.6v-12.6h6.2
				c0.3,0,0.6-0.3,0.6-0.6v-6.9c0-0.3-0.3-0.6-0.6-0.6h-6.2v-5.7h19.4v6.3c0,0.3,0.3,0.6,0.6,0.6h27v5.6h-13.1
				c-0.3,0-0.6,0.3-0.6,0.6v7c0,0.3,0.3,0.6,0.6,0.6h13.1v5.6h-13.1c-0.3,0-0.6,0.3-0.6,0.6v6.3h-6.2c-0.3,0-0.6,0.3-0.6,0.6v6.3
				H102.9z M68.5,74.1v-5.6H81v5.6H68.5z M75.4,32.7v-5.6H81v5.6H75.4z M68.5,47.7h5.6v12.7h-5.6V47.7z M81.1,82.3v5.6h-5.7v-5.6
				H81.1z M108.6,82.2v5.7h-5.7v-5.7H108.6z M122.4,123.6v5.6h-5.6v-5.6H122.4z"/>
			<path d="M150.6,129.3h-13.8c-0.3,0-0.6,0.3-0.6,0.6v6.8c0,0.3,0.3,0.6,0.6,0.6h13.8c0.3,0,0.6-0.3,0.6-0.6v-6.8
				C151.2,129.6,151,129.3,150.6,129.3z"/>
			<path d="M5.9,89h6.8c0.3,0,0.6-0.3,0.6-0.6V74.8c0-0.3-0.3-0.6-0.6-0.6H5.9c-0.3,0-0.6,0.3-0.6,0.6v13.7C5.3,88.8,5.6,89,5.9,89z
				"/>
			<path d="M95.4,136.1h-6.8c-0.3,0-0.6,0.3-0.6,0.6v6.8c0,0.3,0.3,0.6,0.6,0.6h6.8c0.3,0,0.6-0.3,0.6-0.6v-6.8
				C96,136.4,95.7,136.1,95.4,136.1z"/>
			<path d="M116.2,40.8h20.5c0.3,0,0.6-0.3,0.6-0.6V19.7c0-0.3-0.3-0.6-0.6-0.6h-20.5c-0.3,0-0.6,0.3-0.6,0.6v20.5
				C115.6,40.5,115.9,40.8,116.2,40.8z"/>
			<path d="M40.2,115.5H19.7c-0.3,0-0.6,0.3-0.6,0.6v20.6c0,0.3,0.3,0.6,0.6,0.6h20.5c0.3,0,0.6-0.3,0.6-0.6v-20.6
				C40.9,115.8,40.6,115.5,40.2,115.5z"/>
			
				<linearGradient id="SVGID_00000151528952322511527190000014151367497082059440_" gradientUnits="userSpaceOnUse" x1="19.2599" y1="40.6228" x2="40.6775" y2="19.2051">
				<stop  offset="0" style="stop-color:#172D4B"/>
				<stop  offset="0.3575" style="stop-color:#046B5F"/>
				<stop  offset="0.3878" style="stop-color:#086C5D"/>
				<stop  offset="0.4382" style="stop-color:#246E56"/>
				<stop  offset="0.5025" style="stop-color:#4E724C"/>
				<stop  offset="0.5781" style="stop-color:#86783D"/>
				<stop  offset="0.6625" style="stop-color:#CE7D2D"/>
				<stop  offset="0.692" style="stop-color:#EB8024"/>
				<stop  offset="1" style="stop-color:#8F1635"/>
			</linearGradient>
			<path style="fill:url(#SVGID_00000151528952322511527190000014151367497082059440_);" d="M19.7,40.8h20.5c0.3,0,0.6-0.3,0.6-0.6
				V19.6c0-0.3-0.3-0.6-0.6-0.6H19.7c-0.3,0-0.6,0.3-0.6,0.6v20.5C19.1,40.5,19.4,40.8,19.7,40.8z"/>
		</g>
	</g>
	<path class="st0" d="M94.7,5.3v89.4H5.3V5.3H94.7 M100,0H0v100h100V0L100,0z"/>
</g>
</svg>
