<?xml version="1.0" encoding="utf-8"?>
<!-- Generator: Adobe Illustrator 26.0.0, SVG Export Plug-In . SVG Version: 6.00 Build 0)  -->
<svg version="1.1" id="Capa_1" xmlns="http://www.w3.org/2000/svg" xmlns:xlink="http://www.w3.org/1999/xlink" x="0px" y="0px"
	 viewBox="0 0 1080 1920" style="enable-background:new 0 0 1080 1920;" xml:space="preserve">
<style type="text/css">
	.st0{fill:#FFFFFF;}
</style>
<g>
	<g>
		<path class="st0" d="M307.2,169.3v-2.5c4.7,0.3,8.3,0.5,10.8,0.5c2.8,0,5.8-0.2,9-0.5c1.2,3,2.1,5.2,2.8,6.8
			c0.9,2.1,4.6,10,11.1,23.8c2.7,5.9,5.5,11.6,8.3,17.2l18.1-38.1c1.1-2.3,2.4-5.6,3.9-9.6c3.8,0.3,6.7,0.5,8.7,0.5
			c1.9,0,5-0.2,9.5-0.5v2.5c-0.8,0.2-1.5,0.4-1.9,0.5c-3.9,0.8-6.1,1.4-6.6,1.7c-0.7,0.6-1.1,2-1.1,4.3v0.6l-0.2,13.5
			c0,16.9,0.1,27.2,0.2,30.8c0,0.8,0.2,1.3,0.7,1.7c0.4,0.4,2.8,1,7.2,1.8c0.4,0.1,0.9,0.2,1.7,0.4v2.5c-5.1-0.3-9.6-0.5-13.5-0.5
			c-4,0-8.6,0.2-14,0.5v-2.5c1.1-0.3,1.9-0.5,2.5-0.6c3.5-0.7,5.4-1.1,5.9-1.4c0.5-0.3,0.8-0.6,1-1.1c0.3-0.8,0.4-3.1,0.4-6.9v-37.1
			c-2.6,5.1-8.4,17.4-17.4,36.8c-2.5,5.3-4.3,9.4-5.5,12.3h-2.4c-6.3-14.1-14.1-30.4-23.3-49.1l0.6,39.6c0,3.1,0.3,4.9,0.8,5.4
			c0.5,0.5,2.6,1,6.4,1.7c0.4,0.1,1.1,0.2,2,0.4v2.5c-4.9-0.3-8.9-0.5-11.9-0.5c-3,0-7,0.2-12,0.5v-2.5c0.8-0.2,1.4-0.4,1.8-0.4
			c3.7-0.7,5.8-1.4,6.3-1.9c0.7-0.8,1-2.7,1.1-5.8l0.2-9.5c0.1-8.7,0.2-17.2,0.2-25.3l0-5.2c0-2.1-0.1-3.4-0.4-3.9
			c-0.3-0.5-0.7-0.9-1.2-1.1c-1.1-0.4-3.5-0.9-7.2-1.5C309,169.7,308.2,169.6,307.2,169.3z"/>
		<path class="st0" d="M399.7,198.2l-2.8-0.3c0.6-2.9,1-5.9,1.2-8.8c5.5-2.5,10.5-3.7,14.9-3.7c1.9,0,3.7,0.3,5.2,0.8
			c1.6,0.6,2.8,1.3,3.7,2.3c0.9,1,1.6,2.1,2.1,3.5c0.5,1.4,0.7,3.5,0.7,6.5l-0.4,17.5c0,2.4,0.3,3.9,0.8,4.7
			c0.5,0.7,1.2,1.1,2.1,1.1c1,0,2.6-0.8,4.8-2.3l1.3,1.7c-4,3.6-6.2,5.5-6.5,5.7c-0.8,0.5-1.8,0.7-3,0.7c-1.8,0-3.3-0.5-4.3-1.4
			c-1-0.9-1.7-2.5-2-4.6c-3.4,2.6-5.9,4.3-7.6,5c-1.6,0.7-3.4,1-5.3,1c-3.1,0-5.7-1-7.6-2.9c-1.9-1.9-2.9-4.4-2.9-7.3
			c0-1.8,0.3-3.4,1-4.9c0.7-1.5,1.7-2.7,2.9-3.8c1-0.8,2.7-1.8,5-3c5.5-2.7,10.3-4.9,14.4-6.5c-0.1-4-0.8-6.6-2-7.9
			c-1.2-1.3-3-2-5.5-2c-2.3,0-4.3,0.7-5.9,2.1S401,195.1,399.7,198.2z M417.6,202.9c-7.4,3.3-11.8,5.7-13.4,7.2
			c-1.5,1.5-2.3,3.3-2.3,5.5c0,2.1,0.6,3.8,1.7,5.1c1.2,1.3,2.5,1.9,4.1,1.9c1.6,0,3.4-0.5,5.2-1.6c1.9-1.1,3.1-2.3,3.7-3.6
			c0.6-1.3,0.9-3.7,0.9-7.3V202.9z"/>
		<path class="st0" d="M435.1,193.2v-2.4c5.3-1.3,9.8-3.2,13.5-5.5l1.1,0.8c-0.5,2.8-0.7,5.8-0.8,9c3.4-4.2,5.8-6.7,7.2-7.7
			c1.4-0.9,3-1.4,4.8-1.4c1.2,0,2.6,0.3,4.1,0.9c-0.6,2.9-1.1,5.9-1.5,8.9h-2.1c-0.3-1.4-0.7-2.3-1.3-2.9c-0.6-0.6-1.3-0.9-2-0.9
			c-1.1,0-2.3,0.5-3.6,1.6c-1.9,1.6-3.3,3.3-4.2,5.4c-0.9,2-1.3,4.9-1.3,8.6c0,6.6,0.2,11,0.6,13.2c0.1,0.8,0.5,1.5,1.2,2
			c0.6,0.5,2.6,1.1,6,1.9v2.4c-3.5-0.3-6.7-0.5-9.6-0.5c-2.4,0-6.4,0.2-11.9,0.5v-2.4c3.9-1,6.1-1.7,6.6-2.2
			c0.5-0.5,0.7-1.9,0.7-4.2l0.1-9.2c0-9-0.1-13.9-0.3-14.6c-0.3-1.2-1.1-1.7-2.4-1.7c-0.7,0-1.9,0.1-3.6,0.4
			C435.9,193.1,435.6,193.2,435.1,193.2z"/>
		<path class="st0" d="M499.2,199.6l-2.8-0.2c-0.1-3.6-1-6.2-2.7-7.9c-1.7-1.7-4-2.6-6.9-2.6c-2.1,0-4.1,0.6-6,1.7
			c-1.9,1.1-3.4,3-4.5,5.6c-1.1,2.6-1.6,5.5-1.6,8.8c0,5.3,1.3,9.4,3.8,12.3c2.6,3,5.5,4.4,8.9,4.4c3.5,0,7.8-1.4,12.8-4.2l1.6,2.5
			c-4.4,3.3-8.1,5.6-11.1,6.9c-1.4,0.6-3.1,0.9-5.2,0.9c-5,0-9-1.4-12-4.3c-4-3.8-6.1-9-6.1-15.5c0-6.8,2.1-12.3,6.4-16.7
			c4.2-4.4,9.5-6.5,15.7-6.5c4.2,0,8.3,1.1,12.3,3.3c-0.2,1-0.5,2.2-0.8,3.7C500.4,194,499.8,196.5,499.2,199.6z"/>
		<path class="st0" d="M504.6,172.4V170c3.7-1.1,6.5-2,8.3-2.7c1.8-0.7,3.6-1.6,5.4-2.6l1.1,0.6c-0.3,2.2-0.4,5.2-0.6,8.8
			c-0.3,7.6-0.4,12.8-0.4,15.6c0,0.8,0,2.2,0,4.2l5.6-5.4c1.1-0.9,2.2-1.6,3.4-2c1.6-0.6,3.3-0.8,5.1-0.8c3.3,0,5.8,0.8,7.8,2.5
			c1.9,1.6,3.1,3.9,3.4,6.8c0.2,1.7,0.3,9.5,0.3,23.6c0,2.2,0.2,3.5,0.7,4s2,1.1,4.7,1.7c0.3,0.1,0.8,0.2,1.3,0.3v2.4
			c-5.1-0.3-8.7-0.5-10.8-0.5c-2.8,0-6,0.2-9.8,0.5v-2.4l5.1-1.6c0.3-0.1,0.6-0.4,0.8-0.7c0.2-0.3,0.4-0.8,0.5-1.5
			c0.1-0.5,0.2-2.1,0.2-4.6l0.3-12.2c0-4-0.2-6.6-0.7-8c-0.5-1.3-1.4-2.4-2.6-3.3c-1.2-0.8-2.6-1.3-4.2-1.3c-2.1,0-4.1,0.6-6,1.9
			c-1.9,1.3-3.2,2.8-3.9,4.8c-0.7,1.9-1.1,5.2-1.1,9.8c0,6.4,0.1,10.5,0.4,12.3c0.2,1.2,0.4,2,0.8,2.3c0.4,0.3,1.9,0.9,4.5,1.6
			c0.3,0.1,0.8,0.2,1.4,0.4v2.4c-4.2-0.3-7.6-0.5-10.3-0.5c-2.8,0-6.2,0.2-10.2,0.5v-2.4c0.6-0.2,1-0.3,1.4-0.4
			c2.5-0.7,4-1.2,4.4-1.6c0.4-0.4,0.6-1.6,0.7-3.8c0.2-3.5,0.3-10.4,0.3-20.6c0-15.7-0.2-24-0.6-24.9c-0.4-0.9-1.2-1.4-2.5-1.4
			C507.8,172,506.5,172.2,504.6,172.4z"/>
		<path class="st0" d="M560,198.2l-2.8-0.3c0.6-2.9,1-5.9,1.2-8.8c5.5-2.5,10.5-3.7,14.9-3.7c1.9,0,3.7,0.3,5.2,0.8s2.8,1.3,3.7,2.3
			c0.9,1,1.6,2.1,2.1,3.5c0.5,1.4,0.7,3.5,0.7,6.5l-0.4,17.5c0,2.4,0.3,3.9,0.8,4.7c0.5,0.7,1.2,1.1,2.1,1.1c1,0,2.6-0.8,4.8-2.3
			l1.3,1.7c-4,3.6-6.2,5.5-6.5,5.7c-0.8,0.5-1.8,0.7-3,0.7c-1.8,0-3.3-0.5-4.3-1.4c-1-0.9-1.7-2.5-2-4.6c-3.4,2.6-5.9,4.3-7.6,5
			c-1.6,0.7-3.4,1-5.3,1c-3.1,0-5.7-1-7.6-2.9c-1.9-1.9-2.9-4.4-2.9-7.3c0-1.8,0.3-3.4,1-4.9c0.7-1.5,1.7-2.7,2.9-3.8
			c1-0.8,2.7-1.8,5-3c5.5-2.7,10.3-4.9,14.4-6.5c-0.1-4-0.8-6.6-2-7.9c-1.2-1.3-3-2-5.5-2c-2.3,0-4.3,0.7-5.9,2.1
			S561.3,195.1,560,198.2z M577.9,202.9c-7.4,3.3-11.8,5.7-13.4,7.2c-1.5,1.5-2.3,3.3-2.3,5.5c0,2.1,0.6,3.8,1.7,5.1
			c1.2,1.3,2.5,1.9,4.1,1.9c1.6,0,3.4-0.5,5.2-1.6c1.9-1.1,3.1-2.3,3.7-3.6c0.6-1.3,0.9-3.7,0.9-7.3V202.9z"/>
		<path class="st0" d="M595.2,193.2v-2.5c5.1-1.2,9.7-3,13.8-5.4l1.1,0.7c-0.4,2.4-0.6,4.9-0.7,7.4l5.4-5.3c0.9-0.8,2-1.4,3.2-1.9
			c1.7-0.6,3.4-0.9,5.2-0.9c4,0,7.1,1.3,9.2,4c1.4,1.8,2.1,4.9,2.1,9.2l-0.1,10.3c0,6.9,0.1,10.9,0.3,12.2c0.1,0.8,0.4,1.4,0.8,1.8
			c0.4,0.3,1.7,0.8,4,1.3c0.4,0.1,1.1,0.3,1.9,0.5v2.4c-3.3-0.3-6.3-0.5-8.9-0.5c-2.3,0-6.2,0.2-11.7,0.5v-2.4c3.3-1,5.2-1.6,5.6-2
			s0.7-0.9,0.7-1.7c0.3-2.8,0.5-7.1,0.5-12.9c0-6.2-0.1-9.9-0.4-11.2c-0.4-1.9-1.2-3.3-2.5-4.3s-2.8-1.5-4.6-1.5
			c-1.9,0-3.7,0.5-5.5,1.6c-1.8,1.1-3.1,2.6-4,4.4c-0.9,1.8-1.3,4.6-1.3,8.1c0,10.2,0.2,15.7,0.6,16.5c0.4,0.8,2.1,1.6,5,2.4
			c0.4,0.1,0.9,0.2,1.6,0.4v2.4c-3.8-0.3-7-0.5-9.6-0.5c-2.5,0-6.2,0.2-11.1,0.5v-2.4c3.4-0.8,5.3-1.4,5.7-1.7
			c0.3-0.2,0.5-0.8,0.6-1.8c0.3-2.7,0.5-6.4,0.5-11c0-9.6-0.1-14.8-0.3-15.6c-0.3-1.2-1.1-1.8-2.5-1.8c-0.6,0-1.6,0.1-2.9,0.3
			C596.5,193.1,595.9,193.2,595.2,193.2z"/>
		<path class="st0" d="M654.4,176h2.5l-1,10.8l11.8-0.1l0.3,0.7c-0.7,1.1-1.4,2.4-2,3.7c-3.3-0.1-6.7-0.2-10.1-0.3l-0.4,21.8v0.3
			c0,3.4,0.4,5.8,1.1,7.3c0.7,1.5,2,2.2,3.8,2.2c1.5,0,3.5-0.6,5.9-1.9l1.2,2.4c-3.1,1.9-5.4,3.2-7,3.8c-1.6,0.6-3,0.9-4.2,0.9
			c-1.9,0-3.5-0.5-4.8-1.5c-1.3-1-2.2-2.3-2.6-4.1c-0.3-1-0.4-3.9-0.4-8.8c0-5.3,0.2-12.7,0.5-22.5c-2,0-4,0.1-6.2,0.3v-2.3
			c2.4-1.1,4.4-2.5,6.2-4.4C650.9,182.6,652.7,179.8,654.4,176z"/>
		<path class="st0" d="M670.6,192.8v-2.4c4.8-1.2,9.2-3,13.4-5.4l1.1,0.9c-0.6,6-0.8,14.5-0.8,25.5c0,5.2,0.1,8.3,0.4,9.5
			c0.2,0.8,0.5,1.4,0.9,1.7c0.4,0.4,1.9,0.9,4.4,1.6c0.3,0.1,0.8,0.2,1.4,0.4v2.4c-3.7-0.3-6.7-0.5-9.1-0.5c-1.4,0-5.3,0.2-11.6,0.5
			v-2.4c3.8-0.9,6-1.8,6.5-2.6c0.5-0.8,0.7-4.8,0.7-12.2l0-9v-1.7c0-3.2-0.2-5.1-0.6-5.7c-0.4-0.7-1.1-1-2-1
			C674.4,192.4,672.9,192.5,670.6,192.8z M681.1,164.5c1.2,0,2.3,0.4,3.2,1.3c0.9,0.9,1.3,1.9,1.3,3.2c0,1.2-0.4,2.3-1.3,3.1
			c-0.9,0.9-1.9,1.3-3.2,1.3c-1.2,0-2.3-0.4-3.1-1.3c-0.9-0.9-1.3-1.9-1.3-3.1c0-1.2,0.4-2.3,1.3-3.2
			C678.9,165,679.9,164.5,681.1,164.5z"/>
		<path class="st0" d="M727.4,199.6l-2.8-0.2c-0.1-3.6-1-6.2-2.7-7.9c-1.7-1.7-4-2.6-6.9-2.6c-2.1,0-4.1,0.6-6,1.7
			c-1.9,1.1-3.4,3-4.5,5.6c-1.1,2.6-1.6,5.5-1.6,8.8c0,5.3,1.3,9.4,3.8,12.3c2.6,3,5.5,4.4,8.9,4.4c3.5,0,7.8-1.4,12.8-4.2l1.6,2.5
			c-4.4,3.3-8.1,5.6-11.1,6.9c-1.4,0.6-3.1,0.9-5.2,0.9c-5,0-9-1.4-12-4.3c-4-3.8-6.1-9-6.1-15.5c0-6.8,2.1-12.3,6.4-16.7
			c4.2-4.4,9.5-6.5,15.7-6.5c4.2,0,8.3,1.1,12.3,3.3c-0.2,1-0.5,2.2-0.8,3.7C728.5,194,728,196.5,727.4,199.6z"/>
		<path class="st0" d="M740.2,198.2l-2.8-0.3c0.6-2.9,1-5.9,1.2-8.8c5.5-2.5,10.5-3.7,14.9-3.7c1.9,0,3.7,0.3,5.2,0.8
			s2.8,1.3,3.7,2.3c0.9,1,1.6,2.1,2.1,3.5c0.5,1.4,0.7,3.5,0.7,6.5l-0.4,17.5c0,2.4,0.3,3.9,0.8,4.7c0.5,0.7,1.2,1.1,2.1,1.1
			c1,0,2.6-0.8,4.8-2.3l1.3,1.7c-4,3.6-6.2,5.5-6.5,5.7c-0.8,0.5-1.8,0.7-3,0.7c-1.8,0-3.3-0.5-4.3-1.4c-1-0.9-1.7-2.5-2-4.6
			c-3.4,2.6-5.9,4.3-7.6,5c-1.6,0.7-3.4,1-5.3,1c-3.1,0-5.7-1-7.6-2.9c-1.9-1.9-2.9-4.4-2.9-7.3c0-1.8,0.3-3.4,1-4.9
			c0.7-1.5,1.7-2.7,2.9-3.8c1-0.8,2.7-1.8,5-3c5.5-2.7,10.3-4.9,14.4-6.5c-0.1-4-0.8-6.6-2-7.9c-1.2-1.3-3-2-5.5-2
			c-2.3,0-4.3,0.7-5.9,2.1S741.5,195.1,740.2,198.2z M758,202.9c-7.4,3.3-11.8,5.7-13.4,7.2c-1.5,1.5-2.3,3.3-2.3,5.5
			c0,2.1,0.6,3.8,1.7,5.1c1.2,1.3,2.5,1.9,4.1,1.9c1.6,0,3.4-0.5,5.2-1.6c1.9-1.1,3.1-2.3,3.7-3.6c0.6-1.3,0.9-3.7,0.9-7.3V202.9z"
			/>
	</g>
	<g>
		<path class="st0" d="M334.1,251.4v2.3c-0.9,0.2-1.6,0.3-2,0.4c-3.4,0.6-5.4,1.2-6,1.7c-0.5,0.5-0.8,1.7-0.8,3.5v1.4l-0.2,15.5
			l0.1,22.6c0,1.8,0.3,3,0.8,3.4c0.5,0.5,2.3,0.9,5.4,1.3c0.6,0.1,1.5,0.2,2.6,0.5v2.3c-4.2-0.3-8.1-0.4-12-0.4
			c-4,0-8.3,0.1-13.1,0.4V304c0.7-0.2,1.3-0.3,1.7-0.4c3.7-0.6,5.8-1.1,6.3-1.6c0.5-0.5,0.8-1.8,0.8-3.8l-0.1-1.9l0.1-14.2
			c0-14.6,0-22.7-0.1-24.2c-0.1-0.9-0.3-1.5-0.8-2c-0.5-0.5-2.4-1-5.8-1.7c-0.5-0.1-1.1-0.3-2-0.5v-2.3c5.6,0.3,10,0.4,13.1,0.4
			C325.7,251.9,329.6,251.7,334.1,251.4z"/>
		<path class="st0" d="M335.9,253.7v-2.3c3.3,0.3,5.8,0.4,7.7,0.4c1.5,0,4.2-0.1,8.1-0.4l11,13.7c1,1.2,8.8,10.6,23.3,28.2
			c0-3.6,0-6.2,0-7.9c0-3.8-0.1-10.9-0.3-21.1c-0.1-4.8-0.2-7.4-0.4-7.8c-0.1-0.4-0.4-0.8-0.9-1.1c-0.5-0.3-2.2-0.8-5.4-1.4
			c-0.4-0.1-1-0.2-1.8-0.4v-2.3c4.6,0.3,8.2,0.4,10.9,0.4c2.6,0,6.3-0.1,10.9-0.4v2.3c-0.7,0.2-1.2,0.3-1.5,0.3
			c-3.5,0.7-5.4,1.2-5.8,1.4c-0.3,0.2-0.5,0.4-0.7,0.7c-0.3,0.4-0.4,1.2-0.5,2.3c0,0.5-0.1,4-0.2,10.5c-0.1,6.5-0.1,12.9-0.1,19
			c0,7.2,0.1,13.3,0.4,18.3l-2.5,1.2l-16.1-20L350.9,262l0.2,22.9c0.1,10,0.3,15.3,0.4,16c0.1,0.5,0.3,0.9,0.7,1.2
			c0.6,0.5,2.5,1.1,5.8,1.6c0.4,0.1,1,0.2,1.7,0.3v2.3c-3.9-0.3-7.3-0.4-10-0.4c-2.3,0-6.2,0.1-11.9,0.4V304
			c0.9-0.2,1.6-0.4,2.1-0.5c3.1-0.5,4.9-1,5.4-1.5c0.3-0.2,0.5-0.6,0.6-1.2c0.3-1.2,0.4-5.7,0.5-13.5c0.1-11,0.2-17.6,0.2-19.6
			c0-6.5-0.1-10.1-0.3-10.8c-0.1-0.5-0.4-0.9-1-1.3c-0.6-0.3-3-0.9-7.3-1.6C337.6,254.1,336.9,253.9,335.9,253.7z"/>
		<path class="st0" d="M404.9,266.5h-3c0.5-4.5,0.9-9.5,1.3-15.1c11.4,0.3,19.6,0.4,24.4,0.4c4,0,11.4-0.1,22.1-0.4
			c0.3,5.8,0.7,10.8,1.2,15.1h-2.9c-1.2-4.7-2-7.5-2.4-8.3c-0.4-0.8-0.9-1.4-1.6-1.7c-0.7-0.3-2.4-0.5-5.2-0.5h-8.6
			c-0.2,6.9-0.3,15.3-0.3,25.5c0,9.4,0.1,15.7,0.3,19c0.1,0.8,0.2,1.3,0.6,1.6c0.4,0.4,2.6,0.9,6.4,1.7c0.4,0.1,0.9,0.2,1.6,0.3v2.3
			c-5.1-0.3-9.7-0.4-13.7-0.4c-3.8,0-7.7,0.1-11.6,0.4V304c0.9-0.2,1.6-0.4,2.1-0.5c3.5-0.6,5.6-1.1,6.1-1.5
			c0.2-0.2,0.4-0.5,0.5-0.9c0.1-0.4,0.2-3.2,0.3-8.6c0.1-8.3,0.2-14.4,0.2-18.3c0-6.9-0.1-13-0.2-18.3h-9.2l-1.7,0
			c-1.5,0-2.4,0.2-2.9,0.5c-0.7,0.4-1.4,1.4-1.9,2.8C406.5,260.3,405.8,262.8,404.9,266.5z"/>
		<path class="st0" d="M469.9,275.7h9.4c3.6,0,5.7-0.1,6.4-0.3s1.2-0.6,1.6-1.2c0.4-0.6,0.9-2.3,1.5-5.1c0.1-0.3,0.2-0.7,0.3-1.3
			h2.6c-0.3,4.3-0.4,7.5-0.4,9.8c0,2.4,0.1,5.6,0.4,9.7h-2.6c-0.7-3.7-1.2-5.8-1.4-6.3c-0.3-0.6-0.7-1.1-1.4-1.3
			c-0.6-0.3-2.6-0.4-5.8-0.4H470l0.2,22.7h16.2l1.4,0c2.2,0,3.6-0.1,4.2-0.3c1-0.3,1.8-0.9,2.6-1.7c0.7-0.8,2.1-3,4.1-6.7
			c0.2-0.4,0.5-0.9,0.9-1.6h2.7c-0.3,0.8-1.9,5.7-4.8,14.5c-9.4-0.3-18-0.4-25.7-0.4c-5.4,0-11.4,0.1-17.9,0.4V304l6.3-1.4
			c1-0.3,1.6-0.6,1.9-0.9c0.4-0.5,0.6-1.5,0.6-3.1v-0.7l0.2-9.1c0-1.8,0-5.2,0-10.3c0-7.5,0-12.9-0.1-16.4c-0.1-3.5-0.2-5.4-0.4-5.9
			c-0.2-0.3-0.4-0.6-0.7-0.8c-0.3-0.2-1.5-0.5-3.6-1l-4.2-0.9v-2.3c4.8,0.3,10.6,0.4,17.4,0.4c3.7,0,12.5-0.1,26.3-0.4
			c0.1,4.5,0.4,8.9,0.9,13.2h-2.7c-1-3.5-1.9-5.8-2.5-7c-0.4-0.8-1-1.3-1.6-1.6c-0.9-0.3-2.7-0.5-5.6-0.5h-15.6L470,268L469.9,275.7
			z"/>
		<path class="st0" d="M506.6,253.7v-2.3c6.8,0.3,12.3,0.4,16.4,0.4c2.4,0,4.6,0,6.7-0.1c2.7-0.1,4.6-0.2,5.7-0.2
			c5,0,8.8,1.2,11.4,3.6c2.5,2.4,3.8,5.6,3.8,9.7c0,2.7-0.6,5.2-1.7,7.3c-1.1,2.1-2.8,3.9-5,5.3c-1.6,1-3.8,1.9-6.7,2.7L550,297
			c1.6,2.1,2.6,3.3,3,3.7c0.6,0.5,1.5,1,2.5,1.4c1.4,0.6,3.9,1.2,7.3,2v2.3c-4.1-0.3-7-0.4-8.9-0.4c-2.1,0-4.3,0.1-6.6,0.4
			c-1.2-1.9-2.7-4.4-4.7-7.3c-2-2.9-3.2-4.7-3.6-5.2c-0.3-0.3-0.5-0.6-0.7-1l-8.5-11.7c-2.3-0.1-4.6-0.2-7-0.5l0.3,19.5
			c0.1,0.8,0.3,1.4,0.7,1.7c0.6,0.5,2.6,1.1,5.8,1.7c0.5,0.1,1.2,0.2,2.1,0.5v2.3c-4.7-0.3-8.8-0.4-12.3-0.4
			c-3.8,0-8.1,0.1-12.8,0.4V304l1.7-0.3c3.7-0.7,5.8-1.3,6.3-1.7c0.5-0.5,0.8-1.3,0.9-2.4c0.1-0.7,0.1-7.4,0.2-19.9l-0.2-18.2
			c0-2.8-0.1-4.4-0.2-4.8c-0.1-0.4-0.4-0.7-0.8-0.9c-1.3-0.7-3.3-1.2-6-1.7C508.1,254,507.5,253.9,506.6,253.7z M522.8,277.4
			c2.7,0.3,4.8,0.4,6.2,0.4c4.7,0,8.2-1,10.4-3.1c2.3-2.1,3.4-5,3.4-8.7c0-3.3-1-5.8-3-7.7c-2-1.9-4.9-2.8-8.7-2.8
			c-1.4,0-4.1,0.2-8.1,0.5L522.8,277.4z"/>
		<path class="st0" d="M563.7,253.7v-2.3c6,0.3,12.6,0.4,19.9,0.4c7.6,0,15.9-0.1,25-0.4l0.9,14.5h-2.7c-1.1-4.1-1.9-6.7-2.4-7.9
			c-0.4-0.8-0.9-1.3-1.7-1.7s-2.5-0.5-5.3-0.5h-16.9c-0.2,3.4-0.3,10-0.4,19.7h10.6c2,0,3.4-0.1,4-0.3c0.6-0.2,1.1-0.7,1.5-1.4
			c0.4-0.7,0.8-2.2,1.3-4.6c0.1-0.4,0.2-1.1,0.4-1.9h2.6c-0.2,5.4-0.3,8.9-0.3,10.5c0,0.5,0.1,3.8,0.3,9.9h-2.6
			c-0.1-0.7-0.2-1.3-0.3-1.6c-0.5-3.3-1.2-5.3-1.8-5.9c-0.7-0.6-2.4-0.9-5.2-0.9H580c0,2.6,0,4.3,0,5.2c0,10.3,0.1,15.8,0.2,16.6
			c0.1,0.5,0.4,0.9,0.9,1.2c0.6,0.4,3.5,1,8.8,1.8v2.3c-5.8-0.3-10-0.4-12.6-0.4l-13.5,0.4V304c1-0.2,1.8-0.3,2.3-0.4
			c3.1-0.5,4.9-1,5.5-1.5c0.6-0.6,0.9-1.8,0.9-3.6l0.2-11c0-1.7,0-5,0-9.7c0-11.7-0.1-18.3-0.2-19.8c-0.1-1-0.3-1.7-0.8-2.1
			c-0.6-0.5-2.6-1.1-6-1.7C565.3,254.1,564.6,253.9,563.7,253.7z"/>
		<path class="st0" d="M633.8,250.5h2.4c3.5,8.9,7.8,19.1,12.8,30.4l9,19.7c0.4,0.7,0.9,1.2,1.4,1.5c0.3,0.2,2.2,0.9,5.7,1.9v2.3
			c-4.7-0.3-8.1-0.4-10.4-0.4c-2.3,0-6.1,0.1-11.6,0.4V304c3.1-0.6,4.9-1.2,5.5-1.5c0.5-0.4,0.8-0.8,0.8-1.4c0-0.5-0.3-1.5-0.8-2.7
			l-3.9-9.4c-5.5-0.1-9.4-0.1-11.9-0.1l-10.6,0.1l-4.1,9.8c-0.7,1.6-1,2.6-1,2.9c0,0.3,0.2,0.6,0.5,0.8c0.3,0.2,1.8,0.6,4.5,1.2
			c0.3,0.1,0.7,0.2,1.2,0.3v2.3c-4.4-0.3-7.5-0.4-9.3-0.4c-2.3,0-5.2,0.1-8.8,0.4V304c2.3-0.5,4-1.1,4.8-1.7c0.6-0.5,1.3-1.3,2-2.5
			c1.5-2.6,5.2-10.8,11.2-24.6L633.8,250.5z M623.6,285.1c3.6,0.1,6.1,0.2,7.7,0.2c0.5,0,4.4-0.1,11.9-0.2l-9.8-23.2L623.6,285.1z"
			/>
		<path class="st0" d="M717,296.9l1.6,2.9c-4.1,2.6-8.1,4.5-11.9,5.8c-3.8,1.2-7.7,1.9-11.8,1.9c-5.2,0-9.9-1.2-14.1-3.5
			s-7.4-5.7-9.6-10c-2.2-4.3-3.3-9.1-3.3-14.4c0-8.6,2.8-15.6,8.4-21.1c5.6-5.5,13-8.2,22.2-8.2c5.7,0,12,1.2,18.9,3.5
			c-0.1,2.3-0.1,4-0.1,5.1c0,3.3,0.2,6.8,0.6,10.4h-3.2c-1-4.5-2-7.6-3.1-9.3c-1.1-1.7-2.8-3.1-5.3-4.1c-2.4-1-5.4-1.5-9-1.5
			c-7.5,0-13.1,2.7-16.9,8c-2.9,4.2-4.4,9.4-4.4,15.6c0,7.5,2.1,13.4,6.2,17.7c4.1,4.3,9.6,6.5,16.2,6.5c2.9,0,5.7-0.4,8.4-1.1
			C709.7,300.2,713.1,298.9,717,296.9z"/>
		<path class="st0" d="M738.8,275.7h9.4c3.6,0,5.7-0.1,6.4-0.3s1.2-0.6,1.6-1.2c0.4-0.6,0.9-2.3,1.5-5.1c0.1-0.3,0.2-0.7,0.3-1.3
			h2.6c-0.3,4.3-0.4,7.5-0.4,9.8c0,2.4,0.1,5.6,0.4,9.7h-2.6c-0.7-3.7-1.2-5.8-1.4-6.3c-0.3-0.6-0.7-1.1-1.4-1.3
			c-0.6-0.3-2.6-0.4-5.8-0.4h-10.6L739,302h16.2l1.4,0c2.2,0,3.6-0.1,4.2-0.3c1-0.3,1.8-0.9,2.6-1.7c0.7-0.8,2.1-3,4.1-6.7
			c0.2-0.4,0.5-0.9,0.9-1.6h2.7c-0.3,0.8-1.9,5.7-4.8,14.5c-9.4-0.3-18-0.4-25.7-0.4c-5.4,0-11.4,0.1-17.9,0.4V304l6.3-1.4
			c1-0.3,1.6-0.6,1.9-0.9c0.4-0.5,0.6-1.5,0.6-3.1v-0.7l0.2-9.1c0-1.8,0-5.2,0-10.3c0-7.5,0-12.9-0.1-16.4c-0.1-3.5-0.2-5.4-0.4-5.9
			c-0.2-0.3-0.4-0.6-0.7-0.8c-0.3-0.2-1.5-0.5-3.6-1l-4.2-0.9v-2.3c4.8,0.3,10.6,0.4,17.4,0.4c3.7,0,12.5-0.1,26.3-0.4
			c0.1,4.5,0.4,8.9,0.9,13.2h-2.7c-1-3.5-1.9-5.8-2.5-7c-0.4-0.8-1-1.3-1.6-1.6c-0.9-0.3-2.7-0.5-5.6-0.5h-15.6l-0.3,12.5
			L738.8,275.7z"/>
	</g>
	<g>
		<line class="st0" x1="289.2" y1="238" x2="791.8" y2="238"/>
		<rect x="289.2" y="235.5" class="st0" width="502.6" height="5"/>
	</g>
</g>
<g>
	<g>
		<g>
			<path class="st0" d="M582.7,101.2c0.1,0.1,0,0.2-0.1,0.1c-2.6-2.1-5.3-4.1-8.1-5.8c-3.5-2.1-7.1-3.9-10.9-5.3
				c-0.5-0.2-0.9-0.4-1.4-0.5c-0.5-0.2-0.9-0.3-1.4-0.5c-0.5-0.2-1-0.3-1.4-0.5c-0.5-0.1-1-0.3-1.4-0.4c-1.9-0.5-3.9-1-5.9-1.4
				c-2-0.4-4-0.6-6-0.8c-1.5-0.1-2.9-0.2-4.4-0.3c-0.1,0-0.1,0.1-0.1,0.2l3.2,3.5c0.1,0.1,0,0.2-0.1,0.1l-4.2-3.8c0,0,0,0-0.1,0H540
				h-0.3c0,0,0,0-0.1,0l-4.2,3.8c-0.1,0.1-0.2,0-0.1-0.1l3.2-3.5c0.1-0.1,0-0.2-0.1-0.2c-1.5,0-3,0.1-4.4,0.3c-2,0.2-4,0.5-6,0.8
				c-2,0.4-3.9,0.8-5.9,1.4c-1,0.3-1.9,0.6-2.9,0.9c-1,0.3-1.9,0.7-2.8,1c-3.8,1.4-7.4,3.2-10.8,5.3c-2.9,1.7-5.6,3.7-8.1,5.8
				c-0.1,0.1-0.2-0.1-0.1-0.1c5.3-5.2,11.7-9.4,18.6-12.3c0.9-0.4,1.9-0.8,2.9-1.1l0.7-0.3c0.2-0.1,0.5-0.2,0.7-0.2
				c0.5-0.2,1-0.3,1.5-0.5c2-0.6,4-1.1,6-1.5c2-0.4,4.1-0.7,6.1-0.9c1.5-0.1,3.1-0.2,4.6-0.3c0.1,0,0.1-0.1,0.1-0.2l-3.2-3.5
				c-0.1-0.1,0-0.2,0.1-0.1l4.2,3.8c0,0,0,0,0.1,0h0.3h0.3c0,0,0,0,0.1,0l4.2-3.8c0.1-0.1,0.2,0,0.1,0.1l-3.2,3.5
				c-0.1,0.1,0,0.2,0.1,0.2c1.5,0,3.1,0.1,4.6,0.3c2.1,0.2,4.1,0.5,6.1,0.9c2,0.4,4,0.9,6,1.5c0.5,0.1,1,0.3,1.5,0.5
				c0.5,0.2,1,0.3,1.5,0.5c0.5,0.2,1,0.4,1.4,0.5c0.5,0.2,1,0.4,1.4,0.6C571,91.8,577.4,96,582.7,101.2z"/>
		</g>
		<g>
			<path class="st0" d="M497.4,102.1c-0.2,0-0.4-0.1-0.5-0.2c-0.3-0.3-0.2-0.7,0-1c5.3-5.2,11.8-9.5,18.8-12.4
				c0.9-0.4,1.9-0.8,2.9-1.1l0.7-0.3c0.3-0.1,0.5-0.2,0.8-0.3c0.2,0,0.3-0.1,0.5-0.1c0.3-0.1,0.7-0.2,1-0.3c2-0.6,4-1.1,6-1.5
				c1.9-0.4,3.9-0.7,6.2-0.9c1.2-0.1,2.4-0.2,3.5-0.2l-2.4-2.7c-0.3-0.3-0.2-0.7,0-1c0.3-0.3,0.7-0.3,1,0l4,3.6h0.2l4-3.6
				c0.3-0.3,0.7-0.2,1,0c0.3,0.3,0.3,0.7,0,1l-2.4,2.7c1.2,0,2.4,0.1,3.5,0.2c2.1,0.2,4.1,0.5,6.2,0.9c2.1,0.4,4.1,0.9,6.1,1.5
				c0.3,0.1,0.6,0.2,0.9,0.3c0.2,0.1,0.4,0.1,0.6,0.2c0.5,0.2,1,0.3,1.5,0.5c0.4,0.1,0.8,0.3,1.1,0.4c0.1,0,0.2,0.1,0.3,0.1
				c0.3,0.1,0.6,0.2,0.8,0.3c0.2,0.1,0.4,0.2,0.6,0.2l0,0c6.9,2.9,13.4,7.2,18.8,12.4l0,0c0.3,0.3,0.3,0.7,0,1
				c-0.3,0.3-0.7,0.3-1,0.1c-2.6-2.2-5.4-4.1-8.1-5.7c-3.4-2.1-7.1-3.9-10.8-5.3c-0.1-0.1-0.3-0.1-0.4-0.2c-0.3-0.1-0.7-0.2-1-0.4
				c-0.1,0-0.3-0.1-0.4-0.1c-0.3-0.1-0.7-0.2-1-0.3l0,0c-0.1,0-0.2-0.1-0.4-0.1c-0.3-0.1-0.7-0.2-1.1-0.3l0,0
				c-0.5-0.1-1-0.3-1.4-0.4c-2.1-0.6-4-1-5.8-1.3c-1.9-0.4-3.9-0.6-5.9-0.8c-1-0.1-2-0.2-3.1-0.2l2.3,2.6c0.3,0.3,0.2,0.7,0,1
				c-0.3,0.3-0.7,0.3-1,0l-4-3.7h-0.2l-4.1,3.7c-0.3,0.3-0.7,0.2-1,0c-0.3-0.3-0.3-0.7,0-1l2.3-2.6c-1,0-2.1,0.1-3.1,0.2
				c-1.9,0.2-3.9,0.4-5.9,0.8c-1.9,0.4-3.9,0.8-5.8,1.4c-1.1,0.3-2,0.6-2.8,0.9c-0.9,0.3-1.8,0.6-2.8,1c-3.7,1.4-7.3,3.2-10.7,5.3
				c-2.7,1.6-5.4,3.6-8.1,5.8C497.7,102,497.5,102.1,497.4,102.1z M560.9,88.6c0.4,0.1,0.7,0.2,1,0.4c0.1,0,0.3,0.1,0.4,0.1
				c0.3,0.1,0.7,0.3,1,0.4c0.1,0.1,0.3,0.1,0.4,0.2c1.1,0.4,2.2,0.9,3.3,1.4c-1.1-0.5-2.1-1-3.2-1.5c-0.2-0.1-0.4-0.2-0.6-0.3
				c-0.3-0.1-0.5-0.2-0.8-0.3l0,0c-0.1,0-0.2-0.1-0.3-0.1c-0.4-0.1-0.7-0.3-1.1-0.4l0,0c-0.5-0.2-0.9-0.3-1.4-0.5
				c-0.2-0.1-0.4-0.1-0.6-0.2c-0.3-0.1-0.6-0.2-0.9-0.3c-1.9-0.6-3.9-1.1-5.9-1.5c-2-0.4-4-0.7-6.1-0.9c-1.5-0.1-3-0.2-4.6-0.3
				c-0.2,0-0.5-0.1-0.6-0.3l-0.1,0.1c-0.1,0.1-0.3,0.2-0.5,0.2h-0.6c-0.2,0-0.4-0.1-0.5-0.2l-0.1-0.1c-0.1,0.2-0.4,0.3-0.6,0.3
				c-1.5,0-3,0.1-4.6,0.3c-2.2,0.2-4.2,0.5-6,0.9c-2,0.4-4,0.9-5.9,1.5l0,0c-0.3,0.1-0.7,0.2-1,0.3c-0.2,0.1-0.3,0.1-0.5,0.2
				c-0.2,0.1-0.5,0.2-0.7,0.2l-0.7,0.3c-1,0.4-1.9,0.7-2.8,1.1c-0.9,0.4-1.8,0.8-2.7,1.2c0.9-0.4,1.8-0.7,2.7-1.1c1-0.4,2-0.7,2.9-1
				c0.9-0.3,1.8-0.6,2.9-0.9c2-0.6,4-1,5.9-1.4c2.1-0.4,4.1-0.7,6-0.8c1.5-0.1,3-0.2,4.5-0.3c0.3,0,0.5,0.1,0.6,0.3l0.2-0.2
				c0.1-0.1,0.3-0.2,0.5-0.2h0.6c0.2,0,0.4,0.1,0.5,0.2l0.2,0.2c0.1-0.2,0.4-0.3,0.6-0.3l0,0c1.6,0,3.1,0.1,4.5,0.3
				c2,0.2,4,0.5,6,0.8c1.9,0.3,3.8,0.8,5.9,1.4c0.5,0.1,1,0.3,1.5,0.4c0.4,0.1,0.7,0.2,1.1,0.3C560.7,88.5,560.8,88.6,560.9,88.6z"
				/>
		</g>
	</g>
	<g>
		<g>
			<path class="st0" d="M519.9,54.3c0-0.5,0-0.8,0-1.3c1.8-0.4,3.6-0.8,5.3-1.3c1.5-0.4,3-0.7,4.5-1.1c0.4,1.1,0.9,2.1,1.4,3.2
				c1.8,3.8,3.7,7.6,5.6,11.4c1.4,2.8,2.8,5.7,4.2,8.5c3-6.2,6-12.3,9.2-18.4c0.7-1.5,1.4-3,2-4.5c1.4,0.4,2.9,0.8,4.3,1.2
				c1.5,0.4,3.1,0.7,4.7,1.1c0,0.5,0,0.8,0,1.3c-0.4,0-0.7,0-0.9-0.1c-1-0.1-2.2-0.3-3.3,0c-0.4,0.2-0.5,0.9-0.5,2
				c0,0.1,0,0.2,0,0.3c0,2.2-0.1,4.5-0.1,6.7c0,5.2-0.1,10.3,0.1,15.5c0,0.4,0.1,0.7,0.3,0.9c0.9,0.8,2.4,1.3,3.6,1.9
				c0.2,0.1,0.4,0.2,0.8,0.4c0,0.5,0,0.8,0,1.3c-2.2-0.8-4.4-1.5-6.7-2c-2.3-0.5-4.7-0.8-7.1-0.9c0-0.5,0-0.8,0-1.3
				c0.6-0.1,1-0.1,1.3-0.2c1-0.1,2.1,0,3-0.3c0.2-0.1,0.4-0.3,0.5-0.5c0.3-1,0.2-2.3,0.2-3.4c0-6.2,0-12.4,0-18.6
				c-3.2,5.7-6,11.6-8.8,17.5c-1,2-1.9,4-2.8,6.1c-0.5,0-0.7,0-1.2,0c-3.6-7.9-7.6-15.7-11.8-23.4c0.1,6.6,0.2,13.2,0.3,19.8
				c0,0.9-0.1,2.2,0.4,2.6c0.5,0.4,2.2,0.3,3.2,0.3c0.2,0,0.5,0,1,0.1c0,0.5,0,0.8,0,1.3c-2,0.1-4,0.3-6,0.8c-2,0.4-4,1.1-5.9,1.8
				c0-0.5,0-0.8,0-1.3c0.4-0.2,0.7-0.4,0.9-0.5c1-0.5,2.3-1,3.1-1.8c0.5-0.9,0.5-2,0.5-3c0-1.6,0.1-3.2,0.1-4.8
				c0.1-4.2,0.1-8.5,0.1-12.7c0-0.9,0-1.7,0-2.6c0-1-0.1-1.7-0.2-1.9c-0.1-0.2-0.3-0.4-0.6-0.4c-1.2-0.1-2.4,0.1-3.6,0.2
				C520.8,54.2,520.4,54.3,519.9,54.3z"/>
		</g>
		<g>
			<path class="st0" d="M561.7,84.2l-0.9-0.3c-2.5-0.9-4.6-1.6-6.6-2c-2.1-0.4-4.3-0.7-7-0.9l-0.6,0v-2.4l0.5-0.1
				c0.5-0.1,1-0.1,1.3-0.2c0.3,0,0.6,0,0.8,0c0.7,0,1.4,0,2-0.2c0,0,0,0,0.1,0l0,0c0.2-0.7,0.2-1.6,0.2-2.4c0-0.3,0-0.5,0-0.8V58.7
				c-2.5,4.6-4.8,9.4-7,14l-0.6,1.2c-0.9,1.8-1.9,3.9-2.8,6.1l-0.2,0.4h-0.4c-0.5,0-0.7,0-1.2,0l-0.4,0l-0.2-0.4
				c-3.1-6.7-6.5-13.6-10.5-21.1c0,2.4,0.1,4.8,0.1,7.3c0,3.3,0.1,6.6,0.1,9.9c0,0.1,0,0.3,0,0.5c0,0.5,0,1.5,0.2,1.7
				c0.3,0.2,1.4,0.2,1.9,0.2c0.3,0,0.7,0,0.9,0c0.2,0,0.6,0,1,0.1l0.6,0.1v2.4l-0.6,0c-1.8,0.1-3.8,0.3-5.9,0.7
				c-1.7,0.4-3.5,0.9-5.9,1.8l-0.9,0.3v-2.5l0.3-0.2c0.4-0.3,0.7-0.4,0.9-0.5c0.2-0.1,0.4-0.2,0.7-0.3c0.8-0.4,1.6-0.8,2.2-1.3
				c0.3-0.6,0.4-1.5,0.4-2.3c0-0.1,0-0.3,0-0.4c0-0.8,0-1.6,0.1-2.4c0-0.8,0-1.6,0.1-2.4c0.1-3.8,0.1-8,0.1-12.7c0-0.4,0-0.9,0-1.3
				c0-0.4,0-0.9,0-1.3c0-1.2-0.1-1.5-0.1-1.6l0,0c0,0,0-0.1-0.1-0.1c-1-0.1-2,0-3,0.2c-0.1,0-0.2,0-0.3,0c-0.3,0.1-0.7,0.1-1.2,0.1
				l-0.7,0.1v-2.4l0.5-0.1c1.1-0.3,2.3-0.6,3.4-0.8c0.6-0.1,1.3-0.3,1.9-0.4c1.5-0.4,3-0.7,4.5-1.1l0.5-0.1l0.2,0.5
				c0.4,1,0.9,2.1,1.4,3.2c1.1,2.3,2.2,4.5,3.3,6.7c0.8,1.5,1.5,3.1,2.3,4.6c1.2,2.4,2.4,4.8,3.6,7.4c2.8-5.8,5.7-11.6,8.6-17.3
				c0.8-1.5,1.4-3.1,2-4.5l0.2-0.5l0.5,0.1c0.5,0.1,1,0.3,1.6,0.4c0.9,0.2,1.9,0.5,2.8,0.7c0.8,0.2,1.6,0.4,2.4,0.6
				c0.8,0.2,1.5,0.4,2.3,0.5l0.5,0.1V55l-0.7,0c-0.4,0-0.8,0-1-0.1c-0.2,0-0.4,0-0.6-0.1c-0.8-0.1-1.6-0.2-2.3,0
				c-0.1,0.1-0.2,0.4-0.2,1.4v0.3l-0.1,6.7c0,1.2,0,2.4,0,3.5c0,3.9,0,8,0.1,11.9c0,0.3,0.1,0.5,0.1,0.5c0.5,0.5,1.5,0.9,2.3,1.3
				c0.4,0.2,0.7,0.3,1.1,0.5c0.2,0.1,0.5,0.2,0.9,0.5l0.3,0.2V84.2z M548,79.7c2.5,0.2,4.6,0.4,6.6,0.9c1.8,0.4,3.7,0.9,5.8,1.7
				c-0.2-0.1-0.3-0.2-0.4-0.2c-0.3-0.2-0.7-0.3-1-0.5c-1-0.4-2-0.9-2.7-1.5c-0.3-0.3-0.5-0.8-0.5-1.4c-0.1-4-0.1-8-0.1-12
				c0-1.2,0-2.4,0-3.5l0.1-6.7l0-0.3c0-1.4,0.3-2.2,0.9-2.6l0.1,0l0.1,0c0.9-0.3,2-0.1,2.9,0c0.2,0,0.4,0,0.6,0.1c0.1,0,0.2,0,0.2,0
				v-0.1c-0.6-0.1-1.2-0.3-1.8-0.4c-0.8-0.2-1.6-0.4-2.4-0.6c-0.9-0.2-1.9-0.5-2.8-0.7c-0.3-0.1-0.7-0.2-1-0.3
				c-0.5,1.3-1.1,2.7-1.8,4c-3.1,6-6.2,12.2-9.2,18.4l-0.6,1.2l-0.6-1.1c-1.5-3-2.9-5.8-4.2-8.5c-0.8-1.5-1.5-3.1-2.3-4.6
				c-1.1-2.2-2.2-4.5-3.3-6.8c-0.4-0.9-0.8-1.8-1.2-2.7c-1.3,0.3-2.7,0.7-4,1c-0.6,0.1-1.3,0.3-1.9,0.4c-1,0.2-2,0.5-2.9,0.7v0.1
				c0.1,0,0.3,0,0.3-0.1l0.1,0c0.1,0,0.2,0,0.4,0c1.1-0.1,2.2-0.3,3.4-0.2l0,0c0.5,0.1,0.8,0.3,1.1,0.7c0.2,0.3,0.3,0.8,0.3,2.2
				c0,0.4,0,0.9,0,1.3c0,0.4,0,0.9,0,1.3c0,4.8,0,8.9-0.1,12.8c0,0.8,0,1.6-0.1,2.4c0,0.8,0,1.6-0.1,2.4c0,0.1,0,0.3,0,0.4
				c0,0.9-0.1,2-0.6,2.9l0,0.1l-0.1,0.1c-0.7,0.7-1.7,1.2-2.6,1.6c-0.2,0.1-0.4,0.2-0.6,0.3l0,0c-0.1,0-0.3,0.1-0.5,0.2
				c2-0.7,3.6-1.2,5.1-1.5c1.9-0.4,3.8-0.6,5.5-0.7v-0.1c-0.2,0-0.3,0-0.4,0c-0.2,0-0.5,0-0.9,0c-1.3,0-2.2,0-2.8-0.5
				c-0.6-0.5-0.6-1.6-0.6-2.6c0-0.2,0-0.3,0-0.5c0-3.3-0.1-6.6-0.1-10c0-3.3-0.1-6.6-0.1-9.9l0-2.6l1.2,2.3
				c4.4,8.2,8.2,15.7,11.6,23.1c0.1,0,0.3,0,0.4,0c0.9-2,1.8-4,2.6-5.7l0.6-1.2c2.6-5.4,5.3-11,8.2-16.3l1.2-2.1v21
				c0,0.3,0,0.5,0,0.8c0,1,0,1.9-0.2,2.8c-0.1,0.4-0.5,0.8-0.9,0.9c-0.7,0.2-1.5,0.2-2.3,0.2c-0.3,0-0.5,0-0.8,0
				c-0.1,0-0.4,0-0.7,0.1V79.7z M528.8,78.3C528.8,78.3,528.8,78.3,528.8,78.3C528.8,78.3,528.8,78.3,528.8,78.3z M524.6,54.7
				C524.6,54.7,524.6,54.7,524.6,54.7L524.6,54.7z"/>
		</g>
	</g>
</g>
</svg>
