<?xml version="1.0" encoding="utf-8"?>
<!-- Generator: Adobe Illustrator 26.0.0, SVG Export Plug-In . SVG Version: 6.00 Build 0)  -->
<svg version="1.1" id="Capa_1" xmlns="http://www.w3.org/2000/svg" xmlns:xlink="http://www.w3.org/1999/xlink" x="0px" y="0px"
	 viewBox="0 0 1080 1080" style="enable-background:new 0 0 1080 1080;" xml:space="preserve">
<style type="text/css">
	.st0{fill:#FFFFFF;}
</style>
<g>
	<path class="st0" d="M1010.4,810L1010.4,810c-58.3-56.7-129-103.3-204.7-135l-0.2-0.1c-2.2-0.8-4.4-1.8-6.6-2.7
		c-3-1.2-6.1-2.5-9.1-3.6c-1.2-0.4-2.3-0.9-3.5-1.4c-4-1.6-8.2-3.2-12.4-4.7c-5.1-1.9-10.6-3.8-16.1-5.6c-2.1-0.6-4.1-1.3-6.1-2
		c-3.3-1.1-6.6-2.2-10-3.2c-20.9-6.4-43.1-12-66.1-16.7c-22.1-4.4-44.8-7.7-67.3-10c-12.3-1.2-25-2-38-2.6l26.2-28.9
		c2.8-3.1,2.6-7.9-0.3-10.9c-3-3-7.8-3.1-11-0.3l-43.7,39.6H539l-43.8-39.7c-3.1-2.8-7.9-2.6-10.9,0.3c-3,3-3.1,7.8-0.3,11
		l26.2,28.9c-12.5,0.5-25.3,1.4-38.2,2.7c-24.3,2.5-46.3,5.9-67.3,10.1c-22,4.4-44.2,10-65.9,16.7c-3.9,1.1-7.6,2.3-11.3,3.5
		c-1.7,0.6-3.3,1.1-5,1.6c-2.7,0.9-5.4,1.7-8.2,2.7l-8,2.9c-11.4,4.1-21.7,8.2-31.6,12.4c-76.1,32.2-147.1,79-205.2,135.7
		c-3,3-3.1,7.8-0.3,11c1.6,1.7,3.7,2.6,5.9,2.6c1.8,0,3.6-0.6,5.1-1.8c29.1-24,58.7-45.2,88-63c37-22.6,76.4-42.1,117.1-57.7
		c10.8-4.2,20.8-7.7,30.7-11c9.3-3.2,19.5-6.3,31.1-9.6c21-5.9,42.3-10.9,63.4-14.8c22.3-4.1,44-7.1,64.5-8.9
		c11.2-1.1,22.5-1.9,33.8-2.4l-25.4,28.1c-2.8,3.1-2.6,7.9,0.3,10.9c3,3,7.8,3.1,11,0.3l44.3-40.1h2l44,40c3.1,2.8,7.9,2.6,10.9-0.3
		c3-3,3.1-7.8,0.3-11L571,655.5c11.9,0.5,23.1,1.3,33.9,2.3c21.6,2,43.3,5,64.5,8.9c19.9,3.5,40.6,8.3,63.3,14.7
		c5.2,1.5,10.5,3.1,15.6,4.6l0.1,0c3.8,1.1,7.7,2.4,11.5,3.6c1.3,0.4,2.6,0.9,3.9,1.3l0.1,0c3.6,1.1,7.1,2.3,10.8,3.7
		c1.5,0.5,3,1.1,4.5,1.6c3.6,1.2,7.2,2.6,10.7,4c1.5,0.6,3.1,1.2,4.5,1.7c40.3,15.4,79.7,34.7,117.2,57.5
		c29.6,17.9,59.2,38.9,88.1,62.6c3.3,2.6,8.1,2.3,10.9-0.9C1013.6,817.9,1013.4,813.1,1010.4,810z"/>
	<path class="st0" d="M334,308.9c1.2-0.2,2.4-0.3,3.5-0.5c11-1.5,22.3-3,33.1-2c1.2,0.2,1.4,0.7,1.6,1l0.1,0.1
		c0.2,0.6,1.2,3.9,1.2,17.4c0.1,4.7,0.1,9.4,0.1,14.1c0,4.7,0.1,9.4,0.1,14.1c-0.1,51.9-0.5,97.2-1.2,138.7
		c-0.2,8.8-0.4,17.6-0.6,26.4c-0.2,8.7-0.4,17.4-0.6,26c-0.1,1.5-0.1,3-0.1,4.6c-0.2,8.7-0.5,17.8-4.2,24.6
		c-6.3,5.9-15.3,10.1-24,14.2c-2.4,1.1-4.9,2.3-7.3,3.5c-2.3,1-5.6,2.8-10.3,5.6l-3.4,2v27.6l9.3-3.4c25.4-9.3,45.1-15.2,63.9-19.2
		c22.4-4.8,45-6.8,64.2-8.1l6.4-0.4v-26.4l-6.2-0.7c-4.9-0.5-8.7-0.9-11.2-1c-3-0.1-6.5-0.1-10.1-0.1c-5.8,0-17.9,0.2-20.7-1.7
		c-1.8-2.5-1.8-13.2-1.8-18.4c0-1.9,0-3.7,0-5.3c-0.5-36.2-1-72.3-1.5-108.4c-0.4-26.4-0.7-52.8-1.1-79.2
		c43.4,81.1,81.1,156.5,114.7,229.8l1.9,4.1l4.5-0.1c5.4-0.1,8-0.1,13.3-0.1h4.6l1.8-4.2c10-23.3,20.9-46.3,30.4-66.1l6.5-13.5
		c24.4-50.5,49.4-102.5,76.4-152.9l0,175.5c0,2.9,0,5.9,0.1,8.8c0.2,9.4,0.3,19.1-1.9,26.5l0,0c-0.1,0.2-0.4,0.4-0.6,0.5
		c-6.2,1.7-14.2,1.9-21.9,2.2c-3,0.1-6.1,0.2-9.2,0.4c-3.7,0.2-8.6,0.8-14.5,1.8l-5.8,0.9v26.2l6.5,0.4c29.2,1.7,53.4,4.7,76,9.5
		c21.9,4.7,44.7,11.6,71.6,21.8l9.4,3.5l0-27.7l-3.4-2c-4.4-2.6-7.5-4.2-9.3-5.1c-3.7-1.9-7.8-3.7-11.8-5.4
		c-9.6-4.3-19.6-8.7-25.5-14.3c-0.4-0.4-1.3-2.2-1.4-5.3c-1.6-43.2-1.4-87.4-1.3-130.1c0-12.9,0.1-25.7,0.1-38.5l1-73.5v-3
		c0-10.7,1.6-14.5,2.3-15.6c7.4-1.6,16.7-0.6,25,0.3c2.3,0.2,4.5,0.5,6.6,0.7c2.4,0.2,5.8,0.4,10.6,0.7l7.2,0.3v-26.4l-5.3-1.3
		c-8.3-2-16.8-4-25.1-5.9c-8.5-1.9-17.3-4-25.9-6.1c-10.1-2.4-20.4-5.3-30.3-8c-5.6-1.5-11.3-3.1-16.9-4.6l-5.9-1.6l-2.3,5.7
		c-5.9,14.8-13.1,32.1-21.4,48.7C612.5,373,580.9,436.4,550,499.9c-13.9-27.7-26.9-54-39.7-80.1c-8.3-16.9-16.7-34.1-24.9-50.7
		c-11.9-24.1-24.2-49-36.1-73.5c-5.5-11.5-10.5-23.4-15.2-34.5l-2.3-5.5L426,257c-16.1,4.2-32.7,8.5-49.1,12.3
		c-6.8,1.6-13.7,3.2-20.6,4.8c-12.3,2.9-25.1,5.8-37.5,8.9l-5.3,1.3V311l7.7-0.6C326.9,309.9,331,309.6,334,308.9z"/>
</g>
</svg>
