<?xml version="1.0" encoding="utf-8"?>
<!-- Generator: Adobe Illustrator 26.0.0, SVG Export Plug-In . SVG Version: 6.00 Build 0)  -->
<svg version="1.1" id="Capa_1" xmlns="http://www.w3.org/2000/svg" xmlns:xlink="http://www.w3.org/1999/xlink" x="0px" y="0px"
	 viewBox="0 0 1080 120" style="enable-background:new 0 0 1080 120;" xml:space="preserve">
<style type="text/css">
	.st0{fill:#53132E;}
	.st1{fill:#941751;}
	.st2{fill:#B13862;}
	.st3{fill:#D36062;}
	.st4{fill:#DF7A50;}
	.st5{fill:#D3A148;}
	.st6{fill:#DCB23C;}
	.st7{fill:#CDD744;}
	.st8{fill:#94C251;}
	.st9{fill:#57B367;}
	.st10{fill:#4098A8;}
	.st11{fill:#4869AE;}
	.st12{fill:#5F588D;}
	.st13{fill:#5E5972;}
	.st14{fill:#797A7C;}
	.st15{fill:#FFFFFF;}
</style>
<g>
	<g>
		<rect x="997.1" y="3.7" class="st0" width="70.3" height="85.3"/>
		<rect x="926.8" y="3.7" class="st1" width="70.3" height="85.3"/>
		<rect x="856.5" y="3.7" class="st2" width="70.3" height="85.3"/>
		<rect x="786.1" y="3.7" class="st3" width="70.3" height="85.3"/>
		<rect x="715.8" y="3.7" class="st4" width="70.3" height="85.3"/>
		<rect x="645.5" y="3.7" class="st5" width="70.3" height="85.3"/>
		<rect x="575.2" y="3.7" class="st6" width="70.3" height="85.3"/>
		<rect x="504.8" y="3.7" class="st7" width="70.3" height="85.3"/>
		<rect x="434.5" y="3.7" class="st8" width="70.3" height="85.3"/>
		<rect x="364.2" y="3.7" class="st9" width="70.3" height="85.3"/>
		<rect x="293.9" y="3.7" class="st10" width="70.3" height="85.3"/>
		<rect x="223.5" y="3.7" class="st11" width="70.3" height="85.3"/>
		<rect x="153.2" y="3.7" class="st12" width="70.3" height="85.3"/>
		<rect x="82.9" y="3.7" class="st13" width="70.3" height="85.3"/>
		<rect x="12.6" y="3.7" class="st14" width="70.3" height="85.3"/>
	</g>
	<g>
		<path class="st15" d="M1007.3,56.6h6.2V57c0,1.5,0.5,2.7,1.5,3.5c1,0.9,2.3,1.3,4,1.3c1.8,0,3-0.6,4-1.8c1-1.2,1.5-2.8,1.5-5
			c0-2.2-0.5-3.8-1.5-4.9c-1-1.1-2.4-1.7-4-1.7c-1.2,0-2.3,0.2-3.1,0.7c-0.9,0.5-1.7,1.2-2.5,2l-4.8-2.3l1.8-16.9h18.7v5.1h-13.7
			l-0.9,8.2c0.7-0.5,1.5-0.9,2.5-1.2c1-0.3,2.1-0.5,3.2-0.5c3,0,5.6,1,7.6,2.9c2.1,2,3,4.7,3,8.3c0,3.6-1.1,6.5-3.1,8.5
			c-2.1,2.2-5,3.1-8.6,3.1c-3.8,0-6.7-0.9-8.6-2.8c-2-1.8-2.9-4.1-2.9-6.9L1007.3,56.6L1007.3,56.6z"/>
		<path class="st15" d="M1034.5,43.4c0-3.6,1-6.5,2.9-8.7c2-2.3,4.8-3.3,8.5-3.3c3.6,0,6.5,1.1,8.4,3.3c2,2.3,3,5.1,3,8.7v11.1
			c0,3.6-1,6.6-3,8.7c-2,2.3-4.8,3.3-8.4,3.3c-3.7,0-6.5-1.1-8.5-3.3c-2-2.3-2.9-5.1-2.9-8.7V43.4z M1042.1,59.8
			c0.8,1.3,2.1,1.9,3.8,1.9s3-0.6,3.8-1.9c0.8-1.3,1.2-2.8,1.2-4.8V43c0-2-0.4-3.6-1.2-4.8c-0.8-1.3-2.1-1.9-3.8-1.9s-3,0.6-3.8,1.9
			c-0.8,1.3-1.2,2.8-1.2,4.8V55C1040.9,57,1041.3,58.7,1042.1,59.8z"/>
	</g>
	<g>
		<path class="st15" d="M951,56.7v-1.2V40.8h-0.3L942,53.5h10.4h1.7h6.8v4.8h-25.3v-4L951,32.1h5.9v33.8h-6.1v-9.1H951z"/>
		<path class="st15" d="M963.6,43.4c0-3.6,1-6.5,2.9-8.7c2-2.3,4.8-3.3,8.5-3.3c3.6,0,6.5,1.1,8.4,3.3c2,2.3,3,5.1,3,8.7v11.1
			c0,3.6-1,6.6-3,8.7c-2,2.3-4.8,3.3-8.4,3.3c-3.7,0-6.5-1.1-8.5-3.3c-2-2.3-2.9-5.1-2.9-8.7V43.4z M971.3,59.8
			c0.8,1.3,2.1,1.9,3.8,1.9c1.8,0,3-0.6,3.8-1.9c0.8-1.3,1.2-2.8,1.2-4.8V43c0-2-0.4-3.6-1.2-4.8c-0.8-1.3-2.1-1.9-3.8-1.9
			c-1.8,0-3,0.6-3.8,1.9c-0.8,1.3-1.2,2.8-1.2,4.8V55C970.1,57,970.5,58.7,971.3,59.8z"/>
	</g>
	<g>
		<path class="st15" d="M866.3,56.3h6.2v0.4c0,1.6,0.5,2.8,1.5,3.7c1,0.9,2.3,1.4,4,1.4c1.8,0,3-0.5,4-1.4s1.5-2.4,1.5-4.2
			c0-1.9-0.6-3.2-1.7-4.2s-2.7-1.4-4.6-1.4h-2.9V46h2.7c1.8,0,3.1-0.5,4-1.4s1.4-2.2,1.4-3.7s-0.4-2.8-1.2-3.5
			c-0.8-0.8-1.9-1.2-3.3-1.2s-2.7,0.4-3.4,1.2c-0.8,0.8-1.2,2-1.2,3.4v0.3H867v-0.3c0-2.6,1-4.8,2.9-6.7c2-1.9,4.6-2.8,8.1-2.8
			s6.1,0.9,8,2.6c1.9,1.7,2.8,3.8,2.8,6.3c0,1.8-0.4,3.3-1.3,4.7c-0.9,1.4-2.2,2.5-4,3.1v0.1c2,0.5,3.5,1.4,4.7,2.8
			c1.2,1.5,1.8,3.2,1.8,5.3c0,3.1-1.1,5.7-3.2,7.5c-2.2,1.8-5,2.8-8.7,2.8c-3.7,0-6.6-0.9-8.5-2.8c-2-1.9-2.9-4.2-2.9-7.1
			L866.3,56.3L866.3,56.3z"/>
		<path class="st15" d="M893.7,43.4c0-3.6,1-6.5,2.9-8.7c2-2.3,4.8-3.3,8.5-3.3c3.6,0,6.5,1.1,8.4,3.3c2,2.3,3,5.1,3,8.7v11.1
			c0,3.6-1,6.6-3,8.7c-2,2.3-4.8,3.3-8.4,3.3c-3.7,0-6.5-1.1-8.5-3.3c-2-2.3-2.9-5.1-2.9-8.7V43.4z M901.4,59.8
			c0.8,1.3,2.1,1.9,3.8,1.9c1.8,0,3-0.6,3.8-1.9c0.8-1.3,1.2-2.8,1.2-4.8V43c0-2-0.4-3.6-1.2-4.8c-0.8-1.3-2.1-1.9-3.8-1.9
			c-1.8,0-3,0.6-3.8,1.9c-0.8,1.3-1.2,2.8-1.2,4.8V55C900.1,57,900.5,58.7,901.4,59.8z"/>
	</g>
	<g>
		<path class="st15" d="M797,61.9l11.7-13.1c1.5-1.6,2.6-2.9,3.2-4.1c0.8-1.2,1.2-2.6,1.2-3.8c0-1.3-0.4-2.4-1.2-3.3
			c-0.8-0.9-2-1.4-3.5-1.4c-1.6,0-2.8,0.5-3.7,1.6c-1,1-1.5,2.6-1.5,4.4v0.5h-6.3v-0.6c0-3.1,1.1-5.8,3.1-7.8c2.1-2,4.9-3,8.3-3
			c3.5,0,6.3,0.9,8.3,2.7c1.9,1.8,2.8,3.9,2.8,6.6c0,2.3-0.6,4.2-1.8,6c-1.2,1.8-2.7,3.5-4.3,5.4l-8.3,8.8h15.2v5H797V61.9z"/>
		<path class="st15" d="M823.9,43.4c0-3.6,1-6.5,2.9-8.7c2-2.3,4.8-3.3,8.5-3.3c3.6,0,6.5,1.1,8.4,3.3c2,2.3,3,5.1,3,8.7v11.1
			c0,3.6-1,6.6-3,8.7c-2,2.3-4.8,3.3-8.4,3.3c-3.7,0-6.5-1.1-8.5-3.3c-2-2.3-2.9-5.1-2.9-8.7V43.4z M831.5,59.8
			c0.8,1.3,2.1,1.9,3.8,1.9c1.8,0,3-0.6,3.8-1.9c0.8-1.3,1.2-2.8,1.2-4.8V43c0-2-0.4-3.6-1.2-4.8c-0.8-1.3-2.1-1.9-3.8-1.9
			c-1.8,0-3,0.6-3.8,1.9c-0.8,1.3-1.2,2.8-1.2,4.8V55C830.3,57,830.7,58.7,831.5,59.8z"/>
	</g>
	<g>
		<path class="st15" d="M735.3,38.2l-8.2,3.2v-5.3l11.8-4.5h2.6v34.3h-6.3L735.3,38.2L735.3,38.2z"/>
		<path class="st15" d="M751.9,56.6h6.2V57c0,1.5,0.5,2.7,1.5,3.5c1,0.9,2.3,1.3,4,1.3c1.8,0,3-0.6,4-1.8c1-1.2,1.5-2.8,1.5-5
			c0-2.2-0.5-3.8-1.5-4.9c-1-1.1-2.4-1.7-4-1.7c-1.2,0-2.3,0.2-3.1,0.7c-0.9,0.5-1.7,1.2-2.5,2l-4.8-2.3l1.8-16.9h18.7v5.1h-13.7
			l-0.9,8.2c0.7-0.5,1.5-0.9,2.5-1.2c1-0.3,2.1-0.5,3.2-0.5c3,0,5.6,1,7.6,2.9c2.1,2,3,4.7,3,8.3c0,3.6-1.1,6.5-3.1,8.5
			c-2.1,2.2-5,3.1-8.6,3.1c-3.8,0-6.7-0.9-8.6-2.8c-2-1.8-2.9-4.1-2.9-6.9L751.9,56.6L751.9,56.6z"/>
	</g>
	<g>
		<path class="st15" d="M666.5,38.2l-8.2,3.2v-5.3l11.8-4.5h2.6v34.3h-6.3L666.5,38.2L666.5,38.2z"/>
		<path class="st15" d="M683.4,43.4c0-3.6,1-6.5,2.9-8.7c2-2.3,4.8-3.3,8.5-3.3c3.6,0,6.5,1.1,8.4,3.3c2,2.3,3,5.1,3,8.7v11.1
			c0,3.6-1,6.6-3,8.7c-2,2.3-4.8,3.3-8.4,3.3c-3.7,0-6.5-1.1-8.5-3.3c-2-2.3-2.9-5.1-2.9-8.7V43.4z M691,59.8
			c0.8,1.3,2.1,1.9,3.8,1.9c1.8,0,3-0.6,3.8-1.9c0.8-1.3,1.2-2.8,1.2-4.8V43c0-2-0.4-3.6-1.2-4.8c-0.8-1.3-2.1-1.9-3.8-1.9
			s-3,0.6-3.8,1.9c-0.8,1.3-1.2,2.8-1.2,4.8V55C689.8,57,690.2,58.7,691,59.8z"/>
	</g>
	<g>
		<path class="st15" d="M601.2,51.5c1.3-1.5,2.8-2.5,4.4-3v-0.1c-1.5-0.7-2.7-1.7-3.7-2.9c-1-1.4-1.5-2.9-1.5-4.9
			c0-2.8,1-4.9,2.9-6.6s4.5-2.6,7.8-2.6c3.2,0,5.8,0.9,7.8,2.6c2,1.7,2.9,3.9,2.9,6.7c0,2-0.5,3.5-1.4,4.9c-1,1.3-2.2,2.4-3.6,2.9
			v0.1c1.8,0.6,3.1,1.6,4.3,3c1.2,1.5,1.8,3.2,1.8,5.4c0,3-1.1,5.4-3.2,7.2c-2.2,1.7-5,2.6-8.5,2.6c-3.4,0-6.3-0.9-8.4-2.6
			c-2.2-1.7-3.2-4.1-3.2-7.2C599.3,54.7,599.9,53,601.2,51.5z M607,60.4c1,1,2.4,1.5,4,1.5c1.8,0,3-0.5,4-1.5s1.5-2.4,1.5-3.9
			c0-1.7-0.5-3-1.4-4c-1-1-2.3-1.6-4.1-1.6c-1.8,0-3.1,0.5-4.1,1.6c-1,1-1.4,2.4-1.4,4C605.5,58.1,606,59.5,607,60.4z M607.6,44.9
			c0.8,1,2,1.5,3.4,1.5s2.7-0.5,3.4-1.5s1.2-2.3,1.2-3.7s-0.4-2.8-1.2-3.6c-0.8-1-2-1.4-3.4-1.4s-2.7,0.5-3.4,1.4
			c-0.8,1-1.2,2.2-1.2,3.6C606.4,42.7,606.8,43.9,607.6,44.9z"/>
	</g>
	<g>
		<path class="st15" d="M526.9,50.9c0-5.9,1.7-10.5,5-14c3.3-3.5,8.2-5.3,14.6-5.3h0.6v4.9h-0.6c-4.3,0-7.7,1.1-10.1,3.3
			s-3.6,5.9-3.6,10.9l0.3,1.2c0,3.7,0.6,6.3,1.7,7.8c1.2,1.5,2.7,2.2,4.4,2.2c1.9,0,3.2-0.6,4.1-1.8c0.9-1.2,1.4-2.8,1.4-5.1
			c0-2.1-0.5-3.7-1.4-5c-1-1.2-2.4-1.9-4.2-1.9c-1.7,0-3.1,0.6-4.3,1.9c-1.2,1.2-1.8,2.8-1.8,4.9H531c0-3.2,0.9-6,2.6-8.2
			c1.7-2.2,4.1-3.2,7.1-3.2c3.2,0,5.7,1.1,7.6,3.1c1.9,2.1,2.8,4.8,2.8,8.3c0,3.4-1.1,6.3-3.1,8.4c-2.2,2.2-5,3.2-8.5,3.2
			c-3.4,0-6.4-1.2-8.7-3.4c-2.4-2.3-3.5-6.1-3.5-11.4V50.9z"/>
	</g>
	<g>
		<path class="st15" d="M471.1,56.7v-1.2V40.8h-0.3l-8.6,12.7h10.4h1.7h6.8v4.8h-25.3v-4l15.4-22.2h5.9v33.8h-6.1v-9.1H471.1z"/>
	</g>
	<g>
		<path class="st15" d="M387.6,61.9l11.7-13.1c1.5-1.6,2.6-2.9,3.2-4.1c0.8-1.2,1.2-2.6,1.2-3.8c0-1.3-0.4-2.4-1.2-3.3
			c-0.8-0.9-2-1.4-3.5-1.4c-1.6,0-2.8,0.5-3.7,1.6c-1,1-1.5,2.6-1.5,4.4v0.5h-6.3v-0.6c0-3.1,1.1-5.8,3.1-7.8c2.1-2,4.9-3,8.3-3
			c3.5,0,6.3,0.9,8.3,2.7c1.9,1.8,2.8,3.9,2.8,6.6c0,2.3-0.6,4.2-1.8,6c-1.2,1.8-2.7,3.5-4.3,5.4l-8.3,8.8h15.2v5h-23.3L387.6,61.9
			L387.6,61.9z"/>
	</g>
	<g>
		<path class="st15" d="M326,38.2l-8.2,3.2v-5.3l11.8-4.5h2.6v34.3h-6.3L326,38.2L326,38.2z"/>
	</g>
	<g>
		<path class="st15" d="M231.1,37c0-2.1,0.6-3.8,1.8-5.1c1.2-1.3,2.8-2,4.9-2c2.2,0,3.7,0.7,4.9,2c1.2,1.3,1.8,2.9,1.8,5.1v6.5
			c0,2.2-0.6,3.8-1.8,5.1c-1.2,1.3-2.8,2-4.9,2c-2.2,0-3.8-0.7-4.9-2c-1.1-1.3-1.8-2.9-1.8-5.1V37z M235.5,46.6
			c0.5,0.7,1.2,1.1,2.3,1.1c1.1,0,1.8-0.4,2.3-1.1c0.5-0.7,0.7-1.7,0.7-2.8v-7.1c0-1.2-0.2-2.1-0.7-2.8c-0.5-0.7-1.2-1.1-2.3-1.1
			c-1,0-1.8,0.4-2.3,1.1c-0.5,0.7-0.7,1.7-0.7,2.8v7.1C234.8,44.9,235.1,45.8,235.5,46.6z"/>
		<path class="st15" d="M250,60c0.7-0.7,1.7-1.1,2.8-1.1c1.3,0,2.3,0.4,2.9,1.1c0.7,0.7,1,1.6,1,2.7c0,1-0.3,1.9-1,2.7
			c-0.7,0.7-1.7,1.1-2.9,1.1s-2.3-0.4-2.8-1.1c-0.7-0.7-1-1.6-1-2.7C249,61.7,249.3,60.8,250,60z"/>
		<path class="st15" d="M261.9,56.6h6.2V57c0,1.5,0.5,2.7,1.5,3.5c1,0.9,2.3,1.3,4,1.3s3-0.6,4-1.8c1-1.2,1.5-2.8,1.5-5
			c0-2.2-0.5-3.8-1.5-4.9c-1-1.1-2.4-1.7-4-1.7c-1.2,0-2.3,0.2-3.1,0.7s-1.7,1.2-2.5,2l-4.8-2.3l1.8-16.9h18.7v5.1h-13.7l-0.9,8.2
			c0.7-0.5,1.5-0.9,2.5-1.2c1-0.3,2.1-0.5,3.2-0.5c3,0,5.6,1,7.6,2.9c2.1,2,3,4.7,3,8.3c0,3.6-1.1,6.5-3.1,8.5
			c-2.1,2.2-5,3.1-8.6,3.1c-3.8,0-6.7-0.9-8.6-2.8c-2-1.8-2.9-4.1-2.9-6.9L261.9,56.6L261.9,56.6z"/>
	</g>
	<g>
		<path class="st15" d="M161.7,37c0-2.1,0.6-3.8,1.8-5.1c1.2-1.3,2.8-2,4.9-2c2.2,0,3.7,0.7,4.9,2c1.2,1.3,1.8,2.9,1.8,5.1v6.5
			c0,2.2-0.6,3.8-1.8,5.1c-1.2,1.3-2.8,2-4.9,2c-2.2,0-3.8-0.7-4.9-2c-1.1-1.3-1.8-2.9-1.8-5.1V37z M166.1,46.6
			c0.5,0.7,1.2,1.1,2.3,1.1c1.1,0,1.8-0.4,2.3-1.1c0.5-0.7,0.7-1.7,0.7-2.8v-7.1c0-1.2-0.2-2.1-0.7-2.8c-0.5-0.7-1.2-1.1-2.3-1.1
			c-1,0-1.8,0.4-2.3,1.1c-0.5,0.7-0.7,1.7-0.7,2.8v7.1C165.4,44.9,165.7,45.8,166.1,46.6z"/>
		<path class="st15" d="M180.5,60c0.7-0.7,1.7-1.1,2.8-1.1c1.3,0,2.3,0.4,2.9,1.1c0.7,0.7,1,1.6,1,2.7c0,1-0.3,1.9-1,2.7
			c-0.7,0.7-1.7,1.1-2.9,1.1s-2.3-0.4-2.8-1.1c-0.7-0.7-1-1.6-1-2.7C179.6,61.7,179.8,60.8,180.5,60z"/>
		<path class="st15" d="M192.8,61.9l11.7-13.1c1.5-1.6,2.6-2.9,3.2-4.1c0.8-1.2,1.2-2.6,1.2-3.8c0-1.3-0.4-2.4-1.2-3.3
			c-0.8-0.9-2-1.4-3.5-1.4c-1.6,0-2.8,0.5-3.7,1.6c-1,1-1.5,2.6-1.5,4.4v0.5h-6.3v-0.6c0-3.1,1.1-5.8,3.1-7.8c2.1-2,4.9-3,8.3-3
			c3.5,0,6.3,0.9,8.3,2.7c1.9,1.8,2.8,3.9,2.8,6.6c0,2.3-0.6,4.2-1.8,6c-1.2,1.8-2.7,3.5-4.3,5.4l-8.3,8.8h15.2v5h-23.3V61.9z"/>
	</g>
	<g>
		<path class="st15" d="M90.3,37c0-2.1,0.6-3.8,1.8-5.1c1.2-1.3,2.8-2,4.9-2c2.2,0,3.7,0.7,4.9,2s1.8,2.9,1.8,5.1v6.5
			c0,2.2-0.6,3.8-1.8,5.1c-1.2,1.3-2.8,2-4.9,2c-2.2,0-3.8-0.7-4.9-2c-1.1-1.3-1.8-2.9-1.8-5.1V37z M94.8,46.6
			c0.5,0.7,1.2,1.1,2.3,1.1c1.1,0,1.8-0.4,2.3-1.1c0.5-0.7,0.7-1.7,0.7-2.8v-7.1c0-1.2-0.2-2.1-0.7-2.8c-0.5-0.7-1.2-1.1-2.3-1.1
			c-1,0-1.8,0.4-2.3,1.1c-0.5,0.7-0.7,1.7-0.7,2.8v7.1C94,44.9,94.3,45.8,94.8,46.6z"/>
		<path class="st15" d="M109.1,60c0.7-0.7,1.7-1.1,2.8-1.1c1.3,0,2.3,0.4,2.9,1.1c0.7,0.7,1,1.6,1,2.7c0,1-0.3,1.9-1,2.7
			c-0.7,0.7-1.7,1.1-2.9,1.1s-2.3-0.4-2.8-1.1c-0.7-0.7-1-1.6-1-2.7C108.1,61.7,108.4,60.8,109.1,60z"/>
		<path class="st15" d="M131.3,38.2l-8.2,3.2v-5.3l11.8-4.5h2.6v34.3h-6.3L131.3,38.2L131.3,38.2z"/>
	</g>
	<g>
		<path class="st15" d="M34.9,43.4c0-3.6,1-6.5,2.9-8.7c2-2.3,4.8-3.3,8.5-3.3c3.6,0,6.5,1.1,8.4,3.3c2,2.3,3,5.1,3,8.7v11.1
			c0,3.6-1,6.6-3,8.7c-2,2.3-4.8,3.3-8.4,3.3c-3.7,0-6.5-1.1-8.5-3.3c-2-2.3-2.9-5.1-2.9-8.7V43.4z M42.4,59.8
			c0.8,1.3,2.1,1.9,3.8,1.9c1.8,0,3-0.6,3.8-1.9c0.8-1.3,1.2-2.8,1.2-4.8V43c0-2-0.4-3.6-1.2-4.8c-0.8-1.3-2.1-1.9-3.8-1.9
			c-1.8,0-3,0.6-3.8,1.9c-0.8,1.3-1.2,2.8-1.2,4.8V55C41.3,57,41.7,58.7,42.4,59.8z"/>
	</g>
</g>
<rect x="12.6" y="89" class="st15" width="1054.9" height="31"/>
<g>
	<path d="M519.9,95.6h3.6l4.9,12.7c0.1,0.3,0.2,0.5,0.3,0.8c0.1,0.3,0.2,0.5,0.2,0.8h0.1c0.1-0.3,0.1-0.5,0.2-0.8s0.2-0.5,0.3-0.8
		l4.9-12.7h3.6v17.7h-2.7v-12.3c0-0.3,0-0.5,0-0.8s0-0.6,0.1-0.8h-0.1c0,0.3-0.1,0.5-0.2,0.8s-0.2,0.6-0.3,0.8l-4.8,12.3h-2.4
		l-4.7-12.3c-0.1-0.3-0.2-0.5-0.3-0.8c-0.1-0.3-0.2-0.6-0.2-0.8h-0.1c0,0.3,0.1,0.5,0.1,0.8s0,0.6,0,0.8v12.3h-2.5V95.6z"/>
	<path d="M542,95.6h3.6l4.9,12.7c0.1,0.3,0.2,0.5,0.3,0.8c0.1,0.3,0.2,0.5,0.2,0.8h0.1c0.1-0.3,0.1-0.5,0.2-0.8s0.2-0.5,0.3-0.8
		l4.9-12.7h3.6v17.7h-2.7v-12.3c0-0.3,0-0.5,0-0.8s0-0.6,0.1-0.8h-0.1c0,0.3-0.1,0.5-0.2,0.8s-0.2,0.6-0.3,0.8l-4.8,12.3h-2.4
		l-4.7-12.3c-0.1-0.3-0.2-0.5-0.3-0.8c-0.1-0.3-0.2-0.6-0.2-0.8h-0.1c0,0.3,0.1,0.5,0.1,0.8s0,0.6,0,0.8v12.3H542V95.6z"/>
</g>
</svg>
