<svg id="Capa_1" data-name="Capa 1" xmlns="http://www.w3.org/2000/svg" viewBox="0 0 502.6 257.59"><defs><style>.cls-1{fill:#fff;}</style></defs><path class="cls-1" d="M16.53,120.53V118c4.73.31,8.32.47,10.79.47q4.2,0,9-.47,1.74,4.45,2.79,6.8,1.41,3.14,11.06,23.82,4.11,8.79,8.3,17.16l18.12-38.14q1.65-3.52,3.94-9.64,5.7.47,8.71.47c1.87,0,5-.16,9.47-.47v2.51c-.85.22-1.49.38-1.91.46q-5.91,1.2-6.58,1.74-1.11.85-1.11,4.29v.55L89,141q0,25.38.22,30.81a2.27,2.27,0,0,0,.65,1.7c.41.37,2.83,1,7.24,1.82.37.06.92.19,1.66.38v2.51q-7.65-.47-13.46-.47t-14.05.47v-2.51c1.11-.28,1.94-.48,2.51-.59a35.7,35.7,0,0,0,5.92-1.38,2,2,0,0,0,1-1.12,33.5,33.5,0,0,0,.39-6.88V128.72q-3.87,7.64-17.43,36.8-3.73,8-5.52,12.26H55.69q-9.49-21.09-23.28-49.06L33,168.27c0,3.15.25,4.94.76,5.39s2.65,1,6.41,1.66l1.95.42v2.51q-7.34-.47-11.88-.47t-12,.47v-2.51c.82-.22,1.43-.36,1.82-.42,3.74-.74,5.83-1.37,6.28-1.91q1-1.18,1.07-5.81l.21-9.55q.21-13.08.21-25.34l0-5.18a11.68,11.68,0,0,0-.38-3.88,2.27,2.27,0,0,0-1.23-1.13A42.66,42.66,0,0,0,18.91,121C18.37,121,17.58,120.78,16.53,120.53Z" transform="translate(1.44 -1.13)"/><path class="cls-1" d="M109.1,149.43l-2.76-.3a78.67,78.67,0,0,0,1.19-8.78q8.27-3.73,14.92-3.74a15.52,15.52,0,0,1,5.21.83,9.16,9.16,0,0,1,3.69,2.29,9.78,9.78,0,0,1,2.05,3.5,21.69,21.69,0,0,1,.7,6.5l-.38,17.53c0,2.37.27,3.93.81,4.67a2.47,2.47,0,0,0,2.08,1.1c1,0,2.61-.77,4.79-2.29l1.32,1.74q-6,5.34-6.54,5.68a5.83,5.83,0,0,1-3,.68,6.11,6.11,0,0,1-4.27-1.38,7.78,7.78,0,0,1-2-4.64,40.19,40.19,0,0,1-7.56,5,13.45,13.45,0,0,1-5.34,1,10.3,10.3,0,0,1-7.6-2.86,9.85,9.85,0,0,1-2.89-7.32,11.5,11.5,0,0,1,1-4.91,11.64,11.64,0,0,1,2.93-3.84,27.43,27.43,0,0,1,5-3q8.27-4,14.43-6.49c-.14-4-.81-6.64-2-7.94s-3-1.95-5.46-1.95a8.77,8.77,0,0,0-6,2.14A18.22,18.22,0,0,0,109.1,149.43Zm17.83,4.71q-11.09,5-13.39,7.24a7.91,7.91,0,0,0-.58,10.55,5.36,5.36,0,0,0,4.08,1.9,10.79,10.79,0,0,0,5.24-1.59,8.44,8.44,0,0,0,3.74-3.58c.6-1.33.91-3.75.91-7.26Z" transform="translate(1.44 -1.13)"/><path class="cls-1" d="M144.46,144.46v-2.37a47.43,47.43,0,0,0,13.5-5.48l1.1.81a66.3,66.3,0,0,0-.81,9c3.42-4.18,5.82-6.74,7.17-7.68a8.3,8.3,0,0,1,4.8-1.4,11,11,0,0,1,4.07.89c-.62,2.9-1.13,5.85-1.52,8.87h-2.13a5.59,5.59,0,0,0-1.27-2.95,2.71,2.71,0,0,0-2-.91,6,6,0,0,0-3.65,1.56,13.9,13.9,0,0,0-4.18,5.37,22.4,22.4,0,0,0-1.3,8.58A100.26,100.26,0,0,0,158.8,172a3,3,0,0,0,1.17,2q1,.72,6,1.86v2.38q-5.31-.47-9.64-.47-3.6,0-11.93.47v-2.38q5.82-1.44,6.56-2.23c.5-.52.74-1.93.74-4.22l.09-9.21q0-13.54-.26-14.56a2.15,2.15,0,0,0-2.36-1.74,24.43,24.43,0,0,0-3.63.43Z" transform="translate(1.44 -1.13)"/><path class="cls-1" d="M208.59,150.87l-2.84-.21q-.18-5.37-2.7-7.95a9.2,9.2,0,0,0-6.9-2.57,11.55,11.55,0,0,0-6,1.72,11.22,11.22,0,0,0-4.52,5.61,22.54,22.54,0,0,0-1.64,8.81q0,7.91,3.84,12.35t8.89,4.44q5.31,0,12.78-4.2l1.57,2.55A64.65,64.65,0,0,1,200,178.33a12.69,12.69,0,0,1-5.18.94q-7.42,0-12-4.33-6.06-5.73-6.07-15.54,0-10.14,6.37-16.68a21.07,21.07,0,0,1,15.7-6.53,25,25,0,0,1,12.27,3.27c-.2,1-.48,2.2-.85,3.73Q209.48,146.2,208.59,150.87Z" transform="translate(1.44 -1.13)"/><path class="cls-1" d="M213.94,123.67v-2.46c3.74-1.11,6.51-2,8.3-2.72a40.15,40.15,0,0,0,5.36-2.63l1.06.63q-.37,3.36-.55,8.83-.37,11.34-.38,15.62c0,.82,0,2.22,0,4.2l5.56-5.39a11.27,11.27,0,0,1,3.36-2,15,15,0,0,1,5.05-.85,11.56,11.56,0,0,1,7.76,2.46,10.11,10.11,0,0,1,3.4,6.83q.25,2.51.25,23.65c0,2.17.22,3.52.66,4s2,1.07,4.73,1.7c.31,0,.75.15,1.32.29v2.38q-7.61-.47-10.78-.47c-2.77,0-6,.16-9.76.47v-2.38l5.13-1.57a2.21,2.21,0,0,0,.83-.68,3.41,3.41,0,0,0,.53-1.53,34.67,34.67,0,0,0,.21-4.58l.3-12.22c0-4-.25-6.62-.74-8a6.72,6.72,0,0,0-2.58-3.27,7.38,7.38,0,0,0-4.22-1.25,10.5,10.5,0,0,0-6,1.89,9.9,9.9,0,0,0-3.87,4.75q-1.08,2.87-1.08,9.78a119.18,119.18,0,0,0,.38,12.31,4.06,4.06,0,0,0,.83,2.34,17,17,0,0,0,4.48,1.57q.47.12,1.44.42v2.38c-4.16-.31-7.59-.47-10.27-.47s-6.19.16-10.23.47v-2.38l1.36-.38c2.54-.68,4-1.2,4.35-1.57s.58-1.63.7-3.78q.25-5.29.25-20.63,0-23.55-.59-24.91a2.5,2.5,0,0,0-2.55-1.36A30.49,30.49,0,0,0,213.94,123.67Z" transform="translate(1.44 -1.13)"/><path class="cls-1" d="M269.41,149.43l-2.76-.3a78.67,78.67,0,0,0,1.19-8.78q8.27-3.73,14.91-3.74a15.58,15.58,0,0,1,5.22.83,9,9,0,0,1,3.68,2.29,9.8,9.8,0,0,1,2.06,3.5,22,22,0,0,1,.7,6.5L294,167.26c0,2.37.26,3.93.8,4.67a2.48,2.48,0,0,0,2.08,1.1c1,0,2.62-.77,4.8-2.29l1.31,1.74q-6,5.34-6.53,5.68a5.83,5.83,0,0,1-3,.68,6.11,6.11,0,0,1-4.27-1.38,7.78,7.78,0,0,1-2-4.64,40.19,40.19,0,0,1-7.56,5,13.47,13.47,0,0,1-5.35,1,10.29,10.29,0,0,1-7.59-2.86,9.85,9.85,0,0,1-2.89-7.32,11.11,11.11,0,0,1,3.95-8.75,27.63,27.63,0,0,1,5-3q8.28-4,14.44-6.49-.23-6-2-7.94t-5.47-1.95a8.8,8.8,0,0,0-5.95,2.14A18.21,18.21,0,0,0,269.41,149.43Zm17.83,4.71q-11.08,5-13.4,7.24a7.92,7.92,0,0,0-.57,10.55,5.36,5.36,0,0,0,4.08,1.9,10.79,10.79,0,0,0,5.24-1.59,8.41,8.41,0,0,0,3.73-3.58q.92-2,.92-7.26Z" transform="translate(1.44 -1.13)"/><path class="cls-1" d="M304.55,144.46V142a49.64,49.64,0,0,0,13.84-5.39l1.15.72a57.72,57.72,0,0,0-.73,7.43l5.39-5.35a10.18,10.18,0,0,1,3.19-1.86,14.66,14.66,0,0,1,5.22-.94q6.06,0,9.17,4c1.38,1.79,2.08,4.86,2.08,9.21l-.13,10.28q0,10.31.25,12.18a2.88,2.88,0,0,0,.81,1.78,13.4,13.4,0,0,0,4,1.32l1.91.46v2.38c-3.35-.31-6.32-.47-8.93-.47q-3.41,0-11.65.47v-2.38q5-1.44,5.57-2a2.42,2.42,0,0,0,.75-1.66,128,128,0,0,0,.47-12.86,86.26,86.26,0,0,0-.39-11.16,7.23,7.23,0,0,0-2.5-4.33,7.09,7.09,0,0,0-4.58-1.53A10.6,10.6,0,0,0,324,144a10,10,0,0,0-4,4.39,20,20,0,0,0-1.3,8.15q0,15.28.64,16.53c.43.84,2.08,1.62,5,2.36.36.08.9.22,1.61.42v2.38q-5.7-.47-9.57-.47t-11.14.47v-2.38q5-1.19,5.72-1.74a2.79,2.79,0,0,0,.6-1.78,100.91,100.91,0,0,0,.47-11q0-14.4-.3-15.62a2.29,2.29,0,0,0-2.5-1.79,21.92,21.92,0,0,0-2.93.3C305.84,144.31,305.29,144.38,304.55,144.46Z" transform="translate(1.44 -1.13)"/><path class="cls-1" d="M363.8,127.27h2.47l-1,10.83,11.76-.13.34.67a33.08,33.08,0,0,0-2,3.7q-5-.22-10.14-.3l-.38,21.82v.26c0,3.36.37,5.79,1.12,7.27a4,4,0,0,0,3.84,2.23,13.87,13.87,0,0,0,5.94-1.91l1.24,2.42a45.08,45.08,0,0,1-7.05,3.8,12.13,12.13,0,0,1-4.2.91,7.76,7.76,0,0,1-4.76-1.46,7,7,0,0,1-2.58-4q-.39-1.46-.39-8.83,0-7.91.47-22.46-3,.08-6.15.3v-2.29a19.16,19.16,0,0,0,6.17-4.4A32.83,32.83,0,0,0,363.8,127.27Z" transform="translate(1.44 -1.13)"/><path class="cls-1" d="M379.93,144v-2.38a53.45,53.45,0,0,0,13.41-5.43l1.11.89q-.85,9-.85,25.51a66.67,66.67,0,0,0,.38,9.5,3,3,0,0,0,.89,1.72,17.86,17.86,0,0,0,4.42,1.64c.31.08.77.22,1.4.42v2.38q-5.56-.47-9.13-.47-2.16,0-11.63.47v-2.38q5.73-1.4,6.45-2.57t.72-12.2l0-9v-1.74q0-4.75-.63-5.73a2.27,2.27,0,0,0-2-1C383.79,143.62,382.31,143.74,379.93,144Zm10.57-28.23a4.44,4.44,0,0,1,4.46,4.46,4.34,4.34,0,0,1-1.3,3.14,4.39,4.39,0,0,1-6.28,0,4.49,4.49,0,0,1,0-6.3A4.22,4.22,0,0,1,390.5,115.77Z" transform="translate(1.44 -1.13)"/><path class="cls-1" d="M436.72,150.87l-2.84-.21c-.12-3.58-1-6.23-2.7-7.95a9.19,9.19,0,0,0-6.89-2.57,11.56,11.56,0,0,0-6,1.72,11.27,11.27,0,0,0-4.52,5.61,22.54,22.54,0,0,0-1.64,8.81q0,7.91,3.85,12.35t8.89,4.44q5.3,0,12.77-4.2l1.57,2.55a65,65,0,0,1-11.07,6.91,12.75,12.75,0,0,1-5.18.94q-7.44,0-12-4.33-6.07-5.73-6.07-15.54,0-10.14,6.36-16.68a21.09,21.09,0,0,1,15.71-6.53,25,25,0,0,1,12.26,3.27c-.2,1-.48,2.2-.85,3.73C437.85,145.2,437.32,147.76,436.72,150.87Z" transform="translate(1.44 -1.13)"/><path class="cls-1" d="M449.58,149.43l-2.76-.3a78.67,78.67,0,0,0,1.19-8.78q8.26-3.73,14.92-3.74a15.52,15.52,0,0,1,5.21.83,9.16,9.16,0,0,1,3.69,2.29,9.93,9.93,0,0,1,2.05,3.5,21.69,21.69,0,0,1,.7,6.5l-.38,17.53c0,2.37.27,3.93.8,4.67a2.5,2.5,0,0,0,2.09,1.1c1,0,2.61-.77,4.79-2.29l1.32,1.74q-6,5.34-6.54,5.68a5.83,5.83,0,0,1-3,.68,6.11,6.11,0,0,1-4.27-1.38,7.78,7.78,0,0,1-2-4.64,40.19,40.19,0,0,1-7.56,5,13.47,13.47,0,0,1-5.35,1,10.29,10.29,0,0,1-7.59-2.86,9.85,9.85,0,0,1-2.89-7.32,11.5,11.5,0,0,1,1-4.91,11.64,11.64,0,0,1,2.93-3.84,27.43,27.43,0,0,1,5-3q8.26-4,14.43-6.49c-.14-4-.81-6.64-2-7.94s-3-1.95-5.46-1.95A8.77,8.77,0,0,0,454,142.7,18.1,18.1,0,0,0,449.58,149.43Zm17.83,4.71q-11.09,5-13.39,7.24a7.91,7.91,0,0,0-.58,10.55,5.36,5.36,0,0,0,4.08,1.9,10.79,10.79,0,0,0,5.24-1.59,8.44,8.44,0,0,0,3.74-3.58c.6-1.33.91-3.75.91-7.26Z" transform="translate(1.44 -1.13)"/><path class="cls-1" d="M43.48,202.67V205c-.9.21-1.57.35-2,.43q-5.14.88-6,1.68t-.81,3.54V212l-.19,15.55.11,22.59c0,1.81.27,2.95.79,3.44s2.34.92,5.44,1.28c.59.08,1.45.23,2.59.46v2.28q-6.22-.42-12-.42-6,0-13.07.42v-2.28a14.08,14.08,0,0,1,1.7-.38c3.66-.6,5.75-1.14,6.28-1.65s.8-1.77.8-3.81l-.08-1.93.11-14.2q0-21.88-.11-24.21a2.79,2.79,0,0,0-.83-2c-.5-.46-2.44-1-5.83-1.66-.46-.11-1.15-.27-2-.51v-2.28q8.4.44,13.13.43Q36.78,203.1,43.48,202.67Z" transform="translate(1.44 -1.13)"/><path class="cls-1" d="M45.3,205v-2.28q4.89.44,7.71.43,2.28,0,8.14-.43l11,13.73q1.5,1.82,23.28,28.2,0-5.41,0-7.85,0-5.77-.35-21.08a69.28,69.28,0,0,0-.36-7.78,2.49,2.49,0,0,0-.89-1.12c-.45-.33-2.25-.8-5.4-1.39-.41-.08-1-.22-1.82-.43v-2.28q6.89.44,11,.43t10.91-.43V205c-.7.18-1.22.3-1.55.35a37.32,37.32,0,0,0-5.76,1.43,1.81,1.81,0,0,0-.7.7,5.73,5.73,0,0,0-.54,2.32q0,.74-.18,10.54t-.13,19q0,10.83.39,18.29l-2.52,1.17-16.13-20L60.23,213.22l.19,22.86q.19,15,.42,16a2.3,2.3,0,0,0,.7,1.2q.85.78,5.76,1.63c.39,0,1,.16,1.74.34v2.28c-3.94-.28-7.27-.42-10-.42q-3.41,0-11.88.42v-2.28l2.05-.46c3.1-.54,4.89-1.05,5.38-1.51a2.12,2.12,0,0,0,.62-1.2q.38-1.77.54-13.46Q56,222.1,56,219.07a100.91,100.91,0,0,0-.27-10.79,2,2,0,0,0-1-1.3c-.57-.34-3-.88-7.32-1.6C46.92,205.3,46.22,205.16,45.3,205Z" transform="translate(1.44 -1.13)"/><path class="cls-1" d="M114.3,217.76h-3q.74-6.73,1.31-15.09,17.13.44,24.43.43,6.06,0,22.1-.43.51,8.63,1.16,15.09h-2.9q-1.81-7.08-2.35-8.3a3.44,3.44,0,0,0-1.56-1.74c-.69-.35-2.42-.52-5.19-.52h-8.57q-.31,10.29-.31,25.45,0,14.07.31,19a2.17,2.17,0,0,0,.58,1.58c.44.36,2.56.92,6.38,1.67.36,0,.9.16,1.62.34v2.28q-7.65-.42-13.65-.42-5.69,0-11.64.42v-2.28c.9-.23,1.59-.38,2-.46,3.53-.59,5.57-1.1,6.11-1.51a1.88,1.88,0,0,0,.52-.87q.18-.56.29-8.57.17-12.37.16-18.33,0-10.41-.16-18.33h-9.2l-1.67,0a6,6,0,0,0-2.9.46,5.64,5.64,0,0,0-1.93,2.78A65.43,65.43,0,0,0,114.3,217.76Z" transform="translate(1.44 -1.13)"/><path class="cls-1" d="M179.28,226.88h9.36a35.89,35.89,0,0,0,6.38-.29,2.81,2.81,0,0,0,1.57-1.18,20.11,20.11,0,0,0,1.48-5.14c.08-.28.2-.72.35-1.32H201c-.29,4.26-.43,7.53-.43,9.83s.14,5.62.43,9.75h-2.56q-1.12-5.61-1.39-6.27a2.42,2.42,0,0,0-1.35-1.33c-.65-.28-2.57-.41-5.77-.41H179.32l.19,22.74h16.2l1.44,0a18.65,18.65,0,0,0,4.17-.27,6.25,6.25,0,0,0,2.59-1.68,42.4,42.4,0,0,0,4.14-6.67L209,243h2.67q-.47,1.25-4.8,14.54-14.07-.42-25.72-.42-8.12,0-17.94.42v-2.28l6.26-1.35a4.08,4.08,0,0,0,1.86-.85,5.39,5.39,0,0,0,.58-3.06v-.69l.19-9.09q0-2.64,0-10.33,0-11.18-.08-16.38a29.23,29.23,0,0,0-.38-5.9,1.85,1.85,0,0,0-.72-.75,19.54,19.54,0,0,0-3.58-1l-4.17-.93v-2.28q7.26.44,17.36.43,5.53,0,26.3-.43a113.78,113.78,0,0,0,.93,13.23h-2.7a40.69,40.69,0,0,0-2.52-7,3.35,3.35,0,0,0-1.62-1.59,19.62,19.62,0,0,0-5.65-.5H179.66l-.27,12.45Z" transform="translate(1.44 -1.13)"/><path class="cls-1" d="M216,205v-2.28q10.25.44,16.44.43,3.56,0,6.65-.08c2.74-.1,4.63-.16,5.69-.16q7.55,0,11.37,3.56a12.75,12.75,0,0,1,3.79,9.71,14.9,14.9,0,0,1-1.72,7.26,15.05,15.05,0,0,1-5,5.31,24,24,0,0,1-6.74,2.75l12.89,16.79a37.6,37.6,0,0,0,3,3.67,8.79,8.79,0,0,0,2.52,1.39,52,52,0,0,0,7.31,2v2.28q-6.11-.42-8.9-.42a53,53,0,0,0-6.57.42q-1.74-2.9-4.72-7.29c-2-2.92-3.2-4.66-3.64-5.2-.25-.31-.5-.63-.73-1l-8.51-11.69a68.87,68.87,0,0,1-7-.5l.31,19.5a2.53,2.53,0,0,0,.69,1.74c.62.51,2.56,1.07,5.81,1.66.46.08,1.17.23,2.12.46v2.28q-7-.42-12.34-.42-5.72,0-12.8.42v-2.28l1.67-.34c3.68-.7,5.78-1.27,6.28-1.73a3.48,3.48,0,0,0,.87-2.41q.07-1.12.19-19.88l-.15-18.18a36.13,36.13,0,0,0-.21-4.8,1.5,1.5,0,0,0-.76-.93,20.53,20.53,0,0,0-6-1.66Zm16.21,23.67a61.77,61.77,0,0,0,6.23.43q7,0,10.42-3.14t3.38-8.72a10.13,10.13,0,0,0-3-7.71q-3-2.82-8.73-2.82c-1.36,0-4.06.15-8.08.46Z" transform="translate(1.44 -1.13)"/><path class="cls-1" d="M273,205v-2.28q9,.44,19.86.43,11.39,0,25-.43l.85,14.51H316a58.36,58.36,0,0,0-2.43-7.86,3.38,3.38,0,0,0-1.73-1.68,16.21,16.21,0,0,0-5.28-.52H289.74q-.23,5.1-.39,19.73H300a14,14,0,0,0,4-.35,3.11,3.11,0,0,0,1.51-1.36,17.94,17.94,0,0,0,1.34-4.56c.07-.44.22-1.08.42-1.93h2.56c-.24,5.38-.35,8.89-.35,10.52,0,.51.11,3.8.35,9.86h-2.56c-.13-.72-.22-1.26-.27-1.63q-.81-5-1.82-5.91t-5.19-.93H289.35c0,2.58,0,4.3,0,5.18q0,15.44.23,16.59a1.59,1.59,0,0,0,.85,1.16q.89.56,8.78,1.78v2.28q-8.73-.42-12.55-.42l-13.52.42v-2.28q1.54-.3,2.31-.42c3.11-.47,4.95-1,5.53-1.55s.86-1.75.86-3.56l.19-11q0-2.55,0-9.75,0-17.52-.15-19.8a2.9,2.9,0,0,0-.77-2q-.86-.74-6-1.74C274.66,205.3,274,205.16,273,205Z" transform="translate(1.44 -1.13)"/><path class="cls-1" d="M343.16,201.74h2.43q5.22,13.42,12.84,30.44l9,19.69a4.91,4.91,0,0,0,1.36,1.55,42.65,42.65,0,0,0,5.68,1.85v2.28q-7-.42-10.36-.42t-11.61.42v-2.28c3.12-.64,4.94-1.16,5.46-1.54a1.69,1.69,0,0,0,.77-1.36,8.51,8.51,0,0,0-.81-2.74L354,240.19q-8.21-.08-11.93-.08l-10.59.08L327.41,250a11.64,11.64,0,0,0-1,2.94,1,1,0,0,0,.48.84,24.62,24.62,0,0,0,4.51,1.18l1.2.34v2.28q-6.62-.42-9.33-.42-3.43,0-8.81.42v-2.28a13.62,13.62,0,0,0,4.83-1.74,8.73,8.73,0,0,0,2-2.47q2.2-3.84,11.22-24.64ZM333,236.32c3.58.1,6.15.16,7.69.16l11.87-.16-9.79-23.2Z" transform="translate(1.44 -1.13)"/><path class="cls-1" d="M426.35,248.16,428,251.1A54.45,54.45,0,0,1,416,256.86a38,38,0,0,1-11.82,1.86,28.38,28.38,0,0,1-14.09-3.54,23.22,23.22,0,0,1-9.6-10,31.56,31.56,0,0,1-3.26-14.37q0-12.89,8.4-21.08t22.22-8.2A60.41,60.41,0,0,1,426.82,205c-.06,2.27-.08,4-.08,5.11a97.48,97.48,0,0,0,.58,10.4h-3.25q-1.43-6.76-3.05-9.32a11.12,11.12,0,0,0-5.26-4.08,23.12,23.12,0,0,0-9-1.53q-11.21,0-16.89,8-4.41,6.22-4.4,15.63,0,11.21,6.2,17.69T408,253.34a31.65,31.65,0,0,0,8.42-1.12A57,57,0,0,0,426.35,248.16Z" transform="translate(1.44 -1.13)"/><path class="cls-1" d="M448.17,226.88h9.36a35.89,35.89,0,0,0,6.38-.29,2.79,2.79,0,0,0,1.56-1.18,19.53,19.53,0,0,0,1.49-5.14c.08-.28.2-.72.35-1.32h2.55c-.28,4.26-.42,7.53-.42,9.83s.14,5.62.42,9.75h-2.55q-1.12-5.61-1.39-6.27a2.4,2.4,0,0,0-1.36-1.33c-.64-.28-2.56-.41-5.76-.41H448.2l.2,22.74h16.2l1.43,0a18.76,18.76,0,0,0,4.18-.27,6.31,6.31,0,0,0,2.59-1.68,42.4,42.4,0,0,0,4.14-6.67l.93-1.59h2.67q-.46,1.25-4.8,14.54-14.07-.42-25.72-.42-8.11,0-17.94.42v-2.28l6.26-1.35a4.08,4.08,0,0,0,1.86-.85,5.39,5.39,0,0,0,.58-3.06v-.69l.19-9.09q0-2.64,0-10.33,0-11.18-.08-16.38a29.23,29.23,0,0,0-.38-5.9,1.85,1.85,0,0,0-.72-.75,19.54,19.54,0,0,0-3.58-1l-4.17-.93v-2.28q7.26.44,17.36.43,5.54,0,26.3-.43a111.62,111.62,0,0,0,.93,13.23H474a40.93,40.93,0,0,0-2.51-7,3.35,3.35,0,0,0-1.62-1.59,19.67,19.67,0,0,0-5.65-.5H448.55l-.27,12.45Z" transform="translate(1.44 -1.13)"/><line class="cls-1" y1="188.1" x2="502.6" y2="188.1"/><rect class="cls-1" y="185.6" width="502.6" height="5"/><path class="cls-1" d="M292.06,52.44a.1.1,0,0,1-.13.15,68.36,68.36,0,0,0-19-11.12l-1.42-.53c-.48-.16-.95-.34-1.42-.48s-1-.33-1.44-.46-1-.3-1.45-.43c-1.93-.54-3.89-1-5.87-1.36s-4-.63-6-.82c-1.47-.14-2.95-.22-4.42-.25a.09.09,0,0,0-.08.15l3.18,3.51c.08.09-.05.21-.14.14l-4.18-3.8a.09.09,0,0,0-.07,0h-.6a.11.11,0,0,0-.07,0l-4.21,3.8c-.09.08-.22,0-.14-.13l3.19-3.52a.09.09,0,0,0-.07-.15c-1.48,0-3,.11-4.43.26-2,.18-4,.46-6,.82s-3.94.82-5.87,1.37c-1,.27-1.94.56-2.89.89s-1.9.65-2.84,1a66.9,66.9,0,0,0-10.84,5.34,71.62,71.62,0,0,0-8.15,5.84.1.1,0,0,1-.12-.15,60.36,60.36,0,0,1,18.61-12.31c.95-.4,1.91-.77,2.87-1.12l.74-.26.73-.25c.49-.16,1-.33,1.47-.47a61.74,61.74,0,0,1,6-1.51c2-.41,4.07-.7,6.12-.92,1.53-.15,3.07-.24,4.62-.28a.09.09,0,0,0,.06-.16l-3.18-3.52c-.08-.08.05-.21.14-.13L249,35.36a.09.09,0,0,0,.07,0h.64a.11.11,0,0,0,.07,0l4.16-3.77c.09-.08.22.05.14.13l-3.19,3.52a.1.1,0,0,0,.07.16c1.54,0,3.08.12,4.61.27q3.07.31,6.12.91t6,1.51l1.48.47c.49.16,1,.33,1.45.51s1,.36,1.45.55,1,.39,1.43.57A59.83,59.83,0,0,1,292.06,52.44Z" transform="translate(1.44 -1.13)"/><path class="cls-1" d="M206.73,53.32a.71.71,0,0,1-.54-.24.73.73,0,0,1,0-1A61.46,61.46,0,0,1,225,39.63c.91-.39,1.86-.76,2.9-1.14l.73-.26.76-.25.45-.15c.34-.11.68-.23,1-.33A61.33,61.33,0,0,1,237,36c1.92-.39,3.94-.7,6.17-.93,1.19-.11,2.36-.2,3.5-.25l-2.4-2.65a.73.73,0,0,1,1-1l4,3.64h.22l4-3.63a.73.73,0,0,1,1,1l-2.4,2.65q1.78.08,3.48.24c2.07.21,4.15.51,6.18.92a61.64,61.64,0,0,1,6.06,1.53l.92.29.56.18c.51.16,1,.34,1.47.51s.77.28,1.14.43l.32.12c.29.11.57.22.84.34l.6.24h0A60.71,60.71,0,0,1,292.5,52h0a.73.73,0,0,1,0,1,.72.72,0,0,1-1,.08,69.35,69.35,0,0,0-8.08-5.74,66.44,66.44,0,0,0-10.75-5.27l-.42-.16-1-.37-.41-.14c-.34-.12-.66-.24-1-.34h0l-.36-.12-1.06-.33h0c-.47-.14-1-.29-1.43-.42-2.08-.58-4-1-5.81-1.34s-3.93-.63-5.91-.82c-1-.09-2-.16-3.11-.21l2.32,2.56a.74.74,0,0,1,0,1,.73.73,0,0,1-1,0l-4-3.67h-.18l-4.07,3.68a.73.73,0,0,1-1-1l2.33-2.58c-1,0-2.08.12-3.1.22-1.89.17-3.88.44-5.92.81s-3.89.81-5.81,1.36c-1.06.3-2,.59-2.85.88s-1.83.62-2.82,1a66.55,66.55,0,0,0-10.74,5.3,70,70,0,0,0-8.07,5.78A.76.76,0,0,1,206.73,53.32Zm63.56-13.47,1,.35.41.15,1,.37.41.16c1.12.43,2.23.89,3.34,1.38-1.07-.53-2.15-1-3.24-1.48l-.62-.25-.8-.32h0l-.33-.13c-.36-.14-.73-.29-1.09-.41h0c-.45-.17-.94-.35-1.43-.5l-.57-.19-.89-.28c-1.88-.58-3.88-1.08-5.94-1.5s-4-.69-6.05-.9c-1.46-.14-3-.23-4.56-.27a.71.71,0,0,1-.6-.33l-.14.12a.7.7,0,0,1-.5.2h-.64a.74.74,0,0,1-.51-.2l-.13-.12a.73.73,0,0,1-.6.33c-1.48,0-3,.13-4.57.28-2.19.23-4.17.53-6,.91a59.16,59.16,0,0,0-5.93,1.5h0c-.32.09-.65.2-1,.31l-.47.16-.71.23-.73.27c-1,.37-2,.73-2.84,1.11s-1.78.77-2.65,1.19c.88-.38,1.78-.75,2.67-1.09s2-.73,2.88-1,1.82-.59,2.9-.89c2-.56,4-1,5.93-1.38s4.11-.66,6-.83c1.46-.15,3-.24,4.45-.27a.72.72,0,0,1,.64.34l.19-.17a.7.7,0,0,1,.5-.2h.6a.7.7,0,0,1,.5.2l.18.16a.71.71,0,0,1,.61-.33h0c1.61,0,3.07.13,4.45.26,2,.18,4.05.46,6,.83s3.8.78,5.92,1.37c.5.13,1,.28,1.46.43s.74.23,1.1.35Z" transform="translate(1.44 -1.13)"/><path class="cls-1" d="M229.23,5.53V4.27c1.77-.44,3.55-.84,5.32-1.26,1.52-.35,3-.74,4.52-1.13C239.52,3,240,4,240.48,5.07c1.84,3.81,3.74,7.6,5.6,11.4q2.07,4.26,4.22,8.51,4.47-9.29,9.18-18.44c.73-1.48,1.36-3,2-4.53,1.45.38,2.9.8,4.35,1.16s3.11.71,4.66,1.09V5.52l-.93-.06a9.91,9.91,0,0,0-3.26,0q-.54.3-.54,2v.28l-.09,6.73c0,5.15-.08,10.33.11,15.49a1.35,1.35,0,0,0,.32.93,15.92,15.92,0,0,0,3.57,1.91l.82.45v1.26a41.79,41.79,0,0,0-13.74-2.91V30.31c.56-.09,1-.14,1.27-.16a15.76,15.76,0,0,0,3-.25.73.73,0,0,0,.5-.48,13.28,13.28,0,0,0,.19-3.42V7.41c-3.16,5.7-6,11.6-8.81,17.47-1,2-1.92,4-2.8,6.08h-1.23c-3.64-7.94-7.61-15.72-11.77-23.39q.13,9.9.27,19.8c0,.88-.06,2.24.39,2.64s2.23.27,3.22.32c.21,0,.55,0,1,.09v1.26a41.42,41.42,0,0,0-6,.75A42.44,42.44,0,0,0,230,34.23V33a9.38,9.38,0,0,1,.9-.49,11.85,11.85,0,0,0,3.1-1.8,6.34,6.34,0,0,0,.53-3.05c0-1.6.07-3.21.11-4.81q.11-6.37.11-12.74c0-.87,0-1.73,0-2.59a5,5,0,0,0-.2-1.9.8.8,0,0,0-.61-.42,15.77,15.77,0,0,0-3.57.23A7.67,7.67,0,0,1,229.23,5.53Z" transform="translate(1.44 -1.13)"/><path class="cls-1" d="M271.1,35.4l-.86-.33a45.39,45.39,0,0,0-6.57-2,46.68,46.68,0,0,0-7-.88l-.6,0v-2.4l.53-.09c.54-.08,1-.14,1.33-.16s.57,0,.85,0a8.86,8.86,0,0,0,2-.2.15.15,0,0,0,.06-.05h0a8.57,8.57,0,0,0,.18-2.44c0-.26,0-.54,0-.8V9.9c-2.47,4.62-4.77,9.39-7,14l-.59,1.23c-.87,1.82-1.88,3.93-2.79,6.06l-.17.39h-2l-.18-.38c-3.08-6.73-6.54-13.65-10.52-21.08,0,2.42.07,4.84.1,7.26,0,3.32.1,6.63.14,10v.48a5.2,5.2,0,0,0,.17,1.69,6.28,6.28,0,0,0,1.9.16H241l1,.1.56.06v2.42l-.59,0a36.18,36.18,0,0,0-11.75,2.5l-.86.32V32.6l.32-.18c.43-.26.74-.42.95-.52l.66-.31a8.82,8.82,0,0,0,2.21-1.3,5.15,5.15,0,0,0,.38-2.26c0-.14,0-.28,0-.42,0-.79,0-1.59,0-2.39s0-1.61.05-2.42c.07-3.8.1-8,.11-12.72,0-.43,0-.86,0-1.29s0-.86,0-1.29A6,6,0,0,0,234,5.9h0s0-.07-.14-.09a14.19,14.19,0,0,0-3,.18l-.32,0a9.5,9.5,0,0,1-1.17.13l-.71.06V3.77l.49-.12,3.44-.82,1.88-.44c1.51-.35,3-.74,4.51-1.13l.53-.13.22.5c.43,1,.89,2.11,1.39,3.17,1.09,2.25,2.22,4.53,3.31,6.74l2.29,4.65c1.17,2.4,2.36,4.81,3.64,7.35,2.82-5.82,5.72-11.64,8.62-17.29.76-1.53,1.42-3.12,2-4.47l.21-.52.54.14,1.56.42c.91.25,1.85.51,2.78.73l2.37.56,2.3.53.48.12V6.19l-.66,0-1-.06L268.87,6a8,8,0,0,0-2.29,0,3,3,0,0,0-.21,1.43v.28l-.09,6.74V18c0,3.91,0,8,.11,11.93a.86.86,0,0,0,.13.49,8.7,8.7,0,0,0,2.34,1.3l1.08.5.85.47.31.19ZM257.37,31a45.4,45.4,0,0,1,6.57.87,43.31,43.31,0,0,1,5.81,1.7l-.38-.2c-.32-.16-.66-.31-1-.47a10,10,0,0,1-2.7-1.55,2,2,0,0,1-.52-1.38c-.14-4-.13-8-.11-12V14.44l.09-6.74V7.43c0-1.42.28-2.24.88-2.57l.07,0,.07,0a8,8,0,0,1,2.89,0l.58.06.25,0V4.76L268,4.34c-.78-.18-1.59-.36-2.39-.56s-1.89-.48-2.81-.74l-1-.27c-.51,1.26-1.11,2.67-1.79,4.05-3.1,6-6.18,12.23-9.18,18.43l-.56,1.16-.58-1.15c-1.5-3-2.88-5.75-4.22-8.51-.76-1.55-1.54-3.12-2.29-4.64-1.09-2.22-2.22-4.5-3.31-6.76-.43-.91-.84-1.83-1.21-2.72-1.32.34-2.67.69-4,1l-1.89.44-2.95.7v.07l.33,0,.08,0,.35,0A13.88,13.88,0,0,1,234,4.54h0a1.48,1.48,0,0,1,1.07.74,4.86,4.86,0,0,1,.27,2.21c0,.43,0,.86,0,1.29s0,.86,0,1.29c0,4.78,0,8.94-.11,12.76,0,.81,0,1.61-.05,2.42s0,1.6-.05,2.4c0,.14,0,.27,0,.41a5.85,5.85,0,0,1-.6,3l0,.07-.06.05a9.18,9.18,0,0,1-2.62,1.61l-.65.31h0c-.11,0-.27.13-.48.25a36,36,0,0,1,10.61-2.21V31l-.38,0h-.86c-1.32,0-2.23,0-2.75-.47s-.59-1.61-.6-2.65v-.46c0-3.32-.09-6.63-.14-9.95s-.09-6.56-.13-9.85l0-2.57,1.23,2.26c4.44,8.19,8.25,15.74,11.61,23h.41c.88-2,1.83-4,2.65-5.73l.6-1.23c2.59-5.39,5.28-11,8.23-16.27L262.31,5V26c0,.26,0,.51,0,.78a9.7,9.7,0,0,1-.23,2.82,1.37,1.37,0,0,1-.93.91,10.38,10.38,0,0,1-2.32.25c-.28,0-.54,0-.8,0l-.67.07Zm-19.22-1.42ZM234,5.91Z" transform="translate(1.44 -1.13)"/></svg>