<?xml version="1.0" encoding="utf-8"?>
<!-- Generator: Adobe Illustrator 26.0.0, SVG Export Plug-In . SVG Version: 6.00 Build 0)  -->
<svg version="1.1" id="Capa_1" xmlns="http://www.w3.org/2000/svg" xmlns:xlink="http://www.w3.org/1999/xlink" x="0px" y="0px"
	 viewBox="0 0 1080 1080" style="enable-background:new 0 0 1080 1080;" xml:space="preserve">
<style type="text/css">
	.st0{fill:#FFFFFF;}
</style>
<g>
	<path class="st0" d="M813.5,678.4c-5.4-2.2-10.7-4.5-16.2-6.6c-5.4-2.1-10.8-4.3-16.3-6.2c-5.5-1.9-10.9-4-16.5-5.7
		c-5.5-1.8-11-3.7-16.6-5.3c-22.3-6.9-44.9-12.5-67.7-17.1c-22.9-4.6-45.9-7.9-69.1-10.3c-18.1-1.7-36.3-2.8-54.4-3.2l52.4-57.8
		l-63.6,57.6c-1.4,0-2.8,0-4.2,0c-1.3,0-2.6,0-4,0l-63.6-57.6l52.3,57.8c-18.2,0.4-36.4,1.5-54.5,3.3c-23.2,2.4-46.3,5.7-69.1,10.3
		c-22.8,4.6-45.5,10.3-67.7,17.2c-5.6,1.6-11.1,3.6-16.6,5.3c-2.8,0.9-5.5,1.8-8.3,2.8l-8.2,2.9c-10.9,4-21.8,8.2-32.5,12.7
		C183.2,714.8,105,768.3,41.5,835c34.7-30.3,71.6-57.8,110.7-81.5c39-23.8,80.1-44,122.6-60.3c10.6-4.1,21.3-7.9,32.1-11.5
		c10.8-3.6,21.6-6.9,32.6-10c21.9-6.1,44-11.3,66.3-15.4c22.3-4.1,44.8-7.3,67.4-9.3c17.5-1.6,35-2.6,52.5-3l-52.1,57.6l63.8-57.8
		c1.3,0,2.5,0,3.8,0c1.3,0,2.7,0,4,0l63.8,57.8l-52.2-57.6c17.5,0.3,35,1.3,52.4,2.9c22.6,2,45.1,5.1,67.4,9.2
		c22.3,4.1,44.5,9.3,66.3,15.4c5.5,1.4,10.9,3.2,16.4,4.8c5.5,1.6,10.8,3.5,16.2,5.2c5.4,1.7,10.8,3.7,16.1,5.5
		c5.4,1.8,10.7,3.9,16,5.9c42.5,16.3,83.6,36.5,122.6,60.2c39.1,23.6,76,51.1,110.8,81.3C977.5,767.9,899.2,714.5,813.5,678.4z"/>
	<path class="st0" d="M361.6,303c3.2,0.5,5.5,2.1,6.9,4.7c1.4,2.6,2.2,9.8,2.2,21.5c0.1,9.8,0.2,19.5,0.2,29.3c0,48-0.5,96-1.2,144
		c-0.4,18.1-0.8,36.3-1.2,54.4c-0.4,11.3,0.1,24.3-6,34.4c-9.4,9.2-23.5,14.6-35.1,20.3c-2.2,1-5.6,2.8-10.1,5.5c0,5.7,0,8.5,0,14.2
		c22-8,44.3-15.3,67.3-20.2c22.2-4.7,44.8-7,67.5-8.5c0-5.7,0-8.5,0-14.2c-5-0.5-8.7-0.8-11.1-1c-11.2-0.5-30.6,1.5-36.5-3.6
		c-5.2-4.5-4.1-19.9-4.3-29.8c-1-74.6-2.1-149.2-3.1-223.7c47,86.8,91.8,174.7,133,264.4c5.6-0.1,8.3-0.1,13.9-0.1
		c9.9-23.2,20.8-46,31.6-68.8c32-66.3,63.8-133.1,99.6-197.5c0,70,0,140.1,0,210.1c-0.1,12.6,1.3,27.3-2.2,38.6
		c-0.7,2.4-3,4.6-5.7,5.4c-10,2.8-22.5,2.2-33.7,2.9c-3.2,0.2-8,0.8-14.3,1.7c0,5.7,0,8.5,0,14.2c26.9,1.6,53.5,4.4,79.9,10
		c25.7,5.5,50.6,13.6,75.2,22.9c0-5.7,0-8.5,0-14.2c-4.1-2.4-7.1-4.1-9.2-5.1c-13.2-6.7-30.6-12.4-40.4-21.7
		c-2.3-2.2-3.5-6.2-3.7-10.5c-2.1-58.3-1.2-116.7-1.2-175.1c0.3-25.4,0.6-50.7,1-76.1c0-1.3,0-1.9,0-3.1c0-13,2.1-20.6,6.2-22.8
		c11.3-3.1,25.4-0.5,36.7,0.5c2.4,0.2,5.9,0.5,10.6,0.7c0-5.7,0-8.5,0-14.2c-17.6-4.3-35.3-8.1-52.8-12.4c-16.4-4-32.8-8.7-49.2-13
		c-7,17.2-14.1,34.4-22.4,51.1c-35.4,69.1-70,138.6-103.7,208.4c-16.1-31.9-32-64-47.7-96.1c-20.9-43-42.5-85.8-63.2-128.9
		c-5.7-11.8-10.8-24-15.9-36.1c-17,4.4-34.1,8.8-51.2,12.8c-20,4.7-40.2,9.2-60.2,14.2c0,5.7,0,8.5,0,14.2
		c5.8-0.4,10.2-0.8,13.2-1.3C334.6,303.9,348.2,301.7,361.6,303z"/>
</g>
</svg>
