<?xml version="1.0" encoding="utf-8"?>
<!-- Generator: Adobe Illustrator 26.0.0, SVG Export Plug-In . SVG Version: 6.00 Build 0)  -->
<svg version="1.1" id="Capa_1" xmlns="http://www.w3.org/2000/svg" xmlns:xlink="http://www.w3.org/1999/xlink" x="0px" y="0px"
	 viewBox="0 0 1054.5 143.5" style="enable-background:new 0 0 1054.5 143.5;" xml:space="preserve">
<style type="text/css">
	.st0{fill:#FFFFFF;}
</style>
<g>
	<path class="st0" d="M0,10.7V5.1c10.7,0.7,18.8,1.1,24.4,1.1c6.3,0,13.1-0.4,20.4-1.1c2.6,6.7,4.7,11.8,6.3,15.4
		c2.1,4.7,10.4,22.7,25,53.8c6.2,13.2,12.4,26.2,18.8,38.8l40.9-86.2c2.5-5.3,5.5-12.6,8.9-21.8c8.6,0.7,15.1,1.1,19.7,1.1
		c4.2,0,11.4-0.4,21.4-1.1v5.7c-1.9,0.5-3.4,0.9-4.3,1.1c-8.9,1.8-13.8,3.1-14.9,3.9c-1.7,1.3-2.5,4.5-2.5,9.7v1.2l-0.4,30.4
		c0,38.2,0.2,61.4,0.5,69.6c0.1,1.7,0.6,3,1.5,3.8c0.9,0.8,6.4,2.2,16.4,4.1c0.8,0.1,2.1,0.4,3.7,0.9v5.7
		c-11.5-0.7-21.6-1.1-30.4-1.1c-9,0-19.5,0.4-31.7,1.1v-5.7c2.5-0.6,4.4-1.1,5.7-1.3c7.8-1.5,12.3-2.5,13.4-3.1
		c1.1-0.6,1.9-1.5,2.3-2.5c0.6-1.9,0.9-7,0.9-15.5V29.3c-5.8,11.5-18.9,39.2-39.4,83.2c-5.6,12.1-9.8,21.3-12.5,27.7h-5.5
		C74.2,108.3,56.6,71.4,35.9,29.3l1.2,89.4c0,7.1,0.6,11.2,1.7,12.2c1.2,1,6,2.3,14.5,3.7c1,0.2,2.4,0.5,4.4,1v5.7
		c-11.1-0.7-20-1.1-26.9-1.1c-6.8,0-15.9,0.4-27.1,1.1v-5.7c1.9-0.5,3.2-0.8,4.1-1c8.4-1.7,13.2-3.1,14.2-4.3
		c1.5-1.8,2.3-6.2,2.4-13.1l0.5-21.6c0.3-19.7,0.5-38.8,0.5-57.3l-0.1-11.7c0-4.7-0.3-7.6-0.9-8.8c-0.6-1.2-1.5-2-2.8-2.5
		c-2.4-1-7.9-2.1-16.3-3.4C4.2,11.7,2.4,11.3,0,10.7z"/>
	<path class="st0" d="M209.2,76.1l-6.2-0.7c1.3-6.6,2.2-13.3,2.7-19.9c12.4-5.6,23.7-8.4,33.7-8.4c4.3,0,8.3,0.6,11.8,1.9
		c3.5,1.2,6.3,3,8.3,5.2c2,2.2,3.6,4.8,4.6,7.9c1.1,3.1,1.6,8,1.6,14.7l-0.9,39.6c0,5.4,0.6,8.9,1.8,10.5c1.2,1.7,2.8,2.5,4.7,2.5
		c2.3,0,5.9-1.7,10.8-5.2l3,3.9c-9,8.1-13.9,12.3-14.8,12.9c-1.8,1-4,1.5-6.7,1.5c-4.2,0-7.4-1-9.6-3.1c-2.3-2.1-3.8-5.6-4.6-10.5
		c-7.7,5.9-13.4,9.7-17.1,11.3c-3.7,1.6-7.7,2.4-12.1,2.4c-7.1,0-12.8-2.2-17.2-6.5c-4.3-4.3-6.5-9.8-6.5-16.5
		c0-4.1,0.8-7.8,2.3-11.1c1.5-3.3,3.7-6.2,6.6-8.7c2.2-1.9,6-4.1,11.3-6.7c12.5-6.1,23.3-11,32.6-14.7c-0.3-9-1.8-15-4.5-17.9
		c-2.7-2.9-6.8-4.4-12.3-4.4c-5.2,0-9.7,1.6-13.4,4.8C215.4,64.1,212.1,69.2,209.2,76.1z M249.5,86.7c-16.7,7.5-26.8,12.9-30.3,16.4
		c-3.5,3.4-5.2,7.5-5.2,12.3c0,4.8,1.3,8.6,3.9,11.5c2.6,2.9,5.7,4.3,9.2,4.3c3.6,0,7.6-1.2,11.8-3.6c4.3-2.4,7.1-5.1,8.4-8.1
		c1.4-3,2.1-8.5,2.1-16.4V86.7z"/>
	<path class="st0" d="M289.1,64.8v-5.4c11.9-3,22.1-7.1,30.5-12.4l2.5,1.8c-1,6.2-1.6,13-1.8,20.4c7.7-9.4,13.1-15.2,16.2-17.3
		c3.1-2.1,6.7-3.2,10.8-3.2c2.7,0,5.8,0.7,9.2,2c-1.4,6.6-2.6,13.2-3.5,20h-4.8c-0.6-3.1-1.5-5.3-2.9-6.7c-1.3-1.4-2.8-2.1-4.5-2.1
		c-2.6,0-5.3,1.2-8.2,3.5c-4.3,3.5-7.5,7.6-9.4,12.1c-2,4.6-2.9,11-2.9,19.4c0,14.8,0.4,24.8,1.2,29.9c0.3,1.9,1.2,3.4,2.6,4.5
		c1.4,1.1,6,2.5,13.6,4.2v5.4c-8-0.7-15.2-1.1-21.8-1.1c-5.4,0-14.4,0.4-27,1.1v-5.4c8.8-2.2,13.7-3.9,14.8-5
		c1.1-1.2,1.7-4.4,1.7-9.5l0.2-20.8c0-20.4-0.2-31.4-0.6-32.9c-0.6-2.6-2.4-3.9-5.3-3.9c-1.7,0-4.4,0.3-8.2,1
		C291,64.6,290.2,64.7,289.1,64.8z"/>
	<path class="st0" d="M434,79.3l-6.4-0.5c-0.3-8.1-2.3-14.1-6.1-18c-3.8-3.9-9-5.8-15.6-5.8c-4.7,0-9.3,1.3-13.6,3.9
		c-4.3,2.6-7.8,6.8-10.2,12.7c-2.5,5.9-3.7,12.5-3.7,19.9c0,11.9,2.9,21.2,8.7,27.9c5.8,6.7,12.5,10,20.1,10c8,0,17.6-3.2,28.9-9.5
		l3.6,5.8c-10,7.4-18.4,12.6-25,15.6c-3.2,1.4-7.1,2.1-11.7,2.1c-11.2,0-20.2-3.3-27.1-9.8c-9.1-8.6-13.7-20.3-13.7-35.1
		c0-15.3,4.8-27.8,14.4-37.7c9.6-9.8,21.4-14.8,35.5-14.8c9.6,0,18.8,2.5,27.7,7.4c-0.5,2.2-1.1,5-1.9,8.4
		C436.5,66.5,435.3,72.3,434,79.3z"/>
	<path class="st0" d="M446.1,17.8v-5.6c8.5-2.5,14.7-4.5,18.8-6.1c4-1.6,8.1-3.6,12.1-5.9l2.4,1.4c-0.6,5.1-1,11.7-1.2,19.9
		c-0.6,17.1-0.9,28.8-0.9,35.3c0,1.9,0,5,0.1,9.5l12.6-12.2c2.4-2,5-3.5,7.6-4.5c3.6-1.3,7.4-1.9,11.4-1.9c7.4,0,13.2,1.9,17.6,5.6
		c4.3,3.7,6.9,8.9,7.7,15.4c0.4,3.8,0.6,21.6,0.6,53.4c0,4.9,0.5,8,1.5,9.1c1,1.2,4.6,2.4,10.7,3.8c0.7,0.1,1.7,0.4,3,0.7v5.4
		c-11.4-0.7-19.6-1.1-24.4-1.1c-6.3,0-13.6,0.4-22.1,1.1v-5.4l11.6-3.5c0.7-0.3,1.3-0.8,1.9-1.5c0.5-0.7,0.9-1.9,1.2-3.5
		c0.3-1.2,0.4-4.7,0.5-10.4l0.7-27.6c0-9-0.6-14.9-1.7-18c-1.1-3-3.1-5.5-5.8-7.4c-2.8-1.9-5.9-2.8-9.5-2.8c-4.8,0-9.3,1.4-13.5,4.3
		c-4.2,2.8-7.1,6.4-8.8,10.7c-1.6,4.3-2.4,11.7-2.4,22.1c0,14.5,0.3,23.7,0.9,27.8c0.4,2.7,1,4.5,1.9,5.3c0.9,0.8,4.2,2,10.1,3.5
		c0.7,0.2,1.8,0.5,3.3,1v5.4c-9.4-0.7-17.1-1.1-23.2-1.1c-6.3,0-14,0.4-23.1,1.1v-5.4c1.3-0.4,2.4-0.7,3.1-0.9
		c5.8-1.5,9-2.7,9.8-3.5c0.8-0.8,1.3-3.7,1.6-8.5c0.4-8,0.6-23.5,0.6-46.6c0-35.5-0.4-54.3-1.3-56.3c-0.9-2-2.8-3.1-5.8-3.1
		C453.4,16.9,450.4,17.2,446.1,17.8z"/>
	<path class="st0" d="M571.4,76.1l-6.2-0.7c1.3-6.6,2.2-13.3,2.7-19.9c12.4-5.6,23.7-8.4,33.7-8.4c4.3,0,8.3,0.6,11.8,1.9
		c3.5,1.2,6.3,3,8.3,5.2c2,2.2,3.6,4.8,4.6,7.9c1.1,3.1,1.6,8,1.6,14.7l-0.9,39.6c0,5.4,0.6,8.9,1.8,10.5c1.2,1.7,2.8,2.5,4.7,2.5
		c2.3,0,5.9-1.7,10.8-5.2l3,3.9c-9,8.1-13.9,12.3-14.8,12.9c-1.8,1-4,1.5-6.7,1.5c-4.2,0-7.4-1-9.6-3.1c-2.3-2.1-3.8-5.6-4.6-10.5
		c-7.7,5.9-13.4,9.7-17.1,11.3c-3.7,1.6-7.7,2.4-12.1,2.4c-7.1,0-12.8-2.2-17.2-6.5c-4.3-4.3-6.5-9.8-6.5-16.5
		c0-4.1,0.8-7.8,2.3-11.1c1.5-3.3,3.7-6.2,6.6-8.7c2.2-1.9,6-4.1,11.3-6.7c12.5-6.1,23.3-11,32.6-14.7c-0.3-9-1.8-15-4.5-17.9
		c-2.7-2.9-6.8-4.4-12.3-4.4c-5.2,0-9.7,1.6-13.4,4.8C577.7,64.1,574.4,69.2,571.4,76.1z M611.7,86.7c-16.7,7.5-26.8,12.9-30.3,16.4
		c-3.5,3.4-5.2,7.5-5.2,12.3c0,4.8,1.3,8.6,3.9,11.5c2.6,2.9,5.7,4.3,9.2,4.3c3.6,0,7.6-1.2,11.8-3.6c4.3-2.4,7.1-5.1,8.4-8.1
		c1.4-3,2.1-8.5,2.1-16.4V86.7z"/>
	<path class="st0" d="M650.8,64.8v-5.6c11.5-2.7,21.9-6.7,31.3-12.2l2.6,1.6c-0.9,5.4-1.4,11-1.6,16.8l12.2-12.1
		c2-1.8,4.4-3.2,7.2-4.2c3.8-1.4,7.7-2.1,11.8-2.1c9.1,0,16,3,20.7,9.1c3.1,4,4.7,11,4.7,20.8l-0.3,23.2c0,15.5,0.2,24.7,0.6,27.5
		c0.3,1.9,0.9,3.3,1.8,4c0.9,0.8,3.9,1.8,9.1,3c1,0.3,2.4,0.6,4.3,1.1v5.4c-7.6-0.7-14.3-1.1-20.2-1.1c-5.1,0-13.9,0.4-26.3,1.1
		v-5.4c7.5-2.2,11.7-3.6,12.6-4.4c0.9-0.8,1.5-2,1.7-3.7c0.7-6.3,1.1-16,1.1-29.1c0-13.9-0.3-22.3-0.9-25.2
		c-0.9-4.2-2.8-7.5-5.7-9.8s-6.3-3.5-10.4-3.5c-4.2,0-8.4,1.2-12.5,3.7c-4.1,2.5-7.1,5.8-9.1,9.9c-2,4.2-2.9,10.3-2.9,18.4
		c0,23,0.5,35.5,1.4,37.4c1,1.9,4.7,3.7,11.2,5.3c0.8,0.2,2,0.5,3.6,1v5.4c-8.6-0.7-15.8-1.1-21.6-1.1c-5.6,0-14,0.4-25.2,1.1v-5.4
		c7.6-1.8,11.9-3.1,12.9-3.9c0.6-0.5,1.1-1.9,1.4-4c0.7-6.1,1.1-14.4,1.1-24.8c0-21.7-0.2-33.4-0.7-35.3c-0.7-2.7-2.6-4-5.7-4
		c-1.4,0-3.6,0.2-6.6,0.7C653.7,64.5,652.5,64.6,650.8,64.8z"/>
	<path class="st0" d="M784.7,26h5.6l-2.2,24.5l26.6-0.3l0.8,1.5c-1.6,2.6-3.1,5.4-4.4,8.4c-7.5-0.3-15.2-0.6-22.9-0.7l-0.9,49.3v0.6
		c0,7.6,0.8,13.1,2.5,16.4c1.7,3.4,4.6,5,8.7,5c3.4,0,7.9-1.4,13.4-4.3l2.8,5.5c-7,4.3-12.3,7.2-15.9,8.6c-3.6,1.4-6.8,2.1-9.5,2.1
		c-4.2,0-7.8-1.1-10.7-3.3c-2.9-2.2-4.9-5.3-5.9-9.2c-0.6-2.2-0.9-8.8-0.9-20c0-11.9,0.4-28.8,1.1-50.7c-4.5,0.1-9.1,0.3-13.9,0.7
		v-5.2c5.4-2.4,10-5.7,14-9.9C776.8,40.7,780.8,34.4,784.7,26z"/>
	<path class="st0" d="M821.2,63.8v-5.4c10.7-2.7,20.8-6.8,30.3-12.3l2.5,2c-1.3,13.6-1.9,32.8-1.9,57.6c0,11.6,0.3,18.8,0.9,21.5
		c0.4,1.8,1.1,3.1,2,3.9c1,0.8,4.3,2,10,3.7c0.7,0.2,1.8,0.5,3.2,1v5.4c-8.4-0.7-15.3-1.1-20.6-1.1c-3.3,0-12,0.4-26.3,1.1v-5.4
		c8.6-2.1,13.5-4,14.6-5.8c1.1-1.8,1.6-10.9,1.6-27.6L837.3,82v-3.9c0-7.2-0.5-11.5-1.4-12.9c-1-1.5-2.5-2.2-4.6-2.2
		C829.9,62.9,826.5,63.2,821.2,63.8z M845.1,0c2.8,0,5.2,1,7.1,2.9c1.9,2,2.9,4.3,2.9,7.1c0,2.8-1,5.1-2.9,7.1c-2,2-4.3,3-7.1,3
		c-2.8,0-5.1-1-7-3c-2-2-2.9-4.3-2.9-7.1c0-2.8,1-5.2,2.9-7.1C840,1,842.3,0,845.1,0z"/>
	<path class="st0" d="M949.5,79.3l-6.4-0.5c-0.3-8.1-2.3-14.1-6.1-18c-3.8-3.9-9-5.8-15.6-5.8c-4.7,0-9.3,1.3-13.6,3.9
		c-4.3,2.6-7.8,6.8-10.2,12.7c-2.5,5.9-3.7,12.5-3.7,19.9c0,11.9,2.9,21.2,8.7,27.9c5.8,6.7,12.5,10,20.1,10c8,0,17.6-3.2,28.9-9.5
		l3.5,5.8c-10,7.4-18.4,12.6-25,15.6c-3.2,1.4-7.1,2.1-11.7,2.1c-11.2,0-20.2-3.3-27.1-9.8c-9.1-8.6-13.7-20.3-13.7-35.1
		c0-15.3,4.8-27.8,14.4-37.7c9.6-9.8,21.4-14.8,35.5-14.8c9.6,0,18.8,2.5,27.7,7.4c-0.4,2.2-1.1,5-1.9,8.4
		C952.1,66.5,950.8,72.3,949.5,79.3z"/>
	<path class="st0" d="M978.6,76.1l-6.2-0.7c1.3-6.6,2.2-13.3,2.7-19.9c12.4-5.6,23.7-8.4,33.7-8.4c4.3,0,8.3,0.6,11.8,1.9
		c3.5,1.2,6.3,3,8.3,5.2c2,2.2,3.6,4.8,4.6,7.9c1.1,3.1,1.6,8,1.6,14.7l-0.9,39.6c0,5.4,0.6,8.9,1.8,10.5c1.2,1.7,2.8,2.5,4.7,2.5
		c2.3,0,5.9-1.7,10.8-5.2l3,3.9c-9,8.1-13.9,12.3-14.8,12.9c-1.8,1-4,1.5-6.7,1.5c-4.2,0-7.4-1-9.6-3.1c-2.3-2.1-3.8-5.6-4.6-10.5
		c-7.7,5.9-13.4,9.7-17.1,11.3c-3.7,1.6-7.7,2.4-12.1,2.4c-7.1,0-12.8-2.2-17.2-6.5c-4.3-4.3-6.5-9.8-6.5-16.5
		c0-4.1,0.8-7.8,2.3-11.1c1.5-3.3,3.7-6.2,6.6-8.7c2.2-1.9,6-4.1,11.3-6.7c12.5-6.1,23.3-11,32.6-14.7c-0.3-9-1.8-15-4.5-17.9
		c-2.7-2.9-6.8-4.4-12.3-4.4c-5.2,0-9.7,1.6-13.4,4.8C984.8,64.1,981.5,69.2,978.6,76.1z M1018.8,86.7
		c-16.7,7.5-26.8,12.9-30.3,16.4c-3.5,3.4-5.2,7.5-5.2,12.3c0,4.8,1.3,8.6,3.9,11.5c2.6,2.9,5.7,4.3,9.2,4.3c3.6,0,7.6-1.2,11.8-3.6
		c4.3-2.4,7.1-5.1,8.4-8.1c1.4-3,2.1-8.5,2.1-16.4V86.7z"/>
</g>
</svg>
