<?xml version="1.0" encoding="utf-8"?>
<!-- Generator: Adobe Illustrator 26.0.0, SVG Export Plug-In . SVG Version: 6.00 Build 0)  -->
<svg version="1.1" id="Capa_1" xmlns="http://www.w3.org/2000/svg" xmlns:xlink="http://www.w3.org/1999/xlink" x="0px" y="0px"
	 viewBox="0 0 52 52" style="enable-background:new 0 0 52 52;" xml:space="preserve">
<style type="text/css">
	.st0{fill:#FFFFFF;}
	.st1{fill:#1D4B52;}
	.st2{fill:none;stroke:#4D4D4D;stroke-width:2;stroke-miterlimit:10;}
</style>
<g>
	<polygon class="st0" points="11,46.5 11,5.5 33.3,5.5 41,13.2 41,46.5 	"/>
	<path d="M33.1,6l7.4,7.4V46h-29V6H33.1 M33.5,5h-23v42h31V13L33.5,5L33.5,5z"/>
</g>
<g>
	<circle class="st0" cx="19" cy="14" r="4"/>
	<path class="st1" d="M19,11c1.7,0,3,1.3,3,3s-1.3,3-3,3s-3-1.3-3-3S17.3,11,19,11 M19,9c-2.8,0-5,2.2-5,5s2.2,5,5,5s5-2.2,5-5
		S21.8,9,19,9L19,9z"/>
</g>
<g>
	<g>
		<line class="st2" x1="13.5" y1="22.5" x2="38.5" y2="22.5"/>
	</g>
	<g>
		<line class="st2" x1="13.5" y1="22.5" x2="38.5" y2="22.5"/>
	</g>
	<g>
		<line class="st2" x1="13.5" y1="25.5" x2="38.5" y2="25.5"/>
	</g>
	<g>
		<line class="st2" x1="13.5" y1="28.5" x2="38.5" y2="28.5"/>
	</g>
	<g>
		<line class="st2" x1="13.5" y1="31.5" x2="38.5" y2="31.5"/>
	</g>
	<g>
		<line class="st2" x1="13.5" y1="34.5" x2="38.5" y2="34.5"/>
	</g>
	<g>
		<line class="st2" x1="13.5" y1="37.5" x2="38.5" y2="37.5"/>
	</g>
	<g>
		<line class="st2" x1="13.5" y1="40.5" x2="38.5" y2="40.5"/>
	</g>
</g>
</svg>
