<?xml version="1.0" encoding="utf-8"?>
<!-- Generator: Adobe Illustrator 26.0.0, SVG Export Plug-In . SVG Version: 6.00 Build 0)  -->
<svg version="1.1" id="Capa_1" xmlns="http://www.w3.org/2000/svg" xmlns:xlink="http://www.w3.org/1999/xlink" x="0px" y="0px"
	 viewBox="0 0 305 90" style="enable-background:new 0 0 305 90;" xml:space="preserve">
<style type="text/css">
	.st0{fill:#EBEBEB;}
</style>
<g>
	<path class="st0" d="M0.2,1.6l7,78.1l31.2,8.6l31.4-8.7l7-78.1H0.2z M18.8,66.4l-1.3-15h9.6l0.7,7.7l10.7,2.9l0,0L49.1,59l1.1-12.4
		H38.4v0H17.1l-2.6-28.9h48l-0.9,9.6H24.9l0.9,9.8h34.9L58,66.4l-19.6,5.4v0.1L18.8,66.4z"/>
	<path class="st0" d="M176.9,1.6H104v72.9c0,7.7,6.2,13.9,13.9,13.9h59c7.7,0,13.9-6.2,13.9-13.9v-59C190.7,7.8,184.5,1.6,176.9,1.6
		z M135.1,81.4c-5.6,0-9-3.1-8.9-8.9V57.9c0-2.9,0.9-5.2,2.6-6.7c3.1-3,10.2-3.1,13.2,0c1.9,1.6,2.6,5,2.4,8.1h-6.4
		c0-1.2,0-3.1-0.7-3.8c-0.9-1.3-3.4-1.1-4.1,0.2c-0.4,0.7-0.6,1.8-0.6,3.2v12.7c0,2.7,0.9,4,2.8,4c0.9,0,1.5-0.3,2-0.9
		c0.6-0.7,0.7-2.4,0.7-3.6h6.4C144.8,77.2,141.2,81.5,135.1,81.4z M155.4,81.4L155.4,81.4c-6.2,0.1-8.9-4.3-8.8-10.3h6
		c-0.2,2.6,0.7,5,2.9,4.8c1,0,1.6-0.3,2-0.9c0.7-1.1,0.9-4.2-0.2-5.5c-0.7-1.2-3.4-2.2-4.8-2.9c-2-1-3.4-2.1-4.3-3.4
		c-2-2.9-1.8-9.3,1-11.9c2.7-3.2,9.8-3.3,12.5-0.1c1.7,1.7,2.4,5,2.3,8.1h-5.8c0-1.3-0.1-3.3-0.6-4c-0.3-0.6-1-0.9-1.9-0.9
		c-1.7,0-2.5,1-2.5,3c0,2.2,0.9,3,2.8,3.9c2.5,1,5.8,2.7,6.9,4.7C166.3,72.3,163.9,81.8,155.4,81.4z M174.9,81.4L174.9,81.4
		c-6.2,0.1-8.9-4.3-8.8-10.3h6c-0.2,2.6,0.7,5,2.9,4.8c1,0,1.6-0.3,2-0.9c0.7-1.1,0.9-4.2-0.2-5.5c-0.7-1.2-3.4-2.2-4.8-2.9
		c-2-1-3.4-2.1-4.3-3.4c-2-2.9-1.8-9.3,1-11.9c2.7-3.2,9.8-3.3,12.5-0.1c1.7,1.7,2.4,5,2.3,8.1h-5.8c0-1.3-0.1-3.3-0.6-4
		c-0.3-0.6-1-0.9-1.9-0.9c-1.7,0-2.5,1-2.5,3c0,2.2,0.9,3,2.8,3.9c2.5,1,5.8,2.7,6.9,4.7C185.8,72.3,183.4,81.8,174.9,81.4z"/>
	<path class="st0" d="M218,1.6v86.7h86.7V1.6H218z M265.3,69.3c0,8.4-4.9,12.3-12.2,12.3c-6.5,0-10.3-3.4-12.2-7.4l6.6-4
		c1.3,2.3,2.4,4.2,5.2,4.2c2.7,0,4.4-1,4.4-5.1V41.5h8.2V69.3z M284.5,81.6c-7.6,0-12.5-3.6-14.9-8.3l6.6-3.8c1.7,2.9,4,4.9,8,4.9
		c3.4,0,5.5-1.7,5.5-4c0-2.8-2.2-3.8-5.9-5.4l-2-0.9c-5.9-2.5-9.8-5.6-9.8-12.3c0-6.1,4.7-10.8,11.9-10.8c5.2,0,8.9,1.8,11.6,6.5
		l-6.3,4.1c-1.4-2.5-2.9-3.5-5.2-3.5c-2.4,0-3.9,1.5-3.9,3.5c0,2.4,1.5,3.4,5,4.9l2,0.9c6.9,3,10.8,6,10.8,12.8
		C298,77.6,292.3,81.6,284.5,81.6z"/>
</g>
</svg>
